<svg width="20" height="20" viewBox="0 0 20 20" fill="none" xmlns="http://www.w3.org/2000/svg">
<g clip-path="url(#clip0_2001_6449)">
<mask id="path-1-inside-1_2001_6449" fill="white">
<path d="M0 6.71425L7.93333 14.6368C8.48101 15.1819 9.22228 15.4879 9.995 15.4879C10.7677 15.4879 11.509 15.1819 12.0567 14.6368L20 6.70508L18.2325 4.94092L10.29 12.8718C10.2119 12.9499 10.1059 12.9937 9.99542 12.9937C9.88493 12.9937 9.77897 12.9499 9.70083 12.8718L1.7675 4.95008L0 6.71425Z"/>
</mask>
<path d="M0 6.71425L7.93333 14.6368C8.48101 15.1819 9.22228 15.4879 9.995 15.4879C10.7677 15.4879 11.509 15.1819 12.0567 14.6368L20 6.70508L18.2325 4.94092L10.29 12.8718C10.2119 12.9499 10.1059 12.9937 9.99542 12.9937C9.88493 12.9937 9.77897 12.9499 9.70083 12.8718L1.7675 4.95008L0 6.71425Z" fill="#374957"/>
<path d="M0 6.71425L-15.0707 -8.38492L-30.1945 6.71032L-15.0746 21.8095L0 6.71425ZM7.93333 14.6368L-7.1413 29.732L-7.12876 29.7445L-7.11619 29.757L7.93333 14.6368ZM12.0567 14.6368L27.1062 29.757L27.1184 29.7449L27.1305 29.7328L12.0567 14.6368ZM20 6.70508L35.0739 21.8011L50.1952 6.70193L35.0707 -8.39409L20 6.70508ZM18.2325 4.94092L33.3032 -10.1583L18.2293 -25.2037L3.15864 -10.1551L18.2325 4.94092ZM10.29 12.8718L-4.78386 -2.22428L-4.79267 -2.21547L10.29 12.8718ZM9.70083 12.8718L24.7835 -2.21547L24.7747 -2.22429L9.70083 12.8718ZM1.7675 4.95008L16.8413 -10.146L1.77064 -25.1945L-13.3032 -10.1491L1.7675 4.95008ZM-15.0746 21.8095L-7.1413 29.732L23.008 -0.458497L15.0746 -8.381L-15.0746 21.8095ZM-7.11619 29.757C-2.57067 34.2813 3.58164 36.8212 9.995 36.8212V-5.84544C14.8629 -5.84544 19.5327 -3.91756 22.9829 -0.483533L-7.11619 29.757ZM9.995 36.8212C16.4084 36.8212 22.5607 34.2813 27.1062 29.757L-2.99286 -0.483533C0.457315 -3.91756 5.12708 -5.84544 9.995 -5.84544V36.8212ZM27.1305 29.7328L35.0739 21.8011L4.92614 -8.39094L-3.01719 -0.459274L27.1305 29.7328ZM35.0707 -8.39409L33.3032 -10.1583L3.1618 20.0401L4.9293 21.8043L35.0707 -8.39409ZM3.15864 -10.1551L-4.78386 -2.22427L25.3639 27.9678L33.3064 20.0369L3.15864 -10.1551ZM-4.79267 -2.21547C-0.870202 -6.13675 4.44908 -8.33959 9.99542 -8.33959V34.3271C15.7627 34.3271 21.2939 32.0365 25.3727 27.959L-4.79267 -2.21547ZM9.99542 -8.33959C15.5417 -8.33959 20.861 -6.13678 24.7835 -2.21547L-5.38184 27.959C-1.30307 32.0365 4.22816 34.3271 9.99542 34.3271V-8.33959ZM24.7747 -2.22429L16.8413 -10.146L-13.3063 20.0461L-5.37301 27.9678L24.7747 -2.22429ZM-13.3032 -10.1491L-15.0707 -8.38492L15.0707 21.8134L16.8382 20.0493L-13.3032 -10.1491Z" fill="#404040" mask="url(#path-1-inside-1_2001_6449)"/>
</g>
<defs>
<clipPath id="clip0_2001_6449">
<rect width="20" height="20" fill="white"/>
</clipPath>
</defs>
</svg>
