<svg width="18" height="18" viewBox="0 0 18 18" fill="none" xmlns="http://www.w3.org/2000/svg">
<g clip-path="url(#clip0_758_10443)">
<path d="M14.276 6.82757L13.6553 5.27585L14.276 3.72412C15.133 3.72412 15.8277 4.41885 15.8277 5.27585C15.8277 5.68739 15.6642 6.08208 15.3732 6.37308C15.0822 6.66408 14.6875 6.82757 14.276 6.82757Z" fill="#AAACAE"/>
<path d="M3.72409 6.82757L4.34478 5.27585L3.72409 3.72412C2.86709 3.72412 2.17236 4.41885 2.17236 5.27585C2.17236 6.13284 2.86709 6.82757 3.72409 6.82757Z" fill="#AAACAE"/>
<path d="M10.6825 15.7996L10.4839 16.7834C10.3429 17.4909 9.72185 18.0003 9.00043 18.0003C8.279 18.0003 7.65798 17.4909 7.51698 16.7834L7.31836 15.7996H10.6825Z" fill="#404040"/>
<path d="M3.72429 12.3552V15.5173C3.36584 15.2146 2.84136 15.2146 2.48291 15.5173V12.0321C2.62992 12.2286 2.85834 12.3475 3.1036 12.3552H3.72429Z" fill="#404040"/>
<path d="M15.5173 12.0321V15.5173C15.1588 15.2146 14.6343 15.2146 14.2759 15.5173V12.3552H14.8966C15.1418 12.3475 15.3702 12.2286 15.5173 12.0321Z" fill="#404040"/>
<path d="M7.44826 0H10.5517C12.6085 0 14.2758 1.66735 14.2758 3.72414V7.44827C14.2758 8.47667 13.4422 9.31034 12.4138 9.31034H5.58619C4.5578 9.31034 3.72412 8.47667 3.72412 7.44827V3.72414C3.72412 1.66735 5.39147 0 7.44826 0Z" fill="#AAACAE"/>
<path d="M10.8624 2.79309H7.13823C5.93844 2.79309 4.96582 3.76571 4.96582 4.9655V5.58619C4.96582 6.78598 5.93844 7.75861 7.13823 7.75861H10.8624C12.0622 7.75861 13.0348 6.78598 13.0348 5.58619V4.9655C13.0348 3.76571 12.0622 2.79309 10.8624 2.79309Z" fill="#404040"/>
<path d="M8.0689 5.89657C7.8975 5.89657 7.75855 5.75763 7.75855 5.58623C7.75855 5.24343 7.48066 4.96554 7.13786 4.96554C6.79507 4.96554 6.51717 5.24343 6.51717 5.58623C6.51717 5.75763 6.37823 5.89657 6.20683 5.89657C6.03543 5.89657 5.89648 5.75763 5.89648 5.58623C5.89648 4.90063 6.45227 4.34485 7.13786 4.34485C7.82346 4.34485 8.37924 4.90063 8.37924 5.58623C8.37924 5.75763 8.2403 5.89657 8.0689 5.89657Z" fill="white"/>
<path d="M11.7935 5.89657C11.6221 5.89657 11.4832 5.75763 11.4832 5.58623C11.4832 5.24343 11.2053 4.96554 10.8625 4.96554C10.5197 4.96554 10.2418 5.24343 10.2418 5.58623C10.2418 5.75763 10.1028 5.89657 9.93144 5.89657C9.76004 5.89657 9.62109 5.75763 9.62109 5.58623C9.62109 4.90063 10.1769 4.34485 10.8625 4.34485C11.5481 4.34485 12.1039 4.90063 12.1039 5.58623C12.1039 5.75763 11.9649 5.89657 11.7935 5.89657Z" fill="white"/>
<path d="M5.84391 14.7756C5.30088 14.2037 4.92424 13.4944 4.7546 12.7242C4.68839 12.4183 4.6551 12.1062 4.65529 11.7932V11.1725C4.65373 10.8452 4.74058 10.5235 4.90667 10.2415C5.23825 9.66522 5.85253 9.31015 6.51736 9.31042H11.4829C12.1477 9.31015 12.762 9.66522 13.0936 10.2415C13.2597 10.5235 13.3465 10.8452 13.3449 11.1725V11.7932C13.3451 12.1062 13.3119 12.4183 13.2456 12.7242C13.076 13.4944 12.6994 14.2037 12.1563 14.7756" fill="#AAACAE"/>
<path d="M12.1562 14.7755C11.3371 15.6459 10.1951 16.1394 8.99996 16.1394C7.80484 16.1394 6.66278 15.6459 5.84375 14.7755C6.85778 14.4228 7.92656 14.2536 8.99996 14.2759C10.0734 14.2536 11.1421 14.4228 12.1562 14.7755Z" fill="#AAACAE"/>
<path d="M8.56553 12.5268L7.89425 11.7621C7.7538 11.6018 7.72021 11.3741 7.80839 11.1801C7.89656 10.9861 8.09017 10.8617 8.30329 10.8621H9.69673C9.90985 10.8617 10.1035 10.9861 10.1916 11.1801C10.2798 11.3741 10.2462 11.6018 10.1058 11.7621L9.43449 12.5268C9.32461 12.6516 9.16633 12.7231 9.00001 12.7231C8.83369 12.7231 8.67541 12.6516 8.56553 12.5268Z" fill="#404040"/>
<path d="M4.65512 11.7931C4.65493 12.1061 4.68822 12.4182 4.75443 12.7241H3.1034C2.58998 12.7222 2.17424 12.3065 2.17236 11.7931V11.4827C2.17236 10.7971 2.72815 10.2413 3.41374 10.2413H4.9065C4.74041 10.5234 4.65356 10.845 4.65512 11.1724V11.7931Z" fill="#AAACAE"/>
<path d="M4.34495 16.1379C4.34634 16.7016 3.96864 17.1959 3.42435 17.3426C2.88007 17.4893 2.30514 17.2518 2.02303 16.7638C1.74093 16.2757 1.82211 15.659 2.22089 15.2606C2.61968 14.8622 3.23648 14.7816 3.72426 15.0641C4.10795 15.2857 4.34449 15.6949 4.34495 16.1379Z" fill="#AAACAE"/>
<path d="M15.8279 11.4827V11.7931C15.826 12.3065 15.4103 12.7222 14.8969 12.7241H13.2458C13.312 12.4182 13.3453 12.1061 13.3451 11.7931V11.1724C13.3467 10.845 13.2598 10.5234 13.0938 10.2413H14.5865C15.2721 10.2413 15.8279 10.7971 15.8279 11.4827Z" fill="#AAACAE"/>
<path d="M16.1379 16.1379C16.1393 16.7016 15.7616 17.1959 15.2173 17.3426C14.673 17.4893 14.0981 17.2518 13.816 16.7638C13.5339 16.2757 13.6151 15.659 14.0139 15.2606C14.4126 14.8622 15.0294 14.7816 15.5172 15.0641C15.9009 15.2857 16.1375 15.6949 16.1379 16.1379Z" fill="#AAACAE"/>
<path d="M10.8622 8.06887H7.13803C5.76748 8.06733 4.65681 6.95667 4.65527 5.58611V4.96542C4.65681 3.59487 5.76748 2.48421 7.13803 2.48267H10.8622C12.2327 2.48421 13.3434 3.59487 13.3449 4.96542V5.58611C13.3434 6.95667 12.2327 8.06733 10.8622 8.06887ZM7.13803 3.10336C6.11006 3.10438 5.27699 3.93746 5.27596 4.96542V5.58611C5.27699 6.61408 6.11006 7.44716 7.13803 7.44818H10.8622C11.8901 7.44716 12.7232 6.61408 12.7242 5.58611V4.96542C12.7232 3.93746 11.8901 3.10438 10.8622 3.10336H7.13803Z" fill="#EBEFF0"/>
</g>
<defs>
<clipPath id="clip0_758_10443">
<rect width="18" height="18" fill="white"/>
</clipPath>
</defs>
</svg>
