<svg width="1119" height="615" viewBox="0 0 1119 615" fill="none" xmlns="http://www.w3.org/2000/svg">
<path d="M917.842 3.12891V7.91798" stroke="#404040" stroke-width="1.19727" stroke-linecap="round" stroke-linejoin="round"/>
<path d="M910.659 10.3125H915.448" stroke="#404040" stroke-width="1.19727" stroke-linecap="round" stroke-linejoin="round"/>
<path d="M925.026 10.3125H920.237" stroke="#404040" stroke-width="1.19727" stroke-linecap="round" stroke-linejoin="round"/>
<path d="M917.842 17.4963V12.3081" stroke="#404040" stroke-width="1.19727" stroke-linecap="round" stroke-linejoin="round"/>
<path d="M915.448 5.52345L916.809 3.96559C917.296 3.4078 917.54 3.12891 917.843 3.12891C918.145 3.12891 918.389 3.4078 918.876 3.96559L920.237 5.52345" stroke="#404040" stroke-width="1.19727" stroke-linecap="round" stroke-linejoin="round"/>
<path d="M920.237 15.1016L918.876 16.6594C918.389 17.2172 918.145 17.4961 917.843 17.4961C917.54 17.4961 917.296 17.2172 916.809 16.6594L915.448 15.1016" stroke="#404040" stroke-width="1.19727" stroke-linecap="round" stroke-linejoin="round"/>
<path d="M922.631 7.91797L924.189 9.27886C924.747 9.76615 925.026 10.0098 925.026 10.3125C925.026 10.6153 924.747 10.8589 924.189 11.3462L922.631 12.707" stroke="#404040" stroke-width="1.19727" stroke-linecap="round" stroke-linejoin="round"/>
<path d="M913.053 12.707L911.495 11.3462C910.938 10.8589 910.659 10.6153 910.659 10.3125C910.659 10.0098 910.938 9.76615 911.495 9.27886L913.053 7.91797" stroke="#404040" stroke-width="1.19727" stroke-linecap="round" stroke-linejoin="round"/>
<path d="M962.062 16.219L964.137 18.2943M963.099 12.5873C963.099 10.0085 961.009 7.91797 958.43 7.91797C955.851 7.91797 953.76 10.0085 953.76 12.5873C953.76 15.1662 955.851 17.2567 958.43 17.2567C961.009 17.2567 963.099 15.1662 963.099 12.5873Z" stroke="#404040" stroke-width="1.19727" stroke-linecap="round" stroke-linejoin="round"/>
<path d="M948.173 5.52329C948.277 4.45732 948.513 3.74039 949.048 3.20557C949.583 2.67075 950.3 2.43473 951.366 2.33057M951.366 18.2942C950.3 18.19 949.583 17.954 949.048 17.4191C948.513 16.8843 948.277 16.1674 948.173 15.1014M964.137 5.52329C964.033 4.45732 963.797 3.74039 963.262 3.20557C962.727 2.67075 962.01 2.43473 960.944 2.33057M948.173 8.716V11.9087M957.751 2.33057H954.559" stroke="#404040" stroke-width="1.19727" stroke-linecap="round"/>
<path d="M988.082 8.71616C987.692 8.68654 987.419 8.61984 987.196 8.46966C987.021 8.3527 986.872 8.20241 986.755 8.02736C986.486 7.62302 986.486 7.06013 986.486 5.93437C986.486 4.80861 986.486 4.24573 986.755 3.84139C986.872 3.66634 987.021 3.51604 987.196 3.39908C987.598 3.12891 988.159 3.12891 989.28 3.12891H999.656C1000.78 3.12891 1001.34 3.12891 1001.74 3.39908C1001.91 3.51604 1002.06 3.66634 1002.18 3.84139C1002.45 4.24573 1002.45 4.80861 1002.45 5.93437C1002.45 6.96221 1002.45 7.52083 1002.24 7.91798" stroke="#404040" stroke-width="1.19727" stroke-linecap="round"/>
<path d="M999.416 15.2614L1001.65 17.4963M1000.53 11.3503C1000.53 8.5731 998.282 6.32178 995.505 6.32178C992.727 6.32178 990.476 8.5731 990.476 11.3503C990.476 14.1275 992.727 16.3788 995.505 16.3788C998.282 16.3788 1000.53 14.1275 1000.53 11.3503Z" stroke="#404040" stroke-width="1.19727" stroke-linecap="round" stroke-linejoin="round"/>
<path d="M1032.78 18.2946C1029.39 18.2946 1027.7 18.2946 1026.65 17.1257C1025.6 15.9569 1025.6 14.0755 1025.6 10.3129C1025.6 6.5502 1025.6 4.66887 1026.65 3.49996C1027.7 2.33105 1029.39 2.33105 1032.78 2.33105C1036.17 2.33105 1037.86 2.33105 1038.91 3.49996C1039.96 4.66887 1039.96 6.55019 1039.96 10.3129C1039.96 14.0755 1039.96 15.9569 1038.91 17.1257C1037.86 18.2946 1036.17 18.2946 1032.78 18.2946Z" stroke="#404040" stroke-width="1.19727" stroke-linecap="round" stroke-linejoin="round"/>
<path d="M1029.59 2.72998V8.57761C1029.59 9.57301 1029.59 10.0708 1029.9 10.2489C1030.49 10.5939 1031.61 9.44291 1032.15 9.09634C1032.45 8.89536 1032.61 8.79487 1032.78 8.79487C1032.95 8.79487 1033.11 8.89536 1033.41 9.09634C1033.95 9.44291 1035.07 10.5939 1035.66 10.2489C1035.97 10.0708 1035.97 9.57301 1035.97 8.57761V2.72998" stroke="#404040" stroke-width="1.19727" stroke-linecap="round" stroke-linejoin="round"/>
<path d="M1077.48 9.51418L1079.08 10.3124C1079.08 5.90414 1075.5 2.33057 1071.09 2.33057C1067.82 2.33057 1065.01 4.30063 1063.78 7.11964M1064.71 11.1105L1063.11 10.3124C1063.11 14.7206 1066.69 18.2942 1071.09 18.2942C1074.37 18.2942 1077.18 16.3241 1078.41 13.5051" stroke="#404040" stroke-width="1.19727" stroke-linecap="round" stroke-linejoin="round"/>
<path d="M1109.41 18.2942C1113.81 18.2942 1117.39 14.7206 1117.39 10.3124C1117.39 5.90414 1113.81 2.33057 1109.41 2.33057C1105 2.33057 1101.42 5.90414 1101.42 10.3124C1101.42 14.7206 1105 18.2942 1109.41 18.2942Z" stroke="#404040" stroke-width="1.19727"/>
<path d="M1107.81 7.91814C1107.81 7.03649 1108.52 6.32178 1109.41 6.32178C1110.29 6.32178 1111 7.03649 1111 7.91814C1111 8.23593 1110.91 8.53204 1110.75 8.78081C1110.27 9.52224 1109.41 10.2292 1109.41 11.1109V11.5099" stroke="#404040" stroke-width="1.19727" stroke-linecap="round"/>
<path d="M1109.4 14.3032H1109.41" stroke="#404040" stroke-width="1.19727" stroke-linecap="round" stroke-linejoin="round"/>
<path d="M3.91974 2.33057V4.83062C3.91974 5.06517 4.21299 5.17135 4.36313 4.99116C5.82467 3.35822 7.94855 2.33057 10.3125 2.33057C14.7207 2.33057 18.2943 5.90414 18.2943 10.3124C18.2943 14.7206 14.7207 18.2942 10.3125 18.2942C5.90433 18.2942 2.33072 14.7206 2.33072 10.3124" stroke="#404040" stroke-width="1.19727" stroke-linecap="round" stroke-linejoin="round"/>
<path d="M55.0174 2.33057V4.83062C55.0174 5.06517 54.7241 5.17135 54.574 4.99116C53.1125 3.35822 50.9886 2.33057 48.6246 2.33057C44.2164 2.33057 40.6428 5.90414 40.6428 10.3124C40.6428 14.7206 44.2164 18.2942 48.6246 18.2942C53.0328 18.2942 56.6064 14.7206 56.6064 10.3124" stroke="#404040" stroke-width="1.19727" stroke-linecap="round" stroke-linejoin="round"/>
<ellipse cx="620.027" cy="525.138" rx="89.7952" ry="89.7952" fill="#003F59"/>
<path d="M589.728 520.715V525.621H594.238C595.976 525.621 596.922 524.763 596.922 523.113C596.922 521.111 595.624 520.715 594.194 520.715H589.728ZM586.978 534.179V518.471H594.48C597.912 518.471 599.672 520.055 599.672 522.717C599.672 525.731 597.582 526.501 597.076 526.677V526.721C598.022 526.853 599.408 527.557 599.408 530.043C599.408 531.869 599.672 533.541 600.266 534.179H597.318C596.9 533.497 596.9 532.639 596.9 531.869C596.9 528.987 596.306 527.711 593.776 527.711H589.728V534.179H586.978ZM612.435 529.141H604.075C604.075 530.923 605.043 532.507 607.133 532.507C608.585 532.507 609.465 531.869 609.905 530.615H612.281C611.731 533.101 609.619 534.487 607.133 534.487C603.569 534.487 601.567 532.001 601.567 528.503C601.567 525.269 603.679 522.497 607.067 522.497C610.653 522.497 612.853 525.731 612.435 529.141ZM604.075 527.491H609.927C609.839 525.907 608.761 524.477 607.067 524.477C605.329 524.477 604.141 525.797 604.075 527.491ZM614.341 534.179V522.805H616.717V524.477L616.761 524.521C617.509 523.267 618.807 522.497 620.303 522.497C622.767 522.497 624.329 523.817 624.329 526.369V534.179H621.821V527.029C621.777 525.247 621.073 524.477 619.599 524.477C617.927 524.477 616.849 525.797 616.849 527.469V534.179H614.341ZM637.292 529.141H628.932C628.932 530.923 629.9 532.507 631.99 532.507C633.442 532.507 634.322 531.869 634.762 530.615H637.138C636.588 533.101 634.476 534.487 631.99 534.487C628.426 534.487 626.424 532.001 626.424 528.503C626.424 525.269 628.536 522.497 631.924 522.497C635.51 522.497 637.71 525.731 637.292 529.141ZM628.932 527.491H634.784C634.696 525.907 633.618 524.477 631.924 524.477C630.186 524.477 628.998 525.797 628.932 527.491ZM641.685 534.179L638.165 522.805H640.827L643.049 531.297H643.093L645.227 522.805H647.757L649.803 531.297H649.847L652.157 522.805H654.709L651.145 534.179H648.571L646.459 525.731H646.415L644.325 534.179H641.685Z" fill="white"/>
<path d="M708.858 530.416C708.466 530.949 708.581 531.699 709.114 532.09L717.798 538.469C718.331 538.86 719.081 538.746 719.472 538.213C719.863 537.68 719.749 536.93 719.216 536.539L711.496 530.869L717.166 523.149C717.558 522.616 717.443 521.867 716.91 521.476C716.377 521.084 715.628 521.199 715.236 521.732L708.858 530.416ZM944.306 494.024L941.96 494.383L942.322 496.75L944.668 496.391L944.306 494.024ZM937.266 495.101L932.573 495.819L932.935 498.186L937.629 497.468L937.266 495.101ZM927.88 496.538L923.186 497.256L923.549 499.623L928.242 498.905L927.88 496.538ZM918.493 497.975L913.8 498.693L914.162 501.06L918.855 500.342L918.493 497.975ZM909.106 499.411L904.413 500.13L904.775 502.497L909.469 501.778L909.106 499.411ZM899.72 500.848L895.027 501.566L895.389 503.933L900.082 503.215L899.72 500.848ZM890.333 502.285L885.64 503.003L886.002 505.37L890.696 504.652L890.333 502.285ZM880.947 503.721L876.253 504.44L876.616 506.807L881.309 506.088L880.947 503.721ZM871.56 505.158L866.867 505.877L867.229 508.243L871.922 507.525L871.56 505.158ZM862.173 506.595L857.48 507.313L857.842 509.68L862.536 508.962L862.173 506.595ZM852.787 508.032L848.094 508.75L848.456 511.117L853.149 510.399L852.787 508.032ZM843.4 509.468L838.707 510.187L839.069 512.554L843.763 511.835L843.4 509.468ZM834.014 510.905L829.32 511.623L829.683 513.99L834.376 513.272L834.014 510.905ZM824.627 512.342L819.934 513.06L820.296 515.427L824.989 514.709L824.627 512.342ZM815.241 513.778L810.547 514.497L810.91 516.864L815.603 516.145L815.241 513.778ZM805.854 515.215L801.161 515.934L801.523 518.301L806.216 517.582L805.854 515.215ZM796.467 516.652L791.774 517.37L792.136 519.737L796.83 519.019L796.467 516.652ZM787.081 518.089L782.387 518.807L782.75 521.174L787.443 520.456L787.081 518.089ZM777.694 519.525L773.001 520.244L773.363 522.611L778.056 521.892L777.694 519.525ZM768.308 520.962L763.614 521.68L763.977 524.047L768.67 523.329L768.308 520.962ZM758.921 522.399L754.228 523.117L754.59 525.484L759.283 524.766L758.921 522.399ZM749.534 523.836L744.841 524.554L745.203 526.921L749.897 526.203L749.534 523.836ZM740.148 525.272L735.454 525.991L735.817 528.358L740.51 527.639L740.148 525.272ZM730.761 526.709L726.068 527.427L726.43 529.794L731.123 529.076L730.761 526.709ZM721.375 528.146L716.681 528.864L717.044 531.231L721.737 530.513L721.375 528.146ZM711.988 529.582L709.641 529.942L710.004 532.309L712.35 531.949L711.988 529.582ZM708.858 530.416C708.466 530.949 708.581 531.699 709.114 532.09L717.798 538.469C718.331 538.86 719.081 538.746 719.472 538.213C719.863 537.68 719.749 536.93 719.216 536.539L711.496 530.869L717.166 523.149C717.558 522.616 717.443 521.867 716.91 521.476C716.377 521.084 715.628 521.199 715.236 521.732L708.858 530.416ZM944.306 494.024L941.96 494.383L942.322 496.75L944.668 496.391L944.306 494.024ZM937.266 495.101L932.573 495.819L932.935 498.186L937.629 497.468L937.266 495.101ZM927.88 496.538L923.186 497.256L923.549 499.623L928.242 498.905L927.88 496.538ZM918.493 497.975L913.8 498.693L914.162 501.06L918.855 500.342L918.493 497.975ZM909.106 499.411L904.413 500.13L904.775 502.497L909.469 501.778L909.106 499.411ZM899.72 500.848L895.027 501.566L895.389 503.933L900.082 503.215L899.72 500.848ZM890.333 502.285L885.64 503.003L886.002 505.37L890.696 504.652L890.333 502.285ZM880.947 503.721L876.253 504.44L876.616 506.807L881.309 506.088L880.947 503.721ZM871.56 505.158L866.867 505.877L867.229 508.243L871.922 507.525L871.56 505.158ZM862.173 506.595L857.48 507.313L857.842 509.68L862.536 508.962L862.173 506.595ZM852.787 508.032L848.094 508.75L848.456 511.117L853.149 510.399L852.787 508.032ZM843.4 509.468L838.707 510.187L839.069 512.554L843.763 511.835L843.4 509.468ZM834.014 510.905L829.32 511.623L829.683 513.99L834.376 513.272L834.014 510.905ZM824.627 512.342L819.934 513.06L820.296 515.427L824.989 514.709L824.627 512.342ZM815.241 513.778L810.547 514.497L810.91 516.864L815.603 516.145L815.241 513.778ZM805.854 515.215L801.161 515.934L801.523 518.301L806.216 517.582L805.854 515.215ZM796.467 516.652L791.774 517.37L792.136 519.737L796.83 519.019L796.467 516.652ZM787.081 518.089L782.387 518.807L782.75 521.174L787.443 520.456L787.081 518.089ZM777.694 519.525L773.001 520.244L773.363 522.611L778.056 521.892L777.694 519.525ZM768.308 520.962L763.614 521.68L763.977 524.047L768.67 523.329L768.308 520.962ZM758.921 522.399L754.228 523.117L754.59 525.484L759.283 524.766L758.921 522.399ZM749.534 523.836L744.841 524.554L745.203 526.921L749.897 526.203L749.534 523.836ZM740.148 525.272L735.454 525.991L735.817 528.358L740.51 527.639L740.148 525.272ZM730.761 526.709L726.068 527.427L726.43 529.794L731.123 529.076L730.761 526.709ZM721.375 528.146L716.681 528.864L717.044 531.231L721.737 530.513L721.375 528.146ZM711.988 529.582L709.641 529.942L710.004 532.309L712.35 531.949L711.988 529.582Z" fill="#AAACAE"/>
<path d="M653.633 441.765C653.874 442.381 654.568 442.685 655.184 442.445L665.22 438.521C665.836 438.28 666.14 437.586 665.899 436.97C665.658 436.354 664.964 436.05 664.348 436.291L655.427 439.778L651.94 430.858C651.699 430.242 651.005 429.938 650.389 430.179C649.773 430.419 649.469 431.114 649.71 431.73L653.633 441.765ZM779.903 152.52L653.651 440.849L655.845 441.81L782.097 153.48L779.903 152.52Z" fill="#AAACAE"/>
<path d="M633.582 76.7466C633.096 77.1956 633.067 77.9531 633.516 78.4385L640.833 86.3487C641.282 86.8341 642.039 86.8636 642.525 86.4146C643.01 85.9656 643.04 85.2081 642.591 84.7227L636.087 77.6914L643.118 71.1874C643.603 70.7384 643.633 69.9809 643.184 69.4955C642.735 69.0101 641.977 68.9806 641.492 69.4296L633.582 76.7466ZM726.631 80.0209L724.326 79.9311L724.233 82.3239L726.538 82.4136L726.631 80.0209ZM719.717 79.7515L715.107 79.5719L715.014 81.9647L719.624 82.1443L719.717 79.7515ZM710.498 79.3924L705.888 79.2128L705.795 81.6055L710.405 81.7851L710.498 79.3924ZM701.279 79.0332L696.669 78.8536L696.576 81.2463L701.186 81.4259L701.279 79.0332ZM692.06 78.674L687.45 78.4944L687.357 80.8871L691.967 81.0667L692.06 78.674ZM682.841 78.3148L678.231 78.1352L678.138 80.5279L682.748 80.7075L682.841 78.3148ZM673.622 77.9556L669.013 77.776L668.919 80.1688L673.529 80.3484L673.622 77.9556ZM664.403 77.5965L659.794 77.4169L659.7 79.8096L664.31 79.9892L664.403 77.5965ZM655.184 77.2373L650.575 77.0577L650.481 79.4504L655.091 79.63L655.184 77.2373ZM645.965 76.8781L641.356 76.6985L641.262 79.0912L645.872 79.2708L645.965 76.8781ZM636.746 76.5189L634.441 76.4291L634.348 78.8218L636.653 78.9116L636.746 76.5189ZM633.582 76.7466C633.096 77.1956 633.067 77.9531 633.516 78.4385L640.833 86.3487C641.282 86.8341 642.039 86.8636 642.525 86.4146C643.01 85.9656 643.04 85.2081 642.591 84.7227L636.087 77.6914L643.118 71.1874C643.603 70.7384 643.633 69.9809 643.184 69.4955C642.735 69.0101 641.977 68.9806 641.492 69.4296L633.582 76.7466ZM726.631 80.0209L724.326 79.9311L724.233 82.3239L726.538 82.4136L726.631 80.0209ZM719.717 79.7515L715.107 79.5719L715.014 81.9647L719.624 82.1443L719.717 79.7515ZM710.498 79.3924L705.888 79.2128L705.795 81.6055L710.405 81.7851L710.498 79.3924ZM701.279 79.0332L696.669 78.8536L696.576 81.2463L701.186 81.4259L701.279 79.0332ZM692.06 78.674L687.45 78.4944L687.357 80.8871L691.967 81.0667L692.06 78.674ZM682.841 78.3148L678.231 78.1352L678.138 80.5279L682.748 80.7075L682.841 78.3148ZM673.622 77.9556L669.013 77.776L668.919 80.1688L673.529 80.3484L673.622 77.9556ZM664.403 77.5965L659.794 77.4169L659.7 79.8096L664.31 79.9892L664.403 77.5965ZM655.184 77.2373L650.575 77.0577L650.481 79.4504L655.091 79.63L655.184 77.2373ZM645.965 76.8781L641.356 76.6985L641.262 79.0912L645.872 79.2708L645.965 76.8781ZM636.746 76.5189L634.441 76.4291L634.348 78.8218L636.653 78.9116L636.746 76.5189Z" fill="#AAACAE"/>
<path d="M691.877 469.886C691.778 470.54 692.229 471.149 692.882 471.248L703.538 472.854C704.191 472.952 704.801 472.502 704.9 471.848C704.998 471.194 704.548 470.584 703.894 470.486L694.423 469.059L695.85 459.587C695.949 458.933 695.499 458.324 694.845 458.225C694.191 458.126 693.581 458.577 693.482 459.231L691.877 469.886ZM943.776 283.524L692.35 469.101L693.772 471.027L945.198 285.451L943.776 283.524Z" fill="#AAACAE"/>
<path d="M600.13 436.283C600.649 436.693 601.402 436.604 601.811 436.084L608.483 427.623C608.892 427.104 608.803 426.351 608.284 425.942C607.765 425.532 607.012 425.621 606.603 426.14L600.672 433.662L593.151 427.731C592.632 427.322 591.879 427.411 591.469 427.93C591.06 428.449 591.149 429.202 591.668 429.611L600.13 436.283ZM563.811 132.141L599.682 435.484L602.06 435.203L566.189 131.859L563.811 132.141Z" fill="#AAACAE"/>
<path d="M333.412 304.745C334.02 305.004 334.723 304.72 334.982 304.112L339.195 294.194C339.454 293.585 339.17 292.883 338.562 292.624C337.953 292.365 337.25 292.649 336.991 293.258L333.246 302.073L324.431 298.328C323.822 298.07 323.119 298.353 322.861 298.962C322.602 299.571 322.886 300.274 323.494 300.532L333.412 304.745ZM280.09 173.589L332.77 304.092L334.99 303.195L282.31 172.693L280.09 173.589Z" fill="#AAACAE"/>
<path d="M289.868 358.683C290.51 358.525 290.902 357.876 290.743 357.234L288.16 346.772C288.002 346.131 287.353 345.739 286.711 345.897C286.069 346.056 285.677 346.705 285.836 347.346L288.132 356.645L278.833 358.941C278.191 359.1 277.799 359.749 277.957 360.391C278.116 361.033 278.765 361.425 279.407 361.266L289.868 358.683ZM168.038 285.512L288.962 358.546L290.2 356.496L169.276 283.462L168.038 285.512Z" fill="#AAACAE"/>
<path d="M541.24 484.409C541.889 484.28 542.31 483.65 542.182 483.002L540.089 472.431C539.96 471.783 539.33 471.361 538.682 471.49C538.033 471.618 537.611 472.248 537.74 472.897L539.6 482.292L530.205 484.153C529.556 484.281 529.134 484.911 529.263 485.56C529.391 486.208 530.021 486.63 530.67 486.502L541.24 484.409ZM395.472 387.25L540.341 484.229L541.674 482.239L396.804 385.26L395.472 387.25Z" fill="#003F59"/>
<path d="M1074.39 478.445C1074.39 515.805 1044.1 546.091 1006.75 546.091C969.385 546.091 939.099 515.805 939.099 478.445C939.099 441.085 969.385 410.799 1006.75 410.799C1044.1 410.799 1074.39 441.085 1074.39 478.445Z" fill="#EEF7E8" stroke="#78BF45" stroke-width="1.19727"/>
<path d="M983.396 446.551H981.396C981.06 445.239 980.212 444.279 978.548 444.279C976.1 444.279 975.076 446.439 975.076 448.631C975.076 450.823 976.1 452.983 978.548 452.983C980.324 452.983 981.3 451.655 981.46 449.991H983.412C983.252 452.727 981.316 454.615 978.548 454.615C975.124 454.615 973.076 451.895 973.076 448.631C973.076 445.367 975.124 442.647 978.548 442.647C981.124 442.663 983.156 444.087 983.396 446.551ZM988.767 453.127C990.399 453.127 991.119 451.639 991.119 450.199C991.119 448.775 990.399 447.287 988.767 447.287C987.135 447.287 986.415 448.775 986.415 450.199C986.415 451.639 987.135 453.127 988.767 453.127ZM988.767 454.567C986.111 454.567 984.591 452.743 984.591 450.199C984.591 447.671 986.111 445.847 988.767 445.847C991.423 445.847 992.943 447.671 992.943 450.199C992.943 452.743 991.423 454.567 988.767 454.567ZM994.459 454.343V446.071H996.187V447.287L996.219 447.319C996.763 446.407 997.707 445.847 998.795 445.847C1000.59 445.847 1001.72 446.807 1001.72 448.663V454.343H999.899V449.143C999.867 447.847 999.355 447.287 998.283 447.287C997.067 447.287 996.283 448.247 996.283 449.463V454.343H994.459ZM1002.81 447.431V446.071H1004.19V443.591H1006.01V446.071H1007.66V447.431H1006.01V451.847C1006.01 452.599 1006.08 452.983 1006.89 452.983C1007.15 452.983 1007.41 452.983 1007.66 452.919V454.327C1007.26 454.359 1006.88 454.423 1006.48 454.423C1004.57 454.423 1004.22 453.687 1004.19 452.311V447.431H1002.81ZM1008.97 454.343V446.071H1010.69V447.671H1010.72C1010.93 446.791 1012.01 445.847 1013.13 445.847C1013.55 445.847 1013.66 445.879 1013.82 445.895V447.655C1013.57 447.623 1013.29 447.575 1013.04 447.575C1011.79 447.575 1010.8 448.583 1010.8 450.407V454.343H1008.97ZM1019.7 451.559V450.199C1019.14 450.567 1018.26 450.551 1017.46 450.695C1016.68 450.823 1015.98 451.111 1015.98 452.071C1015.98 452.887 1017.02 453.127 1017.66 453.127C1018.46 453.127 1019.7 452.711 1019.7 451.559ZM1021.53 448.247V452.503C1021.53 452.951 1021.62 453.127 1021.96 453.127C1022.07 453.127 1022.22 453.127 1022.41 453.095V454.359C1022.14 454.455 1021.56 454.567 1021.26 454.567C1020.52 454.567 1019.99 454.311 1019.85 453.559C1019.13 454.263 1017.96 454.567 1016.98 454.567C1015.5 454.567 1014.15 453.767 1014.15 452.151C1014.15 450.087 1015.8 449.751 1017.34 449.575C1018.65 449.335 1019.82 449.479 1019.82 448.407C1019.82 447.463 1018.84 447.287 1018.1 447.287C1017.08 447.287 1016.36 447.703 1016.28 448.599H1014.46C1014.58 446.471 1016.39 445.847 1018.22 445.847C1019.83 445.847 1021.53 446.503 1021.53 448.247ZM1023.04 451.687H1024.87C1024.96 452.743 1025.76 453.127 1026.74 453.127C1027.43 453.127 1028.63 452.983 1028.58 452.039C1028.53 451.079 1027.2 450.967 1025.87 450.663C1024.53 450.375 1023.22 449.895 1023.22 448.215C1023.22 446.407 1025.17 445.847 1026.67 445.847C1028.37 445.847 1029.91 446.551 1030.13 448.391H1028.23C1028.07 447.527 1027.35 447.287 1026.55 447.287C1026.02 447.287 1025.04 447.415 1025.04 448.135C1025.04 449.031 1026.39 449.159 1027.73 449.463C1029.06 449.767 1030.4 450.247 1030.4 451.879C1030.4 453.847 1028.42 454.567 1026.71 454.567C1024.63 454.567 1023.07 453.639 1023.04 451.687ZM1030.96 447.431V446.071H1032.33V443.591H1034.16V446.071H1035.8V447.431H1034.16V451.847C1034.16 452.599 1034.22 452.983 1035.04 452.983C1035.29 452.983 1035.55 452.983 1035.8 452.919V454.327C1035.4 454.359 1035.02 454.423 1034.62 454.423C1032.72 454.423 1032.36 453.687 1032.33 452.311V447.431H1030.96ZM979.084 470.551H977.084C976.748 469.239 975.9 468.279 974.236 468.279C971.788 468.279 970.764 470.439 970.764 472.631C970.764 474.823 971.788 476.983 974.236 476.983C976.012 476.983 976.988 475.655 977.148 473.991H979.1C978.94 476.727 977.004 478.615 974.236 478.615C970.812 478.615 968.764 475.895 968.764 472.631C968.764 469.367 970.812 466.647 974.236 466.647C976.812 466.663 978.844 468.087 979.084 470.551ZM984.454 477.127C986.086 477.127 986.806 475.639 986.806 474.199C986.806 472.775 986.086 471.287 984.454 471.287C982.822 471.287 982.102 472.775 982.102 474.199C982.102 475.639 982.822 477.127 984.454 477.127ZM984.454 478.567C981.798 478.567 980.278 476.743 980.278 474.199C980.278 471.671 981.798 469.847 984.454 469.847C987.11 469.847 988.63 471.671 988.63 474.199C988.63 476.743 987.11 478.567 984.454 478.567ZM990.147 478.343V470.071H991.875V471.287L991.907 471.319C992.451 470.407 993.395 469.847 994.483 469.847C996.275 469.847 997.411 470.807 997.411 472.663V478.343H995.587V473.143C995.555 471.847 995.043 471.287 993.971 471.287C992.755 471.287 991.971 472.247 991.971 473.463V478.343H990.147ZM998.518 471.431V470.071H999.878V469.383C999.878 467.271 1000.98 466.919 1002.17 466.919C1002.74 466.919 1003.16 466.951 1003.45 467.031V468.455C1003.21 468.391 1002.97 468.359 1002.6 468.359C1002.1 468.359 1001.7 468.535 1001.7 469.223V470.071H1003.25V471.431H1001.7V478.343H999.878V471.431H998.518ZM1004.43 478.343V470.071H1006.25V478.343H1004.43ZM1004.43 468.647V466.919H1006.25V468.647H1004.43ZM1009.66 474.295C1009.66 475.719 1010.37 477.127 1011.95 477.127C1013.58 477.127 1014.27 475.639 1014.27 474.199C1014.27 472.375 1013.39 471.287 1011.98 471.287C1010.27 471.287 1009.66 472.807 1009.66 474.295ZM1016.03 466.919V478.343H1014.3V477.223H1014.27C1013.79 478.167 1012.75 478.567 1011.71 478.567C1009.1 478.567 1007.84 476.631 1007.84 474.151C1007.84 471.159 1009.62 469.847 1011.42 469.847C1012.46 469.847 1013.62 470.231 1014.18 471.143H1014.21V466.919H1016.03ZM1025.53 474.679H1019.45C1019.45 475.975 1020.15 477.127 1021.67 477.127C1022.73 477.127 1023.37 476.663 1023.69 475.751H1025.41C1025.01 477.559 1023.48 478.567 1021.67 478.567C1019.08 478.567 1017.62 476.759 1017.62 474.215C1017.62 471.863 1019.16 469.847 1021.62 469.847C1024.23 469.847 1025.83 472.199 1025.53 474.679ZM1019.45 473.479H1023.7C1023.64 472.327 1022.85 471.287 1021.62 471.287C1020.36 471.287 1019.49 472.247 1019.45 473.479ZM1026.91 478.343V470.071H1028.64V471.287L1028.67 471.319C1029.22 470.407 1030.16 469.847 1031.25 469.847C1033.04 469.847 1034.18 470.807 1034.18 472.663V478.343H1032.35V473.143C1032.32 471.847 1031.81 471.287 1030.74 471.287C1029.52 471.287 1028.74 472.247 1028.74 473.463V478.343H1026.91ZM1035.27 471.431V470.071H1036.64V467.591H1038.47V470.071H1040.12V471.431H1038.47V475.847C1038.47 476.599 1038.53 476.983 1039.35 476.983C1039.6 476.983 1039.86 476.983 1040.12 476.919V478.327C1039.72 478.359 1039.33 478.423 1038.93 478.423C1037.03 478.423 1036.68 477.687 1036.64 476.311V471.431H1035.27ZM994.014 502.343V494.071H995.742V495.287L995.774 495.319C996.318 494.407 997.262 493.847 998.35 493.847C1000.14 493.847 1001.28 494.807 1001.28 496.663V502.343H999.454V497.143C999.422 495.847 998.91 495.287 997.838 495.287C996.622 495.287 995.838 496.247 995.838 497.463V502.343H994.014ZM1010.71 498.679H1004.63C1004.63 499.975 1005.33 501.127 1006.85 501.127C1007.91 501.127 1008.55 500.663 1008.87 499.751H1010.59C1010.19 501.559 1008.66 502.567 1006.85 502.567C1004.26 502.567 1002.8 500.759 1002.8 498.215C1002.8 495.863 1004.34 493.847 1006.8 493.847C1009.41 493.847 1011.01 496.199 1010.71 498.679ZM1004.63 497.479H1008.88C1008.82 496.327 1008.03 495.287 1006.8 495.287C1005.54 495.287 1004.67 496.247 1004.63 497.479ZM1019.5 496.839H1017.68C1017.53 495.831 1016.8 495.287 1015.79 495.287C1014.84 495.287 1013.52 495.783 1013.52 498.295C1013.52 499.671 1014.12 501.127 1015.71 501.127C1016.76 501.127 1017.5 500.423 1017.68 499.239H1019.5C1019.16 501.383 1017.84 502.567 1015.71 502.567C1013.12 502.567 1011.69 500.727 1011.69 498.295C1011.69 495.799 1013.05 493.847 1015.77 493.847C1017.69 493.847 1019.32 494.807 1019.5 496.839Z" fill="#030229"/>
<path d="M983.399 273.712C983.399 311.071 953.113 341.357 915.753 341.357C878.393 341.357 848.107 311.071 848.107 273.712C848.107 236.352 878.393 206.066 915.753 206.066C953.113 206.066 983.399 236.352 983.399 273.712Z" fill="#EEF7E8" stroke="#78BF45" stroke-width="1.19727"/>
<path d="M895.494 263.978V252.554H898.31L901.462 261.498H901.494L904.566 252.554H907.35V263.978H905.446V255.162H905.414L902.246 263.978H900.598L897.43 255.162H897.398V263.978H895.494ZM913.28 262.762C914.912 262.762 915.632 261.274 915.632 259.834C915.632 258.41 914.912 256.922 913.28 256.922C911.648 256.922 910.928 258.41 910.928 259.834C910.928 261.274 911.648 262.762 913.28 262.762ZM913.28 264.202C910.624 264.202 909.104 262.378 909.104 259.834C909.104 257.306 910.624 255.482 913.28 255.482C915.936 255.482 917.456 257.306 917.456 259.834C917.456 262.378 915.936 264.202 913.28 264.202ZM918.973 263.978V255.706H920.685V257.306H920.717C920.925 256.426 922.013 255.482 923.133 255.482C923.549 255.482 923.661 255.514 923.821 255.53V257.29C923.565 257.258 923.293 257.21 923.037 257.21C921.789 257.21 920.797 258.218 920.797 260.042V263.978H918.973ZM931.82 260.314H925.74C925.74 261.61 926.444 262.762 927.964 262.762C929.02 262.762 929.66 262.298 929.98 261.386H931.708C931.308 263.194 929.772 264.202 927.964 264.202C925.372 264.202 923.916 262.394 923.916 259.85C923.916 257.498 925.452 255.482 927.916 255.482C930.524 255.482 932.124 257.834 931.82 260.314ZM925.74 259.114H929.996C929.932 257.962 929.148 256.922 927.916 256.922C926.652 256.922 925.788 257.882 925.74 259.114ZM906.671 283.866V276.554H908.671V283.21C908.671 284.746 908.767 286.522 911.359 286.522C913.951 286.522 914.047 284.746 914.047 283.21V276.554H916.047V283.866C916.047 286.794 914.175 288.25 911.359 288.25C908.543 288.25 906.671 286.794 906.671 283.866ZM917.642 285.322H919.466C919.562 286.378 920.362 286.762 921.338 286.762C922.026 286.762 923.226 286.618 923.178 285.674C923.13 284.714 921.802 284.602 920.474 284.298C919.13 284.01 917.818 283.53 917.818 281.85C917.818 280.042 919.77 279.482 921.274 279.482C922.97 279.482 924.506 280.186 924.73 282.026H922.826C922.666 281.162 921.946 280.922 921.146 280.922C920.618 280.922 919.642 281.05 919.642 281.77C919.642 282.666 920.986 282.794 922.33 283.098C923.658 283.402 925.002 283.882 925.002 285.514C925.002 287.482 923.018 288.202 921.306 288.202C919.226 288.202 917.674 287.274 917.642 285.322Z" fill="#030229"/>
<path d="M857.685 102.768C857.685 140.128 827.399 170.414 790.04 170.414C752.68 170.414 722.394 140.128 722.394 102.768C722.394 65.4086 752.68 35.1226 790.04 35.1226C827.399 35.1226 857.685 65.4086 857.685 102.768Z" fill="#EEF7E8" stroke="#78BF45" stroke-width="1.19727"/>
<path d="M755.8 102.201V105.769H759.336C760.552 105.769 761.256 105.113 761.256 103.961C761.256 102.841 760.552 102.201 759.336 102.201H755.8ZM753.8 107.401V95.9769H759.352C761.4 95.9769 762.744 96.9049 762.744 98.8089C762.744 99.9609 762.152 100.793 761.112 101.241V101.273C762.504 101.577 763.256 102.665 763.256 104.217C763.256 106.009 762.008 107.401 759.048 107.401H753.8ZM755.8 97.6089V100.761H759.064C760.024 100.761 760.744 100.201 760.744 99.1769C760.744 98.0249 760.152 97.6089 759.064 97.6089H755.8ZM772.074 99.1289V107.401H770.282V106.249H770.25C769.802 107.081 768.81 107.625 767.898 107.625C765.738 107.625 764.81 106.537 764.81 104.377V99.1289H766.634V104.201C766.634 105.657 767.226 106.185 768.218 106.185C769.738 106.185 770.25 105.209 770.25 103.929V99.1289H772.074ZM777.597 105.961C779.213 105.961 779.821 104.489 779.821 103.081C779.821 101.657 779.181 100.345 777.597 100.345C775.981 100.345 775.421 101.849 775.421 103.225C775.421 104.585 776.077 105.961 777.597 105.961ZM781.645 99.1289V106.969C781.645 109.449 780.189 110.681 777.581 110.681C775.917 110.681 774.045 110.041 773.885 108.105H775.709C775.933 109.145 776.765 109.321 777.693 109.321C779.165 109.321 779.821 108.569 779.821 107.209V105.945H779.789C779.277 106.857 778.333 107.401 777.309 107.401C774.685 107.401 773.597 105.417 773.597 103.049C773.597 100.825 774.989 98.9049 777.341 98.9049C778.381 98.9049 779.325 99.3369 779.789 100.265H779.821V99.1289H781.645ZM787.119 100.489V99.1289H788.479V98.4409C788.479 96.3289 789.583 95.9769 790.767 95.9769C791.343 95.9769 791.759 96.0089 792.047 96.0889V97.5129C791.807 97.4489 791.567 97.4169 791.199 97.4169C790.703 97.4169 790.303 97.5929 790.303 98.2809V99.1289H791.855V100.489H790.303V107.401H788.479V100.489H787.119ZM798.086 104.617V103.257C797.526 103.625 796.646 103.609 795.846 103.753C795.062 103.881 794.358 104.169 794.358 105.129C794.358 105.945 795.398 106.185 796.038 106.185C796.838 106.185 798.086 105.769 798.086 104.617ZM799.91 101.305V105.561C799.91 106.009 800.006 106.185 800.342 106.185C800.454 106.185 800.598 106.185 800.79 106.153V107.417C800.518 107.513 799.942 107.625 799.638 107.625C798.902 107.625 798.374 107.369 798.23 106.617C797.51 107.321 796.342 107.625 795.366 107.625C793.878 107.625 792.534 106.825 792.534 105.209C792.534 103.145 794.182 102.809 795.718 102.633C797.03 102.393 798.198 102.537 798.198 101.465C798.198 100.521 797.222 100.345 796.486 100.345C795.462 100.345 794.742 100.761 794.662 101.657H792.838C792.966 99.5289 794.774 98.9049 796.598 98.9049C798.214 98.9049 799.91 99.5609 799.91 101.305ZM809.28 101.897H807.456C807.312 100.889 806.576 100.345 805.568 100.345C804.624 100.345 803.296 100.841 803.296 103.353C803.296 104.729 803.904 106.185 805.488 106.185C806.544 106.185 807.28 105.481 807.456 104.297H809.28C808.944 106.441 807.616 107.625 805.488 107.625C802.896 107.625 801.472 105.785 801.472 103.353C801.472 100.857 802.832 98.9049 805.552 98.9049C807.472 98.9049 809.104 99.8649 809.28 101.897ZM818.267 103.737H812.187C812.187 105.033 812.891 106.185 814.411 106.185C815.467 106.185 816.107 105.721 816.427 104.809H818.155C817.755 106.617 816.219 107.625 814.411 107.625C811.819 107.625 810.363 105.817 810.363 103.273C810.363 100.921 811.899 98.9049 814.363 98.9049C816.971 98.9049 818.571 101.257 818.267 103.737ZM812.187 102.537H816.443C816.379 101.385 815.595 100.345 814.363 100.345C813.099 100.345 812.235 101.305 812.187 102.537ZM821.078 103.353C821.078 104.777 821.782 106.185 823.366 106.185C824.998 106.185 825.686 104.697 825.686 103.257C825.686 101.433 824.806 100.345 823.398 100.345C821.686 100.345 821.078 101.865 821.078 103.353ZM827.446 95.9769V107.401H825.718V106.281H825.686C825.206 107.225 824.166 107.625 823.126 107.625C820.518 107.625 819.254 105.689 819.254 103.209C819.254 100.217 821.03 98.9049 822.838 98.9049C823.878 98.9049 825.03 99.2889 825.59 100.201H825.622V95.9769H827.446Z" fill="#030229"/>
<path d="M425.471 367.099C425.471 404.459 395.185 434.745 357.825 434.745C320.465 434.745 290.179 404.459 290.179 367.099C290.179 329.739 320.465 299.453 357.825 299.453C395.185 299.453 425.471 329.739 425.471 367.099Z" fill="#EEF7E8" stroke="#78BF45" stroke-width="1.19727"/>
<path d="M330.186 357.364V345.94H332.186V357.364H330.186ZM334.383 357.364V349.092H336.111V350.308L336.143 350.34C336.687 349.428 337.631 348.868 338.719 348.868C340.511 348.868 341.647 349.828 341.647 351.684V357.364H339.823V352.164C339.791 350.868 339.279 350.308 338.207 350.308C336.991 350.308 336.207 351.268 336.207 352.484V357.364H334.383ZM342.738 350.452V349.092H344.114V346.612H345.938V349.092H347.586V350.452H345.938V354.868C345.938 355.62 346.002 356.004 346.818 356.004C347.074 356.004 347.33 356.004 347.586 355.94V357.348C347.186 357.38 346.802 357.444 346.402 357.444C344.498 357.444 344.146 356.708 344.114 355.332V350.452H342.738ZM356.402 353.7H350.322C350.322 354.996 351.026 356.148 352.546 356.148C353.602 356.148 354.242 355.684 354.562 354.772H356.29C355.89 356.58 354.354 357.588 352.546 357.588C349.954 357.588 348.498 355.78 348.498 353.236C348.498 350.884 350.034 348.868 352.498 348.868C355.106 348.868 356.706 351.22 356.402 353.7ZM350.322 352.5H354.578C354.514 351.348 353.73 350.308 352.498 350.308C351.234 350.308 350.37 351.268 350.322 352.5ZM357.789 357.364V349.092H359.501V350.692H359.533C359.741 349.812 360.829 348.868 361.949 348.868C362.365 348.868 362.477 348.9 362.637 348.916V350.676C362.381 350.644 362.109 350.596 361.853 350.596C360.605 350.596 359.613 351.604 359.613 353.428V357.364H357.789ZM368.518 354.58V353.22C367.958 353.588 367.078 353.572 366.278 353.716C365.494 353.844 364.79 354.132 364.79 355.092C364.79 355.908 365.83 356.148 366.47 356.148C367.27 356.148 368.518 355.732 368.518 354.58ZM370.342 351.268V355.524C370.342 355.972 370.438 356.148 370.774 356.148C370.886 356.148 371.03 356.148 371.222 356.116V357.38C370.95 357.476 370.374 357.588 370.07 357.588C369.334 357.588 368.806 357.332 368.662 356.58C367.942 357.284 366.774 357.588 365.798 357.588C364.31 357.588 362.966 356.788 362.966 355.172C362.966 353.108 364.614 352.772 366.15 352.596C367.462 352.356 368.63 352.5 368.63 351.428C368.63 350.484 367.654 350.308 366.918 350.308C365.894 350.308 365.174 350.724 365.094 351.62H363.27C363.398 349.492 365.206 348.868 367.03 348.868C368.646 348.868 370.342 349.524 370.342 351.268ZM379.713 351.86H377.889C377.745 350.852 377.009 350.308 376.001 350.308C375.057 350.308 373.729 350.804 373.729 353.316C373.729 354.692 374.337 356.148 375.921 356.148C376.977 356.148 377.713 355.444 377.889 354.26H379.713C379.377 356.404 378.049 357.588 375.921 357.588C373.329 357.588 371.905 355.748 371.905 353.316C371.905 350.82 373.265 348.868 375.985 348.868C377.905 348.868 379.537 349.828 379.713 351.86ZM380.363 350.452V349.092H381.739V346.612H383.563V349.092H385.211V350.452H383.563V354.868C383.563 355.62 383.627 356.004 384.443 356.004C384.699 356.004 384.955 356.004 385.211 355.94V357.348C384.811 357.38 384.427 357.444 384.027 357.444C382.123 357.444 381.771 356.708 381.739 355.332V350.452H380.363ZM386.571 357.364V349.092H388.395V357.364H386.571ZM386.571 347.668V345.94H388.395V347.668H386.571ZM350.464 380.148C352.096 380.148 352.816 378.66 352.816 377.22C352.816 375.796 352.096 374.308 350.464 374.308C348.832 374.308 348.112 375.796 348.112 377.22C348.112 378.66 348.832 380.148 350.464 380.148ZM350.464 381.588C347.808 381.588 346.288 379.764 346.288 377.22C346.288 374.692 347.808 372.868 350.464 372.868C353.12 372.868 354.64 374.692 354.64 377.22C354.64 379.764 353.12 381.588 350.464 381.588ZM356.156 381.364V373.092H357.884V374.308L357.916 374.34C358.46 373.428 359.404 372.868 360.492 372.868C362.284 372.868 363.42 373.828 363.42 375.684V381.364H361.596V376.164C361.564 374.868 361.052 374.308 359.98 374.308C358.764 374.308 357.98 375.268 357.98 376.484V381.364H356.156ZM364.896 378.708H366.72C366.816 379.764 367.616 380.148 368.592 380.148C369.28 380.148 370.48 380.004 370.432 379.06C370.384 378.1 369.056 377.988 367.728 377.684C366.384 377.396 365.072 376.916 365.072 375.236C365.072 373.428 367.024 372.868 368.528 372.868C370.224 372.868 371.76 373.572 371.984 375.412H370.08C369.92 374.548 369.2 374.308 368.4 374.308C367.872 374.308 366.896 374.436 366.896 375.156C366.896 376.052 368.24 376.18 369.584 376.484C370.912 376.788 372.256 377.268 372.256 378.9C372.256 380.868 370.272 381.588 368.56 381.588C366.48 381.588 364.928 380.66 364.896 378.708Z" fill="#030229"/>
<g opacity="0.4">
<path d="M326.097 109.686C326.097 147.045 295.811 177.332 258.452 177.332C221.092 177.332 190.806 147.045 190.806 109.686C190.806 72.3261 221.092 42.04 258.452 42.04C295.811 42.04 326.097 72.3261 326.097 109.686Z" fill="#EEF7E8" stroke="#78BF45" stroke-width="1.19727"/>
<path d="M222.706 110.511H224.706C224.706 112.271 226.002 112.959 227.602 112.959C229.362 112.959 230.018 112.095 230.018 111.231C230.018 110.351 229.538 109.999 229.074 109.823C228.274 109.519 227.234 109.311 225.666 108.879C223.714 108.351 223.138 107.167 223.138 105.983C223.138 103.695 225.25 102.623 227.314 102.623C229.698 102.623 231.698 103.887 231.698 106.271H229.698C229.602 104.799 228.61 104.255 227.234 104.255C226.306 104.255 225.138 104.591 225.138 105.743C225.138 106.543 225.682 106.991 226.498 107.215C226.674 107.263 229.202 107.919 229.794 108.095C231.298 108.543 232.018 109.823 232.018 111.007C232.018 113.567 229.746 114.591 227.474 114.591C224.866 114.591 222.754 113.343 222.706 110.511ZM238.617 111.535V110.175C238.057 110.543 237.177 110.527 236.377 110.671C235.593 110.799 234.889 111.087 234.889 112.047C234.889 112.863 235.929 113.103 236.569 113.103C237.369 113.103 238.617 112.687 238.617 111.535ZM240.441 108.223V112.479C240.441 112.927 240.537 113.103 240.873 113.103C240.985 113.103 241.129 113.103 241.321 113.071V114.335C241.049 114.431 240.473 114.543 240.169 114.543C239.433 114.543 238.905 114.287 238.761 113.535C238.041 114.239 236.873 114.543 235.897 114.543C234.409 114.543 233.065 113.743 233.065 112.127C233.065 110.063 234.713 109.727 236.249 109.551C237.561 109.311 238.729 109.455 238.729 108.383C238.729 107.439 237.753 107.263 237.017 107.263C235.993 107.263 235.273 107.679 235.193 108.575H233.369C233.497 106.447 235.305 105.823 237.129 105.823C238.745 105.823 240.441 106.479 240.441 108.223ZM242.452 114.319V102.895H244.276V114.319H242.452ZM253.767 110.655H247.687C247.687 111.951 248.391 113.103 249.911 113.103C250.967 113.103 251.607 112.639 251.927 111.727H253.655C253.255 113.535 251.719 114.543 249.911 114.543C247.319 114.543 245.863 112.735 245.863 110.191C245.863 107.839 247.399 105.823 249.863 105.823C252.471 105.823 254.071 108.175 253.767 110.655ZM247.687 109.455H251.943C251.879 108.303 251.095 107.263 249.863 107.263C248.599 107.263 247.735 108.223 247.687 109.455ZM254.706 111.663H256.53C256.626 112.719 257.426 113.103 258.402 113.103C259.09 113.103 260.29 112.959 260.242 112.015C260.194 111.055 258.866 110.943 257.538 110.639C256.194 110.351 254.882 109.871 254.882 108.191C254.882 106.383 256.834 105.823 258.338 105.823C260.034 105.823 261.57 106.527 261.794 108.367H259.89C259.73 107.503 259.01 107.263 258.21 107.263C257.682 107.263 256.706 107.391 256.706 108.111C256.706 109.007 258.05 109.135 259.394 109.439C260.722 109.743 262.066 110.223 262.066 111.855C262.066 113.823 260.082 114.543 258.37 114.543C256.29 114.543 254.738 113.615 254.706 111.663ZM277.872 106.527H275.872C275.536 105.215 274.688 104.255 273.024 104.255C270.576 104.255 269.552 106.415 269.552 108.607C269.552 110.799 270.576 112.959 273.024 112.959C274.8 112.959 275.776 111.631 275.936 109.967H277.888C277.728 112.703 275.792 114.591 273.024 114.591C269.6 114.591 267.552 111.871 267.552 108.607C267.552 105.343 269.6 102.623 273.024 102.623C275.6 102.639 277.632 104.063 277.872 106.527ZM284.555 111.535V110.175C283.995 110.543 283.115 110.527 282.315 110.671C281.531 110.799 280.827 111.087 280.827 112.047C280.827 112.863 281.867 113.103 282.507 113.103C283.307 113.103 284.555 112.687 284.555 111.535ZM286.379 108.223V112.479C286.379 112.927 286.475 113.103 286.811 113.103C286.923 113.103 287.067 113.103 287.259 113.071V114.335C286.987 114.431 286.411 114.543 286.107 114.543C285.371 114.543 284.843 114.287 284.699 113.535C283.979 114.239 282.811 114.543 281.835 114.543C280.347 114.543 279.003 113.743 279.003 112.127C279.003 110.063 280.651 109.727 282.187 109.551C283.499 109.311 284.667 109.455 284.667 108.383C284.667 107.439 283.691 107.263 282.955 107.263C281.931 107.263 281.211 107.679 281.131 108.575H279.307C279.435 106.447 281.243 105.823 283.067 105.823C284.683 105.823 286.379 106.479 286.379 108.223ZM288.389 114.319V102.895H290.213V114.319H288.389ZM292.249 114.319V102.895H294.073V114.319H292.249Z" fill="#030229"/>
</g>
<g opacity="0.4">
<path d="M184.82 241.385C184.82 278.745 154.534 309.031 117.174 309.031C79.8145 309.031 49.5284 278.745 49.5284 241.385C49.5284 204.026 79.8145 173.74 117.174 173.74C154.534 173.74 184.82 204.026 184.82 241.385Z" fill="#EEF7E8" stroke="#78BF45" stroke-width="1.19727"/>
<path d="M87.054 246.018V234.594H89.054V246.018H87.054ZM90.8031 243.362H92.6271C92.7231 244.418 93.5231 244.802 94.4991 244.802C95.1871 244.802 96.3871 244.658 96.3391 243.714C96.2911 242.754 94.9631 242.642 93.6351 242.338C92.2911 242.05 90.9791 241.57 90.9791 239.89C90.9791 238.082 92.9311 237.522 94.4351 237.522C96.1311 237.522 97.6671 238.226 97.8911 240.066H95.9871C95.8271 239.202 95.1071 238.962 94.3071 238.962C93.7791 238.962 92.8031 239.09 92.8031 239.81C92.8031 240.706 94.1471 240.834 95.4911 241.138C96.8191 241.442 98.1631 241.922 98.1631 243.554C98.1631 245.522 96.1791 246.242 94.4671 246.242C92.3871 246.242 90.8351 245.314 90.8031 243.362ZM103.569 242.21H105.569C105.569 243.97 106.865 244.658 108.465 244.658C110.225 244.658 110.881 243.794 110.881 242.93C110.881 242.05 110.401 241.698 109.937 241.522C109.137 241.218 108.097 241.01 106.529 240.578C104.577 240.05 104.001 238.866 104.001 237.682C104.001 235.394 106.113 234.322 108.177 234.322C110.561 234.322 112.561 235.586 112.561 237.97H110.561C110.465 236.498 109.473 235.954 108.097 235.954C107.169 235.954 106.001 236.29 106.001 237.442C106.001 238.242 106.545 238.69 107.361 238.914C107.537 238.962 110.065 239.618 110.657 239.794C112.161 240.242 112.881 241.522 112.881 242.706C112.881 245.266 110.609 246.29 108.337 246.29C105.729 246.29 103.617 245.042 103.569 242.21ZM121.88 242.354H115.8C115.8 243.65 116.504 244.802 118.024 244.802C119.08 244.802 119.72 244.338 120.04 243.426H121.768C121.368 245.234 119.832 246.242 118.024 246.242C115.432 246.242 113.976 244.434 113.976 241.89C113.976 239.538 115.512 237.522 117.976 237.522C120.584 237.522 122.184 239.874 121.88 242.354ZM115.8 241.154H120.056C119.992 240.002 119.208 238.962 117.976 238.962C116.712 238.962 115.848 239.922 115.8 241.154ZM123.267 246.018V237.746H124.995V238.962L125.027 238.994C125.571 238.082 126.515 237.522 127.603 237.522C129.395 237.522 130.531 238.482 130.531 240.338V246.018H128.707V240.818C128.675 239.522 128.163 238.962 127.091 238.962C125.875 238.962 125.091 239.922 125.091 241.138V246.018H123.267ZM132.502 246.018V237.746H134.326V246.018H132.502ZM132.502 236.322V234.594H134.326V236.322H132.502ZM140.106 244.802C141.738 244.802 142.458 243.314 142.458 241.874C142.458 240.45 141.738 238.962 140.106 238.962C138.474 238.962 137.754 240.45 137.754 241.874C137.754 243.314 138.474 244.802 140.106 244.802ZM140.106 246.242C137.45 246.242 135.93 244.418 135.93 241.874C135.93 239.346 137.45 237.522 140.106 237.522C142.762 237.522 144.282 239.346 144.282 241.874C144.282 244.418 142.762 246.242 140.106 246.242ZM145.798 246.018V237.746H147.51V239.346H147.542C147.75 238.466 148.838 237.522 149.958 237.522C150.374 237.522 150.486 237.554 150.646 237.57V239.33C150.39 239.298 150.118 239.25 149.862 239.25C148.614 239.25 147.622 240.258 147.622 242.082V246.018H145.798Z" fill="#030229"/>
</g>
<g filter="url(#filter0_d_2005_8262)">
<rect x="520" y="146" width="320" height="264" rx="4" fill="white" shape-rendering="crispEdges"/>
<rect x="520.5" y="146.5" width="319" height="263" rx="3.5" stroke="#EFEFEF" shape-rendering="crispEdges"/>
<path d="M539.464 167.731H552.441" stroke="#404040" stroke-width="1.21654" stroke-linecap="round" stroke-linejoin="round"/>
<path d="M543.52 171.787C543.52 171.787 539.465 168.8 539.465 167.732C539.465 166.663 543.52 163.677 543.52 163.677" stroke="#404040" stroke-width="1.21654" stroke-linecap="round" stroke-linejoin="round"/>
<path d="M578.394 167.731H565.417" stroke="#404040" stroke-width="1.21654" stroke-linecap="round" stroke-linejoin="round"/>
<path d="M574.339 171.787C574.339 171.787 578.394 168.8 578.394 167.732C578.394 166.663 574.339 163.677 574.339 163.677" stroke="#404040" stroke-width="1.21654" stroke-linecap="round" stroke-linejoin="round"/>
<path d="M664.064 175.622V165.626H671.26V167.138H665.814V169.756H670.854V171.184H665.814V174.11H671.358V175.622H664.064ZM673.904 172.08C673.904 173.326 674.52 174.558 675.906 174.558C677.334 174.558 677.936 173.256 677.936 171.996C677.936 170.4 677.166 169.448 675.934 169.448C674.436 169.448 673.904 170.778 673.904 172.08ZM679.476 165.626V175.622H677.964V174.642H677.936C677.516 175.468 676.606 175.818 675.696 175.818C673.414 175.818 672.308 174.124 672.308 171.954C672.308 169.336 673.862 168.188 675.444 168.188C676.354 168.188 677.362 168.524 677.852 169.322H677.88V165.626H679.476ZM684.367 174.362C685.781 174.362 686.313 173.074 686.313 171.842C686.313 170.596 685.753 169.448 684.367 169.448C682.953 169.448 682.463 170.764 682.463 171.968C682.463 173.158 683.037 174.362 684.367 174.362ZM687.909 168.384V175.244C687.909 177.414 686.635 178.492 684.353 178.492C682.897 178.492 681.259 177.932 681.119 176.238H682.715C682.911 177.148 683.639 177.302 684.451 177.302C685.739 177.302 686.313 176.644 686.313 175.454V174.348H686.285C685.837 175.146 685.011 175.622 684.115 175.622C681.819 175.622 680.867 173.886 680.867 171.814C680.867 169.868 682.085 168.188 684.143 168.188C685.053 168.188 685.879 168.566 686.285 169.378H686.313V168.384H687.909ZM696.082 172.416H690.762C690.762 173.55 691.378 174.558 692.708 174.558C693.632 174.558 694.192 174.152 694.472 173.354H695.984C695.634 174.936 694.29 175.818 692.708 175.818C690.44 175.818 689.166 174.236 689.166 172.01C689.166 169.952 690.51 168.188 692.666 168.188C694.948 168.188 696.348 170.246 696.082 172.416ZM690.762 171.366H694.486C694.43 170.358 693.744 169.448 692.666 169.448C691.56 169.448 690.804 170.288 690.762 171.366Z" fill="#404040"/>
<path d="M539.035 247.432V250.554H541.905C543.011 250.554 543.613 250.008 543.613 248.958C543.613 247.684 542.787 247.432 541.877 247.432H539.035ZM537.285 256V246.004H542.059C544.243 246.004 545.363 247.012 545.363 248.706C545.363 250.624 544.033 251.114 543.711 251.226V251.254C544.313 251.338 545.195 251.786 545.195 253.368C545.195 254.53 545.363 255.594 545.741 256H543.865C543.599 255.566 543.599 255.02 543.599 254.53C543.599 252.696 543.221 251.884 541.611 251.884H539.035V256H537.285ZM553.484 252.794H548.164C548.164 253.928 548.78 254.936 550.11 254.936C551.034 254.936 551.594 254.53 551.874 253.732H553.386C553.036 255.314 551.692 256.196 550.11 256.196C547.842 256.196 546.568 254.614 546.568 252.388C546.568 250.33 547.912 248.566 550.068 248.566C552.35 248.566 553.75 250.624 553.484 252.794ZM548.164 251.744H551.888C551.832 250.736 551.146 249.826 550.068 249.826C548.962 249.826 548.206 250.666 548.164 251.744ZM554.739 256V246.004H556.335V256H554.739ZM562.54 253.564V252.374C562.05 252.696 561.28 252.682 560.58 252.808C559.894 252.92 559.278 253.172 559.278 254.012C559.278 254.726 560.188 254.936 560.748 254.936C561.448 254.936 562.54 254.572 562.54 253.564ZM564.136 250.666V254.39C564.136 254.782 564.22 254.936 564.514 254.936C564.612 254.936 564.738 254.936 564.906 254.908V256.014C564.668 256.098 564.164 256.196 563.898 256.196C563.254 256.196 562.792 255.972 562.666 255.314C562.036 255.93 561.014 256.196 560.16 256.196C558.858 256.196 557.682 255.496 557.682 254.082C557.682 252.276 559.124 251.982 560.468 251.828C561.616 251.618 562.638 251.744 562.638 250.806C562.638 249.98 561.784 249.826 561.14 249.826C560.244 249.826 559.614 250.19 559.544 250.974H557.948C558.06 249.112 559.642 248.566 561.238 248.566C562.652 248.566 564.136 249.14 564.136 250.666ZM565.126 249.952V248.762H566.33V246.592H567.926V248.762H569.368V249.952H567.926V253.816C567.926 254.474 567.982 254.81 568.696 254.81C568.92 254.81 569.144 254.81 569.368 254.754V255.986C569.018 256.014 568.682 256.07 568.332 256.07C566.666 256.07 566.358 255.426 566.33 254.222V249.952H565.126ZM570.558 256V248.762H572.154V256H570.558ZM570.558 247.516V246.004H572.154V247.516H570.558ZM577.211 254.936C578.639 254.936 579.269 253.634 579.269 252.374C579.269 251.128 578.639 249.826 577.211 249.826C575.783 249.826 575.153 251.128 575.153 252.374C575.153 253.634 575.783 254.936 577.211 254.936ZM577.211 256.196C574.887 256.196 573.557 254.6 573.557 252.374C573.557 250.162 574.887 248.566 577.211 248.566C579.535 248.566 580.865 250.162 580.865 252.374C580.865 254.6 579.535 256.196 577.211 256.196ZM582.192 256V248.762H583.704V249.826L583.732 249.854C584.208 249.056 585.034 248.566 585.986 248.566C587.554 248.566 588.548 249.406 588.548 251.03V256H586.952V251.45C586.924 250.316 586.476 249.826 585.538 249.826C584.474 249.826 583.788 250.666 583.788 251.73V256H582.192ZM589.839 253.676H591.435C591.519 254.6 592.219 254.936 593.073 254.936C593.675 254.936 594.725 254.81 594.683 253.984C594.641 253.144 593.479 253.046 592.317 252.78C591.141 252.528 589.993 252.108 589.993 250.638C589.993 249.056 591.701 248.566 593.017 248.566C594.501 248.566 595.845 249.182 596.041 250.792H594.375C594.235 250.036 593.605 249.826 592.905 249.826C592.443 249.826 591.589 249.938 591.589 250.568C591.589 251.352 592.765 251.464 593.941 251.73C595.103 251.996 596.279 252.416 596.279 253.844C596.279 255.566 594.543 256.196 593.045 256.196C591.225 256.196 589.867 255.384 589.839 253.676ZM597.49 256V246.004H599.086V249.714H599.114C599.506 249.056 600.332 248.566 601.284 248.566C602.852 248.566 603.846 249.406 603.846 251.03V256H602.25V251.45C602.222 250.316 601.774 249.826 600.836 249.826C599.772 249.826 599.086 250.666 599.086 251.73V256H597.49ZM605.571 256V248.762H607.167V256H605.571ZM605.571 247.516V246.004H607.167V247.516H605.571ZM614.52 252.388C614.52 251.072 613.834 249.826 612.518 249.826C611.174 249.826 610.488 250.848 610.488 252.388C610.488 253.844 611.23 254.936 612.518 254.936C613.974 254.936 614.52 253.648 614.52 252.388ZM608.948 258.674V248.762H610.46V249.742H610.488C610.936 248.916 611.804 248.566 612.728 248.566C615.01 248.566 616.116 250.302 616.116 252.416C616.116 254.362 615.136 256.196 612.994 256.196C612.07 256.196 611.076 255.86 610.572 255.062H610.544V258.674H608.948Z" fill="#404040"/>
<path d="M576.05 208.377V211.945H579.586C580.802 211.945 581.506 211.289 581.506 210.137C581.506 209.017 580.802 208.377 579.586 208.377H576.05ZM574.05 213.577V202.153H579.602C581.65 202.153 582.994 203.081 582.994 204.985C582.994 206.137 582.402 206.969 581.362 207.417V207.449C582.754 207.753 583.506 208.841 583.506 210.393C583.506 212.185 582.258 213.577 579.298 213.577H574.05ZM576.05 203.785V206.937H579.314C580.274 206.937 580.994 206.377 580.994 205.353C580.994 204.201 580.402 203.785 579.314 203.785H576.05ZM592.324 205.305V213.577H590.532V212.425H590.5C590.052 213.257 589.06 213.801 588.148 213.801C585.988 213.801 585.06 212.713 585.06 210.553V205.305H586.884V210.377C586.884 211.833 587.476 212.361 588.468 212.361C589.988 212.361 590.5 211.385 590.5 210.105V205.305H592.324ZM597.848 212.137C599.464 212.137 600.072 210.665 600.072 209.257C600.072 207.833 599.432 206.521 597.848 206.521C596.232 206.521 595.672 208.025 595.672 209.401C595.672 210.761 596.328 212.137 597.848 212.137ZM601.896 205.305V213.145C601.896 215.625 600.44 216.857 597.832 216.857C596.168 216.857 594.296 216.217 594.136 214.281H595.96C596.184 215.321 597.016 215.497 597.944 215.497C599.416 215.497 600.072 214.745 600.072 213.385V212.121H600.04C599.528 213.033 598.584 213.577 597.56 213.577C594.936 213.577 593.848 211.593 593.848 209.225C593.848 207.001 595.24 205.081 597.592 205.081C598.632 205.081 599.576 205.513 600.04 206.441H600.072V205.305H601.896ZM608.441 213.577V202.153H616.329V203.881H610.441V206.873H615.609V208.505H610.441V213.577H608.441ZM622.773 210.793V209.433C622.213 209.801 621.333 209.785 620.533 209.929C619.749 210.057 619.045 210.345 619.045 211.305C619.045 212.121 620.085 212.361 620.725 212.361C621.525 212.361 622.773 211.945 622.773 210.793ZM624.597 207.481V211.737C624.597 212.185 624.693 212.361 625.029 212.361C625.141 212.361 625.285 212.361 625.477 212.329V213.593C625.205 213.689 624.629 213.801 624.325 213.801C623.589 213.801 623.061 213.545 622.917 212.793C622.197 213.497 621.029 213.801 620.053 213.801C618.565 213.801 617.221 213.001 617.221 211.385C617.221 209.321 618.869 208.985 620.405 208.809C621.717 208.569 622.885 208.713 622.885 207.641C622.885 206.697 621.909 206.521 621.173 206.521C620.149 206.521 619.429 206.937 619.349 207.833H617.525C617.653 205.705 619.461 205.081 621.285 205.081C622.901 205.081 624.597 205.737 624.597 207.481ZM633.968 208.073H632.144C632 207.065 631.264 206.521 630.256 206.521C629.312 206.521 627.984 207.017 627.984 209.529C627.984 210.905 628.592 212.361 630.176 212.361C631.232 212.361 631.968 211.657 632.144 210.473H633.968C633.632 212.617 632.304 213.801 630.176 213.801C627.584 213.801 626.16 211.961 626.16 209.529C626.16 207.033 627.52 205.081 630.24 205.081C632.16 205.081 633.792 206.041 633.968 208.073ZM642.955 209.913H636.875C636.875 211.209 637.579 212.361 639.099 212.361C640.155 212.361 640.795 211.897 641.115 210.985H642.843C642.443 212.793 640.907 213.801 639.099 213.801C636.507 213.801 635.051 211.993 635.051 209.449C635.051 207.097 636.587 205.081 639.051 205.081C641.659 205.081 643.259 207.433 642.955 209.913ZM636.875 208.713H641.131C641.067 207.561 640.283 206.521 639.051 206.521C637.787 206.521 636.923 207.481 636.875 208.713ZM645.765 209.529C645.765 210.953 646.469 212.361 648.053 212.361C649.685 212.361 650.373 210.873 650.373 209.433C650.373 207.609 649.493 206.521 648.085 206.521C646.373 206.521 645.765 208.041 645.765 209.529ZM652.133 202.153V213.577H650.405V212.457H650.373C649.893 213.401 648.853 213.801 647.813 213.801C645.205 213.801 643.941 211.865 643.941 209.385C643.941 206.393 645.717 205.081 647.525 205.081C648.565 205.081 649.717 205.465 650.277 206.377H650.309V202.153H652.133Z" fill="#404040"/>
<path d="M680.23 214.967H689.813" stroke="#AAACAE" stroke-width="0.898377" stroke-linecap="round" stroke-linejoin="round"/>
<path d="M683.225 217.962C683.225 217.962 680.23 215.756 680.23 214.967C680.23 214.178 683.225 211.973 683.225 211.973" stroke="#AAACAE" stroke-width="0.898377" stroke-linecap="round" stroke-linejoin="round"/>
<path d="M694.604 204.187H685.022" stroke="#404040" stroke-width="0.898377" stroke-linecap="round" stroke-linejoin="round"/>
<path d="M691.61 207.182C691.61 207.182 694.604 204.976 694.604 204.187C694.604 203.398 691.61 201.192 691.61 201.192" stroke="#404040" stroke-width="0.898377" stroke-linecap="round" stroke-linejoin="round"/>
<path d="M724.216 203.785V211.945H726.184C729.32 211.945 729.992 210.153 729.992 207.865C729.992 205.577 729.32 203.785 726.184 203.785H724.216ZM722.216 213.577V202.153H726.952C730.472 202.153 731.992 204.713 731.992 207.865C731.992 211.017 730.472 213.577 726.952 213.577H722.216ZM733.555 213.577V205.305H735.379V213.577H733.555ZM733.555 203.881V202.153H735.379V203.881H733.555ZM736.918 210.921H738.742C738.838 211.977 739.638 212.361 740.614 212.361C741.302 212.361 742.502 212.217 742.454 211.273C742.406 210.313 741.078 210.201 739.75 209.897C738.406 209.609 737.094 209.129 737.094 207.449C737.094 205.641 739.046 205.081 740.55 205.081C742.246 205.081 743.782 205.785 744.006 207.625H742.102C741.942 206.761 741.222 206.521 740.422 206.521C739.894 206.521 738.918 206.649 738.918 207.369C738.918 208.265 740.262 208.393 741.606 208.697C742.934 209.001 744.278 209.481 744.278 211.113C744.278 213.081 742.294 213.801 740.582 213.801C738.502 213.801 736.95 212.873 736.918 210.921ZM753.071 208.073H751.247C751.103 207.065 750.367 206.521 749.359 206.521C748.415 206.521 747.087 207.017 747.087 209.529C747.087 210.905 747.695 212.361 749.279 212.361C750.335 212.361 751.071 211.657 751.247 210.473H753.071C752.735 212.617 751.407 213.801 749.279 213.801C746.687 213.801 745.263 211.961 745.263 209.529C745.263 207.033 746.623 205.081 749.343 205.081C751.263 205.081 752.895 206.041 753.071 208.073ZM758.346 212.361C759.978 212.361 760.698 210.873 760.698 209.433C760.698 208.009 759.978 206.521 758.346 206.521C756.714 206.521 755.994 208.009 755.994 209.433C755.994 210.873 756.714 212.361 758.346 212.361ZM758.346 213.801C755.69 213.801 754.17 211.977 754.17 209.433C754.17 206.905 755.69 205.081 758.346 205.081C761.002 205.081 762.522 206.905 762.522 209.433C762.522 211.977 761.002 213.801 758.346 213.801ZM771.302 205.305V213.577H769.51V212.425H769.478C769.03 213.257 768.038 213.801 767.126 213.801C764.966 213.801 764.038 212.713 764.038 210.553V205.305H765.862V210.377C765.862 211.833 766.454 212.361 767.446 212.361C768.966 212.361 769.478 211.385 769.478 210.105V205.305H771.302ZM773.226 213.577V205.305H774.954V206.521L774.986 206.553C775.53 205.641 776.474 205.081 777.562 205.081C779.354 205.081 780.49 206.041 780.49 207.897V213.577H778.666V208.377C778.634 207.081 778.122 206.521 777.05 206.521C775.834 206.521 775.05 207.481 775.05 208.697V213.577H773.226ZM781.581 206.665V205.305H782.957V202.825H784.781V205.305H786.429V206.665H784.781V211.081C784.781 211.833 784.845 212.217 785.661 212.217C785.917 212.217 786.173 212.217 786.429 212.153V213.561C786.029 213.593 785.645 213.657 785.245 213.657C783.341 213.657 782.989 212.921 782.957 211.545V206.665H781.581Z" fill="#404040"/>
<path d="M821 164.667L820.587 171.35C820.481 173.057 820.429 173.911 820.001 174.525C819.789 174.829 819.516 175.085 819.2 175.277C818.561 175.667 817.706 175.667 815.995 175.667C814.282 175.667 813.426 175.667 812.786 175.276C812.47 175.084 812.197 174.827 811.986 174.523C811.558 173.908 811.506 173.053 811.403 171.343L811 164.667" stroke="#FF5C5C" stroke-width="1.21654" stroke-linecap="round"/>
<path d="M810 164.667H822M818.704 164.667L818.249 163.728C817.946 163.104 817.795 162.793 817.534 162.598C817.477 162.555 817.415 162.517 817.351 162.483C817.063 162.333 816.716 162.333 816.023 162.333C815.313 162.333 814.957 162.333 814.664 162.49C814.599 162.524 814.537 162.564 814.478 162.609C814.214 162.811 814.067 163.135 813.772 163.781L813.369 164.667" stroke="#FF5C5C" stroke-width="1.21654" stroke-linecap="round"/>
<path d="M814.333 172V168" stroke="#FF5C5C" stroke-width="1.21654" stroke-linecap="round"/>
<path d="M817.667 172V168" stroke="#FF5C5C" stroke-width="1.21654" stroke-linecap="round"/>
<path d="M536.406 275.685C536.406 274.145 536.406 273.03 536.521 272.18C536.633 271.341 536.85 270.821 537.237 270.434C537.624 270.047 538.144 269.831 538.983 269.718C539.833 269.604 540.947 269.603 542.488 269.603H631.594V301.233H542.488C540.947 301.233 539.833 301.232 538.983 301.118C538.144 301.005 537.624 300.789 537.237 300.401C536.85 300.014 536.633 299.494 536.521 298.656C536.406 297.806 536.406 296.691 536.406 295.15V275.685Z" stroke="#003F59" stroke-width="0.811025"/>
<path d="M565.064 289.418V279.422H566.814V287.906H571.896V289.418H565.064ZM572.921 289.418V282.18H574.517V289.418H572.921ZM572.921 280.934V279.422H574.517V280.934H572.921ZM576.256 289.418V282.18H577.768V283.244L577.796 283.272C578.272 282.474 579.098 281.984 580.05 281.984C581.618 281.984 582.612 282.824 582.612 284.448V289.418H581.016V284.868C580.988 283.734 580.54 283.244 579.602 283.244C578.538 283.244 577.852 284.084 577.852 285.148V289.418H576.256ZM590.861 286.212H585.541C585.541 287.346 586.157 288.354 587.487 288.354C588.411 288.354 588.971 287.948 589.251 287.15H590.763C590.413 288.732 589.069 289.614 587.487 289.614C585.219 289.614 583.945 288.032 583.945 285.806C583.945 283.748 585.289 281.984 587.445 281.984C589.727 281.984 591.127 284.042 590.861 286.212ZM585.541 285.162H589.265C589.209 284.154 588.523 283.244 587.445 283.244C586.339 283.244 585.583 284.084 585.541 285.162ZM596.54 286.982V285.792C596.05 286.114 595.28 286.1 594.58 286.226C593.894 286.338 593.278 286.59 593.278 287.43C593.278 288.144 594.188 288.354 594.748 288.354C595.448 288.354 596.54 287.99 596.54 286.982ZM598.136 284.084V287.808C598.136 288.2 598.22 288.354 598.514 288.354C598.612 288.354 598.738 288.354 598.906 288.326V289.432C598.668 289.516 598.164 289.614 597.898 289.614C597.254 289.614 596.792 289.39 596.666 288.732C596.036 289.348 595.014 289.614 594.16 289.614C592.858 289.614 591.682 288.914 591.682 287.5C591.682 285.694 593.124 285.4 594.468 285.246C595.616 285.036 596.638 285.162 596.638 284.224C596.638 283.398 595.784 283.244 595.14 283.244C594.244 283.244 593.614 283.608 593.544 284.392H591.948C592.06 282.53 593.642 281.984 595.238 281.984C596.652 281.984 598.136 282.558 598.136 284.084ZM599.854 289.418V282.18H601.352V283.58H601.38C601.562 282.81 602.514 281.984 603.494 281.984C603.858 281.984 603.956 282.012 604.096 282.026V283.566C603.872 283.538 603.634 283.496 603.41 283.496C602.318 283.496 601.45 284.378 601.45 285.974V289.418H599.854Z" fill="#003F59"/>
<rect width="96" height="32.441" transform="translate(632 269.197)" fill="#003F59"/>
<path d="M644.994 289.418V279.422H646.842L651.406 286.786H651.434V279.422H653.1V289.418H651.252L646.702 282.068H646.66V289.418H644.994ZM658.262 288.354C659.69 288.354 660.32 287.052 660.32 285.792C660.32 284.546 659.69 283.244 658.262 283.244C656.834 283.244 656.204 284.546 656.204 285.792C656.204 287.052 656.834 288.354 658.262 288.354ZM658.262 289.614C655.938 289.614 654.608 288.018 654.608 285.792C654.608 283.58 655.938 281.984 658.262 281.984C660.586 281.984 661.916 283.58 661.916 285.792C661.916 288.018 660.586 289.614 658.262 289.614ZM663.242 289.418V282.18H664.754V283.244L664.782 283.272C665.258 282.474 666.084 281.984 667.036 281.984C668.604 281.984 669.598 282.824 669.598 284.448V289.418H668.002V284.868C667.974 283.734 667.526 283.244 666.588 283.244C665.524 283.244 664.838 284.084 664.838 285.148V289.418H663.242ZM671.127 286.366V284.854H675.201V286.366H671.127ZM676.947 289.418V279.422H678.697V287.906H683.779V289.418H676.947ZM684.804 289.418V282.18H686.4V289.418H684.804ZM684.804 280.934V279.422H686.4V280.934H684.804ZM688.139 289.418V282.18H689.651V283.244L689.679 283.272C690.155 282.474 690.981 281.984 691.933 281.984C693.501 281.984 694.495 282.824 694.495 284.448V289.418H692.899V284.868C692.871 283.734 692.423 283.244 691.485 283.244C690.421 283.244 689.735 284.084 689.735 285.148V289.418H688.139ZM702.744 286.212H697.424C697.424 287.346 698.04 288.354 699.37 288.354C700.294 288.354 700.854 287.948 701.134 287.15H702.646C702.296 288.732 700.952 289.614 699.37 289.614C697.102 289.614 695.828 288.032 695.828 285.806C695.828 283.748 697.172 281.984 699.328 281.984C701.61 281.984 703.01 284.042 702.744 286.212ZM697.424 285.162H701.148C701.092 284.154 700.406 283.244 699.328 283.244C698.222 283.244 697.466 284.084 697.424 285.162ZM708.423 286.982V285.792C707.933 286.114 707.163 286.1 706.463 286.226C705.777 286.338 705.161 286.59 705.161 287.43C705.161 288.144 706.071 288.354 706.631 288.354C707.331 288.354 708.423 287.99 708.423 286.982ZM710.019 284.084V287.808C710.019 288.2 710.103 288.354 710.397 288.354C710.495 288.354 710.621 288.354 710.789 288.326V289.432C710.551 289.516 710.047 289.614 709.781 289.614C709.137 289.614 708.675 289.39 708.549 288.732C707.919 289.348 706.897 289.614 706.043 289.614C704.741 289.614 703.565 288.914 703.565 287.5C703.565 285.694 705.007 285.4 706.351 285.246C707.499 285.036 708.521 285.162 708.521 284.224C708.521 283.398 707.667 283.244 707.023 283.244C706.127 283.244 705.497 283.608 705.427 284.392H703.831C703.943 282.53 705.525 281.984 707.121 281.984C708.535 281.984 710.019 282.558 710.019 284.084ZM711.736 289.418V282.18H713.234V283.58H713.262C713.444 282.81 714.396 281.984 715.376 281.984C715.74 281.984 715.838 282.012 715.978 282.026V283.566C715.754 283.538 715.516 283.496 715.292 283.496C714.2 283.496 713.332 284.378 713.332 285.974V289.418H711.736Z" fill="white"/>
<path d="M728.406 269.603H817.512C819.053 269.603 820.167 269.604 821.017 269.718C821.856 269.831 822.376 270.047 822.763 270.434C823.15 270.821 823.367 271.341 823.479 272.18C823.594 273.03 823.594 274.145 823.594 275.685V295.15C823.594 296.691 823.594 297.806 823.479 298.656C823.367 299.494 823.15 300.014 822.763 300.401C822.376 300.789 821.856 301.005 821.017 301.118C820.167 301.232 819.053 301.233 817.512 301.233H728.406V269.603Z" stroke="#003F59" stroke-width="0.811025"/>
<path d="M746.452 285.82V279.422H748.202V285.246C748.202 286.59 748.286 288.144 750.554 288.144C752.822 288.144 752.906 286.59 752.906 285.246V279.422H754.656V285.82C754.656 288.382 753.018 289.656 750.554 289.656C748.09 289.656 746.452 288.382 746.452 285.82ZM756.444 289.418V282.18H757.956V283.244L757.984 283.272C758.46 282.474 759.286 281.984 760.238 281.984C761.806 281.984 762.8 282.824 762.8 284.448V289.418H761.204V284.868C761.176 283.734 760.728 283.244 759.79 283.244C758.726 283.244 758.04 284.084 758.04 285.148V289.418H756.444ZM764.525 289.418V279.422H766.121V285.106L769.005 282.18H770.965L768.193 284.84L771.231 289.418H769.285L767.073 285.904L766.121 286.828V289.418H764.525ZM772.002 289.418V282.18H773.514V283.244L773.542 283.272C774.018 282.474 774.844 281.984 775.796 281.984C777.364 281.984 778.358 282.824 778.358 284.448V289.418H776.762V284.868C776.734 283.734 776.286 283.244 775.348 283.244C774.284 283.244 773.598 284.084 773.598 285.148V289.418H772.002ZM783.359 288.354C784.787 288.354 785.417 287.052 785.417 285.792C785.417 284.546 784.787 283.244 783.359 283.244C781.931 283.244 781.301 284.546 781.301 285.792C781.301 287.052 781.931 288.354 783.359 288.354ZM783.359 289.614C781.035 289.614 779.705 288.018 779.705 285.792C779.705 283.58 781.035 281.984 783.359 281.984C785.683 281.984 787.013 283.58 787.013 285.792C787.013 288.018 785.683 289.614 783.359 289.614ZM789.922 289.418L787.682 282.18H789.376L790.79 287.584H790.818L792.176 282.18H793.786L795.088 287.584H795.116L796.586 282.18H798.21L795.942 289.418H794.304L792.96 284.042H792.932L791.602 289.418H789.922ZM799.236 289.418V282.18H800.748V283.244L800.776 283.272C801.252 282.474 802.078 281.984 803.03 281.984C804.598 281.984 805.592 282.824 805.592 284.448V289.418H803.996V284.868C803.968 283.734 803.52 283.244 802.582 283.244C801.518 283.244 800.832 284.084 800.832 285.148V289.418H799.236Z" fill="#003F59"/>
<mask id="path-66-inside-1_2005_8262" fill="white">
<path d="M536 317.858C536 314.8 536 313.27 536.95 312.32C537.9 311.37 539.43 311.37 542.488 311.37H632V343.811H542.488C539.43 343.811 537.9 343.811 536.95 342.861C536 341.911 536 340.381 536 337.323V317.858Z"/>
</mask>
<path d="M535.189 314.614C535.189 312.375 537.005 310.559 539.244 310.559H632V312.181H539.244C537.9 312.181 536.811 313.27 536.811 314.614H535.189ZM632 344.622H539.244C537.005 344.622 535.189 342.807 535.189 340.567H536.811C536.811 341.911 537.9 343 539.244 343H632V344.622ZM539.244 344.622C537.005 344.622 535.189 342.807 535.189 340.567V314.614C535.189 312.375 537.005 310.559 539.244 310.559V312.181C537.9 312.181 536.811 313.27 536.811 314.614V340.567C536.811 341.911 537.9 343 539.244 343V344.622ZM632 311.37V343.811V311.37Z" fill="#003F59" mask="url(#path-66-inside-1_2005_8262)"/>
<path d="M560.814 323.023V326.327H563.376C564.16 326.327 565.126 325.935 565.126 324.675C565.126 323.359 564.328 323.023 563.404 323.023H560.814ZM559.064 331.591V321.595H563.474C566.33 321.595 566.876 323.443 566.876 324.689C566.876 325.921 566.33 327.769 563.474 327.755H560.814V331.591H559.064ZM571.496 330.527C572.924 330.527 573.554 329.225 573.554 327.965C573.554 326.719 572.924 325.417 571.496 325.417C570.068 325.417 569.438 326.719 569.438 327.965C569.438 329.225 570.068 330.527 571.496 330.527ZM571.496 331.787C569.172 331.787 567.842 330.191 567.842 327.965C567.842 325.753 569.172 324.157 571.496 324.157C573.82 324.157 575.15 325.753 575.15 327.965C575.15 330.191 573.82 331.787 571.496 331.787ZM576.085 329.267H577.681C577.765 330.191 578.465 330.527 579.319 330.527C579.921 330.527 580.971 330.401 580.929 329.575C580.887 328.735 579.725 328.637 578.563 328.371C577.387 328.119 576.239 327.699 576.239 326.229C576.239 324.647 577.947 324.157 579.263 324.157C580.747 324.157 582.091 324.773 582.287 326.383H580.621C580.481 325.627 579.851 325.417 579.151 325.417C578.689 325.417 577.835 325.529 577.835 326.159C577.835 326.943 579.011 327.055 580.187 327.321C581.349 327.587 582.525 328.007 582.525 329.435C582.525 331.157 580.789 331.787 579.291 331.787C577.471 331.787 576.113 330.975 576.085 329.267ZM583.778 331.591V324.353H585.374V331.591H583.778ZM583.778 323.107V321.595H585.374V323.107H583.778ZM586.385 325.543V324.353H587.589V322.183H589.185V324.353H590.627V325.543H589.185V329.407C589.185 330.065 589.241 330.401 589.955 330.401C590.179 330.401 590.403 330.401 590.627 330.345V331.577C590.277 331.605 589.941 331.661 589.591 331.661C587.925 331.661 587.617 331.017 587.589 329.813V325.543H586.385ZM591.818 331.591V324.353H593.414V331.591H591.818ZM591.818 323.107V321.595H593.414V323.107H591.818ZM597.071 331.591L594.439 324.353H596.175L598.008 329.911H598.037L599.801 324.353H601.453L598.863 331.591H597.071ZM608.978 328.385H603.658C603.658 329.519 604.274 330.527 605.604 330.527C606.528 330.527 607.088 330.121 607.368 329.323H608.88C608.53 330.905 607.186 331.787 605.604 331.787C603.336 331.787 602.062 330.205 602.062 327.979C602.062 325.921 603.406 324.157 605.562 324.157C607.844 324.157 609.244 326.215 608.978 328.385ZM603.658 327.335H607.382C607.326 326.327 606.64 325.417 605.562 325.417C604.456 325.417 603.7 326.257 603.658 327.335Z" fill="#003F59"/>
<rect x="632.406" y="311.776" width="95.189" height="31.63" stroke="#003F59" stroke-width="0.811025"/>
<path d="M651.994 331.591V321.595H653.842L658.406 328.959H658.434V321.595H660.1V331.591H658.252L653.702 324.241H653.66V331.591H651.994ZM668.51 328.385H663.19C663.19 329.519 663.806 330.527 665.136 330.527C666.06 330.527 666.62 330.121 666.9 329.323H668.412C668.062 330.905 666.718 331.787 665.136 331.787C662.868 331.787 661.594 330.205 661.594 327.979C661.594 325.921 662.938 324.157 665.094 324.157C667.376 324.157 668.776 326.215 668.51 328.385ZM663.19 327.335H666.914C666.858 326.327 666.172 325.417 665.094 325.417C663.988 325.417 663.232 326.257 663.19 327.335ZM672.873 330.331C674.287 330.331 674.819 329.043 674.819 327.811C674.819 326.565 674.259 325.417 672.873 325.417C671.459 325.417 670.969 326.733 670.969 327.937C670.969 329.127 671.543 330.331 672.873 330.331ZM676.415 324.353V331.213C676.415 333.383 675.141 334.461 672.859 334.461C671.403 334.461 669.765 333.901 669.625 332.207H671.221C671.417 333.117 672.145 333.271 672.957 333.271C674.245 333.271 674.819 332.613 674.819 331.423V330.317H674.791C674.343 331.115 673.517 331.591 672.621 331.591C670.325 331.591 669.373 329.855 669.373 327.783C669.373 325.837 670.591 324.157 672.649 324.157C673.559 324.157 674.385 324.535 674.791 325.347H674.819V324.353H676.415ZM682.488 329.155V327.965C681.998 328.287 681.228 328.273 680.528 328.399C679.842 328.511 679.226 328.763 679.226 329.603C679.226 330.317 680.136 330.527 680.696 330.527C681.396 330.527 682.488 330.163 682.488 329.155ZM684.084 326.257V329.981C684.084 330.373 684.168 330.527 684.462 330.527C684.56 330.527 684.686 330.527 684.854 330.499V331.605C684.616 331.689 684.112 331.787 683.846 331.787C683.202 331.787 682.74 331.563 682.614 330.905C681.984 331.521 680.962 331.787 680.108 331.787C678.806 331.787 677.63 331.087 677.63 329.673C677.63 327.867 679.072 327.573 680.416 327.419C681.564 327.209 682.586 327.335 682.586 326.397C682.586 325.571 681.732 325.417 681.088 325.417C680.192 325.417 679.562 325.781 679.492 326.565H677.896C678.008 324.703 679.59 324.157 681.186 324.157C682.6 324.157 684.084 324.731 684.084 326.257ZM685.073 325.543V324.353H686.277V322.183H687.873V324.353H689.315V325.543H687.873V329.407C687.873 330.065 687.929 330.401 688.643 330.401C688.867 330.401 689.091 330.401 689.315 330.345V331.577C688.965 331.605 688.629 331.661 688.279 331.661C686.613 331.661 686.305 331.017 686.277 329.813V325.543H685.073ZM690.505 331.591V324.353H692.101V331.591H690.505ZM690.505 323.107V321.595H692.101V323.107H690.505ZM695.758 331.591L693.126 324.353H694.862L696.696 329.911H696.724L698.488 324.353H700.14L697.55 331.591H695.758ZM707.666 328.385H702.346C702.346 329.519 702.962 330.527 704.292 330.527C705.216 330.527 705.776 330.121 706.056 329.323H707.568C707.218 330.905 705.874 331.787 704.292 331.787C702.024 331.787 700.75 330.205 700.75 327.979C700.75 325.921 702.094 324.157 704.25 324.157C706.532 324.157 707.932 326.215 707.666 328.385ZM702.346 327.335H706.07C706.014 326.327 705.328 325.417 704.25 325.417C703.144 325.417 702.388 326.257 702.346 327.335Z" fill="#003F59"/>
<path d="M728 311.37H817.512C820.57 311.37 822.1 311.37 823.05 312.32C824 313.27 824 314.8 824 317.858V337.323C824 340.381 824 341.911 823.05 342.861C822.1 343.811 820.57 343.811 817.512 343.811H728V311.37Z" fill="#003F59"/>
<path d="M746.452 327.993V321.595H748.202V327.419C748.202 328.763 748.286 330.317 750.554 330.317C752.822 330.317 752.906 328.763 752.906 327.419V321.595H754.656V327.993C754.656 330.555 753.018 331.829 750.554 331.829C748.09 331.829 746.452 330.555 746.452 327.993ZM756.444 331.591V324.353H757.956V325.417L757.984 325.445C758.46 324.647 759.286 324.157 760.238 324.157C761.806 324.157 762.8 324.997 762.8 326.621V331.591H761.204V327.041C761.176 325.907 760.728 325.417 759.79 325.417C758.726 325.417 758.04 326.257 758.04 327.321V331.591H756.444ZM764.525 331.591V321.595H766.121V327.279L769.005 324.353H770.965L768.193 327.013L771.231 331.591H769.285L767.073 328.077L766.121 329.001V331.591H764.525ZM772.002 331.591V324.353H773.514V325.417L773.542 325.445C774.018 324.647 774.844 324.157 775.796 324.157C777.364 324.157 778.358 324.997 778.358 326.621V331.591H776.762V327.041C776.734 325.907 776.286 325.417 775.348 325.417C774.284 325.417 773.598 326.257 773.598 327.321V331.591H772.002ZM783.359 330.527C784.787 330.527 785.417 329.225 785.417 327.965C785.417 326.719 784.787 325.417 783.359 325.417C781.931 325.417 781.301 326.719 781.301 327.965C781.301 329.225 781.931 330.527 783.359 330.527ZM783.359 331.787C781.035 331.787 779.705 330.191 779.705 327.965C779.705 325.753 781.035 324.157 783.359 324.157C785.683 324.157 787.013 325.753 787.013 327.965C787.013 330.191 785.683 331.787 783.359 331.787ZM789.922 331.591L787.682 324.353H789.376L790.79 329.757H790.818L792.176 324.353H793.786L795.088 329.757H795.116L796.586 324.353H798.21L795.942 331.591H794.304L792.96 326.215H792.932L791.602 331.591H789.922ZM799.236 331.591V324.353H800.748V325.417L800.776 325.445C801.252 324.647 802.078 324.157 803.03 324.157C804.598 324.157 805.592 324.997 805.592 326.621V331.591H803.996V327.041C803.968 325.907 803.52 325.417 802.582 325.417C801.518 325.417 800.832 326.257 800.832 327.321V331.591H799.236Z" fill="white"/>
<rect x="688" y="362" width="136.252" height="35.6851" rx="3.2441" fill="#78BF45"/>
<path d="M725.884 376.132L724.658 379.618H727.133L725.918 376.132H725.884ZM722.047 382.843L725.158 374.736H726.668L729.79 382.843H728.269L727.508 380.697H724.272L723.511 382.843H722.047ZM735.638 378.937H734.343C734.241 378.222 733.719 377.836 733.003 377.836C732.334 377.836 731.391 378.187 731.391 379.97C731.391 380.947 731.823 381.98 732.947 381.98C733.696 381.98 734.218 381.48 734.343 380.64H735.638C735.399 382.162 734.457 383.002 732.947 383.002C731.107 383.002 730.097 381.696 730.097 379.97C730.097 378.199 731.062 376.814 732.992 376.814C734.355 376.814 735.513 377.495 735.638 378.937ZM741.947 378.937H740.652C740.55 378.222 740.028 377.836 739.313 377.836C738.643 377.836 737.7 378.187 737.7 379.97C737.7 380.947 738.132 381.98 739.256 381.98C740.005 381.98 740.528 381.48 740.652 380.64H741.947C741.708 382.162 740.766 383.002 739.256 383.002C737.417 383.002 736.406 381.696 736.406 379.97C736.406 378.199 737.371 376.814 739.301 376.814C740.664 376.814 741.822 377.495 741.947 378.937ZM748.324 380.243H744.01C744.01 381.162 744.509 381.98 745.588 381.98C746.337 381.98 746.791 381.651 747.018 381.003H748.245C747.961 382.286 746.871 383.002 745.588 383.002C743.748 383.002 742.715 381.719 742.715 379.913C742.715 378.244 743.805 376.814 745.554 376.814C747.405 376.814 748.54 378.483 748.324 380.243ZM744.01 379.391H747.03C746.984 378.574 746.428 377.836 745.554 377.836C744.657 377.836 744.044 378.517 744.01 379.391ZM753.861 379.913C753.861 378.846 753.305 377.836 752.238 377.836C751.148 377.836 750.591 378.664 750.591 379.913C750.591 381.094 751.193 381.98 752.238 381.98C753.419 381.98 753.861 380.935 753.861 379.913ZM749.342 385.011V376.973H750.569V377.767H750.591C750.955 377.097 751.659 376.814 752.408 376.814C754.259 376.814 755.156 378.222 755.156 379.936C755.156 381.514 754.361 383.002 752.624 383.002C751.874 383.002 751.068 382.729 750.659 382.082H750.637V385.011H749.342ZM755.659 377.938V376.973H756.636V375.213H757.93V376.973H759.099V377.938H757.93V381.071C757.93 381.605 757.975 381.878 758.554 381.878C758.736 381.878 758.918 381.878 759.099 381.832V382.831C758.816 382.854 758.543 382.9 758.259 382.9C756.908 382.9 756.658 382.377 756.636 381.401V377.938H755.659ZM763.372 382.843V374.736H769.208V375.962H764.792V378.085H768.879V379.243H764.792V381.617H769.288V382.843H763.372ZM771.353 379.97C771.353 380.981 771.853 381.98 772.977 381.98C774.135 381.98 774.623 380.924 774.623 379.902C774.623 378.608 773.999 377.836 773 377.836C771.785 377.836 771.353 378.914 771.353 379.97ZM775.872 374.736V382.843H774.646V382.048H774.623C774.283 382.718 773.545 383.002 772.806 383.002C770.956 383.002 770.059 381.628 770.059 379.868C770.059 377.745 771.319 376.814 772.602 376.814C773.34 376.814 774.158 377.086 774.555 377.733H774.578V374.736H775.872ZM779.839 381.821C780.985 381.821 781.417 380.776 781.417 379.777C781.417 378.767 780.963 377.836 779.839 377.836C778.692 377.836 778.294 378.903 778.294 379.879C778.294 380.844 778.76 381.821 779.839 381.821ZM782.711 376.973V382.536C782.711 384.296 781.678 385.17 779.827 385.17C778.646 385.17 777.318 384.716 777.204 383.342H778.499C778.658 384.08 779.248 384.205 779.907 384.205C780.951 384.205 781.417 383.672 781.417 382.707V381.81H781.394C781.031 382.457 780.361 382.843 779.634 382.843C777.772 382.843 777 381.435 777 379.754C777 378.176 777.988 376.814 779.657 376.814C780.395 376.814 781.065 377.12 781.394 377.779H781.417V376.973H782.711ZM789.34 380.243H785.025C785.025 381.162 785.525 381.98 786.603 381.98C787.353 381.98 787.807 381.651 788.034 381.003H789.26C788.976 382.286 787.886 383.002 786.603 383.002C784.764 383.002 783.731 381.719 783.731 379.913C783.731 378.244 784.821 376.814 786.569 376.814C788.42 376.814 789.555 378.483 789.34 380.243ZM785.025 379.391H788.045C788 378.574 787.443 377.836 786.569 377.836C785.672 377.836 785.059 378.517 785.025 379.391Z" fill="white"/>
</g>
<path d="M632.598 69.2444C632.598 106.604 602.312 136.89 564.953 136.89C527.593 136.89 497.307 106.604 497.307 69.2444C497.307 31.8847 527.593 1.59863 564.953 1.59863C602.312 1.59863 632.598 31.8847 632.598 69.2444Z" fill="#78BF45" stroke="#78BF45" stroke-width="1.19727"/>
<path d="M534.557 64.085V72.245H536.525C539.661 72.245 540.333 70.453 540.333 68.165C540.333 65.877 539.661 64.085 536.525 64.085H534.557ZM532.557 73.877V62.453H537.293C540.813 62.453 542.333 65.013 542.333 68.165C542.333 71.317 540.813 73.877 537.293 73.877H532.557ZM543.896 73.877V65.605H545.72V73.877H543.896ZM543.896 64.181V62.453H545.72V64.181H543.896ZM547.259 71.221H549.083C549.179 72.277 549.979 72.661 550.955 72.661C551.643 72.661 552.843 72.517 552.795 71.573C552.747 70.613 551.419 70.501 550.091 70.197C548.747 69.909 547.435 69.429 547.435 67.749C547.435 65.941 549.387 65.381 550.891 65.381C552.587 65.381 554.123 66.085 554.347 67.925H552.443C552.283 67.061 551.563 66.821 550.763 66.821C550.235 66.821 549.259 66.949 549.259 67.669C549.259 68.565 550.603 68.693 551.947 68.997C553.275 69.301 554.619 69.781 554.619 71.413C554.619 73.381 552.635 74.101 550.923 74.101C548.843 74.101 547.291 73.173 547.259 71.221ZM563.412 68.373H561.588C561.444 67.365 560.708 66.821 559.7 66.821C558.756 66.821 557.428 67.317 557.428 69.829C557.428 71.205 558.036 72.661 559.62 72.661C560.676 72.661 561.412 71.957 561.588 70.773H563.412C563.076 72.917 561.748 74.101 559.62 74.101C557.028 74.101 555.604 72.261 555.604 69.829C555.604 67.333 556.964 65.381 559.684 65.381C561.604 65.381 563.236 66.341 563.412 68.373ZM568.687 72.661C570.319 72.661 571.039 71.173 571.039 69.733C571.039 68.309 570.319 66.821 568.687 66.821C567.055 66.821 566.335 68.309 566.335 69.733C566.335 71.173 567.055 72.661 568.687 72.661ZM568.687 74.101C566.031 74.101 564.511 72.277 564.511 69.733C564.511 67.205 566.031 65.381 568.687 65.381C571.343 65.381 572.863 67.205 572.863 69.733C572.863 72.277 571.343 74.101 568.687 74.101ZM581.643 65.605V73.877H579.851V72.725H579.819C579.371 73.557 578.379 74.101 577.467 74.101C575.307 74.101 574.379 73.013 574.379 70.853V65.605H576.203V70.677C576.203 72.133 576.795 72.661 577.787 72.661C579.307 72.661 579.819 71.685 579.819 70.405V65.605H581.643ZM583.567 73.877V65.605H585.295V66.821L585.327 66.853C585.871 65.941 586.815 65.381 587.903 65.381C589.695 65.381 590.831 66.341 590.831 68.197V73.877H589.007V68.677C588.975 67.381 588.463 66.821 587.391 66.821C586.175 66.821 585.391 67.781 585.391 68.997V73.877H583.567ZM591.922 66.965V65.605H593.298V63.125H595.122V65.605H596.77V66.965H595.122V71.381C595.122 72.133 595.186 72.517 596.002 72.517C596.258 72.517 596.514 72.517 596.77 72.453V73.861C596.37 73.893 595.986 73.957 595.586 73.957C593.682 73.957 593.33 73.221 593.298 71.845V66.965H591.922Z" fill="white"/>
<defs>
<filter id="filter0_d_2005_8262" x="450" y="76" width="460" height="404" filterUnits="userSpaceOnUse" color-interpolation-filters="sRGB">
<feFlood flood-opacity="0" result="BackgroundImageFix"/>
<feColorMatrix in="SourceAlpha" type="matrix" values="0 0 0 0 0 0 0 0 0 0 0 0 0 0 0 0 0 0 127 0" result="hardAlpha"/>
<feOffset/>
<feGaussianBlur stdDeviation="35"/>
<feComposite in2="hardAlpha" operator="out"/>
<feColorMatrix type="matrix" values="0 0 0 0 0 0 0 0 0 0 0 0 0 0 0 0 0 0 0.04 0"/>
<feBlend mode="normal" in2="BackgroundImageFix" result="effect1_dropShadow_2005_8262"/>
<feBlend mode="normal" in="SourceGraphic" in2="effect1_dropShadow_2005_8262" result="shape"/>
</filter>
</defs>
</svg>
