<svg width="16" height="16" viewBox="0 0 16 16" fill="none" xmlns="http://www.w3.org/2000/svg">
<path d="M4.91124 8.11408L6.33383 9.33341V2.83341C6.33383 2.18908 6.85614 1.66675 7.50048 1.66675C8.14481 1.66675 8.66714 2.18908 8.66714 2.83341V6.33341L10.6591 6.65179C11.9448 6.84468 12.5877 6.94108 13.0405 7.21235C13.7885 7.66048 14.3304 8.33341 14.3304 9.31581C14.3304 10.0001 14.1613 10.4591 13.7501 11.6925C13.4893 12.4752 13.3588 12.8665 13.1461 13.1763C12.7959 13.6863 12.2793 14.0586 11.6847 14.2295C11.3236 14.3334 10.9111 14.3334 10.0861 14.3334H9.38688C8.29008 14.3334 7.74168 14.3334 7.25348 14.1321C7.16594 14.0961 7.08034 14.0553 6.99714 14.0101C6.5331 13.7581 6.1873 13.3325 5.49568 12.4813L3.25668 9.72561C2.91262 9.30215 2.91032 8.69615 3.25116 8.27008C3.66084 7.75801 4.41332 7.68728 4.91124 8.11408Z" stroke="#FFA826" stroke-linecap="round" stroke-linejoin="round"/>
<path d="M13.3337 3.00008H10.667M13.3337 3.00008C13.3337 3.37353 12.3375 4.07127 12.0003 4.33342M13.3337 3.00008C13.3337 2.62663 12.3375 1.92889 12.0003 1.66675" stroke="#FFA826" stroke-linecap="round" stroke-linejoin="round"/>
<path d="M1.66699 3.00008H4.33366M1.66699 3.00008C1.66699 2.62663 2.66319 1.92889 3.00033 1.66675M1.66699 3.00008C1.66699 3.37353 2.66319 4.07127 3.00033 4.33342" stroke="#FFA826" stroke-linecap="round" stroke-linejoin="round"/>
</svg>
