<svg width="1049" height="506" viewBox="0 0 1049 506" fill="none" xmlns="http://www.w3.org/2000/svg">
<path d="M16.392 14.312H13.392C12.888 12.344 11.616 10.904 9.12 10.904C5.448 10.904 3.912 14.144 3.912 17.432C3.912 20.72 5.448 23.96 9.12 23.96C11.784 23.96 13.248 21.968 13.488 19.472H16.416C16.176 23.576 13.272 26.408 9.12 26.408C3.984 26.408 0.912 22.328 0.912 17.432C0.912 12.536 3.984 8.456 9.12 8.456C12.984 8.48 16.032 10.616 16.392 14.312ZM24.4483 24.176C26.8963 24.176 27.9763 21.944 27.9763 19.784C27.9763 17.648 26.8963 15.416 24.4483 15.416C22.0003 15.416 20.9203 17.648 20.9203 19.784C20.9203 21.944 22.0003 24.176 24.4483 24.176ZM24.4483 26.336C20.4643 26.336 18.1843 23.6 18.1843 19.784C18.1843 15.992 20.4643 13.256 24.4483 13.256C28.4323 13.256 30.7123 15.992 30.7123 19.784C30.7123 23.6 28.4323 26.336 24.4483 26.336ZM36.2749 26L31.7629 13.592H34.7389L37.8829 23.12H37.9309L40.9549 13.592H43.7869L39.3469 26H36.2749ZM53.0882 21.824V19.784C52.2482 20.336 50.9282 20.312 49.7282 20.528C48.5522 20.72 47.4962 21.152 47.4962 22.592C47.4962 23.816 49.0562 24.176 50.0162 24.176C51.2162 24.176 53.0882 23.552 53.0882 21.824ZM55.8242 16.856V23.24C55.8242 23.912 55.9682 24.176 56.4722 24.176C56.6402 24.176 56.8562 24.176 57.1442 24.128V26.024C56.7362 26.168 55.8722 26.336 55.4162 26.336C54.3122 26.336 53.5202 25.952 53.3042 24.824C52.2242 25.88 50.4722 26.336 49.0082 26.336C46.7762 26.336 44.7602 25.136 44.7602 22.712C44.7602 19.616 47.2322 19.112 49.5362 18.848C51.5042 18.488 53.2562 18.704 53.2562 17.096C53.2562 15.68 51.7922 15.416 50.6882 15.416C49.1522 15.416 48.0722 16.04 47.9522 17.384H45.2162C45.4082 14.192 48.1202 13.256 50.8562 13.256C53.2802 13.256 55.8242 14.24 55.8242 16.856ZM58.7681 26V13.592H61.3361V15.992H61.3841C61.6961 14.672 63.3281 13.256 65.0081 13.256C65.6321 13.256 65.8001 13.304 66.0401 13.328V15.968C65.6561 15.92 65.2481 15.848 64.8641 15.848C62.9921 15.848 61.5041 17.36 61.5041 20.096V26H58.7681ZM67.2776 26V13.592H70.0136V26H67.2776ZM67.2776 11.456V8.864H70.0136V11.456H67.2776ZM80.6507 21.824V19.784C79.8107 20.336 78.4907 20.312 77.2907 20.528C76.1147 20.72 75.0587 21.152 75.0587 22.592C75.0587 23.816 76.6187 24.176 77.5787 24.176C78.7787 24.176 80.6507 23.552 80.6507 21.824ZM83.3867 16.856V23.24C83.3867 23.912 83.5307 24.176 84.0347 24.176C84.2027 24.176 84.4187 24.176 84.7067 24.128V26.024C84.2987 26.168 83.4347 26.336 82.9787 26.336C81.8747 26.336 81.0827 25.952 80.8667 24.824C79.7867 25.88 78.0347 26.336 76.5707 26.336C74.3387 26.336 72.3227 25.136 72.3227 22.712C72.3227 19.616 74.7947 19.112 77.0987 18.848C79.0667 18.488 80.8187 18.704 80.8187 17.096C80.8187 15.68 79.3547 15.416 78.2507 15.416C76.7147 15.416 75.6347 16.04 75.5147 17.384H72.7787C72.9707 14.192 75.6827 13.256 78.4187 13.256C80.8427 13.256 83.3867 14.24 83.3867 16.856ZM85.0826 15.632V13.592H87.1466V9.872H89.8826V13.592H92.3546V15.632H89.8826V22.256C89.8826 23.384 89.9786 23.96 91.2026 23.96C91.5866 23.96 91.9706 23.96 92.3546 23.864V25.976C91.7546 26.024 91.1786 26.12 90.5786 26.12C87.7226 26.12 87.1946 25.016 87.1466 22.952V15.632H85.0826ZM105.579 20.504H96.4588C96.4588 22.448 97.5148 24.176 99.7948 24.176C101.379 24.176 102.339 23.48 102.819 22.112H105.411C104.811 24.824 102.507 26.336 99.7948 26.336C95.9068 26.336 93.7228 23.624 93.7228 19.808C93.7228 16.28 96.0268 13.256 99.7228 13.256C103.635 13.256 106.035 16.784 105.579 20.504ZM96.4588 18.704H102.843C102.747 16.976 101.571 15.416 99.7228 15.416C97.8268 15.416 96.5308 16.856 96.4588 18.704ZM106.987 22.016H109.723C109.867 23.6 111.067 24.176 112.531 24.176C113.563 24.176 115.363 23.96 115.291 22.544C115.219 21.104 113.227 20.936 111.235 20.48C109.219 20.048 107.251 19.328 107.251 16.808C107.251 14.096 110.179 13.256 112.435 13.256C114.979 13.256 117.283 14.312 117.619 17.072H114.763C114.523 15.776 113.443 15.416 112.243 15.416C111.451 15.416 109.987 15.608 109.987 16.688C109.987 18.032 112.003 18.224 114.019 18.68C116.011 19.136 118.027 19.856 118.027 22.304C118.027 25.256 115.051 26.336 112.483 26.336C109.363 26.336 107.035 24.944 106.987 22.016Z" fill="#404040"/>
<rect x="1" y="48" width="246" height="177" rx="3" fill="white" stroke="#78BF45" stroke-width="2"/>
<path d="M32.296 77.574C32.296 75.792 33.718 74.37 35.5 74.37C37.282 74.37 38.722 75.792 38.722 77.574C38.722 79.356 37.282 80.796 35.5 80.796C33.718 80.796 32.296 79.356 32.296 77.574ZM54.958 73.362L53.014 78.888H56.938L55.012 73.362H54.958ZM48.874 84L53.806 71.148H56.2L61.15 84H58.738L57.532 80.598H52.402L51.196 84H48.874ZM66.1359 82.38C67.9539 82.38 68.6379 80.724 68.6379 79.14C68.6379 77.538 67.9179 76.062 66.1359 76.062C64.3179 76.062 63.6879 77.754 63.6879 79.302C63.6879 80.832 64.4259 82.38 66.1359 82.38ZM70.6899 74.694V83.514C70.6899 86.304 69.0519 87.69 66.1179 87.69C64.2459 87.69 62.1399 86.97 61.9599 84.792H64.0119C64.2639 85.962 65.1999 86.16 66.2439 86.16C67.8999 86.16 68.6379 85.314 68.6379 83.784V82.362H68.6019C68.0259 83.388 66.9639 84 65.8119 84C62.8599 84 61.6359 81.768 61.6359 79.104C61.6359 76.602 63.2019 74.442 65.8479 74.442C67.0179 74.442 68.0799 74.928 68.6019 75.972H68.6379V74.694H70.6899ZM81.1978 79.878H74.3578C74.3578 81.336 75.1498 82.632 76.8598 82.632C78.0478 82.632 78.7678 82.11 79.1278 81.084H81.0718C80.6218 83.118 78.8938 84.252 76.8598 84.252C73.9438 84.252 72.3058 82.218 72.3058 79.356C72.3058 76.71 74.0338 74.442 76.8058 74.442C79.7398 74.442 81.5398 77.088 81.1978 79.878ZM74.3578 78.528H79.1458C79.0738 77.232 78.1918 76.062 76.8058 76.062C75.3838 76.062 74.4118 77.142 74.3578 78.528ZM32.296 105.574C32.296 103.792 33.718 102.37 35.5 102.37C37.282 102.37 38.722 103.792 38.722 105.574C38.722 107.356 37.282 108.796 35.5 108.796C33.718 108.796 32.296 107.356 32.296 105.574ZM49.594 107.716H51.844C51.844 109.696 53.302 110.47 55.102 110.47C57.082 110.47 57.82 109.498 57.82 108.526C57.82 107.536 57.28 107.14 56.758 106.942C55.858 106.6 54.688 106.366 52.924 105.88C50.728 105.286 50.08 103.954 50.08 102.622C50.08 100.048 52.456 98.842 54.778 98.842C57.46 98.842 59.71 100.264 59.71 102.946H57.46C57.352 101.29 56.236 100.678 54.688 100.678C53.644 100.678 52.33 101.056 52.33 102.352C52.33 103.252 52.942 103.756 53.86 104.008C54.058 104.062 56.902 104.8 57.568 104.998C59.26 105.502 60.07 106.942 60.07 108.274C60.07 111.154 57.514 112.306 54.958 112.306C52.024 112.306 49.648 110.902 49.594 107.716ZM70.1939 107.878H63.3539C63.3539 109.336 64.1459 110.632 65.8559 110.632C67.0439 110.632 67.7639 110.11 68.1239 109.084H70.0679C69.6179 111.118 67.8899 112.252 65.8559 112.252C62.9399 112.252 61.3019 110.218 61.3019 107.356C61.3019 104.71 63.0299 102.442 65.8019 102.442C68.7359 102.442 70.5359 105.088 70.1939 107.878ZM63.3539 106.528H68.1419C68.0699 105.232 67.1879 104.062 65.8019 104.062C64.3799 104.062 63.4079 105.142 63.3539 106.528ZM70.7458 112L74.2558 107.104L71.0338 102.694H73.5178L75.4618 105.556L77.4958 102.694H79.8718L76.7038 106.996L80.2678 112H77.8018L75.4438 108.562L73.1578 112H70.7458ZM32.296 133.574C32.296 131.792 33.718 130.37 35.5 130.37C37.282 130.37 38.722 131.792 38.722 133.574C38.722 135.356 37.282 136.796 35.5 136.796C33.718 136.796 32.296 135.356 32.296 133.574ZM49.594 135.716H51.844C51.844 137.696 53.302 138.47 55.102 138.47C57.082 138.47 57.82 137.498 57.82 136.526C57.82 135.536 57.28 135.14 56.758 134.942C55.858 134.6 54.688 134.366 52.924 133.88C50.728 133.286 50.08 131.954 50.08 130.622C50.08 128.048 52.456 126.842 54.778 126.842C57.46 126.842 59.71 128.264 59.71 130.946H57.46C57.352 129.29 56.236 128.678 54.688 128.678C53.644 128.678 52.33 129.056 52.33 130.352C52.33 131.252 52.942 131.756 53.86 132.008C54.058 132.062 56.902 132.8 57.568 132.998C59.26 133.502 60.07 134.942 60.07 136.274C60.07 139.154 57.514 140.306 54.958 140.306C52.024 140.306 49.648 138.902 49.594 135.716ZM65.3879 140V134.96L60.5639 127.148H63.1739L66.5759 132.908L69.9239 127.148H72.4439L67.6379 134.96V140H65.3879ZM72.9377 135.716H75.1878C75.1878 137.696 76.6458 138.47 78.4458 138.47C80.4258 138.47 81.1638 137.498 81.1638 136.526C81.1638 135.536 80.6238 135.14 80.1018 134.942C79.2018 134.6 78.0318 134.366 76.2678 133.88C74.0718 133.286 73.4238 131.954 73.4238 130.622C73.4238 128.048 75.7998 126.842 78.1218 126.842C80.8038 126.842 83.0538 128.264 83.0538 130.946H80.8038C80.6958 129.29 79.5798 128.678 78.0318 128.678C76.9878 128.678 75.6738 129.056 75.6738 130.352C75.6738 131.252 76.2858 131.756 77.2038 132.008C77.4018 132.062 80.2458 132.8 80.9118 132.998C82.6038 133.502 83.4138 134.942 83.4138 136.274C83.4138 139.154 80.8578 140.306 78.3018 140.306C75.3678 140.306 72.9918 138.902 72.9377 135.716ZM87.6336 134.15V138.164H91.6116C92.9796 138.164 93.7716 137.426 93.7716 136.13C93.7716 134.87 92.9796 134.15 91.6116 134.15H87.6336ZM85.3836 140V127.148H91.6296C93.9336 127.148 95.4456 128.192 95.4456 130.334C95.4456 131.63 94.7796 132.566 93.6096 133.07V133.106C95.1756 133.448 96.0216 134.672 96.0216 136.418C96.0216 138.434 94.6176 140 91.2876 140H85.3836ZM87.6336 128.984V132.53H91.3056C92.3856 132.53 93.1956 131.9 93.1956 130.748C93.1956 129.452 92.5296 128.984 91.3056 128.984H87.6336ZM100.307 128.984V133.232H103.601C104.609 133.232 105.851 132.728 105.851 131.108C105.851 129.416 104.825 128.984 103.637 128.984H100.307ZM98.0575 140V127.148H103.727C107.399 127.148 108.101 129.524 108.101 131.126C108.101 132.71 107.399 135.086 103.727 135.068H100.307V140H98.0575ZM32.296 161.574C32.296 159.792 33.718 158.37 35.5 158.37C37.282 158.37 38.722 159.792 38.722 161.574C38.722 163.356 37.282 164.796 35.5 164.796C33.718 164.796 32.296 163.356 32.296 161.574ZM52.618 156.984V161.232H55.912C56.92 161.232 58.162 160.728 58.162 159.108C58.162 157.416 57.136 156.984 55.948 156.984H52.618ZM50.368 168V155.148H56.038C59.71 155.148 60.412 157.524 60.412 159.126C60.412 160.71 59.71 163.086 56.038 163.068H52.618V168H50.368ZM66.3519 166.632C68.1879 166.632 68.9979 164.958 68.9979 163.338C68.9979 161.736 68.1879 160.062 66.3519 160.062C64.5159 160.062 63.7059 161.736 63.7059 163.338C63.7059 164.958 64.5159 166.632 66.3519 166.632ZM66.3519 168.252C63.3639 168.252 61.6539 166.2 61.6539 163.338C61.6539 160.494 63.3639 158.442 66.3519 158.442C69.3399 158.442 71.0499 160.494 71.0499 163.338C71.0499 166.2 69.3399 168.252 66.3519 168.252ZM79.9738 163.356C79.9738 161.664 79.0918 160.062 77.3998 160.062C75.6718 160.062 74.7898 161.376 74.7898 163.356C74.7898 165.228 75.7438 166.632 77.3998 166.632C79.2718 166.632 79.9738 164.976 79.9738 163.356ZM72.8098 171.438V158.694H74.7538V159.954H74.7898C75.3658 158.892 76.4818 158.442 77.6698 158.442C80.6038 158.442 82.0258 160.674 82.0258 163.392C82.0258 165.894 80.7658 168.252 78.0118 168.252C76.8238 168.252 75.5458 167.82 74.8978 166.794H74.8618V171.438H72.8098ZM91.9317 158.694V168H89.9157V166.704H89.8797C89.3757 167.64 88.2597 168.252 87.2337 168.252C84.8037 168.252 83.7597 167.028 83.7597 164.598V158.694H85.8117V164.4C85.8117 166.038 86.4777 166.632 87.5937 166.632C89.3037 166.632 89.8797 165.534 89.8797 164.094V158.694H91.9317ZM94.1496 168V155.148H96.2016V168H94.1496ZM104.179 164.868V163.338C103.549 163.752 102.559 163.734 101.659 163.896C100.777 164.04 99.9854 164.364 99.9854 165.444C99.9854 166.362 101.155 166.632 101.875 166.632C102.775 166.632 104.179 166.164 104.179 164.868ZM106.231 161.142V165.93C106.231 166.434 106.339 166.632 106.717 166.632C106.843 166.632 107.005 166.632 107.221 166.596V168.018C106.915 168.126 106.267 168.252 105.925 168.252C105.097 168.252 104.503 167.964 104.341 167.118C103.531 167.91 102.217 168.252 101.119 168.252C99.4454 168.252 97.9334 167.352 97.9334 165.534C97.9334 163.212 99.7874 162.834 101.515 162.636C102.991 162.366 104.305 162.528 104.305 161.322C104.305 160.26 103.207 160.062 102.379 160.062C101.227 160.062 100.417 160.53 100.327 161.538H98.2754C98.4194 159.144 100.453 158.442 102.505 158.442C104.323 158.442 106.231 159.18 106.231 161.142ZM107.503 160.224V158.694H109.051V155.904H111.103V158.694H112.957V160.224H111.103V165.192C111.103 166.038 111.175 166.47 112.093 166.47C112.381 166.47 112.669 166.47 112.957 166.398V167.982C112.507 168.018 112.075 168.09 111.625 168.09C109.483 168.09 109.087 167.262 109.051 165.714V160.224H107.503ZM114.488 168V158.694H116.54V168H114.488ZM114.488 157.092V155.148H116.54V157.092H114.488ZM123.041 166.632C124.877 166.632 125.687 164.958 125.687 163.338C125.687 161.736 124.877 160.062 123.041 160.062C121.205 160.062 120.395 161.736 120.395 163.338C120.395 164.958 121.205 166.632 123.041 166.632ZM123.041 168.252C120.053 168.252 118.343 166.2 118.343 163.338C118.343 160.494 120.053 158.442 123.041 158.442C126.029 158.442 127.739 160.494 127.739 163.338C127.739 166.2 126.029 168.252 123.041 168.252ZM129.445 168V158.694H131.389V160.062L131.425 160.098C132.037 159.072 133.099 158.442 134.323 158.442C136.339 158.442 137.617 159.522 137.617 161.61V168H135.565V162.15C135.529 160.692 134.953 160.062 133.747 160.062C132.379 160.062 131.497 161.142 131.497 162.51V168H129.445ZM32.296 189.574C32.296 187.792 33.718 186.37 35.5 186.37C37.282 186.37 38.722 187.792 38.722 189.574C38.722 191.356 37.282 192.796 35.5 192.796C33.718 192.796 32.296 191.356 32.296 189.574ZM49.144 185.092V183.148H59.548V185.092H55.462V196H53.212V185.092H49.144ZM67.2696 186.694V196H65.2536V194.704H65.2176C64.7136 195.64 63.5976 196.252 62.5716 196.252C60.1416 196.252 59.0976 195.028 59.0976 192.598V186.694H61.1496V192.4C61.1496 194.038 61.8156 194.632 62.9316 194.632C64.6416 194.632 65.2176 193.534 65.2176 192.094V186.694H67.2696ZM69.4335 196V186.694H71.3775V187.99H71.4315C72.0435 187.072 72.8175 186.442 74.2935 186.442C75.4275 186.442 76.4895 186.928 76.9035 187.99C77.5875 187.036 78.4695 186.442 79.8195 186.442C81.7815 186.442 82.9335 187.306 82.9335 189.574V196H80.8815V190.564C80.8815 189.088 80.7915 188.062 79.1895 188.062C77.8035 188.062 77.2095 188.98 77.2095 190.546V196H75.1575V190.024C75.1575 188.746 74.7615 188.062 73.5195 188.062C72.4575 188.062 71.4855 188.926 71.4855 190.474V196H69.4335ZM89.3616 194.632C91.1976 194.632 92.0076 192.958 92.0076 191.338C92.0076 189.736 91.1976 188.062 89.3616 188.062C87.5256 188.062 86.7156 189.736 86.7156 191.338C86.7156 192.958 87.5256 194.632 89.3616 194.632ZM89.3616 196.252C86.3736 196.252 84.6636 194.2 84.6636 191.338C84.6636 188.494 86.3736 186.442 89.3616 186.442C92.3496 186.442 94.0596 188.494 94.0596 191.338C94.0596 194.2 92.3496 196.252 89.3616 196.252ZM95.7655 196V186.694H97.6915V188.494H97.7275C97.9615 187.504 99.1855 186.442 100.446 186.442C100.914 186.442 101.04 186.478 101.22 186.496V188.476C100.932 188.44 100.626 188.386 100.338 188.386C98.9335 188.386 97.8175 189.52 97.8175 191.572V196H95.7655Z" fill="#404040"/>
<path d="M1.824 416V398.864H14.16V401.456H4.824V405.944H13.464V408.392H4.824V413.408H14.328V416H1.824ZM15.2132 416L19.8932 409.472L15.5972 403.592H18.9092L21.5012 407.408L24.2132 403.592H27.3812L23.1572 409.328L27.9092 416H24.6212L21.4772 411.416L18.4292 416H15.2132ZM39.0718 409.808C39.0718 407.552 37.8958 405.416 35.6398 405.416C33.3358 405.416 32.1598 407.168 32.1598 409.808C32.1598 412.304 33.4318 414.176 35.6398 414.176C38.1358 414.176 39.0718 411.968 39.0718 409.808ZM29.5198 420.584V403.592H32.1118V405.272H32.1598C32.9278 403.856 34.4158 403.256 35.9998 403.256C39.9118 403.256 41.8078 406.232 41.8078 409.856C41.8078 413.192 40.1278 416.336 36.4558 416.336C34.8718 416.336 33.1678 415.76 32.3038 414.392H32.2558V420.584H29.5198ZM49.8077 414.176C52.2557 414.176 53.3357 411.944 53.3357 409.784C53.3357 407.648 52.2557 405.416 49.8077 405.416C47.3597 405.416 46.2797 407.648 46.2797 409.784C46.2797 411.944 47.3597 414.176 49.8077 414.176ZM49.8077 416.336C45.8237 416.336 43.5437 413.6 43.5437 409.784C43.5437 405.992 45.8237 403.256 49.8077 403.256C53.7917 403.256 56.0717 405.992 56.0717 409.784C56.0717 413.6 53.7917 416.336 49.8077 416.336ZM57.6743 412.016H60.4103C60.5543 413.6 61.7543 414.176 63.2183 414.176C64.2503 414.176 66.0503 413.96 65.9783 412.544C65.9063 411.104 63.9143 410.936 61.9223 410.48C59.9062 410.048 57.9383 409.328 57.9383 406.808C57.9383 404.096 60.8663 403.256 63.1223 403.256C65.6663 403.256 67.9703 404.312 68.3063 407.072H65.4503C65.2103 405.776 64.1303 405.416 62.9303 405.416C62.1383 405.416 60.6743 405.608 60.6743 406.688C60.6743 408.032 62.6903 408.224 64.7063 408.68C66.6983 409.136 68.7143 409.856 68.7143 412.304C68.7143 415.256 65.7383 416.336 63.1703 416.336C60.0503 416.336 57.7223 414.944 57.6743 412.016ZM81.6876 403.592V416H78.9996V414.272H78.9516C78.2796 415.52 76.7916 416.336 75.4236 416.336C72.1836 416.336 70.7916 414.704 70.7916 411.464V403.592H73.5276V411.2C73.5276 413.384 74.4156 414.176 75.9036 414.176C78.1836 414.176 78.9516 412.712 78.9516 410.792V403.592H81.6876ZM84.5728 416V403.592H87.1408V405.992H87.1888C87.5008 404.672 89.1328 403.256 90.8128 403.256C91.4368 403.256 91.6048 403.304 91.8448 403.328V405.968C91.4608 405.92 91.0528 405.848 90.6688 405.848C88.7968 405.848 87.3088 407.36 87.3088 410.096V416H84.5728ZM103.844 410.504H94.7244C94.7244 412.448 95.7804 414.176 98.0604 414.176C99.6444 414.176 100.604 413.48 101.084 412.112H103.676C103.076 414.824 100.772 416.336 98.0604 416.336C94.1724 416.336 91.9884 413.624 91.9884 409.808C91.9884 406.28 94.2924 403.256 97.9884 403.256C101.9 403.256 104.3 406.784 103.844 410.504ZM94.7244 408.704H101.108C101.012 406.976 99.8364 405.416 97.9884 405.416C96.0924 405.416 94.7964 406.856 94.7244 408.704Z" fill="#404040"/>
<rect x="1" y="438" width="246" height="67" rx="3" fill="white" stroke="#78BF45" stroke-width="2"/>
<path d="M32.296 467.574C32.296 465.792 33.718 464.37 35.5 464.37C37.282 464.37 38.722 465.792 38.722 467.574C38.722 469.356 37.282 470.796 35.5 470.796C33.718 470.796 32.296 469.356 32.296 467.574ZM49.144 463.092V461.148H59.548V463.092H55.462V474H53.212V463.092H49.144ZM59.0976 474V464.694H61.0236V466.494H61.0596C61.2936 465.504 62.5176 464.442 63.7776 464.442C64.2456 464.442 64.3716 464.478 64.5516 464.496V466.476C64.2636 466.44 63.9576 466.386 63.6696 466.386C62.2656 466.386 61.1496 467.52 61.1496 469.572V474H59.0976ZM73.5513 469.878H66.7113C66.7113 471.336 67.5033 472.632 69.2133 472.632C70.4013 472.632 71.1213 472.11 71.4813 471.084H73.4253C72.9753 473.118 71.2473 474.252 69.2133 474.252C66.2973 474.252 64.6593 472.218 64.6593 469.356C64.6593 466.71 66.3873 464.442 69.1593 464.442C72.0933 464.442 73.8933 467.088 73.5513 469.878ZM66.7113 468.528H71.4993C71.4273 467.232 70.5453 466.062 69.1593 466.062C67.7373 466.062 66.7653 467.142 66.7113 468.528ZM80.8533 470.868V469.338C80.2233 469.752 79.2333 469.734 78.3333 469.896C77.4513 470.04 76.6593 470.364 76.6593 471.444C76.6593 472.362 77.8293 472.632 78.5493 472.632C79.4493 472.632 80.8533 472.164 80.8533 470.868ZM82.9053 467.142V471.93C82.9053 472.434 83.0133 472.632 83.3913 472.632C83.5173 472.632 83.6793 472.632 83.8953 472.596V474.018C83.5893 474.126 82.9413 474.252 82.5993 474.252C81.7713 474.252 81.1773 473.964 81.0153 473.118C80.2053 473.91 78.8913 474.252 77.7933 474.252C76.1193 474.252 74.6073 473.352 74.6073 471.534C74.6073 469.212 76.4613 468.834 78.1893 468.636C79.6653 468.366 80.9793 468.528 80.9793 467.322C80.9793 466.26 79.8813 466.062 79.0533 466.062C77.9013 466.062 77.0913 466.53 77.0013 467.538H74.9493C75.0933 465.144 77.1273 464.442 79.1793 464.442C80.9973 464.442 82.9053 465.18 82.9053 467.142ZM84.1772 466.224V464.694H85.7252V461.904H87.7772V464.694H89.6312V466.224H87.7772V471.192C87.7772 472.038 87.8492 472.47 88.7672 472.47C89.0552 472.47 89.3432 472.47 89.6312 472.398V473.982C89.1812 474.018 88.7492 474.09 88.2992 474.09C86.1572 474.09 85.7612 473.262 85.7252 471.714V466.224H84.1772ZM91.1073 474V464.694H93.0513V465.99H93.1053C93.7173 465.072 94.4913 464.442 95.9673 464.442C97.1013 464.442 98.1633 464.928 98.5773 465.99C99.2613 465.036 100.143 464.442 101.493 464.442C103.455 464.442 104.607 465.306 104.607 467.574V474H102.555V468.564C102.555 467.088 102.465 466.062 100.863 466.062C99.4773 466.062 98.8833 466.98 98.8833 468.546V474H96.8313V468.024C96.8313 466.746 96.4353 466.062 95.1933 466.062C94.1313 466.062 93.1593 466.926 93.1593 468.474V474H91.1073ZM115.211 469.878H108.371C108.371 471.336 109.163 472.632 110.873 472.632C112.061 472.632 112.781 472.11 113.141 471.084H115.085C114.635 473.118 112.907 474.252 110.873 474.252C107.957 474.252 106.319 472.218 106.319 469.356C106.319 466.71 108.047 464.442 110.819 464.442C113.753 464.442 115.553 467.088 115.211 469.878ZM108.371 468.528H113.159C113.087 467.232 112.205 466.062 110.819 466.062C109.397 466.062 108.425 467.142 108.371 468.528ZM116.771 474V464.694H118.715V466.062L118.751 466.098C119.363 465.072 120.425 464.442 121.649 464.442C123.665 464.442 124.943 465.522 124.943 467.61V474H122.891V468.15C122.855 466.692 122.279 466.062 121.073 466.062C119.705 466.062 118.823 467.142 118.823 468.51V474H116.771ZM126.171 466.224V464.694H127.719V461.904H129.771V464.694H131.625V466.224H129.771V471.192C129.771 472.038 129.843 472.47 130.761 472.47C131.049 472.47 131.337 472.47 131.625 472.398V473.982C131.175 474.018 130.743 474.09 130.293 474.09C128.151 474.09 127.755 473.262 127.719 471.714V466.224H126.171ZM149.613 467.232V474H148.173L147.831 472.488C146.625 473.856 145.527 474.306 143.961 474.306C140.109 474.306 137.805 471.246 137.805 467.574C137.805 463.902 140.109 460.842 143.961 460.842C146.769 460.842 149.127 462.336 149.469 465.234H147.273C147.057 463.542 145.581 462.678 143.961 462.678C141.207 462.678 140.055 465.108 140.055 467.574C140.055 470.04 141.207 472.47 143.961 472.47C146.265 472.506 147.525 471.12 147.561 468.942H144.141V467.232H149.613ZM151.769 474V464.694H153.695V466.494H153.731C153.965 465.504 155.189 464.442 156.449 464.442C156.917 464.442 157.043 464.478 157.223 464.496V466.476C156.935 466.44 156.629 466.386 156.341 466.386C154.937 466.386 153.821 467.52 153.821 469.572V474H151.769ZM162.047 472.632C163.883 472.632 164.693 470.958 164.693 469.338C164.693 467.736 163.883 466.062 162.047 466.062C160.211 466.062 159.401 467.736 159.401 469.338C159.401 470.958 160.211 472.632 162.047 472.632ZM162.047 474.252C159.059 474.252 157.349 472.2 157.349 469.338C157.349 466.494 159.059 464.442 162.047 464.442C165.035 464.442 166.745 466.494 166.745 469.338C166.745 472.2 165.035 474.252 162.047 474.252ZM176.623 464.694V474H174.607V472.704H174.571C174.067 473.64 172.951 474.252 171.925 474.252C169.495 474.252 168.451 473.028 168.451 470.598V464.694H170.503V470.4C170.503 472.038 171.169 472.632 172.285 472.632C173.995 472.632 174.571 471.534 174.571 470.094V464.694H176.623ZM186.005 469.356C186.005 467.664 185.123 466.062 183.431 466.062C181.703 466.062 180.821 467.376 180.821 469.356C180.821 471.228 181.775 472.632 183.431 472.632C185.303 472.632 186.005 470.976 186.005 469.356ZM178.841 477.438V464.694H180.785V465.954H180.821C181.397 464.892 182.513 464.442 183.701 464.442C186.635 464.442 188.057 466.674 188.057 469.392C188.057 471.894 186.797 474.252 184.043 474.252C182.855 474.252 181.577 473.82 180.929 472.794H180.893V477.438H178.841Z" fill="#404040"/>
<path d="M791.12 213.456C796.256 213.456 799.328 217.536 799.328 222.432C799.328 227.328 796.256 231.408 791.12 231.408C785.984 231.408 782.912 227.328 782.912 222.432C782.912 217.536 785.984 213.456 791.12 213.456ZM791.12 215.904C787.448 215.904 785.912 219.144 785.912 222.432C785.912 225.72 787.448 228.96 791.12 228.96C794.792 228.96 796.328 225.72 796.328 222.432C796.328 219.144 794.792 215.904 791.12 215.904ZM812.57 218.592V231H809.882V229.272H809.834C809.162 230.52 807.674 231.336 806.306 231.336C803.066 231.336 801.674 229.704 801.674 226.464V218.592H804.41V226.2C804.41 228.384 805.298 229.176 806.786 229.176C809.066 229.176 809.834 227.712 809.834 225.792V218.592H812.57ZM814.208 220.632V218.592H816.272V214.872H819.008V218.592H821.48V220.632H819.008V227.256C819.008 228.384 819.104 228.96 820.328 228.96C820.712 228.96 821.096 228.96 821.48 228.864V230.976C820.88 231.024 820.304 231.12 819.704 231.12C816.848 231.12 816.32 230.016 816.272 227.952V220.632H814.208ZM834.56 222.744H831.824C831.608 221.232 830.504 220.416 828.992 220.416C827.576 220.416 825.584 221.16 825.584 224.928C825.584 226.992 826.496 229.176 828.872 229.176C830.456 229.176 831.56 228.12 831.824 226.344H834.56C834.056 229.56 832.064 231.336 828.872 231.336C824.984 231.336 822.848 228.576 822.848 224.928C822.848 221.184 824.888 218.256 828.968 218.256C831.848 218.256 834.296 219.696 834.56 222.744ZM842.472 229.176C844.92 229.176 846 226.944 846 224.784C846 222.648 844.92 220.416 842.472 220.416C840.024 220.416 838.944 222.648 838.944 224.784C838.944 226.944 840.024 229.176 842.472 229.176ZM842.472 231.336C838.488 231.336 836.208 228.6 836.208 224.784C836.208 220.992 838.488 218.256 842.472 218.256C846.456 218.256 848.736 220.992 848.736 224.784C848.736 228.6 846.456 231.336 842.472 231.336ZM851.01 231V218.592H853.602V220.32H853.674C854.49 219.096 855.522 218.256 857.49 218.256C859.002 218.256 860.418 218.904 860.97 220.32C861.882 219.048 863.058 218.256 864.858 218.256C867.474 218.256 869.01 219.408 869.01 222.432V231H866.274V223.752C866.274 221.784 866.154 220.416 864.018 220.416C862.17 220.416 861.378 221.64 861.378 223.728V231H858.642V223.032C858.642 221.328 858.114 220.416 856.458 220.416C855.042 220.416 853.746 221.568 853.746 223.632V231H851.01ZM883.149 225.504H874.029C874.029 227.448 875.085 229.176 877.365 229.176C878.949 229.176 879.909 228.48 880.389 227.112H882.981C882.381 229.824 880.077 231.336 877.365 231.336C873.477 231.336 871.293 228.624 871.293 224.808C871.293 221.28 873.597 218.256 877.293 218.256C881.205 218.256 883.605 221.784 883.149 225.504ZM874.029 223.704H880.413C880.317 221.976 879.141 220.416 877.293 220.416C875.397 220.416 874.101 221.856 874.029 223.704Z" fill="#404040"/>
<rect x="783" y="253" width="265" height="67" rx="3" fill="white" stroke="#78BF45" stroke-width="2"/>
<path d="M807.618 277.984V282.232H810.912C811.92 282.232 813.162 281.728 813.162 280.108C813.162 278.416 812.136 277.984 810.948 277.984H807.618ZM805.368 289V276.148H811.038C814.71 276.148 815.412 278.524 815.412 280.126C815.412 281.71 814.71 284.086 811.038 284.068H807.618V289H805.368ZM817.086 289V279.694H819.012V281.494H819.048C819.282 280.504 820.506 279.442 821.766 279.442C822.234 279.442 822.36 279.478 822.54 279.496V281.476C822.252 281.44 821.946 281.386 821.658 281.386C820.254 281.386 819.138 282.52 819.138 284.572V289H817.086ZM827.364 287.632C829.2 287.632 830.01 285.958 830.01 284.338C830.01 282.736 829.2 281.062 827.364 281.062C825.528 281.062 824.718 282.736 824.718 284.338C824.718 285.958 825.528 287.632 827.364 287.632ZM827.364 289.252C824.376 289.252 822.666 287.2 822.666 284.338C822.666 281.494 824.376 279.442 827.364 279.442C830.352 279.442 832.062 281.494 832.062 284.338C832.062 287.2 830.352 289.252 827.364 289.252ZM837.818 287.38C839.636 287.38 840.32 285.724 840.32 284.14C840.32 282.538 839.6 281.062 837.818 281.062C836 281.062 835.37 282.754 835.37 284.302C835.37 285.832 836.108 287.38 837.818 287.38ZM842.372 279.694V288.514C842.372 291.304 840.734 292.69 837.8 292.69C835.928 292.69 833.822 291.97 833.642 289.792H835.694C835.946 290.962 836.882 291.16 837.926 291.16C839.582 291.16 840.32 290.314 840.32 288.784V287.362H840.284C839.708 288.388 838.646 289 837.494 289C834.542 289 833.318 286.768 833.318 284.104C833.318 281.602 834.884 279.442 837.53 279.442C838.7 279.442 839.762 279.928 840.284 280.972H840.32V279.694H842.372ZM844.437 289V279.694H846.363V281.494H846.399C846.633 280.504 847.857 279.442 849.117 279.442C849.585 279.442 849.711 279.478 849.891 279.496V281.476C849.603 281.44 849.297 281.386 849.009 281.386C847.605 281.386 846.489 282.52 846.489 284.572V289H844.437ZM858.891 284.878H852.051C852.051 286.336 852.843 287.632 854.553 287.632C855.741 287.632 856.461 287.11 856.821 286.084H858.765C858.315 288.118 856.587 289.252 854.553 289.252C851.637 289.252 849.999 287.218 849.999 284.356C849.999 281.71 851.727 279.442 854.499 279.442C857.433 279.442 859.233 282.088 858.891 284.878ZM852.051 283.528H856.839C856.767 282.232 855.885 281.062 854.499 281.062C853.077 281.062 852.105 282.142 852.051 283.528ZM859.947 286.012H861.999C862.107 287.2 863.007 287.632 864.105 287.632C864.879 287.632 866.229 287.47 866.175 286.408C866.121 285.328 864.627 285.202 863.133 284.86C861.621 284.536 860.145 283.996 860.145 282.106C860.145 280.072 862.341 279.442 864.033 279.442C865.941 279.442 867.669 280.234 867.921 282.304H865.779C865.599 281.332 864.789 281.062 863.889 281.062C863.295 281.062 862.197 281.206 862.197 282.016C862.197 283.024 863.709 283.168 865.221 283.51C866.715 283.852 868.227 284.392 868.227 286.228C868.227 288.442 865.995 289.252 864.069 289.252C861.729 289.252 859.983 288.208 859.947 286.012ZM869.281 286.012H871.333C871.441 287.2 872.341 287.632 873.439 287.632C874.213 287.632 875.563 287.47 875.509 286.408C875.455 285.328 873.961 285.202 872.467 284.86C870.955 284.536 869.479 283.996 869.479 282.106C869.479 280.072 871.675 279.442 873.367 279.442C875.275 279.442 877.003 280.234 877.255 282.304H875.113C874.933 281.332 874.123 281.062 873.223 281.062C872.629 281.062 871.531 281.206 871.531 282.016C871.531 283.024 873.043 283.168 874.555 283.51C876.049 283.852 877.561 284.392 877.561 286.228C877.561 288.442 875.329 289.252 873.403 289.252C871.063 289.252 869.317 288.208 869.281 286.012ZM879.173 289V279.694H881.225V289H879.173ZM879.173 278.092V276.148H881.225V278.092H879.173ZM887.727 287.632C889.563 287.632 890.373 285.958 890.373 284.338C890.373 282.736 889.563 281.062 887.727 281.062C885.891 281.062 885.081 282.736 885.081 284.338C885.081 285.958 885.891 287.632 887.727 287.632ZM887.727 289.252C884.739 289.252 883.029 287.2 883.029 284.338C883.029 281.494 884.739 279.442 887.727 279.442C890.715 279.442 892.425 281.494 892.425 284.338C892.425 287.2 890.715 289.252 887.727 289.252ZM894.131 289V279.694H896.075V281.062L896.111 281.098C896.723 280.072 897.785 279.442 899.009 279.442C901.025 279.442 902.303 280.522 902.303 282.61V289H900.251V283.15C900.215 281.692 899.639 281.062 898.433 281.062C897.065 281.062 896.183 282.142 896.183 283.51V289H894.131ZM909.764 289V276.148H918.638V278.092H912.014V281.458H917.828V283.294H912.014V289H909.764ZM920.146 289V279.694H922.072V281.494H922.108C922.342 280.504 923.566 279.442 924.826 279.442C925.294 279.442 925.42 279.478 925.6 279.496V281.476C925.312 281.44 925.006 281.386 924.718 281.386C923.314 281.386 922.198 282.52 922.198 284.572V289H920.146ZM934.6 284.878H927.76C927.76 286.336 928.552 287.632 930.262 287.632C931.45 287.632 932.17 287.11 932.53 286.084H934.474C934.024 288.118 932.296 289.252 930.262 289.252C927.346 289.252 925.708 287.218 925.708 284.356C925.708 281.71 927.436 279.442 930.208 279.442C933.142 279.442 934.942 282.088 934.6 284.878ZM927.76 283.528H932.548C932.476 282.232 931.594 281.062 930.208 281.062C928.786 281.062 927.814 282.142 927.76 283.528ZM944.602 284.878H937.762C937.762 286.336 938.554 287.632 940.264 287.632C941.452 287.632 942.172 287.11 942.532 286.084H944.476C944.026 288.118 942.298 289.252 940.264 289.252C937.348 289.252 935.71 287.218 935.71 284.356C935.71 281.71 937.438 279.442 940.21 279.442C943.144 279.442 944.944 282.088 944.602 284.878ZM937.762 283.528H942.55C942.478 282.232 941.596 281.062 940.21 281.062C938.788 281.062 937.816 282.142 937.762 283.528ZM950.686 284.716H952.936C952.936 286.696 954.394 287.47 956.194 287.47C958.174 287.47 958.912 286.498 958.912 285.526C958.912 284.536 958.372 284.14 957.85 283.942C956.95 283.6 955.78 283.366 954.016 282.88C951.82 282.286 951.172 280.954 951.172 279.622C951.172 277.048 953.548 275.842 955.87 275.842C958.552 275.842 960.802 277.264 960.802 279.946H958.552C958.444 278.29 957.328 277.678 955.78 277.678C954.736 277.678 953.422 278.056 953.422 279.352C953.422 280.252 954.034 280.756 954.952 281.008C955.15 281.062 957.994 281.8 958.66 281.998C960.352 282.502 961.162 283.942 961.162 285.274C961.162 288.154 958.606 289.306 956.05 289.306C953.116 289.306 950.74 287.902 950.686 284.716ZM971.016 279.694V289H969V287.704H968.964C968.46 288.64 967.344 289.252 966.318 289.252C963.888 289.252 962.844 288.028 962.844 285.598V279.694H964.896V285.4C964.896 287.038 965.562 287.632 966.678 287.632C968.388 287.632 968.964 286.534 968.964 285.094V279.694H971.016ZM973.18 289V279.694H975.106V281.494H975.142C975.376 280.504 976.6 279.442 977.86 279.442C978.328 279.442 978.454 279.478 978.634 279.496V281.476C978.346 281.44 978.04 281.386 977.752 281.386C976.348 281.386 975.232 282.52 975.232 284.572V289H973.18ZM981.974 289L978.59 279.694H980.822L983.18 286.84H983.216L985.484 279.694H987.608L984.278 289H981.974ZM988.896 289V279.694H990.948V289H988.896ZM988.896 278.092V276.148H990.948V278.092H988.896ZM995.65 289L992.266 279.694H994.498L996.856 286.84H996.892L999.16 279.694H1001.28L997.954 289H995.65ZM1008.26 285.868V284.338C1007.63 284.752 1006.64 284.734 1005.74 284.896C1004.86 285.04 1004.07 285.364 1004.07 286.444C1004.07 287.362 1005.24 287.632 1005.96 287.632C1006.86 287.632 1008.26 287.164 1008.26 285.868ZM1010.31 282.142V286.93C1010.31 287.434 1010.42 287.632 1010.8 287.632C1010.92 287.632 1011.09 287.632 1011.3 287.596V289.018C1011 289.126 1010.35 289.252 1010.01 289.252C1009.18 289.252 1008.58 288.964 1008.42 288.118C1007.61 288.91 1006.3 289.252 1005.2 289.252C1003.53 289.252 1002.01 288.352 1002.01 286.534C1002.01 284.212 1003.87 283.834 1005.6 283.636C1007.07 283.366 1008.39 283.528 1008.39 282.322C1008.39 281.26 1007.29 281.062 1006.46 281.062C1005.31 281.062 1004.5 281.53 1004.41 282.538H1002.36C1002.5 280.144 1004.53 279.442 1006.59 279.442C1008.4 279.442 1010.31 280.18 1010.31 282.142ZM1012.57 289V276.148H1014.63V289H1012.57Z" fill="#404040"/>
<path d="M252 470C251.172 470 250.5 470.672 250.5 471.5C250.5 472.328 251.172 473 252 473V470ZM779.061 287.561C779.646 286.975 779.646 286.025 779.061 285.439L769.515 275.893C768.929 275.308 767.979 275.308 767.393 275.893C766.808 276.479 766.808 277.429 767.393 278.015L775.879 286.5L767.393 294.985C766.808 295.571 766.808 296.521 767.393 297.107C767.979 297.692 768.929 297.692 769.515 297.107L779.061 287.561ZM252 473H491V470H252V473ZM516.5 447.5V310.5H513.5V447.5H516.5ZM539 288H778V285H539V288ZM516.5 310.5C516.5 298.074 526.574 288 539 288V285C524.917 285 513.5 296.417 513.5 310.5H516.5ZM491 473C505.083 473 516.5 461.583 516.5 447.5H513.5C513.5 459.926 503.426 470 491 470V473Z" fill="#78BF45"/>
<path d="M252 470C251.172 470 250.5 470.672 250.5 471.5C250.5 472.328 251.172 473 252 473V470ZM779.061 287.561C779.646 286.975 779.646 286.025 779.061 285.439L769.515 275.893C768.929 275.308 767.979 275.308 767.393 275.893C766.808 276.479 766.808 277.429 767.393 278.015L775.879 286.5L767.393 294.985C766.808 295.571 766.808 296.521 767.393 297.107C767.979 297.692 768.929 297.692 769.515 297.107L779.061 287.561ZM252 473H491V470H252V473ZM516.5 447.5V310.5H513.5V447.5H516.5ZM539 288H778V285H539V288ZM516.5 310.5C516.5 298.074 526.574 288 539 288V285C524.917 285 513.5 296.417 513.5 310.5H516.5ZM491 473C505.083 473 516.5 461.583 516.5 447.5H513.5C513.5 459.926 503.426 470 491 470V473Z" fill="#78BF45"/>
<path d="M252 470C251.172 470 250.5 470.672 250.5 471.5C250.5 472.328 251.172 473 252 473V470ZM779.061 287.561C779.646 286.975 779.646 286.025 779.061 285.439L769.515 275.893C768.929 275.308 767.979 275.308 767.393 275.893C766.808 276.479 766.808 277.429 767.393 278.015L775.879 286.5L767.393 294.985C766.808 295.571 766.808 296.521 767.393 297.107C767.979 297.692 768.929 297.692 769.515 297.107L779.061 287.561ZM252 473H491V470H252V473ZM516.5 447.5V310.5H513.5V447.5H516.5ZM539 288H778V285H539V288ZM516.5 310.5C516.5 298.074 526.574 288 539 288V285C524.917 285 513.5 296.417 513.5 310.5H516.5ZM491 473C505.083 473 516.5 461.583 516.5 447.5H513.5C513.5 459.926 503.426 470 491 470V473Z" fill="#78BF45"/>
<path d="M252 135C251.172 135 250.5 135.672 250.5 136.5C250.5 137.328 251.172 138 252 138V135ZM779.061 287.561C779.646 286.975 779.646 286.025 779.061 285.439L769.515 275.893C768.929 275.308 767.979 275.308 767.393 275.893C766.808 276.479 766.808 277.429 767.393 278.015L775.879 286.5L767.393 294.985C766.808 295.571 766.808 296.521 767.393 297.107C767.979 297.692 768.929 297.692 769.515 297.107L779.061 287.561ZM252 138H491V135H252V138ZM513.5 160.5V262.5H516.5V160.5H513.5ZM539 288H778V285H539V288ZM513.5 262.5C513.5 276.583 524.917 288 539 288V285C526.574 285 516.5 274.926 516.5 262.5H513.5ZM491 138C503.426 138 513.5 148.074 513.5 160.5H516.5C516.5 146.417 505.083 135 491 135V138Z" fill="#78BF45"/>
<path d="M252 470C251.172 470 250.5 470.672 250.5 471.5C250.5 472.328 251.172 473 252 473V470ZM779.061 287.561C779.646 286.975 779.646 286.025 779.061 285.439L769.515 275.893C768.929 275.308 767.979 275.308 767.393 275.893C766.808 276.479 766.808 277.429 767.393 278.015L775.879 286.5L767.393 294.985C766.808 295.571 766.808 296.521 767.393 297.107C767.979 297.692 768.929 297.692 769.515 297.107L779.061 287.561ZM252 473H491V470H252V473ZM516.5 447.5V310.5H513.5V447.5H516.5ZM539 288H778V285H539V288ZM516.5 310.5C516.5 298.074 526.574 288 539 288V285C524.917 285 513.5 296.417 513.5 310.5H516.5ZM491 473C505.083 473 516.5 461.583 516.5 447.5H513.5C513.5 459.926 503.426 470 491 470V473Z" fill="#78BF45"/>
<path d="M125.5 230C125.5 229.172 124.828 228.5 124 228.5C123.172 228.5 122.5 229.172 122.5 230H125.5ZM122.939 434.061C123.525 434.646 124.475 434.646 125.061 434.061L134.607 424.515C135.192 423.929 135.192 422.979 134.607 422.393C134.021 421.808 133.071 421.808 132.485 422.393L124 430.879L115.515 422.393C114.929 421.808 113.979 421.808 113.393 422.393C112.808 422.979 112.808 423.929 113.393 424.515L122.939 434.061ZM122.5 230V433H125.5V230H122.5Z" fill="#78BF45"/>
</svg>
