<svg width="194" height="154" viewBox="0 0 194 154" fill="none" xmlns="http://www.w3.org/2000/svg">
<g clip-path="url(#clip0_904_8781)">
<rect x="0.0648193" y="0.152344" width="193.899" height="153.414" rx="4.26533" fill="#FCFCFC"/>
<line x1="7.53081" y1="18.3799" x2="7.5308" y2="148.749" stroke="#DFE8EC" stroke-width="1.78587"/>
<line x1="6.63719" y1="147.856" x2="265.589" y2="147.856" stroke="#DFE8EC" stroke-width="1.78587"/>
<line x1="6.63719" y1="51.4186" x2="265.589" y2="51.4186" stroke="#DFE8EC" stroke-width="1.78587"/>
<line x1="6.63719" y1="115.71" x2="265.589" y2="115.71" stroke="#DFE8EC" stroke-width="1.78587"/>
<line x1="6.63771" y1="19.2728" x2="265.589" y2="19.2728" stroke="#DFE8EC" stroke-width="1.78587"/>
<line x1="6.63719" y1="83.5639" x2="265.589" y2="83.5639" stroke="#DFE8EC" stroke-width="1.78587"/>
<path d="M26.2835 83.5644L58.4293 73.7421L82.5386 58.5622L117.363 104.995L140.579 63.9198L162.01 88.922L184.333 73.7421L203.978 81.7785L255.768 46.061" stroke="#78BF45" stroke-width="1.78587"/>
<circle cx="26.2827" cy="84.457" r="3.57175" fill="#78BF45"/>
<circle cx="58.4292" cy="73.7422" r="3.57175" fill="#78BF45"/>
<circle cx="81.6448" cy="57.6689" r="3.57175" fill="#78BF45"/>
<circle cx="117.362" cy="104.102" r="3.57175" fill="#78BF45"/>
<circle cx="140.578" cy="63.0266" r="3.57175" fill="#78BF45"/>
<circle cx="162.009" cy="88.0288" r="3.57175" fill="#78BF45"/>
<circle cx="185.226" cy="73.7422" r="3.57175" fill="#78BF45"/>
</g>
<defs>
<clipPath id="clip0_904_8781">
<rect x="0.0648193" y="0.152344" width="193.899" height="153.414" rx="4.26533" fill="white"/>
</clipPath>
</defs>
</svg>
