<svg width="26" height="27" viewBox="0 0 26 27" fill="none" xmlns="http://www.w3.org/2000/svg">
<g clip-path="url(#clip0_690_30037)">
<path d="M25.6535 24.8197L18.9761 18.1424C20.7106 16.021 21.5634 13.3141 21.3581 10.5816C21.1528 7.84909 19.9051 5.30002 17.8731 3.46165C15.841 1.62328 13.1801 0.636264 10.4408 0.704756C7.70142 0.773249 5.09318 1.89201 3.15556 3.82963C1.21794 5.76726 0.0991766 8.37549 0.0306841 11.1149C-0.0378084 13.8542 0.949209 16.5151 2.78758 18.5471C4.62595 20.5792 7.17502 21.8269 9.90753 22.0322C12.64 22.2375 15.3469 21.3847 17.4683 19.6502L24.1457 26.3275L25.6535 24.8197ZM10.7248 19.9295C9.0376 19.9295 7.38828 19.4292 5.98542 18.4919C4.58256 17.5545 3.48916 16.2222 2.8435 14.6634C2.19783 13.1046 2.0289 11.3894 2.35806 9.73463C2.68721 8.07984 3.49968 6.55982 4.69271 5.36679C5.88575 4.17375 7.40577 3.36128 9.06055 3.03213C10.7153 2.70297 12.4306 2.87191 13.9893 3.51757C15.5481 4.16324 16.8804 5.25663 17.8178 6.65949C18.7552 8.06235 19.2555 9.71167 19.2555 11.3989C19.2529 13.6606 18.3533 15.8289 16.7541 17.4282C15.1548 19.0274 12.9865 19.927 10.7248 19.9295Z" fill="#78BF45"/>
</g>
<defs>
<clipPath id="clip0_690_30037">
<rect width="25.592" height="25.592" fill="white" transform="translate(0.0615234 0.734619)"/>
</clipPath>
</defs>
</svg>
