<svg width="194" height="154" viewBox="0 0 194 154" fill="none" xmlns="http://www.w3.org/2000/svg">
<g clip-path="url(#clip0_904_8678)">
<rect x="0.0430908" y="0.152344" width="193.899" height="153.414" rx="4.26533" fill="#FCFCFC"/>
<line x1="6.30763" y1="18.3799" x2="6.30762" y2="148.749" stroke="#DFE8EC" stroke-width="1.78587"/>
<line x1="5.41466" y1="147.856" x2="264.366" y2="147.856" stroke="#DFE8EC" stroke-width="1.78587"/>
<line x1="5.41466" y1="51.4183" x2="264.366" y2="51.4183" stroke="#DFE8EC" stroke-width="1.78587"/>
<line x1="5.41466" y1="115.71" x2="264.366" y2="115.71" stroke="#DFE8EC" stroke-width="1.78587"/>
<line x1="5.41473" y1="19.2728" x2="264.366" y2="19.2728" stroke="#DFE8EC" stroke-width="1.78587"/>
<line x1="5.41466" y1="83.5639" x2="264.366" y2="83.5639" stroke="#DFE8EC" stroke-width="1.78587"/>
<path d="M62.1265 118.665L69.27 122.79V131.038L62.1265 135.162L54.983 131.038V122.79L62.1265 118.665Z" fill="#78BF45"/>
<path d="M79.2706 90.0911L86.4141 94.2154V102.464L79.2706 106.588L72.1272 102.464V94.2154L79.2706 90.0911Z" fill="#003F59"/>
<path d="M61.4124 90.0911L68.5559 94.2154V102.464L61.4124 106.588L54.2689 102.464V94.2154L61.4124 90.0911Z" fill="#78BF45"/>
<path d="M43.554 90.0911L50.6975 94.2154V102.464L43.554 106.588L36.4105 102.464V94.2154L43.554 90.0911Z" fill="#78BF45"/>
<path d="M79.2706 61.5168L86.4141 65.6411V73.8897L79.2706 78.014L72.1272 73.8897V65.6411L79.2706 61.5168Z" fill="#78BF45"/>
<path d="M79.2706 118.665L86.4141 122.79V131.038L79.2706 135.162L72.1272 131.038V122.79L79.2706 118.665Z" fill="#C6FAA1"/>
<path d="M182.137 118.665L189.281 122.79V131.038L182.137 135.162L174.994 131.038V122.79L182.137 118.665Z" fill="#78BF45"/>
<path d="M96.4158 90.0911L103.559 94.2154V102.464L96.4158 106.588L89.2723 102.464V94.2154L96.4158 90.0911Z" fill="#78BF45"/>
<path d="M96.4158 61.5168L103.559 65.6411V73.8897L96.4158 78.014L89.2723 73.8897V65.6411L96.4158 61.5168Z" fill="#003F59"/>
<path d="M199.282 90.0911L206.425 94.2154V102.464L199.282 106.588L192.138 102.464V94.2154L199.282 90.0911Z" fill="#78BF45"/>
<path d="M199.282 61.5168L206.425 65.6411V73.8897L199.282 78.014L192.138 73.8897V65.6411L199.282 61.5168Z" fill="#78BF45"/>
<path d="M113.56 61.5168L120.704 65.6411V73.8897L113.56 78.014L106.417 73.8897V65.6411L113.56 61.5168Z" fill="#78BF45"/>
<path d="M113.56 118.665L120.704 122.79V131.038L113.56 135.162L106.417 131.038V122.79L113.56 118.665Z" fill="#78BF45"/>
<path d="M130.704 61.5168L137.848 65.6411V73.8897L130.704 78.014L123.561 73.8897V65.6411L130.704 61.5168Z" fill="#003F59"/>
<path d="M130.704 118.665L137.848 122.79V131.038L130.704 135.162L123.561 131.038V122.79L130.704 118.665Z" fill="#003F59"/>
<path d="M147.849 90.0911L154.992 94.2154V102.464L147.849 106.588L140.705 102.464V94.2154L147.849 90.0911Z" fill="#78BF45"/>
<path d="M147.849 61.5168L154.992 65.6411V73.8897L147.849 78.014L140.705 73.8897V65.6411L147.849 61.5168Z" fill="#003F59"/>
<path d="M147.849 118.665L154.992 122.79V131.038L147.849 135.162L140.705 131.038V122.79L147.849 118.665Z" fill="#C6FAA1"/>
<path d="M164.993 90.0911L172.136 94.2154V102.464L164.993 106.588L157.849 102.464V94.2154L164.993 90.0911Z" fill="#78BF45"/>
<path d="M70.6996 47.2302L77.8431 51.3545V59.6031L70.6996 63.7274L63.5561 59.6031V51.3545L70.6996 47.2302Z" fill="#C6FAA1"/>
<path d="M70.6986 104.378L77.8421 108.502V116.751L70.6986 120.875L63.5551 116.751V108.502L70.6986 104.378Z" fill="#78BF45"/>
<path d="M173.566 104.378L180.709 108.502V116.751L173.566 120.875L166.422 116.751V108.502L173.566 104.378Z" fill="#78BF45"/>
<path d="M173.566 75.804L180.709 79.9283V88.1769L173.566 92.3012L166.422 88.1769V79.9283L173.566 75.804Z" fill="#78BF45"/>
<path d="M87.843 75.804L94.9865 79.9283V88.1769L87.843 92.3012L80.6995 88.1769V79.9283L87.843 75.804Z" fill="#78BF45"/>
<path d="M70.3422 75.804L77.4857 79.9283V88.1769L70.3422 92.3012L63.1987 88.1769V79.9283L70.3422 75.804Z" fill="#78BF45"/>
<path d="M35.3386 75.804L42.4821 79.9283V88.1769L35.3386 92.3012L28.1951 88.1769V79.9283L35.3386 75.804Z" fill="#C6FAA1"/>
<path d="M87.843 47.2302L94.9865 51.3545V59.6031L87.843 63.7274L80.6995 59.6031V51.3545L87.843 47.2302Z" fill="#C6FAA1"/>
<path d="M79.2709 32.6665L86.4144 36.7908V45.0394L79.2709 49.1637L72.1274 45.0394V36.7908L79.2709 32.6665Z" fill="#78BF45"/>
<path d="M87.843 104.378L94.9865 108.502V116.751L87.843 120.875L80.6995 116.751V108.502L87.843 104.378Z" fill="#78BF45"/>
<path d="M190.71 75.804L197.853 79.9283V88.1769L190.71 92.3012L183.566 88.1769V79.9283L190.71 75.804Z" fill="#003F59"/>
<path d="M190.71 47.2302L197.853 51.3545V59.6031L190.71 63.7274L183.566 59.6031V51.3545L190.71 47.2302Z" fill="#78BF45"/>
<path d="M104.988 75.804L112.132 79.9283V88.1769L104.988 92.3012L97.8446 88.1769V79.9283L104.988 75.804Z" fill="#78BF45"/>
<path d="M104.988 47.2302L112.132 51.3545V59.6031L104.988 63.7274L97.8446 59.6031V51.3545L104.988 47.2302Z" fill="#78BF45"/>
<path d="M104.988 104.378L112.132 108.502V116.751L104.988 120.875L97.8446 116.751V108.502L104.988 104.378Z" fill="#78BF45"/>
<path d="M122.132 75.804L129.275 79.9283V88.1769L122.132 92.3012L114.988 88.1769V79.9283L122.132 75.804Z" fill="#78BF45"/>
<path d="M139.277 75.804L146.42 79.9283V88.1769L139.277 92.3012L132.133 88.1769V79.9283L139.277 75.804Z" fill="#78BF45"/>
<path d="M139.277 104.378L146.42 108.502V116.751L139.277 120.875L132.133 116.751V108.502L139.277 104.378Z" fill="#C6FAA1"/>
<path d="M156.421 75.804L163.565 79.9283V88.1769L156.421 92.3012L149.278 88.1769V79.9283L156.421 75.804Z" fill="#78BF45"/>
<path d="M156.421 47.2302L163.565 51.3545V59.6031L156.421 63.7274L149.278 59.6031V51.3545L156.421 47.2302Z" fill="#78BF45"/>
<path d="M156.421 104.378L163.565 108.502V116.751L156.421 120.875L149.278 116.751V108.502L156.421 104.378Z" fill="#78BF45"/>
</g>
<defs>
<clipPath id="clip0_904_8678">
<rect x="0.0430908" y="0.152344" width="193.899" height="153.414" rx="4.26533" fill="white"/>
</clipPath>
</defs>
</svg>
