<svg width="147" height="67" viewBox="0 0 147 67" fill="none" xmlns="http://www.w3.org/2000/svg">
<g clip-path="url(#clip0_977_334)">
<path d="M86.7562 34.9007L81.5531 29.7615C83.201 28.011 84.1219 25.7007 84.1297 23.2979H87.2183C87.2953 23.7858 87.5537 24.2268 87.9418 24.5328C88.33 24.8389 88.8195 24.9874 89.3125 24.9488C89.8055 24.9103 90.2658 24.6874 90.6015 24.3247C90.9372 23.962 91.1237 23.4862 91.1237 22.9923C91.1237 22.4983 90.9372 22.0225 90.6015 21.6598C90.2658 21.2971 89.8055 21.0743 89.3125 21.0357C88.8195 20.9971 88.33 21.1457 87.9418 21.4517C87.5537 21.7577 87.2953 22.1987 87.2183 22.6866H84.1151C84.0185 21.0585 83.5023 19.483 82.6166 18.1129L85.3223 14.9944C85.9785 15.3385 86.7045 15.529 87.4453 15.5514C88.1861 15.5738 88.9223 15.4275 89.5981 15.1236C90.274 14.8196 90.8717 14.3661 91.3461 13.7972C91.8204 13.2284 92.159 12.5592 92.3361 11.8403C92.5132 11.1214 92.5243 10.3716 92.3684 9.64786C92.2125 8.92408 91.8937 8.24522 91.4363 7.66271C90.9788 7.08019 90.3947 6.6093 89.7281 6.28568C89.0615 5.96207 88.3299 5.79423 87.5887 5.79486C83.6115 5.79486 81.3013 10.3146 83.6344 13.5287L81.1681 16.3686C80.2083 15.4505 79.0661 14.7442 77.8155 14.2954C76.5649 13.8467 75.2339 13.6655 73.9087 13.7636V5.68676C74.5643 5.60909 75.1655 5.28415 75.5892 4.7784C76.013 4.27265 76.2273 3.6243 76.1883 2.96594C76.1494 2.30757 75.8601 1.68894 75.3797 1.23656C74.8993 0.784181 74.264 0.532227 73.6038 0.532227C72.9436 0.532227 72.3083 0.784181 71.8278 1.23656C71.3474 1.68894 71.0582 2.30757 71.0192 2.96594C70.9803 3.6243 71.1946 4.27265 71.6183 4.7784C72.0421 5.28415 72.6432 5.60909 73.2989 5.68676V13.8281C71.5964 14.0622 69.9895 14.7535 68.6494 15.8281L65.5733 12.6805C65.9282 12.1603 66.0772 11.527 65.9912 10.9033C65.9053 10.2797 65.5907 9.7101 65.1083 9.305C64.6259 8.8999 64.0101 8.68814 63.3803 8.71077C62.7505 8.7334 62.1515 8.9888 61.6995 9.42746C61.2475 9.86613 60.9746 10.4568 60.9338 11.085C60.8929 11.7132 61.087 12.3342 61.4785 12.8276C61.8699 13.321 62.4307 13.6516 63.0523 13.7554C63.6739 13.8592 64.312 13.7288 64.8428 13.3894L67.8897 16.5079C66.3243 18.0545 65.3445 20.0957 65.1175 22.2833H62.083C61.9055 21.3518 61.3866 20.5199 60.6277 19.9504C59.8688 19.3808 58.9245 19.1145 57.9794 19.2035C57.0343 19.2925 56.1565 19.7305 55.5176 20.4318C54.8786 21.133 54.5245 22.0472 54.5245 22.9954C54.5245 23.9436 54.8786 24.8577 55.5176 25.559C56.1565 26.2603 57.0343 26.6982 57.9794 26.7873C58.9245 26.8763 59.8688 26.61 60.6277 26.0404C61.3866 25.4708 61.9055 24.6389 62.083 23.7074H65.0779C65.1918 26.1444 66.2405 28.4441 68.0063 30.1294L66.6909 33.04C66.2253 32.9125 65.7378 32.8858 65.261 32.9616C64.7842 33.0375 64.3292 33.2142 63.9263 33.48C63.5234 33.7457 63.1819 34.0943 62.9248 34.5025C62.6677 34.9107 62.5008 35.3691 62.4354 35.8469C62.3699 36.3247 62.4073 36.811 62.5452 37.2732C62.683 37.7354 62.9181 38.1628 63.2347 38.5269C63.5513 38.891 63.9421 39.1834 64.3809 39.3845C64.8198 39.5855 65.2965 39.6906 65.7793 39.6928C69.1405 39.6928 70.4538 35.2978 67.6191 33.4558L68.8096 30.8093C70.2917 31.9477 72.077 32.6242 73.9421 32.754C75.8072 32.8838 77.6692 32.4612 79.295 31.539L84.752 36.9173C84.4203 37.7216 84.3785 38.616 84.6336 39.4477C84.8888 40.2794 85.4251 40.9968 86.151 41.4773C86.8769 41.9578 87.7473 42.1717 88.6135 42.0823C89.4797 41.993 90.288 41.6059 90.9003 40.9873C91.5125 40.3688 91.8908 39.557 91.9704 38.6908C92.05 37.8246 91.826 36.9576 91.3368 36.238C90.8475 35.5184 90.1233 34.9908 89.2879 34.7454C88.4524 34.5 87.5576 34.5519 86.7562 34.8924V34.9007ZM84.9414 10.6805C84.9414 10.1579 85.0965 9.64699 85.3872 9.21245C85.6779 8.77791 86.091 8.43923 86.5744 8.23923C87.0577 8.03924 87.5896 7.98691 88.1027 8.08886C88.6159 8.19082 89.0872 8.44249 89.4572 8.81203C89.8271 9.18158 90.079 9.65241 90.1811 10.165C90.2832 10.6776 90.2308 11.2089 90.0306 11.6917C89.8304 12.1745 89.4913 12.5872 89.0563 12.8776C88.6213 13.1679 88.1099 13.3229 87.5867 13.3229C86.8853 13.3223 86.2128 13.0438 85.7168 12.5483C85.2208 12.0529 84.9419 11.3811 84.9414 10.6805ZM71.6214 3.1192C71.6214 2.71522 71.7453 2.32095 71.9766 1.98955C72.2079 1.65815 72.5353 1.40557 72.9148 1.26586C73.2943 1.12615 73.7075 1.10604 74.0988 1.20823C74.49 1.31043 74.8405 1.53002 75.1029 1.83739C75.3654 2.14476 75.5271 2.52513 75.5664 2.92719C75.6057 3.32926 75.5206 3.73369 75.3226 4.08595C75.1246 4.4382 74.8233 4.72134 74.4592 4.89717C74.0951 5.07301 73.6857 5.13308 73.2864 5.06929C72.8235 4.993 72.4028 4.75514 72.0991 4.39805C71.7953 4.04096 71.6283 3.58779 71.6276 3.1192H71.6214ZM61.9477 11.2564C61.948 11.0561 61.9878 10.8578 62.0649 10.6729C62.1419 10.488 62.2547 10.32 62.3968 10.1787C62.5388 10.0373 62.7074 9.92536 62.8928 9.84915C63.0783 9.77294 63.2769 9.734 63.4775 9.73455C65.0987 9.73455 65.592 11.9528 64.1143 12.6451C63.8815 12.7535 63.6249 12.8012 63.3687 12.7839C63.1124 12.7667 62.8646 12.6849 62.6484 12.5464C62.4322 12.4078 62.2546 12.2169 62.1321 11.9913C62.0096 11.7658 61.9462 11.513 61.9477 11.2564ZM65.7793 38.6782C65.4038 38.6782 65.0337 38.5892 64.6993 38.4184C64.365 38.2477 64.076 38.0001 63.8561 37.6961C63.6362 37.392 63.4917 37.0402 63.4345 36.6695C63.3772 36.2987 63.4089 35.9197 63.5268 35.5636C63.6448 35.2075 63.8457 34.8845 64.113 34.621C64.3803 34.3576 64.7064 34.1613 65.0645 34.0483C65.4225 33.9353 65.8023 33.9087 66.1726 33.9709C66.5429 34.0331 66.8932 34.1822 67.1946 34.4059C69.0323 35.776 68.0562 38.6782 65.7793 38.6782ZM90.5108 22.9881C90.5108 24.5806 88.2027 24.8592 87.8406 23.2937C87.7927 23.0928 87.7927 22.8834 87.8406 22.6825C88.2027 21.1295 90.5108 21.3956 90.5108 22.9881ZM58.3409 25.3769C57.8376 25.3765 57.3472 25.2173 56.9399 24.9218C56.5326 24.6264 56.2292 24.2099 56.073 23.7319C55.9169 23.2539 55.916 22.7388 56.0705 22.2603C56.2251 21.7817 56.5271 21.3642 56.9334 21.0674C57.3397 20.7706 57.8295 20.6097 58.3329 20.6077C58.8363 20.6057 59.3274 20.7626 59.7361 21.0562C60.1448 21.3497 60.4501 21.7648 60.6085 22.2421C60.7668 22.7193 60.7701 23.2344 60.6178 23.7137C60.4641 24.1964 60.1606 24.6177 59.7513 24.9167C59.342 25.2157 58.848 25.3769 58.3409 25.3769ZM69.9293 28.3166C65.3506 24.0837 68.3476 16.3811 74.5997 16.3811C76.3272 16.3812 77.9918 17.0293 79.2637 18.1971C80.5356 19.3648 81.3223 20.9671 81.4678 22.6866C81.9735 28.9049 74.5476 32.5619 69.9293 28.3166ZM87.5887 38.9963C87.4821 38.8912 87.4032 38.7614 87.3589 38.6184C87.3146 38.4754 87.3063 38.3238 87.3348 38.1768C87.3633 38.0299 87.4277 37.8923 87.5223 37.7762C87.6169 37.6602 87.7387 37.5692 87.8769 37.5115C88.0151 37.4538 88.1655 37.4311 88.3146 37.4454C88.4638 37.4597 88.6071 37.5106 88.7318 37.5935C88.8565 37.6765 88.9587 37.7889 89.0295 37.9208C89.1002 38.0528 89.1372 38.2001 89.1372 38.3498C89.1372 38.5289 89.0842 38.7041 88.9847 38.8533C88.8853 39.0024 88.744 39.1189 88.5785 39.188C88.413 39.2571 88.2307 39.2758 88.0546 39.2417C87.8785 39.2076 87.7164 39.1222 87.5887 38.9963Z" fill="#78BF45"/>
</g>
<path d="M1.01953 51.7524C1.01953 51.4595 1.06641 51.1636 1.16016 50.8647C1.25977 50.5659 1.3916 50.2847 1.55566 50.021C1.71973 49.7515 1.91016 49.5083 2.12695 49.2915C2.34961 49.0688 2.58398 48.8901 2.83008 48.7554C3.06445 48.6206 3.30176 48.5386 3.54199 48.5093C3.78809 48.48 4.05176 48.4653 4.33301 48.4653C4.64941 48.4653 4.95996 48.5034 5.26465 48.5796C5.56934 48.6499 5.86523 48.7612 6.15234 48.9136C6.17578 48.9312 6.21973 48.9604 6.28418 49.0015C6.34863 49.0425 6.41895 49.0923 6.49512 49.1509C6.57715 49.2095 6.65918 49.271 6.74121 49.3354C6.82324 49.394 6.89648 49.4497 6.96094 49.5024C6.98438 49.5259 7.00488 49.5376 7.02246 49.5376C7.02832 49.5376 7.04297 49.5259 7.06641 49.5024C7.08398 49.479 7.10449 49.4438 7.12793 49.397C7.15723 49.3442 7.18652 49.2915 7.21582 49.2388C7.24512 49.1802 7.27148 49.1274 7.29492 49.0806C7.32422 49.0278 7.34473 48.9927 7.35645 48.9751C7.36816 48.9458 7.38281 48.9194 7.40039 48.896C7.42383 48.8726 7.43848 48.8608 7.44434 48.8608C7.44434 48.855 7.45605 48.8521 7.47949 48.8521C7.51465 48.8521 7.54102 48.8667 7.55859 48.896C7.57617 48.9194 7.58789 48.9487 7.59375 48.9839C7.60547 49.019 7.61133 49.0571 7.61133 49.0981C7.61133 49.1333 7.61133 49.1626 7.61133 49.186V49.2476C7.61133 49.2593 7.6084 49.2827 7.60254 49.3179C7.60254 49.353 7.59961 49.394 7.59375 49.4409C7.58789 49.4819 7.58203 49.52 7.57617 49.5552C7.57617 49.5903 7.57324 49.6138 7.56738 49.6255V51.7964C7.56738 51.8433 7.54688 51.8755 7.50586 51.8931C7.46484 51.9106 7.42969 51.9194 7.40039 51.9194C7.33594 51.9194 7.29785 51.9077 7.28613 51.8843C7.27441 51.855 7.25684 51.8052 7.2334 51.7349C7.16895 51.5825 7.125 51.4272 7.10156 51.269C7.08398 51.105 7.04297 50.938 6.97852 50.7681C6.91406 50.5747 6.80566 50.3667 6.65332 50.144C6.50098 49.9155 6.3252 49.7046 6.12598 49.5112C5.92676 49.3179 5.71875 49.1567 5.50195 49.0278C5.28516 48.8989 5.07715 48.8345 4.87793 48.8345C4.50879 48.8345 4.22461 48.8608 4.02539 48.9136C3.72656 49.0015 3.47461 49.145 3.26953 49.3442C3.07031 49.5376 2.88574 49.7573 2.71582 50.0034C2.66895 50.0737 2.625 50.1646 2.58398 50.2759C2.54297 50.3813 2.50781 50.4956 2.47852 50.6187C2.45508 50.7358 2.43457 50.8501 2.41699 50.9614C2.40527 51.0728 2.39941 51.1636 2.39941 51.2339C2.39941 51.5151 2.45801 51.77 2.5752 51.9985C2.69824 52.2271 2.85645 52.4321 3.0498 52.6138C3.24316 52.7896 3.45996 52.9478 3.7002 53.0884C3.94629 53.2231 4.19238 53.3403 4.43848 53.4399C4.64941 53.5278 4.86621 53.6128 5.08887 53.6948C5.31738 53.7769 5.54004 53.8618 5.75684 53.9497C5.97949 54.0376 6.19043 54.1343 6.38965 54.2397C6.59473 54.3452 6.77637 54.4653 6.93457 54.6001C7.13379 54.7583 7.33008 54.9546 7.52344 55.189C7.7168 55.4175 7.88965 55.6694 8.04199 55.9448C8.2002 56.2144 8.32617 56.4956 8.41992 56.7886C8.51367 57.0815 8.56055 57.3687 8.56055 57.6499C8.56055 58.1948 8.46387 58.687 8.27051 59.1265C8.08301 59.5659 7.81934 59.9409 7.47949 60.2515C7.14551 60.5562 6.75 60.7935 6.29297 60.9634C5.83594 61.1274 5.34375 61.2095 4.81641 61.2095C4.50586 61.2095 4.2041 61.1948 3.91113 61.1655C3.62402 61.1304 3.34863 61.0718 3.08496 60.9897C2.82129 60.9077 2.57227 60.7935 2.33789 60.647C2.10352 60.5005 1.88086 60.313 1.66992 60.0845C1.64648 60.0552 1.61426 60.0376 1.57324 60.0317C1.53809 60.0259 1.50879 60.0229 1.48535 60.0229C1.38574 60.0229 1.31543 60.0493 1.27441 60.1021C1.2334 60.1548 1.19824 60.2163 1.16895 60.2866C1.14551 60.3511 1.11621 60.4097 1.08105 60.4624C1.0459 60.5151 0.984375 60.5415 0.896484 60.5415L1.125 58.1245C1.13672 58.0483 1.14551 57.9575 1.15137 57.8521C1.15723 57.7466 1.17188 57.6763 1.19531 57.6411C1.21289 57.5591 1.24512 57.5181 1.29199 57.5181C1.3623 57.5181 1.41211 57.562 1.44141 57.6499C1.47656 57.7495 1.50586 57.8491 1.5293 57.9487C1.55273 58.0425 1.57324 58.1362 1.59082 58.23C1.6084 58.3237 1.62598 58.4116 1.64355 58.4937C1.66699 58.5757 1.69629 58.6489 1.73145 58.7134C1.86621 58.9536 1.99512 59.1675 2.11816 59.355C2.24707 59.5425 2.3877 59.7153 2.54004 59.8735C2.69824 60.0317 2.87988 60.1753 3.08496 60.3042C3.29004 60.4331 3.53906 60.5532 3.83203 60.6646C4.01367 60.729 4.18652 60.7671 4.35059 60.7788C4.51465 60.7847 4.66406 60.7876 4.79883 60.7876C4.96289 60.7876 5.12695 60.7583 5.29102 60.6997C5.45508 60.6353 5.65137 60.5386 5.87988 60.4097C6.21387 60.2104 6.48047 59.9731 6.67969 59.6978C6.87891 59.4165 6.97852 59.0649 6.97852 58.6431C6.97852 58.3442 6.92285 58.0659 6.81152 57.8081C6.70605 57.5503 6.55957 57.3101 6.37207 57.0874C6.10254 56.7886 5.84473 56.5571 5.59863 56.3931C5.35254 56.2231 5.10938 56.0884 4.86914 55.9888C4.63477 55.8892 4.40039 55.8042 4.16602 55.7339C3.93164 55.6636 3.69141 55.5757 3.44531 55.4702C3.20508 55.3647 2.95898 55.2241 2.70703 55.0483C2.45508 54.8726 2.19141 54.6265 1.91602 54.3101C1.31836 53.6069 1.01953 52.7544 1.01953 51.7524ZM11.9795 61.0864C11.6631 61.0864 11.3613 61.1011 11.0742 61.1304C10.7871 61.1538 10.4707 61.1655 10.125 61.1655H9.77344C9.7207 61.1655 9.68262 61.1333 9.65918 61.0688C9.63574 60.9985 9.62402 60.9458 9.62402 60.9106C9.62402 60.8521 9.62988 60.8022 9.6416 60.7612C9.65918 60.7144 9.68848 60.688 9.72949 60.6821C9.79395 60.6646 9.87012 60.6499 9.95801 60.6382C10.0459 60.6265 10.1367 60.6177 10.2305 60.6118C10.3242 60.6001 10.4121 60.5942 10.4941 60.5942C10.582 60.5884 10.6582 60.5854 10.7227 60.5854C10.8633 60.5854 10.998 60.5532 11.127 60.4888C11.2617 60.4243 11.3701 60.3452 11.4521 60.2515C11.5107 60.1753 11.5605 60.1021 11.6016 60.0317C11.6426 59.9556 11.6777 59.853 11.707 59.7241C11.7422 59.5952 11.7686 59.4282 11.7861 59.2231C11.8096 59.0181 11.833 58.7485 11.8564 58.4146L12.2695 50.8735C12.2695 50.6919 12.249 50.5103 12.208 50.3286C12.167 50.1411 12.0996 49.9683 12.0059 49.8101C11.918 49.646 11.8008 49.5054 11.6543 49.3882C11.5078 49.271 11.3291 49.189 11.1182 49.1421C11.1006 49.1362 11.0537 49.1304 10.9775 49.1245C10.9014 49.1128 10.8193 49.1011 10.7314 49.0894C10.6436 49.0776 10.5615 49.0688 10.4854 49.063C10.4092 49.0513 10.3594 49.0454 10.3359 49.0454C10.2188 49.022 10.125 48.9985 10.0547 48.9751C9.99023 48.9517 9.95801 48.8784 9.95801 48.7554C9.95801 48.7026 9.96094 48.6528 9.9668 48.606C9.97266 48.5532 9.99609 48.5269 10.0371 48.5269H10.3975C10.5498 48.5269 10.6904 48.5327 10.8193 48.5444C10.9541 48.5562 11.0889 48.5708 11.2236 48.5884C11.3584 48.606 11.499 48.6206 11.6455 48.6323C11.7979 48.644 11.9648 48.6499 12.1465 48.6499H12.9814C13.0811 48.6499 13.1719 48.644 13.2539 48.6323C13.3418 48.6147 13.4561 48.606 13.5967 48.606C13.7021 48.606 13.8135 48.6206 13.9307 48.6499C14.0479 48.6733 14.1328 48.7261 14.1855 48.8081C14.2852 48.9253 14.3701 49.0571 14.4404 49.2036C14.5107 49.3442 14.5723 49.4937 14.625 49.6519L17.5781 57.4214C17.6016 57.48 17.625 57.5298 17.6484 57.5708C17.6719 57.606 17.6982 57.6235 17.7275 57.6235C17.7686 57.6235 17.8008 57.6001 17.8242 57.5532C17.8477 57.5063 17.8652 57.4624 17.877 57.4214L21.1992 48.7114C21.2344 48.647 21.2842 48.606 21.3486 48.5884C21.4189 48.5708 21.4951 48.562 21.5771 48.562C21.8701 48.562 22.1514 48.5562 22.4209 48.5444C22.6963 48.5327 22.9688 48.5181 23.2383 48.5005C23.5137 48.4829 23.7891 48.4683 24.0645 48.4565C24.3457 48.4448 24.6416 48.439 24.9521 48.439C24.9697 48.439 24.9932 48.439 25.0225 48.439C25.0576 48.439 25.0898 48.4448 25.1191 48.4565C25.1543 48.4624 25.1836 48.4741 25.207 48.4917C25.2305 48.5093 25.2422 48.5327 25.2422 48.562C25.2422 48.644 25.207 48.729 25.1367 48.8169C25.0664 48.8989 24.9785 48.9399 24.873 48.9399C24.5801 48.9399 24.3369 48.9751 24.1436 49.0454C23.9502 49.1157 23.7539 49.2593 23.5547 49.4761C23.4668 49.564 23.3965 49.6636 23.3438 49.7749C23.291 49.8862 23.2471 50.0063 23.2119 50.1353C23.1826 50.2583 23.1621 50.3872 23.1504 50.522C23.1445 50.6509 23.1416 50.7769 23.1416 50.8999L23.2822 60.2866C23.3232 60.4097 23.4229 60.4946 23.5811 60.5415C23.7393 60.5884 23.915 60.6206 24.1084 60.6382C24.3018 60.6499 24.4893 60.6616 24.6709 60.6733C24.8584 60.6792 25.002 60.7056 25.1016 60.7524C25.1719 60.7817 25.2129 60.8198 25.2246 60.8667C25.2363 60.9077 25.2422 60.9458 25.2422 60.981C25.2422 61.0747 25.1924 61.1333 25.0928 61.1567C24.999 61.1743 24.8701 61.1831 24.7061 61.1831C24.5186 61.1831 24.3428 61.1802 24.1787 61.1743C24.0146 61.1685 23.8506 61.1655 23.6865 61.1655C23.5283 61.1597 23.3613 61.1538 23.1855 61.1479C23.0098 61.1421 22.8135 61.1392 22.5967 61.1392H21.252C21.082 61.1392 20.918 61.1421 20.7598 61.1479C20.6016 61.1479 20.4434 61.1538 20.2852 61.1655C20.0977 61.1831 19.9102 61.1919 19.7227 61.1919C19.6758 61.1919 19.626 61.189 19.5732 61.1831C19.5264 61.1831 19.4795 61.1743 19.4326 61.1567C19.3916 61.1392 19.3564 61.1128 19.3271 61.0776C19.3037 61.0366 19.292 60.9839 19.292 60.9194C19.292 60.8022 19.3652 60.7261 19.5117 60.6909C19.6582 60.6499 19.834 60.6294 20.0391 60.6294H20.4082C20.5312 60.6294 20.6455 60.6265 20.751 60.6206C20.8623 60.6147 20.959 60.5972 21.041 60.5679C21.123 60.5386 21.1875 60.4976 21.2344 60.4448C21.2871 60.3862 21.3135 60.3071 21.3135 60.2075L21.1992 50.8735C21.1992 50.8442 21.1934 50.8032 21.1816 50.7505C21.1699 50.6978 21.1494 50.6714 21.1201 50.6714C21.0791 50.6714 21.0469 50.6802 21.0234 50.6978C21.0059 50.7095 20.9912 50.7212 20.9795 50.7329L17.042 60.981C17.0186 61.0747 16.9834 61.1216 16.9365 61.1216C16.8896 61.1216 16.8486 61.0747 16.8135 60.981L12.8936 50.645C12.876 50.5747 12.8408 50.5396 12.7881 50.5396C12.7646 50.5396 12.7441 50.5454 12.7266 50.5571C12.7148 50.5688 12.709 50.5981 12.709 50.645L12.4805 59.0386C12.4805 59.1089 12.4834 59.2026 12.4893 59.3198C12.501 59.4312 12.5156 59.5483 12.5332 59.6714C12.5566 59.7944 12.583 59.9146 12.6123 60.0317C12.6475 60.1489 12.6914 60.2485 12.7441 60.3306C12.8203 60.4536 12.9346 60.5444 13.0869 60.603C13.2451 60.6558 13.4121 60.6938 13.5879 60.7173C13.7695 60.7349 13.9482 60.7466 14.124 60.7524C14.3057 60.7583 14.458 60.77 14.5811 60.7876C14.6514 60.7935 14.6982 60.8198 14.7217 60.8667C14.751 60.9136 14.7656 60.9634 14.7656 61.0161C14.7656 61.0513 14.7451 61.0806 14.7041 61.104C14.6689 61.1274 14.6221 61.1479 14.5635 61.1655C14.5107 61.1772 14.4492 61.1831 14.3789 61.1831C14.3086 61.189 14.2441 61.1919 14.1855 61.1919C13.9688 61.1919 13.7666 61.186 13.5791 61.1743C13.3916 61.1626 13.21 61.1509 13.0342 61.1392C12.8584 61.1274 12.6855 61.1157 12.5156 61.104C12.3457 61.0923 12.167 61.0864 11.9795 61.0864ZM32.4316 56.1206C32.5605 56.1206 32.625 56.0649 32.625 55.9536C32.625 55.9009 32.6221 55.8599 32.6162 55.8306C32.5811 55.7192 32.5312 55.5581 32.4668 55.3472C32.4023 55.1362 32.3291 54.8931 32.2471 54.6177C32.165 54.3423 32.0742 54.0493 31.9746 53.7388C31.8809 53.4224 31.7842 53.106 31.6846 52.7896C31.5908 52.4731 31.4971 52.1685 31.4033 51.8755C31.3096 51.5767 31.2275 51.3071 31.1572 51.0669C31.1455 51.0552 31.1279 51.0347 31.1045 51.0054C31.0869 50.9761 31.0576 50.9614 31.0166 50.9614C30.9639 50.9614 30.9229 51.0112 30.8936 51.1108C30.8408 51.2573 30.7676 51.4653 30.6738 51.7349C30.5859 52.0044 30.4863 52.3032 30.375 52.6313C30.2637 52.9595 30.1465 53.2993 30.0234 53.6509C29.9062 54.0024 29.7949 54.3306 29.6895 54.6353C29.584 54.9341 29.4932 55.1948 29.417 55.4175C29.3408 55.6343 29.291 55.7778 29.2676 55.8481C29.2559 55.8657 29.25 55.8892 29.25 55.9185C29.25 56.0532 29.3408 56.1206 29.5225 56.1206H32.4316ZM25.1895 60.937C25.1895 60.8374 25.2422 60.7788 25.3477 60.7612C25.4473 60.7437 25.5996 60.7173 25.8047 60.6821C26.1855 60.6001 26.502 60.4331 26.7539 60.1812C27.0059 59.9292 27.2168 59.6421 27.3867 59.3198C27.5566 58.9917 27.6973 58.6519 27.8086 58.3003C27.9258 57.9487 28.0371 57.6323 28.1426 57.3511L30.3926 51.1899C30.4453 51.0376 30.4922 50.9321 30.5332 50.8735C30.5801 50.8091 30.6182 50.7563 30.6475 50.7153C30.6768 50.6685 30.7002 50.6157 30.7178 50.5571C30.7354 50.4985 30.7441 50.396 30.7441 50.2495C30.7441 50.1851 30.7354 50.1265 30.7178 50.0737C30.7002 50.021 30.6797 49.9683 30.6562 49.9155C30.6387 49.8569 30.6211 49.7954 30.6035 49.731C30.5859 49.6606 30.5771 49.5757 30.5771 49.4761C30.7295 49.4585 30.873 49.4351 31.0078 49.4058C31.1484 49.3706 31.2773 49.312 31.3945 49.23C31.459 49.1831 31.5146 49.1216 31.5615 49.0454C31.6084 48.9634 31.6582 48.8843 31.7109 48.8081C31.7637 48.7319 31.8252 48.6675 31.8955 48.6147C31.9658 48.5562 32.0596 48.5269 32.1768 48.5269C32.1885 48.5269 32.2002 48.5298 32.2119 48.5356C32.2236 48.5415 32.2354 48.5591 32.2471 48.5884C32.2588 48.6177 32.2939 48.7319 32.3525 48.9312C32.417 49.1304 32.499 49.397 32.5986 49.731C32.7041 50.0591 32.8213 50.4399 32.9502 50.8735C33.085 51.3071 33.2256 51.77 33.3721 52.2622C33.5244 52.7485 33.6797 53.2554 33.8379 53.7827C34.002 54.3101 34.1631 54.8315 34.3213 55.3472C34.4795 55.8569 34.6289 56.3521 34.7695 56.8325C34.916 57.3071 35.0508 57.7407 35.1738 58.1333C35.2969 58.5259 35.4023 58.8687 35.4902 59.1616C35.5781 59.4487 35.6426 59.6597 35.6836 59.7944C35.748 59.9878 35.8506 60.1577 35.9912 60.3042C36.1318 60.4507 36.2871 60.5503 36.457 60.603C36.627 60.6616 36.7793 60.6938 36.9141 60.6997C37.0547 60.7056 37.1719 60.7114 37.2656 60.7173C37.3652 60.7231 37.4414 60.7437 37.4941 60.7788C37.5469 60.814 37.5732 60.8872 37.5732 60.9985C37.5732 61.0337 37.5615 61.063 37.5381 61.0864C37.5146 61.104 37.4854 61.1187 37.4502 61.1304C37.415 61.1421 37.377 61.1509 37.3359 61.1567C37.3008 61.1567 37.2715 61.1597 37.248 61.1655H36.457C36.4102 61.1655 36.3604 61.1655 36.3076 61.1655C36.2549 61.1597 36.1729 61.1567 36.0615 61.1567C35.9561 61.1509 35.8096 61.1479 35.6221 61.1479C35.4346 61.1421 35.1855 61.1392 34.875 61.1392C34.5469 61.1392 34.2246 61.145 33.9082 61.1567C33.5977 61.1626 33.2812 61.1714 32.959 61.1831H32.5107C32.4639 61.1831 32.4111 61.1802 32.3525 61.1743C32.2939 61.1743 32.2383 61.1685 32.1855 61.1567C32.1328 61.145 32.0889 61.1245 32.0537 61.0952C32.0186 61.0659 32.001 61.0249 32.001 60.9722C32.001 60.9253 32.0244 60.8872 32.0713 60.8579C32.1182 60.8286 32.1738 60.8052 32.2383 60.7876C32.3027 60.77 32.3701 60.7583 32.4404 60.7524C32.5107 60.7407 32.5693 60.7319 32.6162 60.7261C32.8154 60.6968 33.0088 60.6646 33.1963 60.6294C33.3838 60.5884 33.5684 60.5503 33.75 60.5151C33.8848 60.4741 33.9521 60.4009 33.9521 60.2954C33.9521 60.2837 33.9521 60.2661 33.9521 60.2427C33.9521 60.2134 33.9463 60.187 33.9346 60.1636L32.9766 57.0171C32.9648 56.9702 32.9326 56.9175 32.8799 56.8589C32.833 56.8003 32.7744 56.771 32.7041 56.771H29.1357C29.0537 56.771 28.998 56.7856 28.9688 56.8149C28.9395 56.8384 28.9131 56.8647 28.8896 56.894L28.4326 58.1245C28.3564 58.3237 28.3037 58.5054 28.2744 58.6694C28.2451 58.8276 28.2305 58.98 28.2305 59.1265C28.2305 59.3022 28.248 59.4956 28.2832 59.7065C28.3125 59.9175 28.3828 60.0815 28.4941 60.1987C28.6055 60.3159 28.7344 60.4038 28.8809 60.4624C29.0332 60.521 29.1943 60.562 29.3643 60.5854C29.5342 60.603 29.6895 60.6206 29.8301 60.6382C29.9707 60.6558 30.085 60.6821 30.1729 60.7173C30.2666 60.7466 30.3135 60.8052 30.3135 60.8931C30.3135 60.9458 30.2959 61.0015 30.2607 61.0601C30.2314 61.1187 30.1582 61.1538 30.041 61.1655H29.6631C29.3174 61.1538 28.9805 61.1421 28.6523 61.1304C28.3301 61.1128 27.9932 61.104 27.6416 61.104C27.2549 61.104 26.9033 61.1157 26.5869 61.1392C26.2764 61.1567 25.9629 61.1655 25.6465 61.1655H25.5322C25.3037 61.1655 25.1895 61.0894 25.1895 60.937ZM39.8232 60.3745V49.7046C39.8232 49.6226 39.7969 49.5552 39.7441 49.5024C39.6914 49.4497 39.624 49.4087 39.542 49.3794C39.4658 49.3442 39.3838 49.3208 39.2959 49.3091C39.208 49.2974 39.1289 49.2915 39.0586 49.2915H38.6982C38.6162 49.2915 38.5488 49.2915 38.4961 49.2915C38.4434 49.2915 38.3936 49.2856 38.3467 49.2739C38.2764 49.2739 38.2412 49.2534 38.2412 49.2124C38.2412 49.1479 38.2764 49.1069 38.3467 49.0894C38.54 49.0542 38.7158 49.0278 38.874 49.0103C39.0381 48.9927 39.1992 48.981 39.3574 48.9751C39.5156 48.9634 39.6738 48.9575 39.832 48.9575C39.9961 48.9517 40.1748 48.9399 40.3682 48.9224C40.3975 48.9224 40.4619 48.9194 40.5615 48.9136C40.667 48.9019 40.79 48.8901 40.9307 48.8784C41.0771 48.8667 41.2295 48.855 41.3877 48.8433C41.5518 48.8257 41.7041 48.811 41.8447 48.7993C41.9912 48.7817 42.1172 48.7671 42.2227 48.7554C42.3281 48.7437 42.3984 48.7349 42.4336 48.729C42.6035 48.7056 42.7881 48.688 42.9873 48.6763C43.1924 48.6587 43.3945 48.6499 43.5938 48.6499C44.2031 48.6499 44.7539 48.7261 45.2461 48.8784C45.7441 49.0308 46.1689 49.2476 46.5205 49.5288C46.8721 49.8101 47.1416 50.147 47.3291 50.5396C47.5225 50.9321 47.6191 51.3687 47.6191 51.8491C47.6191 52.23 47.5781 52.5903 47.4961 52.9302C47.4141 53.2642 47.2529 53.5923 47.0127 53.9146C46.8955 54.0669 46.7695 54.1987 46.6348 54.3101C46.5059 54.4155 46.3711 54.5122 46.2305 54.6001C46.0957 54.688 45.9551 54.77 45.8086 54.8462C45.6621 54.9224 45.5156 55.0073 45.3691 55.1011C45.3281 55.1245 45.3076 55.1655 45.3076 55.2241C45.3076 55.2358 45.3223 55.271 45.3516 55.3296C45.75 55.8159 46.1367 56.311 46.5117 56.8149C46.8867 57.3188 47.25 57.8374 47.6016 58.3706C47.7656 58.5991 47.9473 58.8306 48.1465 59.0649C48.3516 59.2993 48.5566 59.519 48.7617 59.7241C48.873 59.8354 48.9873 59.9409 49.1045 60.0405C49.2217 60.1401 49.3564 60.2368 49.5088 60.3306C49.667 60.4185 49.8516 60.5034 50.0625 60.5854C50.2734 60.6616 50.5254 60.729 50.8184 60.7876C50.8945 60.811 50.959 60.8374 51.0117 60.8667C51.0703 60.8901 51.0996 60.9282 51.0996 60.981C51.0996 61.0864 51.0645 61.1421 50.9941 61.1479C50.9824 61.1597 50.9561 61.1655 50.915 61.1655C50.8799 61.1655 50.8359 61.1655 50.7832 61.1655H50.5547C50.4375 61.1655 50.2969 61.1655 50.1328 61.1655C49.9746 61.1597 49.8047 61.1567 49.623 61.1567C49.4473 61.1509 49.2656 61.145 49.0781 61.1392C48.8906 61.1333 48.7178 61.1274 48.5596 61.1216C48.3252 61.1099 48.1055 61.0894 47.9004 61.0601C47.6953 61.0308 47.4902 60.9487 47.2852 60.814C47.1504 60.7495 47.0098 60.6382 46.8633 60.48C46.7168 60.3159 46.5791 60.1401 46.4502 59.9526C46.292 59.7417 46.1221 59.5073 45.9404 59.2495C45.7646 58.9917 45.5859 58.731 45.4043 58.4673C45.2227 58.2036 45.0439 57.9458 44.8682 57.6938C44.6982 57.4419 44.54 57.2134 44.3936 57.0083C44.2529 56.7974 44.1328 56.6216 44.0332 56.481C43.9395 56.3345 43.8779 56.2378 43.8486 56.1909C43.8252 56.1558 43.7812 56.0942 43.7168 56.0063C43.6582 55.9185 43.5938 55.8306 43.5234 55.7427C43.4531 55.6489 43.3828 55.5669 43.3125 55.4966C43.2422 55.4204 43.1895 55.3794 43.1543 55.3735C43.0137 55.356 42.8496 55.3442 42.6621 55.3384C42.4805 55.3325 42.3135 55.3296 42.1611 55.3296H41.9326C41.8682 55.3296 41.8037 55.3472 41.7393 55.3823C41.6807 55.4116 41.6396 55.4644 41.6162 55.5405V59.689C41.6162 59.7593 41.6191 59.8413 41.625 59.9351C41.6367 60.0288 41.6514 60.1196 41.6689 60.2075C41.6865 60.2954 41.71 60.3774 41.7393 60.4536C41.7686 60.5239 41.8037 60.5737 41.8447 60.603C41.9209 60.6558 42.0498 60.7026 42.2314 60.7437C42.4131 60.7788 42.6035 60.8081 42.8027 60.8315C43.0078 60.8491 43.2012 60.8638 43.3828 60.8755C43.5703 60.8872 43.7021 60.8931 43.7783 60.8931C43.8311 60.8931 43.8662 60.9165 43.8838 60.9634C43.9014 61.0103 43.9102 61.0571 43.9102 61.104C43.9102 61.1685 43.8955 61.2065 43.8662 61.2183C43.8428 61.2358 43.793 61.2446 43.7168 61.2446C43.623 61.2446 43.4736 61.2388 43.2686 61.2271C43.0635 61.2212 42.8467 61.2124 42.6182 61.2007C42.3955 61.1948 42.1875 61.186 41.9941 61.1743C41.8066 61.1685 41.6807 61.1655 41.6162 61.1655H38.8916C38.8682 61.1655 38.8301 61.1655 38.7773 61.1655C38.7246 61.1597 38.666 61.1567 38.6016 61.1567C38.5371 61.1509 38.4727 61.1479 38.4082 61.1479C38.3438 61.1421 38.2881 61.1392 38.2412 61.1392C38.1768 61.1274 38.124 61.1216 38.083 61.1216C38.0479 61.1157 38.0303 61.0806 38.0303 61.0161C38.0303 60.9751 38.042 60.9458 38.0654 60.9282C38.0889 60.9048 38.1475 60.8784 38.2412 60.8491C38.3525 60.8257 38.4932 60.814 38.6631 60.814C38.8389 60.8081 39.0088 60.7935 39.1729 60.77C39.3369 60.7466 39.4805 60.7085 39.6035 60.6558C39.7324 60.5972 39.8057 60.5034 39.8232 60.3745ZM41.6162 49.2476V54.8901C41.6162 54.9487 41.6338 54.9985 41.6689 55.0396C41.7041 55.0806 41.7422 55.1011 41.7832 55.1011H42.1348C42.334 55.1011 42.5449 55.0923 42.7676 55.0747C42.9902 55.0571 43.1689 55.0337 43.3037 55.0044C43.4619 54.9634 43.6201 54.8989 43.7783 54.811C43.9365 54.7173 44.0859 54.6147 44.2266 54.5034C44.3672 54.3862 44.499 54.2632 44.6221 54.1343C44.7451 53.9995 44.8535 53.8706 44.9473 53.7476C45.0469 53.6069 45.1348 53.478 45.2109 53.3608C45.2871 53.2437 45.3516 53.1206 45.4043 52.9917C45.4629 52.8628 45.5068 52.7192 45.5361 52.561C45.5713 52.397 45.5977 52.2036 45.6152 51.981C45.6152 51.6704 45.5918 51.395 45.5449 51.1548C45.498 50.9087 45.4219 50.686 45.3164 50.4868C45.2168 50.2876 45.0908 50.103 44.9385 49.9331C44.7861 49.7632 44.6045 49.5991 44.3936 49.4409C44.3232 49.394 44.2412 49.3472 44.1475 49.3003C44.0596 49.2534 43.9658 49.2124 43.8662 49.1772C43.7666 49.1362 43.6641 49.1011 43.5586 49.0718C43.4531 49.0425 43.3535 49.019 43.2598 49.0015C43.207 48.9897 43.1191 48.9839 42.9961 48.9839C42.873 48.978 42.7734 48.9751 42.6973 48.9751C42.6152 48.9751 42.5127 48.978 42.3896 48.9839C42.2666 48.9839 42.1465 48.9927 42.0293 49.0103C41.918 49.0278 41.8213 49.0571 41.7393 49.0981C41.6572 49.1333 41.6162 49.1831 41.6162 49.2476ZM56.9531 49.9858V60.1812C56.9531 60.3159 57.0264 60.4185 57.1729 60.4888C57.3252 60.5591 57.498 60.6118 57.6914 60.647C57.8906 60.6821 58.0869 60.7085 58.2803 60.7261C58.4736 60.7378 58.6143 60.7524 58.7021 60.77C58.7549 60.8345 58.7842 60.8813 58.79 60.9106C58.8018 60.9341 58.8076 60.9722 58.8076 61.0249C58.8076 61.0776 58.79 61.1216 58.7549 61.1567C58.7256 61.1919 58.6875 61.2183 58.6406 61.2358C58.5938 61.2593 58.541 61.2769 58.4824 61.2886C58.4297 61.3003 58.3799 61.3062 58.333 61.3062C58.2158 61.3062 58.0371 61.2944 57.7969 61.271C57.5566 61.2476 57.3018 61.2212 57.0322 61.1919C56.7686 61.1685 56.5107 61.145 56.2588 61.1216C56.0127 61.0981 55.8223 61.0864 55.6875 61.0864C55.459 61.0864 55.2393 61.0894 55.0283 61.0952C54.8174 61.1011 54.5977 61.1245 54.3691 61.1655C54.3223 61.1655 54.2461 61.1743 54.1406 61.1919C54.041 61.2153 53.9297 61.2388 53.8066 61.2622C53.6836 61.2856 53.5605 61.3062 53.4375 61.3237C53.3203 61.3472 53.2236 61.3589 53.1475 61.3589C53.0889 61.3589 53.0449 61.3325 53.0156 61.2798C52.9863 61.2329 52.9717 61.1948 52.9717 61.1655C52.9717 61.0894 53.0127 61.0278 53.0947 60.981C53.1826 60.9341 53.2559 60.9048 53.3145 60.8931C53.3496 60.8755 53.4141 60.855 53.5078 60.8315C53.6074 60.8081 53.7158 60.7847 53.833 60.7612C53.9502 60.7319 54.0615 60.7056 54.167 60.6821C54.2783 60.6528 54.3662 60.6265 54.4307 60.603C54.5244 60.5796 54.6064 60.5562 54.6768 60.5327C54.7471 60.5034 54.8057 60.4683 54.8525 60.4272C54.8994 60.3804 54.9346 60.3218 54.958 60.2515C54.9814 60.1753 54.9932 60.0786 54.9932 59.9614V50.3374C54.9932 50.2905 54.9902 50.2407 54.9844 50.188C54.9785 50.1294 54.9668 50.0767 54.9492 50.0298C54.9316 49.9829 54.9053 49.9448 54.8701 49.9155C54.835 49.8862 54.7852 49.8716 54.7207 49.8716H52.752C52.4883 49.8716 52.2627 49.895 52.0752 49.9419C51.8877 49.9829 51.7148 50.0503 51.5566 50.144C51.3633 50.2437 51.167 50.3784 50.9678 50.5483C50.7744 50.7183 50.625 50.897 50.5195 51.0845C50.502 51.1138 50.4844 51.1548 50.4668 51.2075C50.4551 51.2603 50.4375 51.313 50.4141 51.3657C50.3906 51.4185 50.3643 51.4653 50.335 51.5063C50.3057 51.5474 50.2705 51.5679 50.2295 51.5679C50.2061 51.5679 50.1797 51.5503 50.1504 51.5151C50.1211 51.48 50.0918 51.436 50.0625 51.3833C50.0332 51.3247 50.0068 51.2632 49.9834 51.1987C49.9658 51.1284 49.957 51.061 49.957 50.9966C49.957 50.8677 49.9834 50.7329 50.0361 50.5923C50.0947 50.4517 50.165 50.3022 50.2471 50.144C50.3291 49.9858 50.417 49.8159 50.5107 49.6343C50.6045 49.4468 50.6895 49.2417 50.7656 49.019V48.8608C50.7656 48.8198 50.7744 48.7759 50.792 48.729C50.8213 48.6763 50.8623 48.647 50.915 48.6411C50.9736 48.6294 51.0352 48.6235 51.0996 48.6235C51.1523 48.6235 51.1963 48.6411 51.2314 48.6763C51.2666 48.7056 51.3018 48.7407 51.3369 48.7817C51.3721 48.8228 51.4102 48.8667 51.4512 48.9136C51.498 48.9546 51.5537 48.9839 51.6182 49.0015C51.6885 49.019 51.8232 49.0425 52.0225 49.0718C52.2217 49.0952 52.4941 49.1187 52.8398 49.1421C53.1914 49.1655 53.6191 49.186 54.123 49.2036C54.627 49.2212 55.2217 49.23 55.9072 49.23C56.0713 49.23 56.2588 49.2271 56.4697 49.2212C56.6807 49.2095 56.8975 49.1978 57.1201 49.186C57.3486 49.1743 57.5742 49.1655 57.7969 49.1597C58.0195 49.1479 58.2246 49.1421 58.4121 49.1421C58.5586 49.1421 58.6904 49.1479 58.8076 49.1597C58.9248 49.1714 59.0508 49.189 59.1855 49.2124C59.2559 49.2241 59.332 49.2358 59.4141 49.2476C59.4961 49.2593 59.5781 49.271 59.6602 49.2827C59.7422 49.2886 59.8184 49.2944 59.8887 49.3003C59.959 49.3062 60.0146 49.3091 60.0557 49.3091C60.167 49.3091 60.2227 49.2476 60.2227 49.1245C60.2227 49.0601 60.2432 48.9985 60.2842 48.9399C60.3369 48.8755 60.4072 48.7993 60.4951 48.7114C60.583 48.6235 60.6592 48.5796 60.7236 48.5796C60.7705 48.5796 60.8203 48.6118 60.873 48.6763C60.9316 48.7407 60.9873 48.8198 61.04 48.9136C61.0986 49.0015 61.1514 49.0923 61.1982 49.186C61.251 49.2739 61.2949 49.3442 61.3301 49.397C61.3711 49.4907 61.4004 49.605 61.418 49.7397C61.4355 49.8687 61.4561 49.9683 61.4795 50.0386C61.5029 50.0913 61.5527 50.1763 61.6289 50.2935C61.7109 50.4106 61.793 50.5366 61.875 50.6714C61.957 50.8003 62.0303 50.9263 62.0947 51.0493C62.165 51.1724 62.2002 51.269 62.2002 51.3394C62.2002 51.4917 62.1328 51.5679 61.998 51.5679C61.916 51.5679 61.8164 51.521 61.6992 51.4272C61.5879 51.3335 61.4678 51.2251 61.3389 51.1021C61.2158 50.979 61.0898 50.856 60.9609 50.7329C60.832 50.604 60.7119 50.5044 60.6006 50.4341C60.5244 50.3872 60.4189 50.3345 60.2842 50.2759C60.1553 50.2173 60.0176 50.1587 59.8711 50.1001C59.7246 50.0415 59.5811 49.9917 59.4404 49.9507C59.2998 49.9097 59.1797 49.8833 59.0801 49.8716C58.9219 49.8423 58.7578 49.8276 58.5879 49.8276C58.418 49.8218 58.2539 49.8188 58.0957 49.8188H57.5947C57.5771 49.8188 57.5332 49.8218 57.4629 49.8276C57.3984 49.8335 57.3281 49.8452 57.252 49.8628C57.1758 49.8745 57.1055 49.8921 57.041 49.9155C56.9824 49.9331 56.9531 49.9565 56.9531 49.9858ZM72.9756 61.394C72.1201 61.394 71.3145 61.2271 70.5586 60.8931C69.8086 60.5532 69.1201 60.0552 68.4932 59.3989C68.2236 59.1235 67.9775 58.8101 67.7549 58.4585C67.5322 58.1011 67.3418 57.7056 67.1836 57.272C67.0254 56.8384 66.9023 56.3638 66.8145 55.8481C66.7266 55.3267 66.6826 54.7612 66.6826 54.1519C66.6826 53.7183 66.7617 53.2759 66.9199 52.8247C67.084 52.3677 67.3066 51.9312 67.5879 51.5151C67.8691 51.0933 68.2002 50.7036 68.5811 50.3462C68.9619 49.9829 69.3721 49.6724 69.8115 49.4146C70.4092 49.0513 71.0039 48.8022 71.5957 48.6675C72.1934 48.5269 72.7441 48.4565 73.248 48.4565C73.5 48.4565 73.7637 48.4771 74.0391 48.5181C74.3145 48.5591 74.5752 48.6118 74.8213 48.6763C75.0732 48.7407 75.3018 48.811 75.5068 48.8872C75.7178 48.9634 75.8818 49.0366 75.999 49.1069C76.2803 49.2769 76.5674 49.4878 76.8604 49.7397C77.1533 49.9917 77.4287 50.2642 77.6865 50.5571C77.9443 50.8501 78.1758 51.1519 78.3809 51.4624C78.5918 51.7671 78.7559 52.0571 78.873 52.3325C79.0723 52.7896 79.207 53.2466 79.2773 53.7036C79.3477 54.1606 79.3828 54.6353 79.3828 55.1274C79.3828 55.6548 79.3271 56.1499 79.2158 56.6128C79.1104 57.0698 78.9551 57.5005 78.75 57.9048C78.5449 58.3091 78.293 58.6899 77.9941 59.0474C77.7012 59.3989 77.3672 59.7358 76.9922 60.0581C76.7168 60.2866 76.4355 60.4858 76.1484 60.6558C75.8613 60.8198 75.5537 60.9575 75.2256 61.0688C74.9033 61.1802 74.5576 61.2622 74.1885 61.3149C73.8193 61.3677 73.415 61.394 72.9756 61.394ZM68.9766 55.0571C68.9766 55.3384 68.9912 55.6255 69.0205 55.9185C69.0498 56.2056 69.0967 56.4927 69.1611 56.7798C69.2256 57.061 69.3076 57.3335 69.4072 57.5972C69.5127 57.8608 69.6387 58.1069 69.7852 58.3354C69.9727 58.646 70.1807 58.9507 70.4092 59.2495C70.6436 59.5425 70.9014 59.8091 71.1826 60.0493C71.4697 60.2837 71.7832 60.4741 72.123 60.6206C72.4688 60.7612 72.8438 60.8315 73.248 60.8315C73.6289 60.8315 73.998 60.7407 74.3555 60.5591C74.7129 60.3716 75.0439 60.1284 75.3486 59.8296C75.6533 59.5249 75.9258 59.1821 76.166 58.8013C76.4121 58.4204 76.6113 58.0337 76.7637 57.6411C76.7812 57.5825 76.8164 57.4771 76.8691 57.3247C76.9277 57.1665 76.9863 56.9761 77.0449 56.7534C77.1035 56.5308 77.1533 56.2788 77.1943 55.9976C77.2412 55.7163 77.2646 55.4175 77.2646 55.1011C77.2646 54.8198 77.2412 54.5151 77.1943 54.187C77.1533 53.8589 77.0859 53.522 76.9922 53.1763C76.9043 52.8247 76.793 52.4731 76.6582 52.1216C76.5234 51.77 76.3652 51.4331 76.1836 51.1108C76.0254 50.8354 75.8408 50.5659 75.6299 50.3022C75.4189 50.0327 75.1787 49.7954 74.9092 49.5903C74.6455 49.3794 74.3525 49.2124 74.0303 49.0894C73.708 48.9604 73.3564 48.896 72.9756 48.896C72.6123 48.896 72.2666 48.9722 71.9385 49.1245C71.6104 49.2769 71.3115 49.4673 71.042 49.6958C70.7725 49.9185 70.5352 50.1587 70.3301 50.4165C70.1309 50.6685 69.9697 50.8999 69.8467 51.1108C69.7529 51.2749 69.6533 51.48 69.5479 51.7261C69.4482 51.9722 69.3545 52.2593 69.2666 52.5874C69.1846 52.9155 69.1143 53.2876 69.0557 53.7036C69.0029 54.1138 68.9766 54.5649 68.9766 55.0571ZM87.9082 57.105C87.9082 56.812 87.8818 56.5132 87.8291 56.2085C87.7822 55.8979 87.7061 55.5991 87.6006 55.312C87.4951 55.019 87.3604 54.7437 87.1963 54.4858C87.0381 54.228 86.8477 54.0054 86.625 53.8179C86.4023 53.6245 86.1475 53.4722 85.8604 53.3608C85.5791 53.2495 85.2627 53.1938 84.9111 53.1938C84.7002 53.1938 84.5039 53.229 84.3223 53.2993C84.1465 53.3696 83.9941 53.4663 83.8652 53.5894C83.7422 53.7124 83.6455 53.8618 83.5752 54.0376C83.5049 54.2075 83.4697 54.3979 83.4697 54.6089C83.4697 54.644 83.4697 54.6851 83.4697 54.7319C83.4756 54.7788 83.4814 54.855 83.4873 54.9604C83.499 55.0659 83.5107 55.2153 83.5225 55.4087C83.5342 55.5962 83.5488 55.854 83.5664 56.1821C83.584 56.5044 83.6016 56.9116 83.6191 57.4038C83.6367 57.8901 83.6572 58.4849 83.6807 59.188C83.6807 59.2583 83.7129 59.3345 83.7773 59.4165C83.8418 59.4985 83.9062 59.5601 83.9707 59.6011C84.123 59.73 84.2666 59.8472 84.4014 59.9526C84.5361 60.0522 84.6709 60.1372 84.8057 60.2075C84.9463 60.2778 85.0898 60.3306 85.2363 60.3657C85.3887 60.4009 85.5557 60.4185 85.7373 60.4185C86.0186 60.4185 86.2676 60.3569 86.4844 60.2339C86.707 60.105 86.9004 59.9438 87.0645 59.7505C87.2285 59.5513 87.3662 59.3315 87.4775 59.0913C87.5947 58.8511 87.6885 58.6138 87.7588 58.3794C87.7998 58.2446 87.8291 58.1245 87.8467 58.019C87.8701 57.9077 87.8848 57.8022 87.8906 57.7026C87.8965 57.603 87.8994 57.5063 87.8994 57.4126C87.8994 57.3188 87.9023 57.2163 87.9082 57.105ZM80.0771 53.9409C80.0771 53.8647 80.1299 53.8032 80.2354 53.7563C80.7393 53.6392 81.2373 53.4839 81.7295 53.2905C82.2275 53.0913 82.7051 52.8687 83.1621 52.6226C83.1914 52.605 83.2178 52.5933 83.2412 52.5874C83.2705 52.5815 83.2969 52.5786 83.3203 52.5786C83.3613 52.5786 83.3818 52.5933 83.3818 52.6226V53.6509C83.3818 53.7212 83.3965 53.7563 83.4258 53.7563C83.7422 53.3696 84.1201 53.0942 84.5596 52.9302C84.999 52.7661 85.4678 52.6841 85.9658 52.6841C86.3525 52.6841 86.707 52.7456 87.0293 52.8687C87.3574 52.9858 87.6562 53.1499 87.9258 53.3608C88.1953 53.5718 88.4355 53.8237 88.6465 54.1167C88.8633 54.4038 89.0537 54.7202 89.2178 55.0659C89.3408 55.3296 89.4199 55.6079 89.4551 55.9009C89.4902 56.188 89.5078 56.478 89.5078 56.771C89.5078 57.3862 89.4023 57.9399 89.1914 58.4321C88.9863 58.9243 88.6992 59.3462 88.3301 59.6978C87.9609 60.0435 87.5244 60.3101 87.0205 60.4976C86.5166 60.6792 85.9717 60.77 85.3857 60.77C85.292 60.77 85.1865 60.7612 85.0693 60.7437C84.9521 60.7202 84.832 60.6938 84.709 60.6646C84.5859 60.6294 84.46 60.5913 84.3311 60.5503C84.2021 60.5093 84.082 60.4712 83.9707 60.436C83.8828 60.4067 83.8184 60.3921 83.7773 60.3921C83.6953 60.3921 83.6543 60.4331 83.6543 60.5151V64.6021C83.6543 64.6958 83.7041 64.7427 83.8037 64.7427C83.9502 64.7427 84.1025 64.731 84.2607 64.7075C84.4248 64.6899 84.5713 64.6812 84.7002 64.6812C84.7529 64.6812 84.8115 64.7017 84.876 64.7427C84.9404 64.7896 84.9727 64.8394 84.9727 64.8921C84.9727 64.9683 84.9287 65.0239 84.8408 65.0591C84.7588 65.1001 84.6885 65.1206 84.6299 65.1206H82.7666C82.708 65.1206 82.5938 65.1235 82.4238 65.1294C82.2539 65.1353 82.0723 65.1411 81.8789 65.147C81.6914 65.1587 81.5156 65.1675 81.3516 65.1733C81.1875 65.1792 81.082 65.1821 81.0352 65.1821C81.0059 65.1821 80.9648 65.1792 80.9121 65.1733C80.8652 65.1675 80.8184 65.1558 80.7715 65.1382C80.7305 65.1265 80.6924 65.1089 80.6572 65.0854C80.6279 65.062 80.6133 65.0327 80.6133 64.9976C80.6133 64.8628 80.6836 64.7954 80.8242 64.7954H81.6943C81.8115 64.7954 81.9053 64.7837 81.9756 64.7603C82.0518 64.7368 82.0898 64.6577 82.0898 64.5229V55.1626C82.0898 55.0981 82.0869 55.0425 82.0811 54.9956C82.0752 54.9429 82.0664 54.8872 82.0547 54.8286C82.0312 54.6587 81.9961 54.5122 81.9492 54.3892C81.9082 54.2603 81.8467 54.1548 81.7646 54.0728C81.6885 53.9849 81.5889 53.9204 81.4658 53.8794C81.3428 53.8325 81.1904 53.8091 81.0088 53.8091C80.874 53.8091 80.7451 53.8384 80.6221 53.897C80.499 53.9556 80.3701 53.9849 80.2354 53.9849C80.1299 53.9849 80.0771 53.9702 80.0771 53.9409ZM91.6699 58.7134C91.6699 57.8813 91.6904 57.064 91.7314 56.2612C91.7725 55.4526 91.7988 54.6294 91.8105 53.7915C91.582 53.7915 91.3623 53.8091 91.1514 53.8442C90.9463 53.8794 90.7412 53.897 90.5361 53.897C90.4717 53.897 90.4072 53.8911 90.3428 53.8794C90.2783 53.8677 90.2461 53.8267 90.2461 53.7563C90.2461 53.7329 90.252 53.7153 90.2637 53.7036C90.2812 53.6919 90.3047 53.6714 90.334 53.6421C90.6328 53.3726 90.9199 53.106 91.1953 52.8423C91.4766 52.5786 91.749 52.3032 92.0127 52.0161C92.0889 51.9282 92.168 51.8315 92.25 51.7261C92.3379 51.6206 92.4258 51.5151 92.5137 51.4097C92.6074 51.2983 92.7012 51.187 92.7949 51.0757C92.8945 50.9644 92.9912 50.8618 93.085 50.7681C93.1084 50.7446 93.1406 50.7329 93.1816 50.7329C93.2344 50.7329 93.2695 50.7681 93.2871 50.8384L93.1816 52.772C93.1816 52.8833 93.2051 52.939 93.252 52.939L95.5195 52.772C95.5723 52.772 95.6133 52.7866 95.6426 52.8159C95.6719 52.8452 95.6924 52.8833 95.7041 52.9302C95.7158 52.9712 95.7217 53.0151 95.7217 53.062C95.7275 53.1089 95.7305 53.1499 95.7305 53.1851C95.7305 53.3433 95.71 53.4604 95.6689 53.5366C95.6279 53.6069 95.5137 53.6421 95.3262 53.6421H93.208C93.1611 53.6421 93.126 53.6714 93.1025 53.73C93.0908 53.7534 93.085 53.7798 93.085 53.8091V58.6606C93.085 58.8657 93.1318 59.0825 93.2256 59.311C93.3252 59.5396 93.4775 59.7563 93.6826 59.9614C93.7764 60.0552 93.8994 60.1343 94.0518 60.1987C94.2041 60.2632 94.3506 60.2954 94.4912 60.2954C94.8076 60.2954 95.0596 60.2573 95.2471 60.1812C95.4346 60.0991 95.5869 59.9966 95.7041 59.8735C95.8271 59.7505 95.9268 59.6187 96.0029 59.478C96.0791 59.3315 96.167 59.1938 96.2666 59.0649C96.29 59.0063 96.3164 58.9771 96.3457 58.9771C96.375 58.9771 96.3926 58.9976 96.3984 59.0386C96.4102 59.0737 96.416 59.103 96.416 59.1265C96.416 59.2612 96.3721 59.4224 96.2842 59.6099C96.2021 59.7915 96.0908 59.9761 95.9502 60.1636C95.8154 60.3452 95.6631 60.5122 95.4932 60.6646C95.3232 60.811 95.1562 60.9165 94.9922 60.981C94.6992 61.104 94.3887 61.1655 94.0605 61.1655C93.6855 61.1655 93.3486 61.0894 93.0498 60.937C92.7568 60.7847 92.5078 60.5913 92.3027 60.3569C92.0977 60.1167 91.9395 59.853 91.8281 59.5659C91.7227 59.2729 91.6699 58.9888 91.6699 58.7134ZM97.207 60.9985C97.207 60.9692 97.21 60.9253 97.2158 60.8667C97.2275 60.8022 97.2656 60.77 97.3301 60.77H98.3496C98.4023 60.77 98.458 60.7524 98.5166 60.7173C98.5752 60.6821 98.6045 60.6353 98.6045 60.5767V55.3735C98.6045 55.0981 98.5957 54.8579 98.5781 54.6528C98.5605 54.4478 98.5049 54.2925 98.4111 54.187C98.3701 54.1226 98.3291 54.0815 98.2881 54.064C98.2529 54.0464 98.2236 54.0317 98.2002 54.02C98.1709 54.0083 98.1387 53.9995 98.1035 53.9937C98.0742 53.9878 98.0391 53.9849 97.998 53.9849H97.8135C97.6963 53.9849 97.5557 53.9878 97.3916 53.9937C97.2275 53.9995 97.0898 54.0083 96.9785 54.02C96.9551 54.02 96.9287 54.0171 96.8994 54.0112C96.8701 53.9995 96.8555 53.9819 96.8555 53.9585C96.8555 53.894 96.8672 53.856 96.8906 53.8442C96.9199 53.8325 96.9551 53.8149 96.9961 53.7915C97.2246 53.7153 97.4736 53.6509 97.7432 53.5981C98.0127 53.5396 98.2705 53.478 98.5166 53.4136C98.5342 53.4136 98.5723 53.4048 98.6309 53.3872C98.6953 53.3638 98.7598 53.3403 98.8242 53.3169C98.8945 53.2935 98.9619 53.27 99.0264 53.2466C99.0908 53.2231 99.1377 53.2056 99.167 53.1938C99.2432 53.1704 99.3193 53.1382 99.3955 53.0972C99.4775 53.0503 99.5596 53.0063 99.6416 52.9653C99.7236 52.9243 99.8027 52.8892 99.8789 52.8599C99.9609 52.8306 100.043 52.8159 100.125 52.8159C100.154 52.8159 100.181 52.8306 100.204 52.8599C100.233 52.8892 100.248 52.9302 100.248 52.9829V58.687C100.248 58.8979 100.242 59.0737 100.23 59.2144C100.225 59.3491 100.216 59.4751 100.204 59.5923C100.192 59.7036 100.181 59.8179 100.169 59.9351C100.163 60.0464 100.16 60.1841 100.16 60.3481C100.16 60.5181 100.178 60.6323 100.213 60.6909C100.254 60.7437 100.368 60.77 100.556 60.77C100.62 60.77 100.72 60.7642 100.854 60.7524C100.989 60.7349 101.104 60.7261 101.197 60.7261C101.244 60.7261 101.294 60.7319 101.347 60.7437C101.405 60.7495 101.458 60.7642 101.505 60.7876C101.558 60.811 101.599 60.8433 101.628 60.8843C101.663 60.9253 101.681 60.978 101.681 61.0425C101.681 61.0835 101.672 61.1187 101.654 61.1479C101.643 61.1772 101.61 61.1919 101.558 61.1919C101.13 61.1919 100.743 61.186 100.397 61.1743C100.058 61.1685 99.7354 61.1655 99.4307 61.1655C98.9092 61.1655 98.4873 61.189 98.165 61.2358C97.8428 61.2827 97.6143 61.3062 97.4795 61.3062C97.2979 61.3062 97.207 61.2036 97.207 60.9985ZM98.4111 49.4761C98.4111 49.3179 98.4404 49.1831 98.499 49.0718C98.5576 48.9546 98.6338 48.8608 98.7275 48.7905C98.8271 48.7144 98.9414 48.6616 99.0703 48.6323C99.1992 48.5972 99.334 48.5796 99.4746 48.5796C99.6035 48.5796 99.7266 48.603 99.8438 48.6499C99.9609 48.6968 100.063 48.7612 100.151 48.8433C100.239 48.9253 100.307 49.022 100.354 49.1333C100.406 49.2446 100.433 49.3618 100.433 49.4849C100.433 49.6431 100.406 49.7808 100.354 49.8979C100.301 50.0093 100.228 50.1001 100.134 50.1704C100.04 50.2407 99.9287 50.2935 99.7998 50.3286C99.6768 50.3579 99.542 50.3726 99.3955 50.3726C99.0908 50.3726 98.8506 50.3022 98.6748 50.1616C98.499 50.021 98.4111 49.7925 98.4111 49.4761ZM103.605 60.48L103.755 54.5825C103.755 54.5298 103.743 54.4653 103.72 54.3892C103.702 54.313 103.676 54.2397 103.641 54.1694C103.605 54.0991 103.564 54.0405 103.518 53.9937C103.471 53.9409 103.424 53.9146 103.377 53.9146C103.266 53.9146 103.163 53.9263 103.069 53.9497C102.981 53.9731 102.902 53.9995 102.832 54.0288C102.762 54.0522 102.7 54.0757 102.647 54.0991C102.595 54.1167 102.554 54.1255 102.524 54.1255C102.442 54.1255 102.401 54.0845 102.401 54.0024C102.407 53.9497 102.431 53.8999 102.472 53.853C102.519 53.8062 102.571 53.7651 102.63 53.73C102.688 53.6948 102.747 53.6655 102.806 53.6421C102.864 53.6128 102.908 53.5923 102.938 53.5806C103.137 53.5278 103.318 53.4751 103.482 53.4224C103.646 53.3638 103.805 53.3022 103.957 53.2378C104.109 53.1733 104.262 53.103 104.414 53.0269C104.566 52.9448 104.733 52.854 104.915 52.7544C104.991 52.7251 105.062 52.7104 105.126 52.7104C105.196 52.7104 105.231 52.7427 105.231 52.8071C105.231 52.8599 105.226 52.9331 105.214 53.0269C105.202 53.1206 105.19 53.2173 105.179 53.3169C105.167 53.4165 105.155 53.5132 105.144 53.6069C105.132 53.6948 105.126 53.7622 105.126 53.8091V53.9761C105.126 54.0757 105.135 54.1724 105.152 54.2661C105.176 54.354 105.208 54.3979 105.249 54.3979C105.313 54.3979 105.36 54.3569 105.39 54.2749C105.425 54.1929 105.489 54.0962 105.583 53.9849C105.747 53.7856 105.94 53.5981 106.163 53.4224C106.386 53.2407 106.623 53.0825 106.875 52.9478C107.127 52.813 107.388 52.7046 107.657 52.6226C107.933 52.5405 108.199 52.4995 108.457 52.4995C108.551 52.4995 108.659 52.5083 108.782 52.5259C108.911 52.5376 109.046 52.5786 109.187 52.6489C109.327 52.7134 109.471 52.813 109.617 52.9478C109.764 53.0767 109.904 53.2554 110.039 53.4839C110.062 53.5366 110.08 53.5864 110.092 53.6333C110.109 53.6743 110.124 53.7183 110.136 53.7651C110.147 53.812 110.162 53.8677 110.18 53.9321C110.197 53.9966 110.221 54.0815 110.25 54.187C110.291 54.3101 110.332 54.3716 110.373 54.3716C110.432 54.3716 110.476 54.3101 110.505 54.187C110.546 54.0288 110.613 53.8911 110.707 53.7739C110.801 53.6509 110.865 53.5718 110.9 53.5366C111.205 53.1968 111.551 52.9185 111.938 52.7017C112.33 52.4849 112.767 52.3765 113.247 52.3765C113.505 52.3765 113.736 52.4292 113.941 52.5347C114.152 52.6343 114.337 52.769 114.495 52.939C114.653 53.1089 114.788 53.3052 114.899 53.5278C115.011 53.7505 115.102 53.9819 115.172 54.2222C115.242 54.4565 115.292 54.6938 115.321 54.9341C115.356 55.1743 115.374 55.397 115.374 55.6021V58.7485C115.374 59.0122 115.359 59.27 115.33 59.522C115.301 59.7681 115.286 59.9907 115.286 60.1899C115.286 60.3892 115.386 60.4976 115.585 60.5151H116.578C116.631 60.5151 116.666 60.5386 116.684 60.5854C116.689 60.6265 116.695 60.6616 116.701 60.6909C116.707 60.7202 116.71 60.7466 116.71 60.77C116.71 60.811 116.707 60.8521 116.701 60.8931C116.695 60.9341 116.689 60.9692 116.684 60.9985C116.672 61.0396 116.607 61.063 116.49 61.0688C116.373 61.0747 116.25 61.0776 116.121 61.0776H115.286C114.987 61.0776 114.729 61.0835 114.513 61.0952C114.302 61.1011 114.111 61.1099 113.941 61.1216C113.777 61.1333 113.622 61.145 113.476 61.1567C113.335 61.1626 113.191 61.1655 113.045 61.1655H112.693C112.512 61.1655 112.421 61.0835 112.421 60.9194C112.421 60.855 112.43 60.8052 112.447 60.77C112.471 60.7349 112.497 60.7056 112.526 60.6821C112.544 60.6704 112.585 60.6587 112.649 60.647C112.72 60.6294 112.793 60.6147 112.869 60.603C112.951 60.5913 113.027 60.5825 113.098 60.5767C113.168 60.5649 113.218 60.5591 113.247 60.5591C113.276 60.5474 113.306 60.5415 113.335 60.5415C113.364 60.5415 113.391 60.5415 113.414 60.5415H113.581C113.681 60.5415 113.73 60.4858 113.73 60.3745V55.2681C113.73 55.0337 113.71 54.811 113.669 54.6001C113.628 54.3892 113.561 54.2046 113.467 54.0464C113.379 53.8882 113.256 53.7651 113.098 53.6772C112.945 53.5835 112.755 53.5366 112.526 53.5366C112.187 53.5366 111.879 53.5864 111.604 53.686C111.334 53.7856 111.105 53.9233 110.918 54.0991C110.73 54.2749 110.584 54.4829 110.479 54.7231C110.379 54.9575 110.329 55.2153 110.329 55.4966V60.3306C110.329 60.4009 110.35 60.4565 110.391 60.4976C110.432 60.5386 110.481 60.5737 110.54 60.603C110.599 60.6265 110.66 60.644 110.725 60.6558C110.795 60.6675 110.854 60.6763 110.9 60.6821C110.982 60.688 111.05 60.6938 111.103 60.6997C111.155 60.7056 111.205 60.7085 111.252 60.7085C111.299 60.7085 111.337 60.7085 111.366 60.7085C111.396 60.7085 111.425 60.7144 111.454 60.7261C111.507 60.7495 111.536 60.7788 111.542 60.814C111.554 60.8491 111.56 60.8901 111.56 60.937C111.56 61.0015 111.536 61.0513 111.489 61.0864C111.442 61.1157 111.384 61.1392 111.313 61.1567C111.249 61.1685 111.179 61.1743 111.103 61.1743C111.032 61.1802 110.971 61.1831 110.918 61.1831C110.912 61.1831 110.868 61.1802 110.786 61.1743C110.71 61.1743 110.604 61.1743 110.47 61.1743C110.335 61.1743 110.18 61.1714 110.004 61.1655C109.828 61.1655 109.641 61.1655 109.441 61.1655C109.307 61.1655 109.16 61.1655 109.002 61.1655C108.844 61.1714 108.688 61.1743 108.536 61.1743C108.39 61.1802 108.255 61.1831 108.132 61.1831C108.009 61.189 107.918 61.1919 107.859 61.1919C107.754 61.1919 107.651 61.1772 107.552 61.1479C107.452 61.1187 107.402 61.0425 107.402 60.9194C107.402 60.7729 107.496 60.6938 107.684 60.6821C107.73 60.6704 107.774 60.6646 107.815 60.6646C107.856 60.6646 107.906 60.6646 107.965 60.6646C108.041 60.6646 108.12 60.6616 108.202 60.6558C108.284 60.644 108.36 60.6294 108.431 60.6118C108.501 60.5884 108.557 60.5591 108.598 60.5239C108.645 60.4829 108.668 60.4331 108.668 60.3745L108.773 55.0659C108.773 54.9312 108.753 54.7993 108.712 54.6704C108.665 54.5298 108.598 54.3921 108.51 54.2573C108.422 54.1226 108.316 54.0024 108.193 53.897C108.076 53.7915 107.944 53.7065 107.798 53.6421C107.651 53.5776 107.496 53.5454 107.332 53.5454C107.127 53.5454 106.925 53.5776 106.726 53.6421C106.526 53.7007 106.342 53.7886 106.172 53.9058C106.002 54.0171 105.847 54.1519 105.706 54.3101C105.571 54.4624 105.463 54.6353 105.381 54.8286C105.346 54.9341 105.311 55.0425 105.275 55.1538C105.246 55.2593 105.231 55.3735 105.231 55.4966L105.108 60.3481C105.108 60.4478 105.12 60.5356 105.144 60.6118C105.167 60.688 105.217 60.7261 105.293 60.7261H106.33C106.383 60.7261 106.412 60.7437 106.418 60.7788C106.43 60.814 106.436 60.8521 106.436 60.8931C106.436 60.9575 106.418 61.0249 106.383 61.0952C106.348 61.1597 106.283 61.1919 106.189 61.1919C105.932 61.1919 105.677 61.189 105.425 61.1831C105.173 61.1831 104.936 61.1802 104.713 61.1743C104.49 61.1743 104.291 61.1714 104.115 61.1655C103.945 61.1655 103.816 61.1655 103.729 61.1655C103.576 61.1655 103.406 61.1685 103.219 61.1743C103.037 61.186 102.835 61.1919 102.612 61.1919H102.375C102.334 61.1919 102.299 61.1743 102.27 61.1392C102.246 61.104 102.234 61.063 102.234 61.0161C102.234 60.9634 102.249 60.9165 102.278 60.8755C102.313 60.8286 102.366 60.7993 102.437 60.7876C102.524 60.7642 102.609 60.7524 102.691 60.7524C102.773 60.7466 102.858 60.7437 102.946 60.7437H103.271C103.365 60.7437 103.444 60.7261 103.509 60.6909C103.573 60.6558 103.605 60.5854 103.605 60.48ZM117.51 60.9985C117.51 60.9692 117.513 60.9253 117.519 60.8667C117.53 60.8022 117.568 60.77 117.633 60.77H118.652C118.705 60.77 118.761 60.7524 118.819 60.7173C118.878 60.6821 118.907 60.6353 118.907 60.5767V55.3735C118.907 55.0981 118.898 54.8579 118.881 54.6528C118.863 54.4478 118.808 54.2925 118.714 54.187C118.673 54.1226 118.632 54.0815 118.591 54.064C118.556 54.0464 118.526 54.0317 118.503 54.02C118.474 54.0083 118.441 53.9995 118.406 53.9937C118.377 53.9878 118.342 53.9849 118.301 53.9849H118.116C117.999 53.9849 117.858 53.9878 117.694 53.9937C117.53 53.9995 117.393 54.0083 117.281 54.02C117.258 54.02 117.231 54.0171 117.202 54.0112C117.173 53.9995 117.158 53.9819 117.158 53.9585C117.158 53.894 117.17 53.856 117.193 53.8442C117.223 53.8325 117.258 53.8149 117.299 53.7915C117.527 53.7153 117.776 53.6509 118.046 53.5981C118.315 53.5396 118.573 53.478 118.819 53.4136C118.837 53.4136 118.875 53.4048 118.934 53.3872C118.998 53.3638 119.062 53.3403 119.127 53.3169C119.197 53.2935 119.265 53.27 119.329 53.2466C119.394 53.2231 119.44 53.2056 119.47 53.1938C119.546 53.1704 119.622 53.1382 119.698 53.0972C119.78 53.0503 119.862 53.0063 119.944 52.9653C120.026 52.9243 120.105 52.8892 120.182 52.8599C120.264 52.8306 120.346 52.8159 120.428 52.8159C120.457 52.8159 120.483 52.8306 120.507 52.8599C120.536 52.8892 120.551 52.9302 120.551 52.9829V58.687C120.551 58.8979 120.545 59.0737 120.533 59.2144C120.527 59.3491 120.519 59.4751 120.507 59.5923C120.495 59.7036 120.483 59.8179 120.472 59.9351C120.466 60.0464 120.463 60.1841 120.463 60.3481C120.463 60.5181 120.48 60.6323 120.516 60.6909C120.557 60.7437 120.671 60.77 120.858 60.77C120.923 60.77 121.022 60.7642 121.157 60.7524C121.292 60.7349 121.406 60.7261 121.5 60.7261C121.547 60.7261 121.597 60.7319 121.649 60.7437C121.708 60.7495 121.761 60.7642 121.808 60.7876C121.86 60.811 121.901 60.8433 121.931 60.8843C121.966 60.9253 121.983 60.978 121.983 61.0425C121.983 61.0835 121.975 61.1187 121.957 61.1479C121.945 61.1772 121.913 61.1919 121.86 61.1919C121.433 61.1919 121.046 61.186 120.7 61.1743C120.36 61.1685 120.038 61.1655 119.733 61.1655C119.212 61.1655 118.79 61.189 118.468 61.2358C118.146 61.2827 117.917 61.3062 117.782 61.3062C117.601 61.3062 117.51 61.2036 117.51 60.9985ZM118.714 49.4761C118.714 49.3179 118.743 49.1831 118.802 49.0718C118.86 48.9546 118.937 48.8608 119.03 48.7905C119.13 48.7144 119.244 48.6616 119.373 48.6323C119.502 48.5972 119.637 48.5796 119.777 48.5796C119.906 48.5796 120.029 48.603 120.146 48.6499C120.264 48.6968 120.366 48.7612 120.454 48.8433C120.542 48.9253 120.609 49.022 120.656 49.1333C120.709 49.2446 120.735 49.3618 120.735 49.4849C120.735 49.6431 120.709 49.7808 120.656 49.8979C120.604 50.0093 120.53 50.1001 120.437 50.1704C120.343 50.2407 120.231 50.2935 120.103 50.3286C119.979 50.3579 119.845 50.3726 119.698 50.3726C119.394 50.3726 119.153 50.3022 118.978 50.1616C118.802 50.021 118.714 49.7925 118.714 49.4761ZM122.906 60.9546C122.906 60.9194 122.927 60.8726 122.968 60.814C123.015 60.7554 123.067 60.688 123.126 60.6118C123.19 60.5298 123.258 60.4419 123.328 60.3481C123.404 60.2485 123.469 60.1401 123.521 60.0229L126.923 54.064C126.999 53.9351 127.066 53.8237 127.125 53.73C127.184 53.6304 127.213 53.5542 127.213 53.5015C127.213 53.4077 127.181 53.3491 127.116 53.3257C127.058 53.3022 126.993 53.2905 126.923 53.2905C126.806 53.2905 126.639 53.2964 126.422 53.3081C126.211 53.314 125.991 53.3257 125.763 53.3433C125.534 53.355 125.314 53.3696 125.104 53.3872C124.898 53.3989 124.74 53.4106 124.629 53.4224C124.494 53.4517 124.356 53.478 124.216 53.5015C124.075 53.5249 123.955 53.5542 123.855 53.5894C123.75 53.6362 123.639 53.7241 123.521 53.853C123.404 53.9819 123.29 54.1138 123.179 54.2485C123.073 54.3833 122.974 54.5034 122.88 54.6089C122.786 54.7144 122.704 54.7671 122.634 54.7671C122.593 54.7671 122.563 54.7349 122.546 54.6704C122.534 54.6646 122.528 54.6528 122.528 54.6353C122.528 54.6118 122.528 54.5884 122.528 54.5649V54.4331C122.528 54.3862 122.575 54.2778 122.669 54.1079C122.763 53.938 122.871 53.7534 122.994 53.5542C123.117 53.355 123.234 53.1646 123.346 52.9829C123.457 52.7954 123.53 52.6606 123.565 52.5786C123.571 52.5728 123.583 52.5405 123.601 52.4819C123.624 52.4175 123.65 52.353 123.68 52.2886C123.709 52.2183 123.744 52.1567 123.785 52.104C123.826 52.0454 123.87 52.0161 123.917 52.0161C123.976 52.0161 124.014 52.0571 124.031 52.1392C124.055 52.2212 124.075 52.312 124.093 52.4116C124.116 52.5054 124.148 52.5933 124.189 52.6753C124.23 52.7515 124.301 52.7896 124.4 52.7896H124.98C125.186 52.7896 125.423 52.7896 125.692 52.7896C125.968 52.7837 126.255 52.7778 126.554 52.772C126.853 52.7603 127.148 52.7485 127.441 52.7368C127.74 52.7251 128.019 52.7104 128.276 52.6929C128.399 52.687 128.543 52.6753 128.707 52.6577C128.877 52.6343 129.006 52.6226 129.094 52.6226C129.229 52.6226 129.296 52.6929 129.296 52.8335C129.296 52.9097 129.258 53.0122 129.182 53.1411C129.111 53.27 129.038 53.4019 128.962 53.5366L125.235 60.1196C125.188 60.2075 125.15 60.2866 125.121 60.3569C125.098 60.4214 125.086 60.4771 125.086 60.5239C125.086 60.5649 125.098 60.5972 125.121 60.6206C125.145 60.6382 125.174 60.6528 125.209 60.6646C125.244 60.6763 125.279 60.6851 125.314 60.6909C125.355 60.6909 125.391 60.6909 125.42 60.6909H127.749C128.007 60.6909 128.238 60.606 128.443 60.436C128.648 60.2603 128.827 60.0581 128.979 59.8296C129.132 59.6011 129.261 59.3784 129.366 59.1616C129.472 58.9448 129.551 58.7925 129.604 58.7046C129.609 58.6812 129.621 58.6665 129.639 58.6606C129.662 58.6489 129.686 58.6431 129.709 58.6431C129.738 58.6431 129.753 58.6636 129.753 58.7046C129.753 58.7573 129.75 58.8276 129.744 58.9155C129.738 58.9976 129.732 59.0825 129.727 59.1704C129.727 59.2524 129.724 59.3315 129.718 59.4077C129.712 59.478 129.709 59.5278 129.709 59.5571C129.709 59.5864 129.703 59.6274 129.691 59.6802C129.68 59.7271 129.668 59.7798 129.656 59.8384C129.645 59.8911 129.633 59.9409 129.621 59.9878C129.609 60.0347 129.604 60.0669 129.604 60.0845C129.604 60.1021 129.601 60.146 129.595 60.2163C129.595 60.2866 129.592 60.3628 129.586 60.4448C129.58 60.521 129.574 60.5942 129.568 60.6646C129.562 60.729 129.557 60.77 129.551 60.7876C129.539 60.8931 129.513 60.9897 129.472 61.0776C129.431 61.1655 129.337 61.2095 129.19 61.2095C129.12 61.2095 129.05 61.2007 128.979 61.1831C128.909 61.1714 128.827 61.1655 128.733 61.1655H124.884C124.796 61.1655 124.667 61.1685 124.497 61.1743C124.333 61.1802 124.16 61.1831 123.979 61.1831C123.803 61.189 123.636 61.1948 123.478 61.2007C123.319 61.2065 123.202 61.2095 123.126 61.2095C123.032 61.2095 122.971 61.186 122.941 61.1392C122.918 61.0923 122.906 61.0308 122.906 60.9546ZM138.551 55.5405H132.469C132.404 55.564 132.366 55.5903 132.354 55.6196C132.343 55.6431 132.331 55.6929 132.319 55.769C132.308 55.8218 132.296 55.936 132.284 56.1118C132.278 56.2876 132.275 56.4868 132.275 56.7095C132.275 56.9321 132.302 57.146 132.354 57.3511C132.407 57.5562 132.466 57.7583 132.53 57.9575C132.776 58.6841 133.16 59.2378 133.682 59.6187C134.209 59.9995 134.9 60.1899 135.756 60.1899C135.885 60.1899 136.025 60.1665 136.178 60.1196C136.33 60.0728 136.482 60.0142 136.635 59.9438C136.787 59.8677 136.934 59.7798 137.074 59.6802C137.215 59.5806 137.338 59.478 137.443 59.3726C137.52 59.3022 137.581 59.2231 137.628 59.1353C137.681 59.0415 137.745 58.9272 137.821 58.7925C137.845 58.769 137.877 58.7515 137.918 58.7397C137.959 58.7222 137.994 58.7134 138.023 58.7134C138.129 58.7134 138.199 58.7485 138.234 58.8188C138.275 58.8833 138.296 58.9653 138.296 59.0649C138.296 59.0942 138.284 59.1353 138.261 59.188C138.243 59.2349 138.22 59.2847 138.19 59.3374C138.167 59.3901 138.138 59.4429 138.103 59.4956C138.073 59.5425 138.05 59.5776 138.032 59.6011C137.81 59.9351 137.528 60.231 137.188 60.4888C136.849 60.7407 136.441 60.9458 135.967 61.104C135.861 61.1333 135.68 61.1567 135.422 61.1743C135.17 61.1978 134.895 61.2095 134.596 61.2095C134.332 61.2095 134.06 61.1743 133.778 61.104C133.503 61.0337 133.233 60.9341 132.97 60.8052C132.706 60.6763 132.46 60.5269 132.231 60.3569C132.009 60.187 131.824 59.9995 131.678 59.7944C131.361 59.3608 131.127 58.9214 130.975 58.4761C130.828 58.0308 130.755 57.5327 130.755 56.9819C130.755 56.7827 130.764 56.5952 130.781 56.4194C130.805 56.2378 130.84 56.062 130.887 55.8921C130.939 55.7222 131.004 55.5552 131.08 55.3911C131.156 55.2212 131.25 55.0483 131.361 54.8726C131.555 54.5503 131.774 54.2544 132.021 53.9849C132.267 53.7153 132.539 53.4839 132.838 53.2905C133.137 53.0972 133.459 52.9478 133.805 52.8423C134.15 52.7368 134.522 52.6841 134.921 52.6841C135.255 52.6841 135.601 52.7192 135.958 52.7896C136.321 52.854 136.67 53.0005 137.004 53.229C137.109 53.3052 137.256 53.4224 137.443 53.5806C137.631 53.7388 137.815 53.9175 137.997 54.1167C138.179 54.3101 138.337 54.5151 138.472 54.7319C138.606 54.9487 138.674 55.1567 138.674 55.356C138.674 55.4087 138.662 55.4526 138.639 55.4878C138.621 55.5229 138.592 55.5405 138.551 55.5405ZM132.697 55.0659H136.608C136.708 55.0659 136.767 55.0542 136.784 55.0308C136.808 55.0015 136.819 54.9722 136.819 54.9429C136.819 54.8081 136.784 54.6675 136.714 54.521C136.649 54.3745 136.567 54.2368 136.468 54.1079C136.374 53.9731 136.277 53.853 136.178 53.7476C136.078 53.6421 135.993 53.5601 135.923 53.5015C135.735 53.3433 135.548 53.2407 135.36 53.1938C135.173 53.147 134.959 53.1235 134.719 53.1235C134.619 53.1235 134.525 53.1265 134.438 53.1323C134.355 53.1323 134.273 53.1382 134.191 53.1499C134.109 53.1616 134.027 53.1792 133.945 53.2026C133.863 53.2261 133.772 53.2612 133.673 53.3081C133.562 53.3608 133.438 53.4458 133.304 53.563C133.175 53.6743 133.052 53.8062 132.935 53.9585C132.823 54.105 132.727 54.2661 132.645 54.4419C132.568 54.6177 132.53 54.7905 132.53 54.9604C132.53 55.0308 132.586 55.0659 132.697 55.0659ZM141.038 60.4624V55.646C141.038 55.4702 141.035 55.2856 141.029 55.0923C141.029 54.8931 141.018 54.7085 140.994 54.5386C140.977 54.3687 140.944 54.2251 140.897 54.1079C140.856 53.9849 140.798 53.9058 140.722 53.8706C140.581 53.8062 140.408 53.7739 140.203 53.7739C140.068 53.7739 139.942 53.7798 139.825 53.7915C139.714 53.8032 139.611 53.8091 139.518 53.8091C139.488 53.8091 139.462 53.7974 139.438 53.7739C139.415 53.7505 139.403 53.7271 139.403 53.7036C139.403 53.6392 139.424 53.6011 139.465 53.5894C139.646 53.4839 139.831 53.4106 140.019 53.3696C140.206 53.3286 140.399 53.2759 140.599 53.2114C140.774 53.1587 140.953 53.103 141.135 53.0444C141.316 52.9858 141.483 52.9097 141.636 52.8159C141.741 52.7632 141.838 52.7075 141.926 52.6489C142.014 52.5903 142.125 52.561 142.26 52.561C142.295 52.561 142.327 52.5845 142.356 52.6313C142.392 52.6724 142.409 52.7046 142.409 52.728V53.2114C142.409 53.2583 142.409 53.314 142.409 53.3784C142.415 53.4429 142.418 53.5073 142.418 53.5718C142.424 53.6362 142.43 53.6978 142.436 53.7563C142.441 53.8091 142.447 53.8472 142.453 53.8706C142.459 53.894 142.468 53.9116 142.479 53.9233L142.488 53.9321C142.523 53.9321 142.556 53.9146 142.585 53.8794C142.614 53.8384 142.646 53.7886 142.682 53.73C142.723 53.6655 142.767 53.5952 142.813 53.519C142.866 53.4429 142.934 53.3667 143.016 53.2905C143.127 53.1792 143.25 53.0767 143.385 52.9829C143.525 52.8833 143.669 52.7983 143.815 52.728C143.968 52.6577 144.12 52.6021 144.272 52.561C144.431 52.52 144.586 52.4995 144.738 52.4995C144.961 52.4995 145.189 52.52 145.424 52.561C145.658 52.5962 145.869 52.6636 146.057 52.7632C146.25 52.8569 146.408 52.9917 146.531 53.1675C146.654 53.3433 146.716 53.5659 146.716 53.8354C146.716 53.9819 146.684 54.1167 146.619 54.2397C146.561 54.3628 146.479 54.4683 146.373 54.5562C146.273 54.644 146.156 54.7144 146.021 54.7671C145.893 54.814 145.758 54.8374 145.617 54.8374C145.523 54.8374 145.424 54.8228 145.318 54.7935C145.213 54.7642 145.146 54.729 145.116 54.688C144.935 54.5239 144.809 54.3013 144.738 54.02C144.709 53.8618 144.688 53.73 144.677 53.6245C144.671 53.5132 144.647 53.4282 144.606 53.3696C144.571 53.3052 144.51 53.2612 144.422 53.2378C144.334 53.2085 144.196 53.1938 144.009 53.1938C143.856 53.1938 143.698 53.2349 143.534 53.3169C143.376 53.3931 143.227 53.4927 143.086 53.6157C142.951 53.7388 142.834 53.8765 142.734 54.0288C142.635 54.1753 142.576 54.3188 142.559 54.4595C142.529 54.5884 142.512 54.729 142.506 54.8813C142.506 55.0278 142.506 55.1802 142.506 55.3384V60.6206C142.541 60.6968 142.605 60.7466 142.699 60.77C142.793 60.7876 142.898 60.7964 143.016 60.7964C143.051 60.7964 143.098 60.7964 143.156 60.7964C143.221 60.7905 143.285 60.7876 143.35 60.7876C143.42 60.7817 143.481 60.7788 143.534 60.7788C143.587 60.7729 143.622 60.77 143.64 60.77C143.774 60.77 143.883 60.7876 143.965 60.8228C144.053 60.8521 144.097 60.9194 144.097 61.0249C144.097 61.0952 144.062 61.1597 143.991 61.2183C143.927 61.2769 143.862 61.3091 143.798 61.3149C143.476 61.2622 143.145 61.2241 142.805 61.2007C142.471 61.1772 142.137 61.1655 141.803 61.1655C141.451 61.1655 141.123 61.1802 140.818 61.2095C140.514 61.2388 140.197 61.2534 139.869 61.2534C139.805 61.2534 139.729 61.23 139.641 61.1831C139.559 61.1362 139.518 61.0747 139.518 60.9985C139.518 60.9517 139.532 60.9106 139.562 60.8755C139.591 60.8403 139.626 60.814 139.667 60.7964C139.714 60.7729 139.758 60.7554 139.799 60.7437C139.846 60.7319 139.884 60.7261 139.913 60.7261C139.978 60.7261 140.039 60.729 140.098 60.7349C140.162 60.7407 140.229 60.7466 140.3 60.7524C140.353 60.7642 140.408 60.7729 140.467 60.7788C140.525 60.7847 140.581 60.7876 140.634 60.7876C140.669 60.7876 140.707 60.7788 140.748 60.7612C140.795 60.7437 140.839 60.7202 140.88 60.6909C140.927 60.6558 140.965 60.6206 140.994 60.5854C141.023 60.5444 141.038 60.5034 141.038 60.4624Z" fill="#78BF45"/>
<defs>
<clipPath id="clip0_977_334">
<rect width="37.9433" height="41.5777" fill="white" transform="translate(54.5283 0.534912)"/>
</clipPath>
</defs>
</svg>
