<svg width="40" height="40" viewBox="0 0 40 40" fill="none" xmlns="http://www.w3.org/2000/svg">
<g clip-path="url(#clip0_394_10383)">
<path d="M31.725 15.1724L30.3457 11.7242L31.725 8.27588C33.6294 8.27588 35.1733 9.81972 35.1733 11.7242C35.1733 12.6387 34.81 13.5158 34.1633 14.1625C33.5166 14.8091 32.6396 15.1724 31.725 15.1724Z" fill="#78BF45"/>
<path d="M8.27542 15.1724L9.65473 11.7242L8.27542 8.27588C6.37099 8.27588 4.82715 9.81972 4.82715 11.7242C4.82715 13.6286 6.37099 15.1724 8.27542 15.1724Z" fill="#78BF45"/>
<path d="M23.7376 35.1104L23.2962 37.2966C22.9829 38.8688 21.6028 40.001 19.9996 40.001C18.3965 40.001 17.0164 38.8688 16.7031 37.2966L16.2617 35.1104H23.7376Z" fill="#003F59"/>
<path d="M8.2762 27.456V34.4829C7.47965 33.8103 6.31412 33.8103 5.51758 34.4829V26.738C5.84427 27.1746 6.35187 27.4388 6.89689 27.456H8.2762Z" fill="#003F59"/>
<path d="M34.4832 26.738V34.4829C33.6867 33.8103 32.5212 33.8103 31.7246 34.4829V27.456H33.1039C33.6489 27.4388 34.1565 27.1746 34.4832 26.738Z" fill="#003F59"/>
<path d="M16.5513 0H23.4478C28.0184 0 31.7237 3.70523 31.7237 8.27586V16.5517C31.7237 18.837 29.8711 20.6897 27.5857 20.6897H12.4133C10.128 20.6897 8.27539 18.837 8.27539 16.5517V8.27586C8.27539 3.70523 11.9806 0 16.5513 0Z" fill="#78BF45"/>
<path d="M24.1376 6.20679H15.8618C13.1956 6.20679 11.0342 8.36817 11.0342 11.0344V12.4137C11.0342 15.0799 13.1956 17.2413 15.8618 17.2413H24.1376C26.8038 17.2413 28.9652 15.0799 28.9652 12.4137V11.0344C28.9652 8.36817 26.8038 6.20679 24.1376 6.20679Z" fill="#003F59"/>
<path d="M17.9311 13.1035C17.5502 13.1035 17.2414 12.7948 17.2414 12.4139C17.2414 11.6521 16.6239 11.0346 15.8621 11.0346C15.1004 11.0346 14.4828 11.6521 14.4828 12.4139C14.4828 12.7948 14.1741 13.1035 13.7932 13.1035C13.4123 13.1035 13.1035 12.7948 13.1035 12.4139C13.1035 10.8903 14.3386 9.65527 15.8621 9.65527C17.3857 9.65527 18.6208 10.8903 18.6208 12.4139C18.6208 12.7948 18.312 13.1035 17.9311 13.1035Z" fill="white"/>
<path d="M26.2065 13.1035C25.8256 13.1035 25.5168 12.7948 25.5168 12.4139C25.5168 11.6521 24.8993 11.0346 24.1375 11.0346C23.3758 11.0346 22.7582 11.6521 22.7582 12.4139C22.7582 12.7948 22.4494 13.1035 22.0686 13.1035C21.6877 13.1035 21.3789 12.7948 21.3789 12.4139C21.3789 10.8903 22.614 9.65527 24.1375 9.65527C25.6611 9.65527 26.8961 10.8903 26.8961 12.4139C26.8961 12.7948 26.5874 13.1035 26.2065 13.1035Z" fill="white"/>
<path d="M12.9862 32.8345C11.7794 31.5636 10.9424 29.9874 10.5655 28.2759C10.4183 27.5961 10.3443 26.9025 10.3448 26.2069V24.8276C10.3413 24.1003 10.5343 23.3854 10.9034 22.7587C11.6402 21.4781 13.0053 20.6891 14.4827 20.6897H25.5172C26.9946 20.6891 28.3596 21.4781 29.0965 22.7587C29.4656 23.3854 29.6586 24.1003 29.6551 24.8276V26.2069C29.6555 26.9025 29.5816 27.5961 29.4344 28.2759C29.0575 29.9874 28.2205 31.5636 27.0137 32.8345" fill="#78BF45"/>
<path d="M27.0139 32.8344C25.1939 34.7685 22.6559 35.8652 20.0001 35.8652C17.3443 35.8652 14.8064 34.7685 12.9863 32.8344C15.2397 32.0505 17.6148 31.6745 20.0001 31.7241C22.3855 31.6745 24.7605 32.0505 27.0139 32.8344Z" fill="#78BF45"/>
<path d="M19.0347 27.8373L17.543 26.1379C17.2309 25.7818 17.1562 25.2758 17.3522 24.8447C17.5481 24.4135 17.9784 24.137 18.452 24.1379H21.5485C22.0221 24.137 22.4523 24.4135 22.6483 24.8447C22.8442 25.2758 22.7696 25.7818 22.4575 26.1379L20.9658 27.8373C20.7216 28.1147 20.3698 28.2737 20.0002 28.2737C19.6306 28.2737 19.2789 28.1147 19.0347 27.8373Z" fill="#003F59"/>
<path d="M10.3444 26.2068C10.344 26.9024 10.4179 27.596 10.5651 28.2758H6.89611C5.75518 28.2716 4.83131 27.3478 4.82715 26.2068V25.5172C4.82715 23.9936 6.06222 22.7585 7.58577 22.7585H10.903C10.5339 23.3853 10.3409 24.1001 10.3444 24.8275V26.2068Z" fill="#78BF45"/>
<path d="M9.65512 35.862C9.6582 37.1147 8.81887 38.213 7.60935 38.5391C6.39983 38.8651 5.12221 38.3374 4.49531 37.2528C3.8684 36.1683 4.0488 34.7978 4.93499 33.9124C5.82119 33.0271 7.19184 32.8479 8.2758 33.4758C9.12845 33.9681 9.65411 34.8775 9.65512 35.862Z" fill="#78BF45"/>
<path d="M35.1716 25.5172V26.2068C35.1674 27.3478 34.2435 28.2716 33.1026 28.2758H29.4336C29.5808 27.596 29.6548 26.9024 29.6543 26.2068V24.8275C29.6578 24.1001 29.4648 23.3853 29.0957 22.7585H32.4129C33.9365 22.7585 35.1716 23.9936 35.1716 25.5172Z" fill="#78BF45"/>
<path d="M35.8612 35.862C35.8643 37.1147 35.0249 38.213 33.8154 38.5391C32.6059 38.8651 31.3283 38.3374 30.7014 37.2528C30.0745 36.1683 30.2549 34.7978 31.141 33.9124C32.0272 33.0271 33.3979 32.8479 34.4819 33.4758C35.3345 33.9681 35.8602 34.8775 35.8612 35.862Z" fill="#78BF45"/>
<path d="M24.1378 17.9311H15.862C12.8163 17.9277 10.3481 15.4596 10.3447 12.4139V11.0346C10.3481 7.9889 12.8163 5.52075 15.862 5.51733H24.1378C27.1835 5.52075 29.6517 7.9889 29.6551 11.0346V12.4139C29.6517 15.4596 27.1835 17.9277 24.1378 17.9311ZM15.862 6.89664C13.5776 6.89893 11.7263 8.7502 11.724 11.0346V12.4139C11.7263 14.6983 13.5776 16.5495 15.862 16.5518H24.1378C26.4222 16.5495 28.2735 14.6983 28.2758 12.4139V11.0346C28.2735 8.7502 26.4222 6.89893 24.1378 6.89664H15.862Z" fill="#EBEFF0"/>
</g>
<defs>
<clipPath id="clip0_394_10383">
<rect width="40" height="40" fill="white"/>
</clipPath>
</defs>
</svg>
