<svg width="48" height="48" viewBox="0 0 48 48" fill="none" xmlns="http://www.w3.org/2000/svg">
<g clip-path="url(#clip0_2001_6683)">
<path d="M11.5862 39.7246V45.5177C11.5862 46.8889 10.4746 48.0005 9.10343 48.0005H4.13791C2.76672 48.0005 1.65515 46.8889 1.65515 45.5177V39.7246H11.5862Z" fill="#AAACAE"/>
<path d="M4.9655 44.6899C4.9655 45.147 4.59497 45.5175 4.13791 45.5175H1.65515V43.8623H4.13791C4.59497 43.8623 4.9655 44.2328 4.9655 44.6899Z" fill="#404040"/>
<path d="M11.5862 43.8623V45.5175H9.10347C8.6464 45.5175 8.27588 45.147 8.27588 44.6899C8.27588 44.2328 8.6464 43.8623 9.10347 43.8623H11.5862Z" fill="#404040"/>
<path d="M46.3449 39.7246V45.5177C46.3449 46.8889 45.2333 48.0005 43.8621 48.0005H38.8966C37.5254 48.0005 36.4138 46.8889 36.4138 45.5177V39.7246H46.3449Z" fill="#AAACAE"/>
<path d="M39.7242 44.6899C39.7242 45.147 39.3536 45.5175 38.8966 45.5175H36.4138V43.8623H38.8966C39.3536 43.8623 39.7242 44.2328 39.7242 44.6899Z" fill="#404040"/>
<path d="M46.3448 43.8623V45.5175H43.862C43.4049 45.5175 43.0344 45.147 43.0344 44.6899C43.0344 44.2328 43.4049 43.8623 43.862 43.8623H46.3448Z" fill="#404040"/>
<path d="M34.7586 39.7241H13.2414L8.27588 33.1034V15.7241C8.27588 7.03994 15.3158 0 24 0C32.6842 0 39.7242 7.03994 39.7242 15.7241V33.1034L34.7586 39.7241Z" fill="#78BF45"/>
<path d="M13.2414 38.069V40.5518C13.2414 41.0089 12.8709 41.3794 12.4138 41.3794H0.827586C0.370523 41.3794 0 41.0089 0 40.5518V38.069C0 35.3267 2.22314 33.1035 4.96552 33.1035H8.27586C11.0182 33.1035 13.2414 35.3267 13.2414 38.069Z" fill="#003F59"/>
<path d="M48 38.069V40.5518C48 41.0089 47.6295 41.3794 47.1725 41.3794H35.5863C35.1292 41.3794 34.7587 41.0089 34.7587 40.5518V38.069C34.7587 35.3267 36.9818 33.1035 39.7242 33.1035H43.0345C45.7769 33.1035 48 35.3267 48 38.069Z" fill="#003F59"/>
<path d="M24 27.3101C30.3989 27.3101 35.5862 22.1228 35.5862 15.7239C35.5862 9.32502 30.3989 4.1377 24 4.1377C17.6011 4.1377 12.4138 9.32502 12.4138 15.7239C12.4138 22.1228 17.6011 27.3101 24 27.3101Z" fill="#003F59"/>
<path d="M24 28.1381C17.144 28.1381 11.5862 22.5803 11.5862 15.7243C11.5862 8.86839 17.144 3.31055 24 3.31055C30.8559 3.31055 36.4138 8.86839 36.4138 15.7243C36.406 22.5771 30.8527 28.1304 24 28.1381ZM24 4.96572C18.0582 4.96572 13.2414 9.78252 13.2414 15.7243C13.2414 21.6662 18.0582 26.483 24 26.483C29.9418 26.483 34.7586 21.6662 34.7586 15.7243C34.7518 9.78535 29.939 4.97256 24 4.96572Z" fill="#EBEFF0"/>
<path d="M21.5172 19.0342H26.4827C26.9397 19.0342 27.3103 19.4047 27.3103 19.8618C27.3103 21.69 25.8282 23.1721 23.9999 23.1721C22.1717 23.1721 20.6896 21.69 20.6896 19.8618C20.6896 19.4047 21.0601 19.0342 21.5172 19.0342Z" fill="white"/>
<path d="M22.2339 13.2517C22.3939 13.8672 22.381 14.515 22.1967 15.1237C22.1227 15.3829 21.9271 15.5898 21.6724 15.6783C21.4177 15.7667 21.136 15.7256 20.9172 15.5681C20.3737 15.1557 19.7162 14.9211 19.0345 14.8961C18.3527 14.9211 17.6952 15.1557 17.1517 15.5681C16.9337 15.725 16.6531 15.7663 16.3991 15.679C16.1451 15.5916 15.9493 15.3864 15.8739 15.1286C15.7743 14.8045 15.7238 14.4672 15.7241 14.1281C15.6893 12.4473 16.9216 11.008 18.5878 10.7837C20.2539 10.5594 21.823 11.6215 22.2339 13.2517Z" fill="white"/>
<path d="M32.1649 13.2517C32.3249 13.8672 32.312 14.515 32.1277 15.1237C32.0537 15.3829 31.8581 15.5898 31.6034 15.6783C31.3488 15.7667 31.067 15.7256 30.8482 15.5681C29.753 14.6721 28.178 14.6721 27.0827 15.5681C26.8647 15.725 26.5841 15.7663 26.3301 15.679C26.0761 15.5916 25.8803 15.3864 25.8049 15.1286C25.7053 14.8045 25.6548 14.4672 25.6551 14.1281C25.6203 12.4473 26.8526 11.008 28.5188 10.7837C30.1849 10.5594 31.754 11.6215 32.1649 13.2517Z" fill="white"/>
<path d="M31.4483 33.1039V39.7245H29.7931V33.1039C29.7931 32.6468 29.4226 32.2763 28.9655 32.2763H19.0345C18.5775 32.2763 18.2069 32.6468 18.2069 33.1039V39.7245H16.5518V33.1039C16.5558 31.7344 17.665 30.6252 19.0345 30.6211H28.9655C30.335 30.6252 31.4442 31.7344 31.4483 33.1039Z" fill="#003F59"/>
</g>
<defs>
<clipPath id="clip0_2001_6683">
<rect width="48" height="48" fill="white"/>
</clipPath>
</defs>
</svg>
