<svg width="32" height="32" viewBox="0 0 32 32" fill="none" xmlns="http://www.w3.org/2000/svg">
<g clip-path="url(#clip0_463_27132)">
<path d="M7.72421 26.4829V30.345C7.72421 31.2591 6.98316 32.0002 6.06903 32.0002H2.75869C1.84456 32.0002 1.10352 31.2591 1.10352 30.345V26.4829H7.72421Z" fill="#AAACAE"/>
<path d="M3.31041 29.7929C3.31041 30.0976 3.0634 30.3447 2.75869 30.3447H1.10352V29.2412H2.75869C3.0634 29.2412 3.31041 29.4882 3.31041 29.7929Z" fill="#404040"/>
<path d="M7.72423 29.2412V30.3447H6.06906C5.76435 30.3447 5.51733 30.0976 5.51733 29.7929C5.51733 29.4882 5.76435 29.2412 6.06906 29.2412H7.72423Z" fill="#404040"/>
<path d="M30.8966 26.4829V30.345C30.8966 31.2591 30.1555 32.0002 29.2414 32.0002H25.9311C25.0169 32.0002 24.2759 31.2591 24.2759 30.345V26.4829H30.8966Z" fill="#AAACAE"/>
<path d="M26.4828 29.7929C26.4828 30.0976 26.2358 30.3447 25.9311 30.3447H24.2759V29.2412H25.9311C26.2358 29.2412 26.4828 29.4882 26.4828 29.7929Z" fill="#404040"/>
<path d="M30.8966 29.2412V30.3447H29.2414C28.9367 30.3447 28.6897 30.0976 28.6897 29.7929C28.6897 29.4882 28.9367 29.2412 29.2414 29.2412H30.8966Z" fill="#404040"/>
<path d="M23.1725 26.4828H8.82768L5.51733 22.069V10.4828C5.51733 4.69329 10.2106 0 16.0001 0C21.7896 0 26.4829 4.69329 26.4829 10.4828V22.069L23.1725 26.4828Z" fill="#78BF45"/>
<path d="M8.82759 25.3792V27.0344C8.82759 27.3391 8.58057 27.5861 8.27586 27.5861H0.551724C0.247015 27.5861 0 27.3391 0 27.0344V25.3792C0 23.5509 1.48209 22.0688 3.31034 22.0688H5.51724C7.34549 22.0688 8.82759 23.5509 8.82759 25.3792Z" fill="#003F59"/>
<path d="M31.9999 25.3792V27.0344C31.9999 27.3391 31.7529 27.5861 31.4482 27.5861H23.7241C23.4194 27.5861 23.1724 27.3391 23.1724 27.0344V25.3792C23.1724 23.5509 24.6545 22.0688 26.4827 22.0688H28.6896C30.5179 22.0688 31.9999 23.5509 31.9999 25.3792Z" fill="#003F59"/>
<path d="M16 18.2071C20.2659 18.2071 23.7242 14.7489 23.7242 10.4829C23.7242 6.217 20.2659 2.75879 16 2.75879C11.7341 2.75879 8.27588 6.217 8.27588 10.4829C8.27588 14.7489 11.7341 18.2071 16 18.2071Z" fill="#003F59"/>
<path d="M16 18.7588C11.4294 18.7588 7.72412 15.0535 7.72412 10.4829C7.72412 5.91226 11.4294 2.20703 16 2.20703C20.5706 2.20703 24.2758 5.91226 24.2758 10.4829C24.2707 15.0514 20.5685 18.7536 16 18.7588ZM16 3.31048C12.0388 3.31048 8.82757 6.52168 8.82757 10.4829C8.82757 14.4441 12.0388 17.6553 16 17.6553C19.9612 17.6553 23.1724 14.4441 23.1724 10.4829C23.1678 6.52357 19.9593 3.31504 16 3.31048Z" fill="#EBEFF0"/>
<path d="M14.3447 12.6895H17.655C17.9597 12.6895 18.2068 12.9365 18.2068 13.2412C18.2068 14.46 17.2187 15.4481 15.9999 15.4481C14.781 15.4481 13.793 14.46 13.793 13.2412C13.793 12.9365 14.04 12.6895 14.3447 12.6895Z" fill="white"/>
<path d="M14.8225 8.8346C14.9292 9.24497 14.9206 9.6768 14.7977 10.0826C14.7484 10.2554 14.618 10.3934 14.4482 10.4523C14.2784 10.5113 14.0906 10.4839 13.9447 10.3789C13.5824 10.104 13.1441 9.94754 12.6896 9.93088C12.235 9.94754 11.7967 10.104 11.4344 10.3789C11.289 10.4835 11.102 10.5111 10.9326 10.4528C10.7633 10.3946 10.6328 10.2578 10.5825 10.0859C10.5161 9.8698 10.4824 9.64496 10.4827 9.41888C10.4594 8.29833 11.281 7.33886 12.3918 7.18932C13.5025 7.03978 14.5486 7.74781 14.8225 8.8346Z" fill="white"/>
<path d="M21.4431 8.8346C21.5498 9.24497 21.5412 9.6768 21.4183 10.0826C21.369 10.2554 21.2386 10.3934 21.0688 10.4524C20.899 10.5113 20.7112 10.4839 20.5653 10.3789C19.8351 9.78155 18.7852 9.78155 18.055 10.3789C17.9097 10.4835 17.7226 10.5111 17.5533 10.4528C17.3839 10.3946 17.2534 10.2578 17.2031 10.0859C17.1367 9.8698 17.103 9.64496 17.1033 9.41888C17.08 8.29833 17.9016 7.33886 19.0124 7.18932C20.1231 7.03978 21.1692 7.74781 21.4431 8.8346Z" fill="white"/>
<path d="M20.9655 22.0687V26.4825H19.862V22.0687C19.862 21.764 19.615 21.517 19.3103 21.517H12.6896C12.3849 21.517 12.1379 21.764 12.1379 22.0687V26.4825H11.0344V22.0687C11.0372 21.1558 11.7766 20.4163 12.6896 20.4136H19.3103C20.2233 20.4163 20.9627 21.1558 20.9655 22.0687Z" fill="#003F59"/>
</g>
<defs>
<clipPath id="clip0_463_27132">
<rect width="32" height="32" fill="white"/>
</clipPath>
</defs>
</svg>
