<svg width="15" height="15" viewBox="0 0 15 15" fill="none" xmlns="http://www.w3.org/2000/svg">
<g clip-path="url(#clip0_2001_6490)">
<path d="M11.675 5.57721L11.1838 4.34928L11.675 3.12134C12.3532 3.12134 12.903 3.6711 12.903 4.34928C12.903 4.67495 12.7736 4.98728 12.5433 5.21756C12.313 5.44784 12.0007 5.57721 11.675 5.57721Z" fill="#78BF45"/>
<path d="M3.32498 5.57721L3.81616 4.34928L3.32498 3.12134C2.64681 3.12134 2.09705 3.6711 2.09705 4.34928C2.09705 5.02745 2.64681 5.57721 3.32498 5.57721Z" fill="#78BF45"/>
<path d="M8.83111 12.6772L8.67394 13.4558C8.56236 14.0156 8.07092 14.4188 7.50003 14.4188C6.92914 14.4188 6.4377 14.0156 6.32612 13.4558L6.16895 12.6772H8.83111Z" fill="#003F59"/>
<path d="M3.32512 9.95146V12.4537C3.04147 12.2142 2.62642 12.2142 2.34277 12.4537V9.6958C2.45911 9.85127 2.63987 9.94536 2.83395 9.95146H3.32512Z" fill="#003F59"/>
<path d="M12.6574 9.6958V12.4537C12.3737 12.2142 11.9587 12.2142 11.675 12.4537V9.95146H12.1662C12.3603 9.94536 12.5411 9.85127 12.6574 9.6958Z" fill="#003F59"/>
<path d="M6.27225 0.174316H8.72812C10.3557 0.174316 11.6752 1.49376 11.6752 3.12137V6.06842C11.6752 6.88222 11.0155 7.54194 10.2016 7.54194H4.79872C3.98492 7.54194 3.3252 6.88222 3.3252 6.06842V3.12137C3.3252 1.49376 4.64464 0.174316 6.27225 0.174316Z" fill="#78BF45"/>
<path d="M8.97378 2.38452H6.02673C5.07729 2.38452 4.30762 3.15419 4.30762 4.10363V4.59481C4.30762 5.54425 5.07729 6.31392 6.02673 6.31392H8.97378C9.92322 6.31392 10.6929 5.54425 10.6929 4.59481V4.10363C10.6929 3.15419 9.92322 2.38452 8.97378 2.38452Z" fill="#003F59"/>
<path d="M6.7633 4.84049C6.62767 4.84049 6.51771 4.73053 6.51771 4.5949C6.51771 4.32363 6.29781 4.10372 6.02654 4.10372C5.75527 4.10372 5.53536 4.32363 5.53536 4.5949C5.53536 4.73053 5.42541 4.84049 5.28978 4.84049C5.15414 4.84049 5.04419 4.73053 5.04419 4.5949C5.04419 4.05236 5.484 3.61255 6.02654 3.61255C6.56908 3.61255 7.00889 4.05236 7.00889 4.5949C7.00889 4.73053 6.89894 4.84049 6.7633 4.84049Z" fill="white"/>
<path d="M9.71032 4.84049C9.57469 4.84049 9.46474 4.73053 9.46474 4.5949C9.46474 4.32363 9.24483 4.10372 8.97356 4.10372C8.70229 4.10372 8.48239 4.32363 8.48239 4.5949C8.48239 4.73053 8.37243 4.84049 8.2368 4.84049C8.10116 4.84049 7.99121 4.73053 7.99121 4.5949C7.99121 4.05236 8.43102 3.61255 8.97356 3.61255C9.5161 3.61255 9.95591 4.05236 9.95591 4.5949C9.95591 4.73053 9.84596 4.84049 9.71032 4.84049Z" fill="white"/>
<path d="M5.00238 11.8668C4.57266 11.4142 4.27461 10.8529 4.14037 10.2435C4.08798 10.0014 4.06163 9.75438 4.06178 9.50669V9.01552C4.06055 8.7565 4.12927 8.50195 4.26071 8.27876C4.5231 7.82276 5.00921 7.54177 5.53531 7.54199H9.46471C9.99082 7.54177 10.4769 7.82276 10.7393 8.27876C10.8707 8.50195 10.9395 8.7565 10.9382 9.01552V9.50669C10.9384 9.75438 10.912 10.0014 10.8596 10.2435C10.7254 10.8529 10.4274 11.4142 9.99764 11.8668" fill="#78BF45"/>
<path d="M9.99781 11.8667C9.34969 12.5554 8.44593 12.9459 7.50019 12.9459C6.55445 12.9459 5.65069 12.5554 5.00256 11.8667C5.805 11.5875 6.65077 11.4536 7.50019 11.4713C8.34961 11.4536 9.19537 11.5875 9.99781 11.8667Z" fill="#78BF45"/>
<path d="M7.15631 10.0874L6.6251 9.48222C6.51396 9.35539 6.48738 9.17522 6.55715 9.02169C6.62693 8.86815 6.78014 8.7697 6.94878 8.77002H8.05147C8.22012 8.7697 8.37333 8.86815 8.44311 9.02169C8.51288 9.17522 8.4863 9.35539 8.37516 9.48222L7.84395 10.0874C7.757 10.1862 7.63174 10.2428 7.50013 10.2428C7.36852 10.2428 7.24326 10.1862 7.15631 10.0874Z" fill="#003F59"/>
<path d="M4.06175 9.50675C4.06159 9.75443 4.08794 10.0014 4.14033 10.2435H2.83381C2.42752 10.242 2.09853 9.91303 2.09705 9.50675V9.26116C2.09705 8.71862 2.53686 8.27881 3.0794 8.27881H4.26067C4.12924 8.50201 4.06051 8.75655 4.06175 9.01557V9.50675Z" fill="#78BF45"/>
<path d="M3.81631 12.945C3.81741 13.3911 3.51852 13.7822 3.08781 13.8983C2.6571 14.0144 2.20214 13.8265 1.97889 13.4403C1.75565 13.0541 1.81989 12.5661 2.13547 12.2508C2.45104 11.9355 2.93914 11.8717 3.32514 12.0953C3.62877 12.2706 3.81595 12.5944 3.81631 12.945Z" fill="#78BF45"/>
<path d="M12.9029 9.26116V9.50675C12.9014 9.91303 12.5724 10.242 12.1661 10.2435H10.8596C10.912 10.0014 10.9383 9.75443 10.9382 9.50675V9.01557C10.9394 8.75655 10.8707 8.50201 10.7393 8.27881H11.9205C12.4631 8.27881 12.9029 8.71862 12.9029 9.26116Z" fill="#78BF45"/>
<path d="M13.1486 12.945C13.1497 13.3911 12.8508 13.7822 12.4201 13.8983C11.9894 14.0144 11.5344 13.8265 11.3112 13.4403C11.0879 13.0541 11.1522 12.5661 11.4677 12.2508C11.7833 11.9355 12.2714 11.8717 12.6574 12.0953C12.961 12.2706 13.1482 12.5944 13.1486 12.945Z" fill="#78BF45"/>
<path d="M8.97352 6.55949H6.02647C4.9419 6.55827 4.06299 5.67936 4.06177 4.59479V4.10362C4.06299 3.01905 4.9419 2.14013 6.02647 2.13892H8.97352C10.0581 2.14013 10.937 3.01905 10.9382 4.10362V4.59479C10.937 5.67936 10.0581 6.55827 8.97352 6.55949ZM6.02647 2.63009C5.213 2.6309 4.55376 3.29015 4.55294 4.10362V4.59479C4.55376 5.40826 5.213 6.0675 6.02647 6.06832H8.97352C9.78699 6.0675 10.4462 5.40826 10.447 4.59479V4.10362C10.4462 3.29015 9.78699 2.6309 8.97352 2.63009H6.02647Z" fill="#EBEFF0"/>
</g>
<defs>
<clipPath id="clip0_2001_6490">
<rect width="14.2441" height="14.2441" fill="white" transform="translate(0.37793 0.174316)"/>
</clipPath>
</defs>
</svg>
