<svg width="1119" height="615" viewBox="0 0 1119 615" fill="none" xmlns="http://www.w3.org/2000/svg">
<path d="M917.842 3.12891V7.91798" stroke="#404040" stroke-width="1.19727" stroke-linecap="round" stroke-linejoin="round"/>
<path d="M910.658 10.3125H915.447" stroke="#404040" stroke-width="1.19727" stroke-linecap="round" stroke-linejoin="round"/>
<path d="M925.025 10.3125H920.236" stroke="#404040" stroke-width="1.19727" stroke-linecap="round" stroke-linejoin="round"/>
<path d="M917.842 17.496V12.3079" stroke="#404040" stroke-width="1.19727" stroke-linecap="round" stroke-linejoin="round"/>
<path d="M915.447 5.52345L916.808 3.96559C917.295 3.4078 917.539 3.12891 917.842 3.12891C918.145 3.12891 918.388 3.4078 918.875 3.96559L920.236 5.52345" stroke="#404040" stroke-width="1.19727" stroke-linecap="round" stroke-linejoin="round"/>
<path d="M920.236 15.1016L918.875 16.6594C918.388 17.2172 918.145 17.4961 917.842 17.4961C917.539 17.4961 917.295 17.2172 916.808 16.6594L915.447 15.1016" stroke="#404040" stroke-width="1.19727" stroke-linecap="round" stroke-linejoin="round"/>
<path d="M922.631 7.91797L924.189 9.27886C924.747 9.76615 925.025 10.0098 925.025 10.3125C925.025 10.6153 924.747 10.8589 924.189 11.3462L922.631 12.707" stroke="#404040" stroke-width="1.19727" stroke-linecap="round" stroke-linejoin="round"/>
<path d="M913.053 12.707L911.495 11.3462C910.937 10.8589 910.658 10.6153 910.658 10.3125C910.658 10.0098 910.937 9.76615 911.495 9.27886L913.053 7.91797" stroke="#404040" stroke-width="1.19727" stroke-linecap="round" stroke-linejoin="round"/>
<path d="M962.061 16.219L964.136 18.2943M963.098 12.5873C963.098 10.0085 961.008 7.91797 958.429 7.91797C955.85 7.91797 953.76 10.0085 953.76 12.5873C953.76 15.1662 955.85 17.2567 958.429 17.2567C961.008 17.2567 963.098 15.1662 963.098 12.5873Z" stroke="#404040" stroke-width="1.19727" stroke-linecap="round" stroke-linejoin="round"/>
<path d="M948.172 5.52353C948.276 4.45756 948.512 3.74064 949.047 3.20582C949.582 2.67099 950.299 2.43497 951.365 2.33081M951.365 18.2944C950.299 18.1902 949.582 17.9542 949.047 17.4194C948.512 16.8846 948.276 16.1677 948.172 15.1017M964.135 5.52353C964.031 4.45756 963.795 3.74064 963.26 3.20582C962.726 2.67099 962.009 2.43497 960.943 2.33081M948.172 8.71625V11.909M957.75 2.33081H954.557" stroke="#404040" stroke-width="1.19727" stroke-linecap="round"/>
<path d="M988.081 8.71616C987.69 8.68654 987.418 8.61984 987.194 8.46966C987.02 8.3527 986.87 8.20241 986.753 8.02736C986.484 7.62302 986.484 7.06013 986.484 5.93437C986.484 4.80861 986.484 4.24573 986.753 3.84139C986.87 3.66634 987.02 3.51604 987.194 3.39908C987.596 3.12891 988.157 3.12891 989.278 3.12891H999.654C1000.78 3.12891 1001.34 3.12891 1001.74 3.39908C1001.91 3.51604 1002.06 3.66634 1002.18 3.84139C1002.45 4.24573 1002.45 4.80861 1002.45 5.93437C1002.45 6.96221 1002.45 7.52083 1002.24 7.91798" stroke="#404040" stroke-width="1.19727" stroke-linecap="round"/>
<path d="M999.414 15.2614L1001.65 17.4963M1000.53 11.3503C1000.53 8.5731 998.28 6.32178 995.503 6.32178C992.726 6.32178 990.475 8.5731 990.475 11.3503C990.475 14.1275 992.726 16.3788 995.503 16.3788C998.28 16.3788 1000.53 14.1275 1000.53 11.3503Z" stroke="#404040" stroke-width="1.19727" stroke-linecap="round" stroke-linejoin="round"/>
<path d="M1032.78 18.2944C1029.39 18.2944 1027.7 18.2944 1026.65 17.1255C1025.6 15.9566 1025.6 14.0752 1025.6 10.3126C1025.6 6.54996 1025.6 4.66862 1026.65 3.49972C1027.7 2.33081 1029.39 2.33081 1032.78 2.33081C1036.17 2.33081 1037.86 2.33081 1038.91 3.49972C1039.96 4.66862 1039.96 6.54995 1039.96 10.3126C1039.96 14.0752 1039.96 15.9566 1038.91 17.1255C1037.86 18.2944 1036.17 18.2944 1032.78 18.2944Z" stroke="#404040" stroke-width="1.19727" stroke-linecap="round" stroke-linejoin="round"/>
<path d="M1029.59 2.72974V8.57737C1029.59 9.57277 1029.59 10.0705 1029.89 10.2487C1030.49 10.5936 1031.61 9.44267 1032.14 9.0961C1032.45 8.89512 1032.61 8.79462 1032.78 8.79462C1032.95 8.79462 1033.1 8.89512 1033.41 9.0961C1033.95 9.44267 1035.07 10.5936 1035.66 10.2487C1035.97 10.0705 1035.97 9.57277 1035.97 8.57737V2.72974" stroke="#404040" stroke-width="1.19727" stroke-linecap="round" stroke-linejoin="round"/>
<path d="M1077.48 9.51443L1079.07 10.3126C1079.07 5.90438 1075.5 2.33081 1071.09 2.33081C1067.82 2.33081 1065.01 4.30087 1063.78 7.11989M1064.71 11.1108L1063.11 10.3126C1063.11 14.7208 1066.68 18.2944 1071.09 18.2944C1074.37 18.2944 1077.18 16.3243 1078.41 13.5053" stroke="#404040" stroke-width="1.19727" stroke-linecap="round" stroke-linejoin="round"/>
<path d="M1109.41 18.2944C1113.81 18.2944 1117.39 14.7208 1117.39 10.3126C1117.39 5.90438 1113.81 2.33081 1109.41 2.33081C1105 2.33081 1101.42 5.90438 1101.42 10.3126C1101.42 14.7208 1105 18.2944 1109.41 18.2944Z" stroke="#404040" stroke-width="1.19727"/>
<path d="M1107.81 7.91814C1107.81 7.03649 1108.52 6.32178 1109.4 6.32178C1110.29 6.32178 1111 7.03649 1111 7.91814C1111 8.23593 1110.91 8.53204 1110.75 8.78081C1110.27 9.52224 1109.4 10.2292 1109.4 11.1109V11.5099" stroke="#404040" stroke-width="1.19727" stroke-linecap="round"/>
<path d="M1109.4 14.3035H1109.4" stroke="#404040" stroke-width="1.19727" stroke-linecap="round" stroke-linejoin="round"/>
<path d="M3.91937 2.33081V4.83086C3.91937 5.06541 4.21262 5.1716 4.36276 4.99141C5.82431 3.35847 7.94818 2.33081 10.3122 2.33081C14.7204 2.33081 18.2939 5.90438 18.2939 10.3126C18.2939 14.7208 14.7204 18.2944 10.3122 18.2944C5.90396 18.2944 2.33036 14.7208 2.33036 10.3126" stroke="#404040" stroke-width="1.19727" stroke-linecap="round" stroke-linejoin="round"/>
<path d="M55.0172 2.33081V4.83086C55.0172 5.06541 54.7239 5.1716 54.5738 4.99141C53.1122 3.35847 50.9883 2.33081 48.6244 2.33081C44.2161 2.33081 40.6426 5.90438 40.6426 10.3126C40.6426 14.7208 44.2161 18.2944 48.6244 18.2944C53.0326 18.2944 56.6062 14.7208 56.6062 10.3126" stroke="#404040" stroke-width="1.19727" stroke-linecap="round" stroke-linejoin="round"/>
<ellipse cx="620.028" cy="525.138" rx="89.7952" ry="89.7952" fill="#003F59"/>
<path d="M589.729 520.715V525.621H594.239C595.977 525.621 596.923 524.763 596.923 523.113C596.923 521.111 595.625 520.715 594.195 520.715H589.729ZM586.979 534.179V518.471H594.481C597.913 518.471 599.673 520.055 599.673 522.717C599.673 525.731 597.583 526.501 597.077 526.677V526.721C598.023 526.853 599.409 527.557 599.409 530.043C599.409 531.869 599.673 533.541 600.267 534.179H597.319C596.901 533.497 596.901 532.639 596.901 531.869C596.901 528.987 596.307 527.711 593.777 527.711H589.729V534.179H586.979ZM612.435 529.141H604.075C604.075 530.923 605.043 532.507 607.133 532.507C608.585 532.507 609.465 531.869 609.905 530.615H612.281C611.731 533.101 609.619 534.487 607.133 534.487C603.569 534.487 601.567 532.001 601.567 528.503C601.567 525.269 603.679 522.497 607.067 522.497C610.653 522.497 612.853 525.731 612.435 529.141ZM604.075 527.491H609.927C609.839 525.907 608.761 524.477 607.067 524.477C605.329 524.477 604.141 525.797 604.075 527.491ZM614.341 534.179V522.805H616.717V524.477L616.761 524.521C617.509 523.267 618.807 522.497 620.303 522.497C622.767 522.497 624.329 523.817 624.329 526.369V534.179H621.821V527.029C621.777 525.247 621.073 524.477 619.599 524.477C617.927 524.477 616.849 525.797 616.849 527.469V534.179H614.341ZM637.292 529.141H628.932C628.932 530.923 629.9 532.507 631.99 532.507C633.442 532.507 634.322 531.869 634.762 530.615H637.138C636.588 533.101 634.476 534.487 631.99 534.487C628.426 534.487 626.424 532.001 626.424 528.503C626.424 525.269 628.536 522.497 631.924 522.497C635.51 522.497 637.71 525.731 637.292 529.141ZM628.932 527.491H634.784C634.696 525.907 633.618 524.477 631.924 524.477C630.186 524.477 628.998 525.797 628.932 527.491ZM641.685 534.179L638.165 522.805H640.827L643.049 531.297H643.093L645.227 522.805H647.757L649.803 531.297H649.847L652.157 522.805H654.709L651.145 534.179H648.571L646.459 525.731H646.415L644.325 534.179H641.685Z" fill="white"/>
<path d="M708.859 530.416C708.467 530.949 708.582 531.698 709.115 532.09L717.799 538.469C718.332 538.86 719.081 538.745 719.473 538.212C719.864 537.68 719.75 536.93 719.217 536.539L711.497 530.869L717.167 523.149C717.559 522.616 717.444 521.867 716.911 521.475C716.378 521.084 715.629 521.199 715.237 521.732L708.859 530.416ZM944.307 494.023L941.96 494.382L942.323 496.749L944.669 496.39L944.307 494.023ZM937.267 495.101L932.574 495.819L932.936 498.186L937.629 497.468L937.267 495.101ZM927.881 496.538L923.187 497.256L923.55 499.623L928.243 498.905L927.881 496.538ZM918.494 497.974L913.801 498.693L914.163 501.06L918.856 500.341L918.494 497.974ZM909.107 499.411L904.414 500.129L904.776 502.496L909.47 501.778L909.107 499.411ZM899.721 500.848L895.028 501.566L895.39 503.933L900.083 503.215L899.721 500.848ZM890.334 502.284L885.641 503.003L886.003 505.37L890.697 504.651L890.334 502.284ZM880.948 503.721L876.254 504.44L876.617 506.807L881.31 506.088L880.948 503.721ZM871.561 505.158L866.868 505.876L867.23 508.243L871.923 507.525L871.561 505.158ZM862.174 506.595L857.481 507.313L857.843 509.68L862.537 508.962L862.174 506.595ZM852.788 508.031L848.095 508.75L848.457 511.117L853.15 510.398L852.788 508.031ZM843.401 509.468L838.708 510.186L839.07 512.553L843.764 511.835L843.401 509.468ZM834.015 510.905L829.321 511.623L829.684 513.99L834.377 513.272L834.015 510.905ZM824.628 512.342L819.935 513.06L820.297 515.427L824.99 514.708L824.628 512.342ZM815.241 513.778L810.548 514.497L810.91 516.864L815.604 516.145L815.241 513.778ZM805.855 515.215L801.162 515.933L801.524 518.3L806.217 517.582L805.855 515.215ZM796.468 516.652L791.775 517.37L792.137 519.737L796.831 519.019L796.468 516.652ZM787.082 518.088L782.388 518.807L782.751 521.174L787.444 520.455L787.082 518.088ZM777.695 519.525L773.002 520.244L773.364 522.61L778.057 521.892L777.695 519.525ZM768.309 520.962L763.615 521.68L763.978 524.047L768.671 523.329L768.309 520.962ZM758.922 522.399L754.229 523.117L754.591 525.484L759.284 524.766L758.922 522.399ZM749.535 523.835L744.842 524.554L745.204 526.921L749.898 526.202L749.535 523.835ZM740.149 525.272L735.455 525.99L735.818 528.357L740.511 527.639L740.149 525.272ZM730.762 526.709L726.069 527.427L726.431 529.794L731.124 529.076L730.762 526.709ZM721.376 528.145L716.682 528.864L717.045 531.231L721.738 530.512L721.376 528.145ZM711.989 529.582L709.642 529.941L710.005 532.308L712.351 531.949L711.989 529.582ZM708.859 530.416C708.467 530.949 708.582 531.698 709.115 532.09L717.799 538.469C718.332 538.86 719.081 538.745 719.473 538.212C719.864 537.68 719.75 536.93 719.217 536.539L711.497 530.869L717.167 523.149C717.559 522.616 717.444 521.867 716.911 521.475C716.378 521.084 715.629 521.199 715.237 521.732L708.859 530.416ZM944.307 494.023L941.96 494.382L942.323 496.749L944.669 496.39L944.307 494.023ZM937.267 495.101L932.574 495.819L932.936 498.186L937.629 497.468L937.267 495.101ZM927.881 496.538L923.187 497.256L923.55 499.623L928.243 498.905L927.881 496.538ZM918.494 497.974L913.801 498.693L914.163 501.06L918.856 500.341L918.494 497.974ZM909.107 499.411L904.414 500.129L904.776 502.496L909.47 501.778L909.107 499.411ZM899.721 500.848L895.028 501.566L895.39 503.933L900.083 503.215L899.721 500.848ZM890.334 502.284L885.641 503.003L886.003 505.37L890.697 504.651L890.334 502.284ZM880.948 503.721L876.254 504.44L876.617 506.807L881.31 506.088L880.948 503.721ZM871.561 505.158L866.868 505.876L867.23 508.243L871.923 507.525L871.561 505.158ZM862.174 506.595L857.481 507.313L857.843 509.68L862.537 508.962L862.174 506.595ZM852.788 508.031L848.095 508.75L848.457 511.117L853.15 510.398L852.788 508.031ZM843.401 509.468L838.708 510.186L839.07 512.553L843.764 511.835L843.401 509.468ZM834.015 510.905L829.321 511.623L829.684 513.99L834.377 513.272L834.015 510.905ZM824.628 512.342L819.935 513.06L820.297 515.427L824.99 514.708L824.628 512.342ZM815.241 513.778L810.548 514.497L810.91 516.864L815.604 516.145L815.241 513.778ZM805.855 515.215L801.162 515.933L801.524 518.3L806.217 517.582L805.855 515.215ZM796.468 516.652L791.775 517.37L792.137 519.737L796.831 519.019L796.468 516.652ZM787.082 518.088L782.388 518.807L782.751 521.174L787.444 520.455L787.082 518.088ZM777.695 519.525L773.002 520.244L773.364 522.61L778.057 521.892L777.695 519.525ZM768.309 520.962L763.615 521.68L763.978 524.047L768.671 523.329L768.309 520.962ZM758.922 522.399L754.229 523.117L754.591 525.484L759.284 524.766L758.922 522.399ZM749.535 523.835L744.842 524.554L745.204 526.921L749.898 526.202L749.535 523.835ZM740.149 525.272L735.455 525.99L735.818 528.357L740.511 527.639L740.149 525.272ZM730.762 526.709L726.069 527.427L726.431 529.794L731.124 529.076L730.762 526.709ZM721.376 528.145L716.682 528.864L717.045 531.231L721.738 530.512L721.376 528.145ZM711.989 529.582L709.642 529.941L710.005 532.308L712.351 531.949L711.989 529.582Z" fill="#AAACAE"/>
<path d="M653.613 441.71C653.823 442.337 654.501 442.675 655.128 442.465L665.345 439.039C665.971 438.828 666.309 438.15 666.099 437.523C665.889 436.896 665.21 436.558 664.583 436.768L655.502 439.814L652.457 430.733C652.246 430.106 651.568 429.768 650.941 429.978C650.314 430.189 649.976 430.867 650.186 431.494L653.613 441.71ZM784.178 178.594L653.676 440.796L655.82 441.863L786.322 179.661L784.178 178.594Z" fill="#AAACAE"/>
<path d="M633.581 121.977C633.096 122.426 633.066 123.184 633.515 123.669L640.832 131.579C641.281 132.065 642.039 132.094 642.524 131.645C643.01 131.196 643.039 130.439 642.59 129.953L636.086 122.922L643.117 116.418C643.603 115.969 643.632 115.211 643.183 114.726C642.734 114.241 641.977 114.211 641.491 114.66L633.581 121.977ZM726.631 125.251L724.326 125.162L724.233 127.554L726.537 127.644L726.631 125.251ZM719.716 124.982L715.107 124.802L715.014 127.195L719.623 127.375L719.716 124.982ZM710.497 124.623L705.888 124.443L705.795 126.836L710.404 127.016L710.497 124.623ZM701.278 124.264L696.669 124.084L696.576 126.477L701.185 126.656L701.278 124.264ZM692.059 123.904L687.45 123.725L687.357 126.118L691.966 126.297L692.059 123.904ZM682.84 123.545L678.231 123.366L678.138 125.758L682.747 125.938L682.84 123.545ZM673.621 123.186L669.012 123.007L668.919 125.399L673.528 125.579L673.621 123.186ZM664.403 122.827L659.793 122.647L659.7 125.04L664.309 125.22L664.403 122.827ZM655.184 122.468L650.574 122.288L650.481 124.681L655.09 124.86L655.184 122.468ZM645.965 122.109L641.355 121.929L641.262 124.322L645.871 124.501L645.965 122.109ZM636.746 121.749L634.441 121.66L634.348 124.052L636.652 124.142L636.746 121.749ZM633.581 121.977C633.096 122.426 633.066 123.184 633.515 123.669L640.832 131.579C641.281 132.065 642.039 132.094 642.524 131.645C643.01 131.196 643.039 130.439 642.59 129.953L636.086 122.922L643.117 116.418C643.603 115.969 643.632 115.211 643.183 114.726C642.734 114.241 641.977 114.211 641.491 114.66L633.581 121.977ZM726.631 125.251L724.326 125.162L724.233 127.554L726.537 127.644L726.631 125.251ZM719.716 124.982L715.107 124.802L715.014 127.195L719.623 127.375L719.716 124.982ZM710.497 124.623L705.888 124.443L705.795 126.836L710.404 127.016L710.497 124.623ZM701.278 124.264L696.669 124.084L696.576 126.477L701.185 126.656L701.278 124.264ZM692.059 123.904L687.45 123.725L687.357 126.118L691.966 126.297L692.059 123.904ZM682.84 123.545L678.231 123.366L678.138 125.758L682.747 125.938L682.84 123.545ZM673.621 123.186L669.012 123.007L668.919 125.399L673.528 125.579L673.621 123.186ZM664.403 122.827L659.793 122.647L659.7 125.04L664.309 125.22L664.403 122.827ZM655.184 122.468L650.574 122.288L650.481 124.681L655.09 124.86L655.184 122.468ZM645.965 122.109L641.355 121.929L641.262 124.322L645.871 124.501L645.965 122.109ZM636.746 121.749L634.441 121.66L634.348 124.052L636.652 124.142L636.746 121.749Z" fill="#AAACAE"/>
<path d="M691.878 469.886C691.779 470.54 692.23 471.149 692.883 471.248L703.538 472.854C704.192 472.952 704.802 472.502 704.901 471.848C704.999 471.194 704.549 470.584 703.895 470.486L694.424 469.059L695.851 459.587C695.95 458.933 695.5 458.324 694.846 458.225C694.192 458.126 693.582 458.577 693.483 459.231L691.878 469.886ZM943.777 283.524L692.351 469.101L693.773 471.027L945.199 285.451L943.777 283.524Z" fill="#AAACAE"/>
<path d="M600.126 436.281C600.644 436.692 601.397 436.606 601.809 436.088L608.512 427.652C608.924 427.134 608.838 426.381 608.32 425.97C607.802 425.558 607.049 425.645 606.638 426.162L600.679 433.661L593.18 427.702C592.662 427.291 591.909 427.377 591.498 427.894C591.086 428.412 591.173 429.165 591.69 429.577L600.126 436.281ZM567.355 152.924L599.682 435.479L602.061 435.207L569.734 152.652L567.355 152.924Z" fill="#AAACAE"/>
<path d="M333.413 304.746C334.021 305.004 334.724 304.72 334.983 304.112L339.196 294.194C339.455 293.586 339.171 292.883 338.562 292.624C337.954 292.366 337.251 292.649 336.992 293.258L333.247 302.074L324.432 298.328C323.823 298.07 323.12 298.354 322.862 298.962C322.603 299.571 322.887 300.274 323.495 300.532L333.413 304.746ZM280.091 173.59L332.771 304.092L334.991 303.196L282.311 172.693L280.091 173.59Z" fill="#AAACAE"/>
<path d="M289.868 358.683C290.51 358.525 290.902 357.876 290.744 357.234L288.161 346.772C288.002 346.131 287.353 345.739 286.711 345.897C286.069 346.056 285.678 346.705 285.836 347.346L288.132 356.645L278.833 358.941C278.191 359.1 277.799 359.749 277.958 360.391C278.116 361.033 278.765 361.425 279.407 361.266L289.868 358.683ZM168.038 285.512L288.962 358.546L290.2 356.496L169.276 283.462L168.038 285.512Z" fill="#AAACAE"/>
<path d="M541.241 484.408C541.889 484.28 542.311 483.65 542.183 483.001L540.09 472.431C539.961 471.783 539.331 471.361 538.683 471.489C538.034 471.618 537.612 472.248 537.741 472.896L539.601 482.292L530.205 484.153C529.557 484.281 529.135 484.911 529.264 485.56C529.392 486.208 530.022 486.63 530.671 486.502L541.241 484.408ZM395.473 387.25L540.342 484.229L541.674 482.239L396.805 385.26L395.473 387.25Z" fill="#003F59"/>
<path d="M1074.39 478.445C1074.39 515.805 1044.1 546.091 1006.74 546.091C969.385 546.091 939.099 515.805 939.099 478.445C939.099 441.085 969.385 410.799 1006.74 410.799C1044.1 410.799 1074.39 441.085 1074.39 478.445Z" fill="#EEF7E8" stroke="#78BF45" stroke-width="1.19727"/>
<path d="M983.395 446.551H981.395C981.059 445.239 980.211 444.279 978.547 444.279C976.099 444.279 975.075 446.439 975.075 448.631C975.075 450.823 976.099 452.983 978.547 452.983C980.323 452.983 981.299 451.655 981.459 449.991H983.411C983.251 452.727 981.315 454.615 978.547 454.615C975.123 454.615 973.075 451.895 973.075 448.631C973.075 445.367 975.123 442.647 978.547 442.647C981.123 442.663 983.155 444.087 983.395 446.551ZM988.766 453.127C990.398 453.127 991.118 451.639 991.118 450.199C991.118 448.775 990.398 447.287 988.766 447.287C987.134 447.287 986.414 448.775 986.414 450.199C986.414 451.639 987.134 453.127 988.766 453.127ZM988.766 454.567C986.11 454.567 984.59 452.743 984.59 450.199C984.59 447.671 986.11 445.847 988.766 445.847C991.422 445.847 992.942 447.671 992.942 450.199C992.942 452.743 991.422 454.567 988.766 454.567ZM994.458 454.343V446.071H996.186V447.287L996.218 447.319C996.762 446.407 997.706 445.847 998.794 445.847C1000.59 445.847 1001.72 446.807 1001.72 448.663V454.343H999.898V449.143C999.866 447.847 999.354 447.287 998.282 447.287C997.066 447.287 996.282 448.247 996.282 449.463V454.343H994.458ZM1002.81 447.431V446.071H1004.19V443.591H1006.01V446.071H1007.66V447.431H1006.01V451.847C1006.01 452.599 1006.08 452.983 1006.89 452.983C1007.15 452.983 1007.41 452.983 1007.66 452.919V454.327C1007.26 454.359 1006.88 454.423 1006.48 454.423C1004.57 454.423 1004.22 453.687 1004.19 452.311V447.431H1002.81ZM1008.97 454.343V446.071H1010.69V447.671H1010.72C1010.93 446.791 1012.01 445.847 1013.13 445.847C1013.55 445.847 1013.66 445.879 1013.82 445.895V447.655C1013.57 447.623 1013.29 447.575 1013.04 447.575C1011.79 447.575 1010.8 448.583 1010.8 450.407V454.343H1008.97ZM1019.7 451.559V450.199C1019.14 450.567 1018.26 450.551 1017.46 450.695C1016.68 450.823 1015.97 451.111 1015.97 452.071C1015.97 452.887 1017.01 453.127 1017.65 453.127C1018.45 453.127 1019.7 452.711 1019.7 451.559ZM1021.53 448.247V452.503C1021.53 452.951 1021.62 453.127 1021.96 453.127C1022.07 453.127 1022.21 453.127 1022.41 453.095V454.359C1022.13 454.455 1021.56 454.567 1021.25 454.567C1020.52 454.567 1019.99 454.311 1019.85 453.559C1019.13 454.263 1017.96 454.567 1016.98 454.567C1015.49 454.567 1014.15 453.767 1014.15 452.151C1014.15 450.087 1015.8 449.751 1017.33 449.575C1018.65 449.335 1019.81 449.479 1019.81 448.407C1019.81 447.463 1018.84 447.287 1018.1 447.287C1017.08 447.287 1016.36 447.703 1016.28 448.599H1014.45C1014.58 446.471 1016.39 445.847 1018.21 445.847C1019.83 445.847 1021.53 446.503 1021.53 448.247ZM1023.04 451.687H1024.87C1024.96 452.743 1025.76 453.127 1026.74 453.127C1027.43 453.127 1028.63 452.983 1028.58 452.039C1028.53 451.079 1027.2 450.967 1025.87 450.663C1024.53 450.375 1023.22 449.895 1023.22 448.215C1023.22 446.407 1025.17 445.847 1026.67 445.847C1028.37 445.847 1029.91 446.551 1030.13 448.391H1028.23C1028.07 447.527 1027.35 447.287 1026.55 447.287C1026.02 447.287 1025.04 447.415 1025.04 448.135C1025.04 449.031 1026.39 449.159 1027.73 449.463C1029.06 449.767 1030.4 450.247 1030.4 451.879C1030.4 453.847 1028.42 454.567 1026.71 454.567C1024.63 454.567 1023.07 453.639 1023.04 451.687ZM1030.95 447.431V446.071H1032.33V443.591H1034.15V446.071H1035.8V447.431H1034.15V451.847C1034.15 452.599 1034.22 452.983 1035.03 452.983C1035.29 452.983 1035.55 452.983 1035.8 452.919V454.327C1035.4 454.359 1035.02 454.423 1034.62 454.423C1032.71 454.423 1032.36 453.687 1032.33 452.311V447.431H1030.95ZM979.082 470.551H977.082C976.746 469.239 975.898 468.279 974.234 468.279C971.786 468.279 970.762 470.439 970.762 472.631C970.762 474.823 971.786 476.983 974.234 476.983C976.01 476.983 976.986 475.655 977.146 473.991H979.098C978.938 476.727 977.002 478.615 974.234 478.615C970.81 478.615 968.762 475.895 968.762 472.631C968.762 469.367 970.81 466.647 974.234 466.647C976.81 466.663 978.842 468.087 979.082 470.551ZM984.453 477.127C986.085 477.127 986.805 475.639 986.805 474.199C986.805 472.775 986.085 471.287 984.453 471.287C982.821 471.287 982.101 472.775 982.101 474.199C982.101 475.639 982.821 477.127 984.453 477.127ZM984.453 478.567C981.797 478.567 980.277 476.743 980.277 474.199C980.277 471.671 981.797 469.847 984.453 469.847C987.109 469.847 988.629 471.671 988.629 474.199C988.629 476.743 987.109 478.567 984.453 478.567ZM990.146 478.343V470.071H991.874V471.287L991.906 471.319C992.45 470.407 993.394 469.847 994.482 469.847C996.274 469.847 997.41 470.807 997.41 472.663V478.343H995.586V473.143C995.554 471.847 995.042 471.287 993.97 471.287C992.754 471.287 991.97 472.247 991.97 473.463V478.343H990.146ZM998.517 471.431V470.071H999.877V469.383C999.877 467.271 1000.98 466.919 1002.17 466.919C1002.74 466.919 1003.16 466.951 1003.45 467.031V468.455C1003.21 468.391 1002.97 468.359 1002.6 468.359C1002.1 468.359 1001.7 468.535 1001.7 469.223V470.071H1003.25V471.431H1001.7V478.343H999.877V471.431H998.517ZM1004.43 478.343V470.071H1006.25V478.343H1004.43ZM1004.43 468.647V466.919H1006.25V468.647H1004.43ZM1009.66 474.295C1009.66 475.719 1010.37 477.127 1011.95 477.127C1013.58 477.127 1014.27 475.639 1014.27 474.199C1014.27 472.375 1013.39 471.287 1011.98 471.287C1010.27 471.287 1009.66 472.807 1009.66 474.295ZM1016.03 466.919V478.343H1014.3V477.223H1014.27C1013.79 478.167 1012.75 478.567 1011.71 478.567C1009.1 478.567 1007.84 476.631 1007.84 474.151C1007.84 471.159 1009.62 469.847 1011.42 469.847C1012.46 469.847 1013.62 470.231 1014.18 471.143H1014.21V466.919H1016.03ZM1025.52 474.679H1019.44C1019.44 475.975 1020.15 477.127 1021.67 477.127C1022.72 477.127 1023.36 476.663 1023.68 475.751H1025.41C1025.01 477.559 1023.48 478.567 1021.67 478.567C1019.08 478.567 1017.62 476.759 1017.62 474.215C1017.62 471.863 1019.16 469.847 1021.62 469.847C1024.23 469.847 1025.83 472.199 1025.52 474.679ZM1019.44 473.479H1023.7C1023.64 472.327 1022.85 471.287 1021.62 471.287C1020.36 471.287 1019.49 472.247 1019.44 473.479ZM1026.91 478.343V470.071H1028.64V471.287L1028.67 471.319C1029.22 470.407 1030.16 469.847 1031.25 469.847C1033.04 469.847 1034.18 470.807 1034.18 472.663V478.343H1032.35V473.143C1032.32 471.847 1031.81 471.287 1030.74 471.287C1029.52 471.287 1028.74 472.247 1028.74 473.463V478.343H1026.91ZM1035.27 471.431V470.071H1036.64V467.591H1038.47V470.071H1040.11V471.431H1038.47V475.847C1038.47 476.599 1038.53 476.983 1039.35 476.983C1039.6 476.983 1039.86 476.983 1040.11 476.919V478.327C1039.71 478.359 1039.33 478.423 1038.93 478.423C1037.03 478.423 1036.67 477.687 1036.64 476.311V471.431H1035.27ZM994.013 502.343V494.071H995.741V495.287L995.773 495.319C996.317 494.407 997.261 493.847 998.349 493.847C1000.14 493.847 1001.28 494.807 1001.28 496.663V502.343H999.453V497.143C999.421 495.847 998.909 495.287 997.837 495.287C996.621 495.287 995.837 496.247 995.837 497.463V502.343H994.013ZM1010.7 498.679H1004.62C1004.62 499.975 1005.33 501.127 1006.85 501.127C1007.9 501.127 1008.54 500.663 1008.86 499.751H1010.59C1010.19 501.559 1008.66 502.567 1006.85 502.567C1004.26 502.567 1002.8 500.759 1002.8 498.215C1002.8 495.863 1004.34 493.847 1006.8 493.847C1009.41 493.847 1011.01 496.199 1010.7 498.679ZM1004.62 497.479H1008.88C1008.82 496.327 1008.03 495.287 1006.8 495.287C1005.54 495.287 1004.67 496.247 1004.62 497.479ZM1019.5 496.839H1017.67C1017.53 495.831 1016.79 495.287 1015.79 495.287C1014.84 495.287 1013.51 495.783 1013.51 498.295C1013.51 499.671 1014.12 501.127 1015.71 501.127C1016.76 501.127 1017.5 500.423 1017.67 499.239H1019.5C1019.16 501.383 1017.83 502.567 1015.71 502.567C1013.11 502.567 1011.69 500.727 1011.69 498.295C1011.69 495.799 1013.05 493.847 1015.77 493.847C1017.69 493.847 1019.32 494.807 1019.5 496.839Z" fill="#030229"/>
<path d="M983.398 273.712C983.398 311.072 953.112 341.358 915.752 341.358C878.392 341.358 848.106 311.072 848.106 273.712C848.106 236.352 878.392 206.066 915.752 206.066C953.112 206.066 983.398 236.352 983.398 273.712Z" fill="#EEF7E8" stroke="#78BF45" stroke-width="1.19727"/>
<path d="M895.493 263.978V252.554H898.309L901.461 261.498H901.493L904.565 252.554H907.349V263.978H905.445V255.162H905.413L902.245 263.978H900.597L897.429 255.162H897.397V263.978H895.493ZM913.279 262.762C914.911 262.762 915.631 261.274 915.631 259.834C915.631 258.41 914.911 256.922 913.279 256.922C911.647 256.922 910.927 258.41 910.927 259.834C910.927 261.274 911.647 262.762 913.279 262.762ZM913.279 264.202C910.623 264.202 909.103 262.378 909.103 259.834C909.103 257.306 910.623 255.482 913.279 255.482C915.935 255.482 917.455 257.306 917.455 259.834C917.455 262.378 915.935 264.202 913.279 264.202ZM918.972 263.978V255.706H920.684V257.306H920.716C920.924 256.426 922.012 255.482 923.132 255.482C923.548 255.482 923.66 255.514 923.82 255.53V257.29C923.564 257.258 923.292 257.21 923.036 257.21C921.788 257.21 920.796 258.218 920.796 260.042V263.978H918.972ZM931.819 260.314H925.739C925.739 261.61 926.443 262.762 927.963 262.762C929.019 262.762 929.659 262.298 929.979 261.386H931.707C931.307 263.194 929.771 264.202 927.963 264.202C925.371 264.202 923.915 262.394 923.915 259.85C923.915 257.498 925.451 255.482 927.915 255.482C930.523 255.482 932.123 257.834 931.819 260.314ZM925.739 259.114H929.995C929.931 257.962 929.147 256.922 927.915 256.922C926.651 256.922 925.787 257.882 925.739 259.114ZM906.67 283.866V276.554H908.67V283.21C908.67 284.746 908.766 286.522 911.358 286.522C913.95 286.522 914.046 284.746 914.046 283.21V276.554H916.046V283.866C916.046 286.794 914.174 288.25 911.358 288.25C908.542 288.25 906.67 286.794 906.67 283.866ZM917.641 285.322H919.465C919.561 286.378 920.361 286.762 921.337 286.762C922.025 286.762 923.225 286.618 923.177 285.674C923.129 284.714 921.801 284.602 920.473 284.298C919.129 284.01 917.817 283.53 917.817 281.85C917.817 280.042 919.769 279.482 921.273 279.482C922.969 279.482 924.505 280.186 924.729 282.026H922.825C922.665 281.162 921.945 280.922 921.145 280.922C920.617 280.922 919.641 281.05 919.641 281.77C919.641 282.666 920.985 282.794 922.329 283.098C923.657 283.402 925.001 283.882 925.001 285.514C925.001 287.482 923.017 288.202 921.305 288.202C919.225 288.202 917.673 287.274 917.641 285.322Z" fill="#030229"/>
<path d="M857.685 147.999C857.685 185.358 827.399 215.644 790.039 215.644C752.68 215.644 722.394 185.358 722.394 147.999C722.394 110.639 752.68 80.3528 790.039 80.3528C827.399 80.3528 857.685 110.639 857.685 147.999Z" fill="#EEF7E8" stroke="#78BF45" stroke-width="1.19727"/>
<path d="M755.8 147.431V150.999H759.336C760.552 150.999 761.256 150.343 761.256 149.191C761.256 148.071 760.552 147.431 759.336 147.431H755.8ZM753.8 152.631V141.207H759.352C761.4 141.207 762.744 142.135 762.744 144.039C762.744 145.191 762.152 146.023 761.112 146.471V146.503C762.504 146.807 763.256 147.895 763.256 149.447C763.256 151.239 762.008 152.631 759.048 152.631H753.8ZM755.8 142.839V145.991H759.064C760.024 145.991 760.744 145.431 760.744 144.407C760.744 143.255 760.152 142.839 759.064 142.839H755.8ZM772.074 144.359V152.631H770.282V151.479H770.25C769.802 152.311 768.81 152.855 767.898 152.855C765.738 152.855 764.81 151.767 764.81 149.607V144.359H766.634V149.431C766.634 150.887 767.226 151.415 768.218 151.415C769.738 151.415 770.25 150.439 770.25 149.159V144.359H772.074ZM777.597 151.191C779.213 151.191 779.821 149.719 779.821 148.311C779.821 146.887 779.181 145.575 777.597 145.575C775.981 145.575 775.421 147.079 775.421 148.455C775.421 149.815 776.077 151.191 777.597 151.191ZM781.645 144.359V152.199C781.645 154.679 780.189 155.911 777.581 155.911C775.917 155.911 774.045 155.271 773.885 153.335H775.709C775.933 154.375 776.765 154.551 777.693 154.551C779.165 154.551 779.821 153.799 779.821 152.439V151.175H779.789C779.277 152.087 778.333 152.631 777.309 152.631C774.685 152.631 773.597 150.647 773.597 148.279C773.597 146.055 774.989 144.135 777.341 144.135C778.381 144.135 779.325 144.567 779.789 145.495H779.821V144.359H781.645ZM787.119 145.719V144.359H788.479V143.671C788.479 141.559 789.583 141.207 790.767 141.207C791.343 141.207 791.759 141.239 792.047 141.319V142.743C791.807 142.679 791.567 142.647 791.199 142.647C790.703 142.647 790.303 142.823 790.303 143.511V144.359H791.855V145.719H790.303V152.631H788.479V145.719H787.119ZM798.085 149.847V148.487C797.525 148.855 796.645 148.839 795.845 148.983C795.061 149.111 794.357 149.399 794.357 150.359C794.357 151.175 795.397 151.415 796.037 151.415C796.837 151.415 798.085 150.999 798.085 149.847ZM799.909 146.535V150.791C799.909 151.239 800.005 151.415 800.341 151.415C800.453 151.415 800.597 151.415 800.789 151.383V152.647C800.517 152.743 799.941 152.855 799.637 152.855C798.901 152.855 798.373 152.599 798.229 151.847C797.509 152.551 796.341 152.855 795.365 152.855C793.877 152.855 792.533 152.055 792.533 150.439C792.533 148.375 794.181 148.039 795.717 147.863C797.029 147.623 798.197 147.767 798.197 146.695C798.197 145.751 797.221 145.575 796.485 145.575C795.461 145.575 794.741 145.991 794.661 146.887H792.837C792.965 144.759 794.773 144.135 796.597 144.135C798.213 144.135 799.909 144.791 799.909 146.535ZM809.28 147.127H807.456C807.312 146.119 806.576 145.575 805.568 145.575C804.624 145.575 803.296 146.071 803.296 148.583C803.296 149.959 803.904 151.415 805.488 151.415C806.544 151.415 807.28 150.711 807.456 149.527H809.28C808.944 151.671 807.616 152.855 805.488 152.855C802.896 152.855 801.472 151.015 801.472 148.583C801.472 146.087 802.832 144.135 805.552 144.135C807.472 144.135 809.104 145.095 809.28 147.127ZM818.267 148.967H812.187C812.187 150.263 812.891 151.415 814.411 151.415C815.467 151.415 816.107 150.951 816.427 150.039H818.155C817.755 151.847 816.219 152.855 814.411 152.855C811.819 152.855 810.363 151.047 810.363 148.503C810.363 146.151 811.899 144.135 814.363 144.135C816.971 144.135 818.571 146.487 818.267 148.967ZM812.187 147.767H816.443C816.379 146.615 815.595 145.575 814.363 145.575C813.099 145.575 812.235 146.535 812.187 147.767ZM821.077 148.583C821.077 150.007 821.781 151.415 823.365 151.415C824.997 151.415 825.685 149.927 825.685 148.487C825.685 146.663 824.805 145.575 823.397 145.575C821.685 145.575 821.077 147.095 821.077 148.583ZM827.445 141.207V152.631H825.717V151.511H825.685C825.205 152.455 824.165 152.855 823.125 152.855C820.517 152.855 819.253 150.919 819.253 148.439C819.253 145.447 821.029 144.135 822.837 144.135C823.877 144.135 825.029 144.519 825.589 145.431H825.621V141.207H827.445Z" fill="#030229"/>
<path d="M632.599 114.475C632.599 151.835 602.313 182.121 564.953 182.121C527.594 182.121 497.308 151.835 497.308 114.475C497.308 77.1154 527.594 46.8293 564.953 46.8293C602.313 46.8293 632.599 77.1154 632.599 114.475Z" fill="#EEF7E8" stroke="#78BF45" stroke-width="1.19727"/>
<path d="M534.558 109.316V117.476H536.526C539.662 117.476 540.334 115.684 540.334 113.396C540.334 111.108 539.662 109.316 536.526 109.316H534.558ZM532.558 119.108V107.684H537.294C540.814 107.684 542.334 110.244 542.334 113.396C542.334 116.548 540.814 119.108 537.294 119.108H532.558ZM543.897 119.108V110.836H545.721V119.108H543.897ZM543.897 109.412V107.684H545.721V109.412H543.897ZM547.26 116.452H549.084C549.18 117.508 549.98 117.892 550.956 117.892C551.644 117.892 552.844 117.748 552.796 116.804C552.748 115.844 551.42 115.732 550.092 115.428C548.748 115.14 547.436 114.66 547.436 112.98C547.436 111.172 549.388 110.612 550.892 110.612C552.588 110.612 554.124 111.316 554.348 113.156H552.444C552.284 112.292 551.564 112.052 550.764 112.052C550.236 112.052 549.26 112.18 549.26 112.9C549.26 113.796 550.604 113.924 551.948 114.228C553.276 114.532 554.62 115.012 554.62 116.644C554.62 118.612 552.636 119.332 550.924 119.332C548.844 119.332 547.292 118.404 547.26 116.452ZM563.413 113.604H561.589C561.445 112.596 560.709 112.052 559.701 112.052C558.757 112.052 557.429 112.548 557.429 115.06C557.429 116.436 558.037 117.892 559.621 117.892C560.677 117.892 561.413 117.188 561.589 116.004H563.413C563.077 118.148 561.749 119.332 559.621 119.332C557.029 119.332 555.605 117.492 555.605 115.06C555.605 112.564 556.965 110.612 559.685 110.612C561.605 110.612 563.237 111.572 563.413 113.604ZM568.688 117.892C570.32 117.892 571.04 116.404 571.04 114.964C571.04 113.54 570.32 112.052 568.688 112.052C567.056 112.052 566.336 113.54 566.336 114.964C566.336 116.404 567.056 117.892 568.688 117.892ZM568.688 119.332C566.032 119.332 564.512 117.508 564.512 114.964C564.512 112.436 566.032 110.612 568.688 110.612C571.344 110.612 572.864 112.436 572.864 114.964C572.864 117.508 571.344 119.332 568.688 119.332ZM581.644 110.836V119.108H579.852V117.956H579.82C579.372 118.788 578.38 119.332 577.468 119.332C575.308 119.332 574.38 118.244 574.38 116.084V110.836H576.204V115.908C576.204 117.364 576.796 117.892 577.788 117.892C579.308 117.892 579.82 116.916 579.82 115.636V110.836H581.644ZM583.567 119.108V110.836H585.295V112.052L585.327 112.084C585.871 111.172 586.815 110.612 587.903 110.612C589.695 110.612 590.831 111.572 590.831 113.428V119.108H589.007V113.908C588.975 112.612 588.463 112.052 587.391 112.052C586.175 112.052 585.391 113.012 585.391 114.228V119.108H583.567ZM591.923 112.196V110.836H593.299V108.356H595.123V110.836H596.771V112.196H595.123V116.612C595.123 117.364 595.187 117.748 596.003 117.748C596.259 117.748 596.515 117.748 596.771 117.684V119.092C596.371 119.124 595.987 119.188 595.587 119.188C593.683 119.188 593.331 118.452 593.299 117.076V112.196H591.923Z" fill="#030229"/>
<path d="M425.47 367.099C425.47 404.459 395.184 434.745 357.824 434.745C320.465 434.745 290.179 404.459 290.179 367.099C290.179 329.739 320.465 299.453 357.824 299.453C395.184 299.453 425.47 329.739 425.47 367.099Z" fill="#EEF7E8" stroke="#78BF45" stroke-width="1.19727"/>
<path d="M330.185 357.364V345.94H332.185V357.364H330.185ZM334.382 357.364V349.092H336.11V350.308L336.142 350.34C336.686 349.428 337.63 348.868 338.718 348.868C340.51 348.868 341.646 349.828 341.646 351.684V357.364H339.822V352.164C339.79 350.868 339.278 350.308 338.206 350.308C336.99 350.308 336.206 351.268 336.206 352.484V357.364H334.382ZM342.737 350.452V349.092H344.113V346.612H345.937V349.092H347.585V350.452H345.937V354.868C345.937 355.62 346.001 356.004 346.817 356.004C347.073 356.004 347.329 356.004 347.585 355.94V357.348C347.185 357.38 346.801 357.444 346.401 357.444C344.497 357.444 344.145 356.708 344.113 355.332V350.452H342.737ZM356.402 353.7H350.322C350.322 354.996 351.026 356.148 352.546 356.148C353.602 356.148 354.242 355.684 354.562 354.772H356.29C355.89 356.58 354.354 357.588 352.546 357.588C349.954 357.588 348.498 355.78 348.498 353.236C348.498 350.884 350.034 348.868 352.498 348.868C355.106 348.868 356.706 351.22 356.402 353.7ZM350.322 352.5H354.578C354.514 351.348 353.73 350.308 352.498 350.308C351.234 350.308 350.37 351.268 350.322 352.5ZM357.788 357.364V349.092H359.5V350.692H359.532C359.74 349.812 360.828 348.868 361.948 348.868C362.364 348.868 362.476 348.9 362.636 348.916V350.676C362.38 350.644 362.108 350.596 361.852 350.596C360.604 350.596 359.612 351.604 359.612 353.428V357.364H357.788ZM368.517 354.58V353.22C367.957 353.588 367.077 353.572 366.277 353.716C365.493 353.844 364.789 354.132 364.789 355.092C364.789 355.908 365.829 356.148 366.469 356.148C367.269 356.148 368.517 355.732 368.517 354.58ZM370.341 351.268V355.524C370.341 355.972 370.437 356.148 370.773 356.148C370.885 356.148 371.029 356.148 371.221 356.116V357.38C370.949 357.476 370.373 357.588 370.069 357.588C369.333 357.588 368.805 357.332 368.661 356.58C367.941 357.284 366.773 357.588 365.797 357.588C364.309 357.588 362.965 356.788 362.965 355.172C362.965 353.108 364.613 352.772 366.149 352.596C367.461 352.356 368.629 352.5 368.629 351.428C368.629 350.484 367.653 350.308 366.917 350.308C365.893 350.308 365.173 350.724 365.093 351.62H363.269C363.397 349.492 365.205 348.868 367.029 348.868C368.645 348.868 370.341 349.524 370.341 351.268ZM379.712 351.86H377.888C377.744 350.852 377.008 350.308 376 350.308C375.056 350.308 373.728 350.804 373.728 353.316C373.728 354.692 374.336 356.148 375.92 356.148C376.976 356.148 377.712 355.444 377.888 354.26H379.712C379.376 356.404 378.048 357.588 375.92 357.588C373.328 357.588 371.904 355.748 371.904 353.316C371.904 350.82 373.264 348.868 375.984 348.868C377.904 348.868 379.536 349.828 379.712 351.86ZM380.362 350.452V349.092H381.738V346.612H383.562V349.092H385.21V350.452H383.562V354.868C383.562 355.62 383.626 356.004 384.442 356.004C384.698 356.004 384.954 356.004 385.21 355.94V357.348C384.81 357.38 384.426 357.444 384.026 357.444C382.122 357.444 381.77 356.708 381.738 355.332V350.452H380.362ZM386.571 357.364V349.092H388.395V357.364H386.571ZM386.571 347.668V345.94H388.395V347.668H386.571ZM350.463 380.148C352.095 380.148 352.815 378.66 352.815 377.22C352.815 375.796 352.095 374.308 350.463 374.308C348.831 374.308 348.111 375.796 348.111 377.22C348.111 378.66 348.831 380.148 350.463 380.148ZM350.463 381.588C347.807 381.588 346.287 379.764 346.287 377.22C346.287 374.692 347.807 372.868 350.463 372.868C353.119 372.868 354.639 374.692 354.639 377.22C354.639 379.764 353.119 381.588 350.463 381.588ZM356.155 381.364V373.092H357.883V374.308L357.915 374.34C358.459 373.428 359.403 372.868 360.491 372.868C362.283 372.868 363.419 373.828 363.419 375.684V381.364H361.595V376.164C361.563 374.868 361.051 374.308 359.979 374.308C358.763 374.308 357.979 375.268 357.979 376.484V381.364H356.155ZM364.895 378.708H366.719C366.815 379.764 367.615 380.148 368.591 380.148C369.279 380.148 370.479 380.004 370.431 379.06C370.383 378.1 369.055 377.988 367.727 377.684C366.383 377.396 365.071 376.916 365.071 375.236C365.071 373.428 367.023 372.868 368.527 372.868C370.223 372.868 371.759 373.572 371.983 375.412H370.079C369.919 374.548 369.199 374.308 368.399 374.308C367.871 374.308 366.895 374.436 366.895 375.156C366.895 376.052 368.239 376.18 369.583 376.484C370.911 376.788 372.255 377.268 372.255 378.9C372.255 380.868 370.271 381.588 368.559 381.588C366.479 381.588 364.927 380.66 364.895 378.708Z" fill="#030229"/>
<g opacity="0.4">
<path d="M326.097 109.686C326.097 147.046 295.811 177.332 258.451 177.332C221.092 177.332 190.806 147.046 190.806 109.686C190.806 72.3263 221.092 42.0403 258.451 42.0403C295.811 42.0403 326.097 72.3263 326.097 109.686Z" fill="#EEF7E8" stroke="#78BF45" stroke-width="1.19727"/>
<path d="M222.706 110.511H224.706C224.706 112.271 226.002 112.959 227.602 112.959C229.362 112.959 230.018 112.095 230.018 111.231C230.018 110.351 229.538 109.999 229.074 109.823C228.274 109.519 227.234 109.311 225.666 108.879C223.714 108.351 223.138 107.167 223.138 105.983C223.138 103.695 225.25 102.623 227.314 102.623C229.698 102.623 231.698 103.887 231.698 106.271H229.698C229.602 104.799 228.61 104.255 227.234 104.255C226.306 104.255 225.138 104.591 225.138 105.743C225.138 106.543 225.682 106.991 226.498 107.215C226.674 107.263 229.202 107.919 229.794 108.095C231.298 108.543 232.018 109.823 232.018 111.007C232.018 113.567 229.746 114.591 227.474 114.591C224.866 114.591 222.754 113.343 222.706 110.511ZM238.617 111.535V110.175C238.057 110.543 237.177 110.527 236.377 110.671C235.593 110.799 234.889 111.087 234.889 112.047C234.889 112.863 235.929 113.103 236.569 113.103C237.369 113.103 238.617 112.687 238.617 111.535ZM240.441 108.223V112.479C240.441 112.927 240.537 113.103 240.873 113.103C240.985 113.103 241.129 113.103 241.321 113.071V114.335C241.049 114.431 240.473 114.543 240.169 114.543C239.433 114.543 238.905 114.287 238.761 113.535C238.041 114.239 236.873 114.543 235.897 114.543C234.409 114.543 233.065 113.743 233.065 112.127C233.065 110.063 234.713 109.727 236.249 109.551C237.561 109.311 238.729 109.455 238.729 108.383C238.729 107.439 237.753 107.263 237.017 107.263C235.993 107.263 235.273 107.679 235.193 108.575H233.369C233.497 106.447 235.305 105.823 237.129 105.823C238.745 105.823 240.441 106.479 240.441 108.223ZM242.451 114.319V102.895H244.275V114.319H242.451ZM253.767 110.655H247.687C247.687 111.951 248.391 113.103 249.911 113.103C250.967 113.103 251.607 112.639 251.927 111.727H253.655C253.255 113.535 251.719 114.543 249.911 114.543C247.319 114.543 245.863 112.735 245.863 110.191C245.863 107.839 247.399 105.823 249.863 105.823C252.471 105.823 254.071 108.175 253.767 110.655ZM247.687 109.455H251.943C251.879 108.303 251.095 107.263 249.863 107.263C248.599 107.263 247.735 108.223 247.687 109.455ZM254.705 111.663H256.529C256.625 112.719 257.425 113.103 258.401 113.103C259.089 113.103 260.289 112.959 260.241 112.015C260.193 111.055 258.865 110.943 257.537 110.639C256.193 110.351 254.881 109.871 254.881 108.191C254.881 106.383 256.833 105.823 258.337 105.823C260.033 105.823 261.569 106.527 261.793 108.367H259.889C259.729 107.503 259.009 107.263 258.209 107.263C257.681 107.263 256.705 107.391 256.705 108.111C256.705 109.007 258.049 109.135 259.393 109.439C260.721 109.743 262.065 110.223 262.065 111.855C262.065 113.823 260.081 114.543 258.369 114.543C256.289 114.543 254.737 113.615 254.705 111.663ZM277.871 106.527H275.871C275.535 105.215 274.687 104.255 273.023 104.255C270.575 104.255 269.551 106.415 269.551 108.607C269.551 110.799 270.575 112.959 273.023 112.959C274.799 112.959 275.775 111.631 275.935 109.967H277.887C277.727 112.703 275.791 114.591 273.023 114.591C269.599 114.591 267.551 111.871 267.551 108.607C267.551 105.343 269.599 102.623 273.023 102.623C275.599 102.639 277.631 104.063 277.871 106.527ZM284.554 111.535V110.175C283.994 110.543 283.114 110.527 282.314 110.671C281.53 110.799 280.826 111.087 280.826 112.047C280.826 112.863 281.866 113.103 282.506 113.103C283.306 113.103 284.554 112.687 284.554 111.535ZM286.378 108.223V112.479C286.378 112.927 286.474 113.103 286.81 113.103C286.922 113.103 287.066 113.103 287.258 113.071V114.335C286.986 114.431 286.41 114.543 286.106 114.543C285.37 114.543 284.842 114.287 284.698 113.535C283.978 114.239 282.81 114.543 281.834 114.543C280.346 114.543 279.002 113.743 279.002 112.127C279.002 110.063 280.65 109.727 282.186 109.551C283.498 109.311 284.666 109.455 284.666 108.383C284.666 107.439 283.69 107.263 282.954 107.263C281.93 107.263 281.21 107.679 281.13 108.575H279.306C279.434 106.447 281.242 105.823 283.066 105.823C284.682 105.823 286.378 106.479 286.378 108.223ZM288.389 114.319V102.895H290.213V114.319H288.389ZM292.248 114.319V102.895H294.072V114.319H292.248Z" fill="#030229"/>
</g>
<g opacity="0.4">
<path d="M184.82 241.386C184.82 278.745 154.534 309.031 117.174 309.031C79.8143 309.031 49.5283 278.745 49.5283 241.386C49.5283 204.026 79.8143 173.74 117.174 173.74C154.534 173.74 184.82 204.026 184.82 241.386Z" fill="#EEF7E8" stroke="#78BF45" stroke-width="1.19727"/>
<path d="M87.0539 246.019V234.595H89.0539V246.019H87.0539ZM90.803 243.363H92.627C92.723 244.419 93.523 244.803 94.499 244.803C95.187 244.803 96.387 244.659 96.339 243.715C96.291 242.755 94.963 242.643 93.635 242.339C92.291 242.051 90.979 241.571 90.979 239.891C90.979 238.083 92.931 237.523 94.435 237.523C96.131 237.523 97.667 238.227 97.891 240.067H95.987C95.827 239.203 95.107 238.963 94.307 238.963C93.779 238.963 92.803 239.091 92.803 239.811C92.803 240.707 94.147 240.835 95.491 241.139C96.819 241.443 98.163 241.923 98.163 243.555C98.163 245.523 96.179 246.243 94.467 246.243C92.387 246.243 90.835 245.315 90.803 243.363ZM103.569 242.211H105.569C105.569 243.971 106.865 244.659 108.465 244.659C110.225 244.659 110.881 243.795 110.881 242.931C110.881 242.051 110.401 241.699 109.937 241.523C109.137 241.219 108.097 241.011 106.529 240.579C104.577 240.051 104.001 238.867 104.001 237.683C104.001 235.395 106.113 234.323 108.177 234.323C110.561 234.323 112.561 235.587 112.561 237.971H110.561C110.465 236.499 109.473 235.955 108.097 235.955C107.169 235.955 106.001 236.291 106.001 237.443C106.001 238.243 106.545 238.691 107.361 238.915C107.537 238.963 110.065 239.619 110.657 239.795C112.161 240.243 112.881 241.523 112.881 242.707C112.881 245.267 110.609 246.291 108.337 246.291C105.729 246.291 103.617 245.043 103.569 242.211ZM121.88 242.355H115.8C115.8 243.651 116.504 244.803 118.024 244.803C119.08 244.803 119.72 244.339 120.04 243.427H121.768C121.368 245.235 119.832 246.243 118.024 246.243C115.432 246.243 113.976 244.435 113.976 241.891C113.976 239.539 115.512 237.523 117.976 237.523C120.584 237.523 122.184 239.875 121.88 242.355ZM115.8 241.155H120.056C119.992 240.003 119.208 238.963 117.976 238.963C116.712 238.963 115.848 239.923 115.8 241.155ZM123.267 246.019V237.747H124.995V238.963L125.027 238.995C125.571 238.083 126.515 237.523 127.603 237.523C129.395 237.523 130.531 238.483 130.531 240.339V246.019H128.707V240.819C128.675 239.523 128.163 238.963 127.091 238.963C125.875 238.963 125.091 239.923 125.091 241.139V246.019H123.267ZM132.502 246.019V237.747H134.326V246.019H132.502ZM132.502 236.323V234.595H134.326V236.323H132.502ZM140.106 244.803C141.738 244.803 142.458 243.315 142.458 241.875C142.458 240.451 141.738 238.963 140.106 238.963C138.474 238.963 137.754 240.451 137.754 241.875C137.754 243.315 138.474 244.803 140.106 244.803ZM140.106 246.243C137.45 246.243 135.93 244.419 135.93 241.875C135.93 239.347 137.45 237.523 140.106 237.523C142.762 237.523 144.282 239.347 144.282 241.875C144.282 244.419 142.762 246.243 140.106 246.243ZM145.798 246.019V237.747H147.51V239.347H147.542C147.75 238.467 148.838 237.523 149.958 237.523C150.374 237.523 150.486 237.555 150.646 237.571V239.331C150.39 239.299 150.118 239.251 149.862 239.251C148.614 239.251 147.622 240.259 147.622 242.083V246.019H145.798Z" fill="#030229"/>
</g>
</svg>
