<svg width="1133" height="627" viewBox="0 0 1133 627" fill="none" xmlns="http://www.w3.org/2000/svg">
<path d="M3.18524 1.59668V4.09673C3.18524 4.33128 3.47849 4.43747 3.62863 4.25728C5.09018 2.62434 7.21405 1.59668 9.57802 1.59668C13.9862 1.59668 17.5598 5.17025 17.5598 9.57848C17.5598 13.9867 13.9862 17.5603 9.57802 17.5603C5.16983 17.5603 1.59622 13.9867 1.59622 9.57848" stroke="#404040" stroke-width="1.19727" stroke-linecap="round" stroke-linejoin="round"/>
<path d="M54.2829 1.59668V4.09673C54.2829 4.33128 53.9896 4.43747 53.8395 4.25728C52.378 2.62434 50.2541 1.59668 47.8901 1.59668C43.4819 1.59668 39.9083 5.17025 39.9083 9.57848C39.9083 13.9867 43.4819 17.5603 47.8901 17.5603C52.2983 17.5603 55.8719 13.9867 55.8719 9.57848" stroke="#404040" stroke-width="1.19727" stroke-linecap="round" stroke-linejoin="round"/>
<path d="M931.578 2.39453V7.18361" stroke="#404040" stroke-width="1.19727" stroke-linecap="round" stroke-linejoin="round"/>
<path d="M924.395 9.57812H929.184" stroke="#404040" stroke-width="1.19727" stroke-linecap="round" stroke-linejoin="round"/>
<path d="M938.762 9.57812H933.973" stroke="#404040" stroke-width="1.19727" stroke-linecap="round" stroke-linejoin="round"/>
<path d="M931.578 16.7614V11.5732" stroke="#404040" stroke-width="1.19727" stroke-linecap="round" stroke-linejoin="round"/>
<path d="M929.184 4.78907L930.545 3.23122C931.032 2.67342 931.276 2.39453 931.578 2.39453C931.881 2.39453 932.125 2.67342 932.612 3.23122L933.973 4.78907" stroke="#404040" stroke-width="1.19727" stroke-linecap="round" stroke-linejoin="round"/>
<path d="M933.973 14.3672L932.612 15.9251C932.125 16.4828 931.881 16.7617 931.578 16.7617C931.276 16.7617 931.032 16.4828 930.545 15.9251L929.184 14.3672" stroke="#404040" stroke-width="1.19727" stroke-linecap="round" stroke-linejoin="round"/>
<path d="M936.367 7.18359L937.925 8.54449C938.483 9.03178 938.762 9.27538 938.762 9.57813C938.762 9.88088 938.483 10.1245 937.925 10.6118L936.367 11.9727" stroke="#404040" stroke-width="1.19727" stroke-linecap="round" stroke-linejoin="round"/>
<path d="M926.789 11.9727L925.231 10.6118C924.673 10.1245 924.395 9.88088 924.395 9.57813C924.395 9.27538 924.673 9.03178 925.231 8.54449L926.789 7.18359" stroke="#404040" stroke-width="1.19727" stroke-linecap="round" stroke-linejoin="round"/>
<path d="M975.797 15.4847L977.873 17.5599M976.835 11.8529C976.835 9.27411 974.745 7.18359 972.166 7.18359C969.587 7.18359 967.496 9.27411 967.496 11.8529C967.496 14.4318 969.587 16.5223 972.166 16.5223C974.745 16.5223 976.835 14.4318 976.835 11.8529Z" stroke="#404040" stroke-width="1.19727" stroke-linecap="round" stroke-linejoin="round"/>
<path d="M961.909 4.7894C962.013 3.72343 962.249 3.0065 962.784 2.47168C963.319 1.93686 964.036 1.70084 965.102 1.59668M965.102 17.5603C964.036 17.4561 963.319 17.2201 962.784 16.6852C962.249 16.1504 962.013 15.4335 961.909 14.3676M977.873 4.7894C977.768 3.72343 977.532 3.0065 976.997 2.47168C976.463 1.93686 975.746 1.70084 974.68 1.59668M961.909 7.98212V11.1748M971.487 1.59668H968.294" stroke="#404040" stroke-width="1.19727" stroke-linecap="round"/>
<path d="M1001.82 7.98179C1001.43 7.95216 1001.16 7.88546 1000.93 7.73529C1000.76 7.61832 1000.61 7.46803 1000.49 7.29298C1000.22 6.88864 1000.22 6.32576 1000.22 5.2C1000.22 4.07424 1000.22 3.51135 1000.49 3.10701C1000.61 2.93196 1000.76 2.78166 1000.93 2.66471C1001.33 2.39453 1001.89 2.39453 1003.02 2.39453H1013.39C1014.51 2.39453 1015.07 2.39453 1015.48 2.66471C1015.65 2.78166 1015.8 2.93196 1015.92 3.10701C1016.19 3.51135 1016.19 4.07424 1016.19 5.2C1016.19 6.22784 1016.19 6.78646 1015.98 7.18361" stroke="#404040" stroke-width="1.19727" stroke-linecap="round"/>
<path d="M1013.15 14.5265L1015.39 16.7614M1014.27 10.6154C1014.27 7.83824 1012.02 5.58691 1009.24 5.58691C1006.46 5.58691 1004.21 7.83824 1004.21 10.6154C1004.21 13.3926 1006.46 15.644 1009.24 15.644C1012.02 15.644 1014.27 13.3926 1014.27 10.6154Z" stroke="#404040" stroke-width="1.19727" stroke-linecap="round" stroke-linejoin="round"/>
<path d="M1046.52 17.5603C1043.13 17.5603 1041.44 17.5603 1040.38 16.3913C1039.33 15.2225 1039.33 13.3411 1039.33 9.57848C1039.33 5.81583 1039.33 3.93449 1040.38 2.76559C1041.44 1.59668 1043.13 1.59668 1046.52 1.59668C1049.9 1.59668 1051.6 1.59668 1052.65 2.76559C1053.7 3.93449 1053.7 5.81582 1053.7 9.57848C1053.7 13.3411 1053.7 15.2225 1052.65 16.3913C1051.6 17.5603 1049.9 17.5603 1046.52 17.5603Z" stroke="#404040" stroke-width="1.19727" stroke-linecap="round" stroke-linejoin="round"/>
<path d="M1043.32 1.99512V7.84275C1043.32 8.83815 1043.32 9.3359 1043.63 9.51405C1044.23 9.85902 1045.35 8.70805 1045.88 8.36148C1046.19 8.1605 1046.34 8.06001 1046.52 8.06001C1046.69 8.06001 1046.84 8.1605 1047.15 8.36148C1047.68 8.70805 1048.8 9.85902 1049.4 9.51405C1049.71 9.3359 1049.71 8.83815 1049.71 7.84275V1.99512" stroke="#404040" stroke-width="1.19727" stroke-linecap="round" stroke-linejoin="round"/>
<path d="M1091.21 8.7803L1092.81 9.57848C1092.81 5.17025 1089.24 1.59668 1084.83 1.59668C1081.56 1.59668 1078.74 3.56674 1077.51 6.38576M1078.44 10.3767L1076.85 9.57848C1076.85 13.9867 1080.42 17.5603 1084.83 17.5603C1088.1 17.5603 1090.92 15.5902 1092.15 12.7712" stroke="#404040" stroke-width="1.19727" stroke-linecap="round" stroke-linejoin="round"/>
<path d="M1123.14 17.5603C1127.55 17.5603 1131.12 13.9867 1131.12 9.57848C1131.12 5.17025 1127.55 1.59668 1123.14 1.59668C1118.73 1.59668 1115.16 5.17025 1115.16 9.57848C1115.16 13.9867 1118.73 17.5603 1123.14 17.5603Z" stroke="#404040" stroke-width="1.19727"/>
<path d="M1121.55 7.18327C1121.55 6.30163 1122.26 5.58691 1123.14 5.58691C1124.02 5.58691 1124.74 6.30163 1124.74 7.18327C1124.74 7.50107 1124.65 7.79718 1124.49 8.04595C1124.01 8.78738 1123.14 9.49432 1123.14 10.376V10.7751" stroke="#404040" stroke-width="1.19727" stroke-linecap="round"/>
<path d="M1123.14 13.5693H1123.14" stroke="#404040" stroke-width="1.19727" stroke-linecap="round" stroke-linejoin="round"/>
<ellipse cx="707.795" cy="281.795" rx="89.7952" ry="89.7952" fill="#003F59"/>
<path d="M677.496 275.372V280.278H682.006C683.744 280.278 684.69 279.42 684.69 277.77C684.69 275.768 683.392 275.372 681.962 275.372H677.496ZM674.746 288.836V273.128H682.248C685.68 273.128 687.44 274.712 687.44 277.374C687.44 280.388 685.35 281.158 684.844 281.334V281.378C685.79 281.51 687.176 282.214 687.176 284.7C687.176 286.526 687.44 288.198 688.034 288.836H685.086C684.668 288.154 684.668 287.296 684.668 286.526C684.668 283.644 684.074 282.368 681.544 282.368H677.496V288.836H674.746ZM700.203 283.798H691.843C691.843 285.58 692.811 287.164 694.901 287.164C696.353 287.164 697.233 286.526 697.673 285.272H700.049C699.499 287.758 697.387 289.144 694.901 289.144C691.337 289.144 689.335 286.658 689.335 283.16C689.335 279.926 691.447 277.154 694.835 277.154C698.421 277.154 700.621 280.388 700.203 283.798ZM691.843 282.148H697.695C697.607 280.564 696.529 279.134 694.835 279.134C693.097 279.134 691.909 280.454 691.843 282.148ZM702.109 288.836V277.462H704.485V279.134L704.529 279.178C705.277 277.924 706.575 277.154 708.071 277.154C710.535 277.154 712.097 278.474 712.097 281.026V288.836H709.589V281.686C709.545 279.904 708.841 279.134 707.367 279.134C705.695 279.134 704.617 280.454 704.617 282.126V288.836H702.109ZM725.06 283.798H716.7C716.7 285.58 717.668 287.164 719.758 287.164C721.21 287.164 722.09 286.526 722.53 285.272H724.906C724.356 287.758 722.244 289.144 719.758 289.144C716.194 289.144 714.192 286.658 714.192 283.16C714.192 279.926 716.304 277.154 719.692 277.154C723.278 277.154 725.478 280.388 725.06 283.798ZM716.7 282.148H722.552C722.464 280.564 721.386 279.134 719.692 279.134C717.954 279.134 716.766 280.454 716.7 282.148ZM729.453 288.836L725.933 277.462H728.595L730.817 285.954H730.861L732.995 277.462H735.525L737.571 285.954H737.615L739.925 277.462H742.477L738.913 288.836H736.339L734.227 280.388H734.183L732.093 288.836H729.453Z" fill="white"/>
<path d="M516.89 239.244C516.89 276.604 486.604 306.89 449.244 306.89C411.885 306.89 381.599 276.604 381.599 239.244C381.599 201.885 411.885 171.599 449.244 171.599C486.604 171.599 516.89 201.885 516.89 239.244Z" fill="#EEF7E8" stroke="#78BF45" stroke-width="1.19727"/>
<path d="M408.24 241.877V230.453H410.24V241.877H408.24ZM412.437 241.877V233.605H414.165V234.821L414.197 234.853C414.741 233.941 415.685 233.381 416.773 233.381C418.565 233.381 419.701 234.341 419.701 236.197V241.877H417.877V236.677C417.845 235.381 417.333 234.821 416.261 234.821C415.045 234.821 414.261 235.781 414.261 236.997V241.877H412.437ZM420.792 234.965V233.605H422.168V231.125H423.992V233.605H425.64V234.965H423.992V239.381C423.992 240.133 424.056 240.517 424.872 240.517C425.128 240.517 425.384 240.517 425.64 240.453V241.861C425.24 241.893 424.856 241.957 424.456 241.957C422.552 241.957 422.2 241.221 422.168 239.845V234.965H420.792ZM434.456 238.213H428.376C428.376 239.509 429.08 240.661 430.6 240.661C431.656 240.661 432.296 240.197 432.616 239.285H434.344C433.944 241.093 432.408 242.101 430.6 242.101C428.008 242.101 426.552 240.293 426.552 237.749C426.552 235.397 428.088 233.381 430.552 233.381C433.16 233.381 434.76 235.733 434.456 238.213ZM428.376 237.013H432.632C432.568 235.861 431.784 234.821 430.552 234.821C429.288 234.821 428.424 235.781 428.376 237.013ZM435.843 241.877V233.605H437.555V235.205H437.587C437.795 234.325 438.883 233.381 440.003 233.381C440.419 233.381 440.531 233.413 440.691 233.429V235.189C440.435 235.157 440.163 235.109 439.907 235.109C438.659 235.109 437.667 236.117 437.667 237.941V241.877H435.843ZM446.572 239.093V237.733C446.012 238.101 445.132 238.085 444.332 238.229C443.548 238.357 442.844 238.645 442.844 239.605C442.844 240.421 443.884 240.661 444.524 240.661C445.324 240.661 446.572 240.245 446.572 239.093ZM448.396 235.781V240.037C448.396 240.485 448.492 240.661 448.828 240.661C448.94 240.661 449.084 240.661 449.276 240.629V241.893C449.004 241.989 448.428 242.101 448.124 242.101C447.388 242.101 446.86 241.845 446.716 241.093C445.996 241.797 444.828 242.101 443.852 242.101C442.364 242.101 441.02 241.301 441.02 239.685C441.02 237.621 442.668 237.285 444.204 237.109C445.516 236.869 446.684 237.013 446.684 235.941C446.684 234.997 445.708 234.821 444.972 234.821C443.948 234.821 443.228 235.237 443.148 236.133H441.324C441.452 234.005 443.26 233.381 445.084 233.381C446.7 233.381 448.396 234.037 448.396 235.781ZM457.767 236.373H455.943C455.799 235.365 455.063 234.821 454.055 234.821C453.111 234.821 451.783 235.317 451.783 237.829C451.783 239.205 452.391 240.661 453.975 240.661C455.031 240.661 455.767 239.957 455.943 238.773H457.767C457.431 240.917 456.103 242.101 453.975 242.101C451.383 242.101 449.959 240.261 449.959 237.829C449.959 235.333 451.319 233.381 454.039 233.381C455.959 233.381 457.591 234.341 457.767 236.373ZM458.417 234.965V233.605H459.793V231.125H461.617V233.605H463.265V234.965H461.617V239.381C461.617 240.133 461.681 240.517 462.497 240.517C462.753 240.517 463.009 240.517 463.265 240.453V241.861C462.865 241.893 462.481 241.957 462.081 241.957C460.177 241.957 459.825 241.221 459.793 239.845V234.965H458.417ZM464.625 241.877V233.605H466.449V241.877H464.625ZM464.625 232.181V230.453H466.449V232.181H464.625ZM472.229 240.661C473.861 240.661 474.581 239.173 474.581 237.733C474.581 236.309 473.861 234.821 472.229 234.821C470.597 234.821 469.877 236.309 469.877 237.733C469.877 239.173 470.597 240.661 472.229 240.661ZM472.229 242.101C469.573 242.101 468.053 240.277 468.053 237.733C468.053 235.205 469.573 233.381 472.229 233.381C474.885 233.381 476.405 235.205 476.405 237.733C476.405 240.277 474.885 242.101 472.229 242.101ZM477.921 241.877V233.605H479.649V234.821L479.681 234.853C480.225 233.941 481.169 233.381 482.257 233.381C484.049 233.381 485.185 234.341 485.185 236.197V241.877H483.361V236.677C483.329 235.381 482.817 234.821 481.745 234.821C480.529 234.821 479.745 235.781 479.745 236.997V241.877H477.921ZM486.661 239.221H488.485C488.581 240.277 489.381 240.661 490.357 240.661C491.045 240.661 492.245 240.517 492.197 239.573C492.149 238.613 490.821 238.501 489.493 238.197C488.149 237.909 486.837 237.429 486.837 235.749C486.837 233.941 488.789 233.381 490.293 233.381C491.989 233.381 493.525 234.085 493.749 235.925H491.845C491.685 235.061 490.965 234.821 490.165 234.821C489.637 234.821 488.661 234.949 488.661 235.669C488.661 236.565 490.005 236.693 491.349 236.997C492.677 237.301 494.021 237.781 494.021 239.413C494.021 241.381 492.037 242.101 490.325 242.101C488.245 242.101 486.693 241.173 486.661 239.221Z" fill="#030229"/>
<path d="M775.805 223.075C775.847 223.735 776.415 224.236 777.075 224.195L787.829 223.519C788.489 223.477 788.991 222.909 788.949 222.249C788.908 221.589 788.339 221.088 787.679 221.129L778.12 221.73L777.519 212.171C777.477 211.511 776.909 211.009 776.249 211.051C775.589 211.092 775.088 211.661 775.129 212.321L775.805 223.075ZM858.102 129.208L776.102 222.208L777.898 223.792L859.898 130.792L858.102 129.208Z" fill="#AAACAE"/>
<path d="M984.684 223.533C985.323 223.704 985.979 223.325 986.15 222.687L988.939 212.278C989.11 211.64 988.731 210.983 988.093 210.812C987.454 210.641 986.798 211.02 986.626 211.659L984.147 220.91L974.896 218.431C974.257 218.26 973.6 218.639 973.429 219.278C973.258 219.917 973.637 220.573 974.276 220.744L984.684 223.533ZM921.963 115.599L983.957 222.975L986.031 221.778L924.037 114.401L921.963 115.599Z" fill="#AAACAE"/>
<path d="M935.817 422.248C935.918 422.901 936.53 423.349 937.184 423.248L947.832 421.598C948.485 421.496 948.933 420.884 948.832 420.231C948.73 419.578 948.119 419.13 947.465 419.231L938 420.698L936.533 411.233C936.432 410.579 935.82 410.132 935.167 410.233C934.513 410.334 934.066 410.946 934.167 411.599L935.817 422.248ZM1009.25 321.293L936.034 421.358L937.966 422.771L1011.18 322.707L1009.25 321.293Z" fill="#AAACAE"/>
<path d="M797.158 281.149C796.688 281.614 796.684 282.372 797.149 282.842L804.726 290.503C805.191 290.973 805.949 290.977 806.419 290.512C806.889 290.047 806.894 289.289 806.429 288.819L799.693 282.009L806.503 275.274C806.973 274.809 806.977 274.051 806.512 273.581C806.047 273.111 805.289 273.106 804.819 273.571L797.158 281.149ZM980.007 281.803L798.007 280.803L797.993 283.197L979.993 284.197L980.007 281.803Z" fill="#FF5C5C"/>
<path d="M633.157 334.309C633.327 333.67 632.947 333.014 632.309 332.843L621.897 330.066C621.258 329.896 620.602 330.275 620.432 330.914C620.261 331.553 620.641 332.209 621.28 332.38L630.535 334.848L628.066 344.103C627.896 344.742 628.275 345.398 628.914 345.568C629.553 345.739 630.209 345.359 630.38 344.72L633.157 334.309ZM392.6 473.958L632.6 335.036L631.4 332.964L391.4 471.886L392.6 473.958Z" fill="#AAACAE"/>
<path d="M618.762 269.924C619.272 269.503 619.344 268.748 618.924 268.238L612.069 259.925C611.648 259.414 610.893 259.342 610.383 259.763C609.873 260.183 609.8 260.938 610.221 261.448L616.315 268.838L608.925 274.931C608.414 275.352 608.342 276.107 608.763 276.617C609.183 277.127 609.938 277.2 610.448 276.779L618.762 269.924ZM513.885 260.192L617.885 270.192L618.115 267.808L514.115 257.808L513.885 260.192Z" fill="#AAACAE"/>
<path d="M399.008 193.197C399.669 193.193 400.202 192.653 400.197 191.992L400.123 181.217C400.118 180.555 399.579 180.023 398.917 180.028C398.256 180.032 397.724 180.572 397.728 181.233L397.795 190.811L388.217 190.877C387.555 190.882 387.023 191.421 387.028 192.083C387.032 192.744 387.572 193.276 388.233 193.272L399.008 193.197ZM325.159 120.852L398.159 192.852L399.841 191.148L326.841 119.148L325.159 120.852Z" fill="#AAACAE"/>
<path d="M381.911 254.777C382.34 254.274 382.28 253.518 381.777 253.089L373.578 246.097C373.075 245.668 372.319 245.728 371.89 246.231C371.461 246.735 371.521 247.49 372.024 247.919L379.312 254.134L373.097 261.422C372.668 261.925 372.728 262.681 373.231 263.11C373.735 263.539 374.49 263.479 374.919 262.976L381.911 254.777ZM196.095 269.897L381.095 255.194L380.905 252.806L195.905 267.51L196.095 269.897Z" fill="#AAACAE"/>
<path d="M771.107 345.808C770.449 345.748 769.867 346.234 769.808 346.893L768.843 357.625C768.784 358.284 769.27 358.866 769.928 358.925C770.587 358.984 771.169 358.498 771.228 357.839L772.085 348.3L781.625 349.157C782.284 349.216 782.866 348.731 782.925 348.072C782.984 347.413 782.498 346.832 781.839 346.772L771.107 345.808ZM852.919 443.233L771.919 346.233L770.081 347.768L851.081 444.767L852.919 443.233Z" fill="#AAACAE"/>
<path d="M963.89 115.244C963.89 152.604 933.604 182.89 896.244 182.89C858.885 182.89 828.599 152.604 828.599 115.244C828.599 77.8847 858.885 47.5986 896.244 47.5986C933.604 47.5986 963.89 77.8847 963.89 115.244Z" fill="#EEF7E8" stroke="#78BF45" stroke-width="1.19727"/>
<path d="M867.411 103V91.576H870.227L873.379 100.52H873.411L876.483 91.576H879.267V103H877.363V94.184H877.331L874.163 103H872.515L869.347 94.184H869.315V103H867.411ZM885.197 101.784C886.829 101.784 887.549 100.296 887.549 98.856C887.549 97.432 886.829 95.944 885.197 95.944C883.565 95.944 882.845 97.432 882.845 98.856C882.845 100.296 883.565 101.784 885.197 101.784ZM885.197 103.224C882.541 103.224 881.021 101.4 881.021 98.856C881.021 96.328 882.541 94.504 885.197 94.504C887.853 94.504 889.373 96.328 889.373 98.856C889.373 101.4 887.853 103.224 885.197 103.224ZM890.89 103V94.728H892.618V95.944L892.65 95.976C893.194 95.064 894.138 94.504 895.226 94.504C897.018 94.504 898.154 95.464 898.154 97.32V103H896.33V97.8C896.298 96.504 895.786 95.944 894.714 95.944C893.498 95.944 892.714 96.904 892.714 98.12V103H890.89ZM899.245 96.088V94.728H900.621V92.248H902.445V94.728H904.093V96.088H902.445V100.504C902.445 101.256 902.509 101.64 903.325 101.64C903.581 101.64 903.837 101.64 904.093 101.576V102.984C903.693 103.016 903.309 103.08 902.909 103.08C901.005 103.08 900.653 102.344 900.621 100.968V96.088H899.245ZM905.405 103V91.576H907.229V95.816H907.261C907.709 95.064 908.653 94.504 909.741 94.504C911.533 94.504 912.669 95.464 912.669 97.32V103H910.845V97.8C910.813 96.504 910.301 95.944 909.229 95.944C908.013 95.944 907.229 96.904 907.229 98.12V103H905.405ZM914.641 103V91.576H916.465V103H914.641ZM920.676 102.968L917.54 94.728H919.54L921.7 100.904H921.732L923.828 94.728H925.732L922.516 103.448C921.924 104.936 921.492 106.28 919.588 106.28C919.156 106.28 918.74 106.248 918.324 106.184V104.648C918.612 104.696 918.9 104.76 919.188 104.76C920.036 104.76 920.244 104.312 920.468 103.608L920.676 102.968ZM875.768 122.888V115.576H877.768V122.232C877.768 123.768 877.864 125.544 880.456 125.544C883.048 125.544 883.144 123.768 883.144 122.232V115.576H885.144V122.888C885.144 125.816 883.272 127.272 880.456 127.272C877.64 127.272 875.768 125.816 875.768 122.888ZM886.739 124.344H888.563C888.659 125.4 889.459 125.784 890.435 125.784C891.123 125.784 892.323 125.64 892.275 124.696C892.227 123.736 890.899 123.624 889.571 123.32C888.227 123.032 886.915 122.552 886.915 120.872C886.915 119.064 888.867 118.504 890.371 118.504C892.067 118.504 893.603 119.208 893.827 121.048H891.923C891.763 120.184 891.043 119.944 890.243 119.944C889.715 119.944 888.739 120.072 888.739 120.792C888.739 121.688 890.083 121.816 891.427 122.12C892.755 122.424 894.099 122.904 894.099 124.536C894.099 126.504 892.115 127.224 890.403 127.224C888.323 127.224 886.771 126.296 886.739 124.344ZM900.587 124.216V122.856C900.027 123.224 899.147 123.208 898.347 123.352C897.563 123.48 896.859 123.768 896.859 124.728C896.859 125.544 897.899 125.784 898.539 125.784C899.339 125.784 900.587 125.368 900.587 124.216ZM902.411 120.904V125.16C902.411 125.608 902.507 125.784 902.843 125.784C902.955 125.784 903.099 125.784 903.291 125.752V127.016C903.019 127.112 902.443 127.224 902.139 127.224C901.403 127.224 900.875 126.968 900.731 126.216C900.011 126.92 898.843 127.224 897.867 127.224C896.379 127.224 895.035 126.424 895.035 124.808C895.035 122.744 896.683 122.408 898.219 122.232C899.531 121.992 900.699 122.136 900.699 121.064C900.699 120.12 899.723 119.944 898.987 119.944C897.963 119.944 897.243 120.36 897.163 121.256H895.339C895.467 119.128 897.275 118.504 899.099 118.504C900.715 118.504 902.411 119.16 902.411 120.904ZM907.974 125.56C909.59 125.56 910.198 124.088 910.198 122.68C910.198 121.256 909.558 119.944 907.974 119.944C906.358 119.944 905.798 121.448 905.798 122.824C905.798 124.184 906.454 125.56 907.974 125.56ZM912.022 118.728V126.568C912.022 129.048 910.566 130.28 907.958 130.28C906.294 130.28 904.422 129.64 904.262 127.704H906.086C906.31 128.744 907.142 128.92 908.07 128.92C909.542 128.92 910.198 128.168 910.198 126.808V125.544H910.166C909.654 126.456 908.71 127 907.686 127C905.062 127 903.974 125.016 903.974 122.648C903.974 120.424 905.366 118.504 907.718 118.504C908.758 118.504 909.702 118.936 910.166 119.864H910.198V118.728H912.022ZM921.362 123.336H915.282C915.282 124.632 915.986 125.784 917.506 125.784C918.562 125.784 919.202 125.32 919.522 124.408H921.25C920.85 126.216 919.314 127.224 917.506 127.224C914.914 127.224 913.458 125.416 913.458 122.872C913.458 120.52 914.994 118.504 917.458 118.504C920.066 118.504 921.666 120.856 921.362 123.336ZM915.282 122.136H919.538C919.474 120.984 918.69 119.944 917.458 119.944C916.194 119.944 915.33 120.904 915.282 122.136Z" fill="#030229"/>
<path d="M1085.89 282.244C1085.89 319.604 1055.6 349.89 1018.24 349.89C980.885 349.89 950.599 319.604 950.599 282.244C950.599 244.885 980.885 214.599 1018.24 214.599C1055.6 214.599 1085.89 244.885 1085.89 282.244Z" fill="#EEF7E8" stroke="#78BF45" stroke-width="1.19727"/>
<path d="M982.048 284.8V288.368H985.584C986.8 288.368 987.504 287.712 987.504 286.56C987.504 285.44 986.8 284.8 985.584 284.8H982.048ZM980.048 290V278.576H985.6C987.648 278.576 988.992 279.504 988.992 281.408C988.992 282.56 988.4 283.392 987.36 283.84V283.872C988.752 284.176 989.504 285.264 989.504 286.816C989.504 288.608 988.256 290 985.296 290H980.048ZM982.048 280.208V283.36H985.312C986.272 283.36 986.992 282.8 986.992 281.776C986.992 280.624 986.4 280.208 985.312 280.208H982.048ZM998.322 281.728V290H996.53V288.848H996.498C996.05 289.68 995.058 290.224 994.146 290.224C991.986 290.224 991.058 289.136 991.058 286.976V281.728H992.882V286.8C992.882 288.256 993.474 288.784 994.466 288.784C995.986 288.784 996.498 287.808 996.498 286.528V281.728H998.322ZM1003.85 288.56C1005.46 288.56 1006.07 287.088 1006.07 285.68C1006.07 284.256 1005.43 282.944 1003.85 282.944C1002.23 282.944 1001.67 284.448 1001.67 285.824C1001.67 287.184 1002.33 288.56 1003.85 288.56ZM1007.89 281.728V289.568C1007.89 292.048 1006.44 293.28 1003.83 293.28C1002.17 293.28 1000.29 292.64 1000.13 290.704H1001.96C1002.18 291.744 1003.01 291.92 1003.94 291.92C1005.41 291.92 1006.07 291.168 1006.07 289.808V288.544H1006.04C1005.53 289.456 1004.58 290 1003.56 290C1000.93 290 999.845 288.016 999.845 285.648C999.845 283.424 1001.24 281.504 1003.59 281.504C1004.63 281.504 1005.57 281.936 1006.04 282.864H1006.07V281.728H1007.89ZM1014.44 290V278.576H1022.33V280.304H1016.44V283.296H1021.61V284.928H1016.44V290H1014.44ZM1028.77 287.216V285.856C1028.21 286.224 1027.33 286.208 1026.53 286.352C1025.75 286.48 1025.04 286.768 1025.04 287.728C1025.04 288.544 1026.08 288.784 1026.72 288.784C1027.52 288.784 1028.77 288.368 1028.77 287.216ZM1030.6 283.904V288.16C1030.6 288.608 1030.69 288.784 1031.03 288.784C1031.14 288.784 1031.28 288.784 1031.48 288.752V290.016C1031.2 290.112 1030.63 290.224 1030.32 290.224C1029.59 290.224 1029.06 289.968 1028.92 289.216C1028.2 289.92 1027.03 290.224 1026.05 290.224C1024.56 290.224 1023.22 289.424 1023.22 287.808C1023.22 285.744 1024.87 285.408 1026.4 285.232C1027.72 284.992 1028.88 285.136 1028.88 284.064C1028.88 283.12 1027.91 282.944 1027.17 282.944C1026.15 282.944 1025.43 283.36 1025.35 284.256H1023.52C1023.65 282.128 1025.46 281.504 1027.28 281.504C1028.9 281.504 1030.6 282.16 1030.6 283.904ZM1039.97 284.496H1038.14C1038 283.488 1037.26 282.944 1036.25 282.944C1035.31 282.944 1033.98 283.44 1033.98 285.952C1033.98 287.328 1034.59 288.784 1036.17 288.784C1037.23 288.784 1037.97 288.08 1038.14 286.896H1039.97C1039.63 289.04 1038.3 290.224 1036.17 290.224C1033.58 290.224 1032.16 288.384 1032.16 285.952C1032.16 283.456 1033.52 281.504 1036.24 281.504C1038.16 281.504 1039.79 282.464 1039.97 284.496ZM1048.95 286.336H1042.87C1042.87 287.632 1043.58 288.784 1045.1 288.784C1046.15 288.784 1046.79 288.32 1047.11 287.408H1048.84C1048.44 289.216 1046.9 290.224 1045.1 290.224C1042.5 290.224 1041.05 288.416 1041.05 285.872C1041.05 283.52 1042.58 281.504 1045.05 281.504C1047.66 281.504 1049.26 283.856 1048.95 286.336ZM1042.87 285.136H1047.13C1047.06 283.984 1046.28 282.944 1045.05 282.944C1043.78 282.944 1042.92 283.904 1042.87 285.136ZM1051.76 285.952C1051.76 287.376 1052.47 288.784 1054.05 288.784C1055.68 288.784 1056.37 287.296 1056.37 285.856C1056.37 284.032 1055.49 282.944 1054.08 282.944C1052.37 282.944 1051.76 284.464 1051.76 285.952ZM1058.13 278.576V290H1056.4V288.88H1056.37C1055.89 289.824 1054.85 290.224 1053.81 290.224C1051.2 290.224 1049.94 288.288 1049.94 285.808C1049.94 282.816 1051.71 281.504 1053.52 281.504C1054.56 281.504 1055.71 281.888 1056.27 282.8H1056.31V278.576H1058.13Z" fill="#030229"/>
<path d="M963.89 476.244C963.89 513.604 933.604 543.89 896.244 543.89C858.885 543.89 828.599 513.604 828.599 476.244C828.599 438.885 858.885 408.599 896.244 408.599C933.604 408.599 963.89 438.885 963.89 476.244Z" fill="#EEF7E8" stroke="#78BF45" stroke-width="1.19727"/>
<path d="M866.863 469.208V477.368H868.831C871.967 477.368 872.639 475.576 872.639 473.288C872.639 471 871.967 469.208 868.831 469.208H866.863ZM864.863 479V467.576H869.599C873.119 467.576 874.639 470.136 874.639 473.288C874.639 476.44 873.119 479 869.599 479H864.863ZM876.202 479V470.728H878.026V479H876.202ZM876.202 469.304V467.576H878.026V469.304H876.202ZM879.565 476.344H881.389C881.485 477.4 882.285 477.784 883.261 477.784C883.949 477.784 885.149 477.64 885.101 476.696C885.053 475.736 883.725 475.624 882.397 475.32C881.053 475.032 879.741 474.552 879.741 472.872C879.741 471.064 881.693 470.504 883.197 470.504C884.893 470.504 886.429 471.208 886.653 473.048H884.749C884.589 472.184 883.869 471.944 883.069 471.944C882.541 471.944 881.565 472.072 881.565 472.792C881.565 473.688 882.909 473.816 884.253 474.12C885.581 474.424 886.925 474.904 886.925 476.536C886.925 478.504 884.941 479.224 883.229 479.224C881.149 479.224 879.597 478.296 879.565 476.344ZM895.718 473.496H893.894C893.75 472.488 893.014 471.944 892.006 471.944C891.062 471.944 889.734 472.44 889.734 474.952C889.734 476.328 890.342 477.784 891.926 477.784C892.982 477.784 893.718 477.08 893.894 475.896H895.718C895.382 478.04 894.054 479.224 891.926 479.224C889.334 479.224 887.91 477.384 887.91 474.952C887.91 472.456 889.27 470.504 891.99 470.504C893.91 470.504 895.542 471.464 895.718 473.496ZM900.993 477.784C902.625 477.784 903.345 476.296 903.345 474.856C903.345 473.432 902.625 471.944 900.993 471.944C899.361 471.944 898.641 473.432 898.641 474.856C898.641 476.296 899.361 477.784 900.993 477.784ZM900.993 479.224C898.337 479.224 896.817 477.4 896.817 474.856C896.817 472.328 898.337 470.504 900.993 470.504C903.649 470.504 905.169 472.328 905.169 474.856C905.169 477.4 903.649 479.224 900.993 479.224ZM913.949 470.728V479H912.157V477.848H912.125C911.677 478.68 910.685 479.224 909.773 479.224C907.613 479.224 906.685 478.136 906.685 475.976V470.728H908.509V475.8C908.509 477.256 909.101 477.784 910.093 477.784C911.613 477.784 912.125 476.808 912.125 475.528V470.728H913.949ZM915.873 479V470.728H917.601V471.944L917.633 471.976C918.177 471.064 919.121 470.504 920.209 470.504C922.001 470.504 923.137 471.464 923.137 473.32V479H921.313V473.8C921.281 472.504 920.769 471.944 919.697 471.944C918.481 471.944 917.697 472.904 917.697 474.12V479H915.873ZM924.228 472.088V470.728H925.604V468.248H927.428V470.728H929.076V472.088H927.428V476.504C927.428 477.256 927.492 477.64 928.308 477.64C928.564 477.64 928.82 477.64 929.076 477.576V478.984C928.676 479.016 928.292 479.08 927.892 479.08C925.988 479.08 925.636 478.344 925.604 476.968V472.088H924.228Z" fill="#030229"/>
<path d="M418.89 501.244C418.89 538.604 388.604 568.89 351.244 568.89C313.885 568.89 283.599 538.604 283.599 501.244C283.599 463.885 313.885 433.599 351.244 433.599C388.604 433.599 418.89 463.885 418.89 501.244Z" fill="#EEF7E8" stroke="#78BF45" stroke-width="1.19727"/>
<path d="M324.895 481.208H322.895C322.559 479.896 321.711 478.936 320.047 478.936C317.599 478.936 316.575 481.096 316.575 483.288C316.575 485.48 317.599 487.64 320.047 487.64C321.823 487.64 322.799 486.312 322.959 484.648H324.911C324.751 487.384 322.815 489.272 320.047 489.272C316.623 489.272 314.575 486.552 314.575 483.288C314.575 480.024 316.623 477.304 320.047 477.304C322.623 477.32 324.655 478.744 324.895 481.208ZM330.266 487.784C331.898 487.784 332.618 486.296 332.618 484.856C332.618 483.432 331.898 481.944 330.266 481.944C328.634 481.944 327.914 483.432 327.914 484.856C327.914 486.296 328.634 487.784 330.266 487.784ZM330.266 489.224C327.61 489.224 326.09 487.4 326.09 484.856C326.09 482.328 327.61 480.504 330.266 480.504C332.922 480.504 334.442 482.328 334.442 484.856C334.442 487.4 332.922 489.224 330.266 489.224ZM335.959 489V480.728H337.687V481.944L337.719 481.976C338.263 481.064 339.207 480.504 340.295 480.504C342.087 480.504 343.223 481.464 343.223 483.32V489H341.399V483.8C341.367 482.504 340.855 481.944 339.783 481.944C338.567 481.944 337.783 482.904 337.783 484.12V489H335.959ZM344.698 486.344H346.522C346.618 487.4 347.418 487.784 348.394 487.784C349.082 487.784 350.282 487.64 350.234 486.696C350.186 485.736 348.858 485.624 347.53 485.32C346.186 485.032 344.874 484.552 344.874 482.872C344.874 481.064 346.826 480.504 348.33 480.504C350.026 480.504 351.562 481.208 351.786 483.048H349.882C349.722 482.184 349.002 481.944 348.202 481.944C347.674 481.944 346.698 482.072 346.698 482.792C346.698 483.688 348.042 483.816 349.386 484.12C350.714 484.424 352.058 484.904 352.058 486.536C352.058 488.504 350.074 489.224 348.362 489.224C346.282 489.224 344.73 488.296 344.698 486.344ZM360.707 480.728V489H358.915V487.848H358.883C358.435 488.68 357.443 489.224 356.531 489.224C354.371 489.224 353.443 488.136 353.443 485.976V480.728H355.267V485.8C355.267 487.256 355.859 487.784 356.851 487.784C358.371 487.784 358.883 486.808 358.883 485.528V480.728H360.707ZM362.63 489V480.728H364.358V481.88H364.406C364.95 481.064 365.638 480.504 366.95 480.504C367.958 480.504 368.902 480.936 369.27 481.88C369.878 481.032 370.662 480.504 371.862 480.504C373.606 480.504 374.63 481.272 374.63 483.288V489H372.806V484.168C372.806 482.856 372.726 481.944 371.302 481.944C370.07 481.944 369.542 482.76 369.542 484.152V489H367.718V483.688C367.718 482.552 367.366 481.944 366.262 481.944C365.318 481.944 364.454 482.712 364.454 484.088V489H362.63ZM384.056 485.336H377.976C377.976 486.632 378.68 487.784 380.2 487.784C381.256 487.784 381.896 487.32 382.216 486.408H383.944C383.544 488.216 382.008 489.224 380.2 489.224C377.608 489.224 376.152 487.416 376.152 484.872C376.152 482.52 377.688 480.504 380.152 480.504C382.76 480.504 384.36 482.856 384.056 485.336ZM377.976 484.136H382.232C382.168 482.984 381.384 481.944 380.152 481.944C378.888 481.944 378.024 482.904 377.976 484.136ZM385.443 489V480.728H387.155V482.328H387.187C387.395 481.448 388.483 480.504 389.603 480.504C390.019 480.504 390.131 480.536 390.291 480.552V482.312C390.035 482.28 389.763 482.232 389.507 482.232C388.259 482.232 387.267 483.24 387.267 485.064V489H385.443ZM320.583 505.208H318.583C318.247 503.896 317.399 502.936 315.735 502.936C313.287 502.936 312.263 505.096 312.263 507.288C312.263 509.48 313.287 511.64 315.735 511.64C317.511 511.64 318.487 510.312 318.647 508.648H320.599C320.439 511.384 318.503 513.272 315.735 513.272C312.311 513.272 310.263 510.552 310.263 507.288C310.263 504.024 312.311 501.304 315.735 501.304C318.311 501.32 320.343 502.744 320.583 505.208ZM325.954 511.784C327.586 511.784 328.306 510.296 328.306 508.856C328.306 507.432 327.586 505.944 325.954 505.944C324.322 505.944 323.602 507.432 323.602 508.856C323.602 510.296 324.322 511.784 325.954 511.784ZM325.954 513.224C323.298 513.224 321.778 511.4 321.778 508.856C321.778 506.328 323.298 504.504 325.954 504.504C328.61 504.504 330.13 506.328 330.13 508.856C330.13 511.4 328.61 513.224 325.954 513.224ZM331.646 513V504.728H333.374V505.944L333.406 505.976C333.95 505.064 334.894 504.504 335.982 504.504C337.774 504.504 338.91 505.464 338.91 507.32V513H337.086V507.8C337.054 506.504 336.542 505.944 335.47 505.944C334.254 505.944 333.47 506.904 333.47 508.12V513H331.646ZM340.018 506.088V504.728H341.378V504.04C341.378 501.928 342.482 501.576 343.666 501.576C344.242 501.576 344.658 501.608 344.946 501.688V503.112C344.706 503.048 344.466 503.016 344.098 503.016C343.602 503.016 343.202 503.192 343.202 503.88V504.728H344.754V506.088H343.202V513H341.378V506.088H340.018ZM345.928 513V504.728H347.752V513H345.928ZM345.928 503.304V501.576H347.752V503.304H345.928ZM351.164 508.952C351.164 510.376 351.868 511.784 353.452 511.784C355.084 511.784 355.772 510.296 355.772 508.856C355.772 507.032 354.892 505.944 353.484 505.944C351.772 505.944 351.164 507.464 351.164 508.952ZM357.532 501.576V513H355.804V511.88H355.772C355.292 512.824 354.252 513.224 353.212 513.224C350.604 513.224 349.34 511.288 349.34 508.808C349.34 505.816 351.116 504.504 352.924 504.504C353.964 504.504 355.116 504.888 355.676 505.8H355.708V501.576H357.532ZM367.025 509.336H360.945C360.945 510.632 361.649 511.784 363.169 511.784C364.225 511.784 364.865 511.32 365.185 510.408H366.913C366.513 512.216 364.977 513.224 363.169 513.224C360.577 513.224 359.121 511.416 359.121 508.872C359.121 506.52 360.657 504.504 363.121 504.504C365.729 504.504 367.329 506.856 367.025 509.336ZM360.945 508.136H365.201C365.137 506.984 364.353 505.944 363.121 505.944C361.857 505.944 360.993 506.904 360.945 508.136ZM368.412 513V504.728H370.14V505.944L370.172 505.976C370.716 505.064 371.66 504.504 372.748 504.504C374.54 504.504 375.676 505.464 375.676 507.32V513H373.852V507.8C373.82 506.504 373.308 505.944 372.236 505.944C371.02 505.944 370.236 506.904 370.236 508.12V513H368.412ZM385.007 507.496H383.183C383.039 506.488 382.303 505.944 381.295 505.944C380.351 505.944 379.023 506.44 379.023 508.952C379.023 510.328 379.631 511.784 381.215 511.784C382.271 511.784 383.007 511.08 383.183 509.896H385.007C384.671 512.04 383.343 513.224 381.215 513.224C378.623 513.224 377.199 511.384 377.199 508.952C377.199 506.456 378.559 504.504 381.279 504.504C383.199 504.504 384.831 505.464 385.007 507.496ZM393.994 509.336H387.914C387.914 510.632 388.618 511.784 390.138 511.784C391.194 511.784 391.834 511.32 392.154 510.408H393.882C393.482 512.216 391.946 513.224 390.138 513.224C387.546 513.224 386.09 511.416 386.09 508.872C386.09 506.52 387.626 504.504 390.09 504.504C392.698 504.504 394.298 506.856 393.994 509.336ZM387.914 508.136H392.17C392.106 506.984 391.322 505.944 390.09 505.944C388.826 505.944 387.962 506.904 387.914 508.136Z" fill="#030229"/>
<path d="M364.89 86.2444C364.89 123.604 334.604 153.89 297.244 153.89C259.885 153.89 229.599 123.604 229.599 86.2444C229.599 48.8847 259.885 18.5986 297.244 18.5986C334.604 18.5986 364.89 48.8847 364.89 86.2444Z" fill="#EEF7E8" stroke="#78BF45" stroke-width="1.19727"/>
<path d="M258.653 86.069H260.653C260.653 87.829 261.949 88.517 263.549 88.517C265.309 88.517 265.965 87.653 265.965 86.789C265.965 85.909 265.485 85.557 265.021 85.381C264.221 85.077 263.181 84.869 261.613 84.437C259.661 83.909 259.085 82.725 259.085 81.541C259.085 79.253 261.197 78.181 263.261 78.181C265.645 78.181 267.645 79.445 267.645 81.829H265.645C265.549 80.357 264.557 79.813 263.181 79.813C262.253 79.813 261.085 80.149 261.085 81.301C261.085 82.101 261.629 82.549 262.445 82.773C262.621 82.821 265.149 83.477 265.741 83.653C267.245 84.101 267.965 85.381 267.965 86.565C267.965 89.125 265.693 90.149 263.421 90.149C260.813 90.149 258.701 88.901 258.653 86.069ZM274.564 87.093V85.733C274.004 86.101 273.124 86.085 272.324 86.229C271.54 86.357 270.836 86.645 270.836 87.605C270.836 88.421 271.876 88.661 272.516 88.661C273.316 88.661 274.564 88.245 274.564 87.093ZM276.388 83.781V88.037C276.388 88.485 276.484 88.661 276.82 88.661C276.932 88.661 277.076 88.661 277.268 88.629V89.893C276.996 89.989 276.42 90.101 276.116 90.101C275.38 90.101 274.852 89.845 274.708 89.093C273.988 89.797 272.82 90.101 271.844 90.101C270.356 90.101 269.012 89.301 269.012 87.685C269.012 85.621 270.66 85.285 272.196 85.109C273.508 84.869 274.676 85.013 274.676 83.941C274.676 82.997 273.7 82.821 272.964 82.821C271.94 82.821 271.22 83.237 271.14 84.133H269.316C269.444 82.005 271.252 81.381 273.076 81.381C274.692 81.381 276.388 82.037 276.388 83.781ZM278.399 89.877V78.453H280.223V89.877H278.399ZM289.714 86.213H283.634C283.634 87.509 284.338 88.661 285.858 88.661C286.914 88.661 287.554 88.197 287.874 87.285H289.602C289.202 89.093 287.666 90.101 285.858 90.101C283.266 90.101 281.81 88.293 281.81 85.749C281.81 83.397 283.346 81.381 285.81 81.381C288.418 81.381 290.018 83.733 289.714 86.213ZM283.634 85.013H287.89C287.826 83.861 287.042 82.821 285.81 82.821C284.546 82.821 283.682 83.781 283.634 85.013ZM290.653 87.221H292.477C292.573 88.277 293.373 88.661 294.349 88.661C295.037 88.661 296.237 88.517 296.189 87.573C296.141 86.613 294.813 86.501 293.485 86.197C292.141 85.909 290.829 85.429 290.829 83.749C290.829 81.941 292.781 81.381 294.285 81.381C295.981 81.381 297.517 82.085 297.741 83.925H295.837C295.677 83.061 294.957 82.821 294.157 82.821C293.629 82.821 292.653 82.949 292.653 83.669C292.653 84.565 293.997 84.693 295.341 84.997C296.669 85.301 298.013 85.781 298.013 87.413C298.013 89.381 296.029 90.101 294.317 90.101C292.237 90.101 290.685 89.173 290.653 87.221ZM313.819 82.085H311.819C311.483 80.773 310.635 79.813 308.971 79.813C306.523 79.813 305.499 81.973 305.499 84.165C305.499 86.357 306.523 88.517 308.971 88.517C310.747 88.517 311.723 87.189 311.883 85.525H313.835C313.675 88.261 311.739 90.149 308.971 90.149C305.547 90.149 303.499 87.429 303.499 84.165C303.499 80.901 305.547 78.181 308.971 78.181C311.547 78.197 313.579 79.621 313.819 82.085ZM320.502 87.093V85.733C319.942 86.101 319.062 86.085 318.262 86.229C317.478 86.357 316.774 86.645 316.774 87.605C316.774 88.421 317.814 88.661 318.454 88.661C319.254 88.661 320.502 88.245 320.502 87.093ZM322.326 83.781V88.037C322.326 88.485 322.422 88.661 322.758 88.661C322.87 88.661 323.014 88.661 323.206 88.629V89.893C322.934 89.989 322.358 90.101 322.054 90.101C321.318 90.101 320.79 89.845 320.646 89.093C319.926 89.797 318.758 90.101 317.782 90.101C316.294 90.101 314.95 89.301 314.95 87.685C314.95 85.621 316.598 85.285 318.134 85.109C319.446 84.869 320.614 85.013 320.614 83.941C320.614 82.997 319.638 82.821 318.902 82.821C317.878 82.821 317.158 83.237 317.078 84.133H315.254C315.382 82.005 317.19 81.381 319.014 81.381C320.63 81.381 322.326 82.037 322.326 83.781ZM324.336 89.877V78.453H326.16V89.877H324.336ZM328.196 89.877V78.453H330.02V89.877H328.196ZM331.559 87.221H333.383C333.479 88.277 334.279 88.661 335.255 88.661C335.943 88.661 337.143 88.517 337.095 87.573C337.047 86.613 335.719 86.501 334.391 86.197C333.047 85.909 331.735 85.429 331.735 83.749C331.735 81.941 333.687 81.381 335.191 81.381C336.887 81.381 338.423 82.085 338.647 83.925H336.743C336.583 83.061 335.863 82.821 335.063 82.821C334.535 82.821 333.559 82.949 333.559 83.669C333.559 84.565 334.903 84.693 336.247 84.997C337.575 85.301 338.919 85.781 338.919 87.413C338.919 89.381 336.935 90.101 335.223 90.101C333.143 90.101 331.591 89.173 331.559 87.221Z" fill="#030229"/>
<path d="M203.89 264.244C203.89 301.604 173.604 331.89 136.244 331.89C98.8847 331.89 68.5986 301.604 68.5986 264.244C68.5986 226.885 98.8847 196.599 136.244 196.599C173.604 196.599 203.89 226.885 203.89 264.244Z" fill="#EEF7E8" stroke="#78BF45" stroke-width="1.19727"/>
<path d="M107.138 266.877V255.453H109.138V266.877H107.138ZM110.887 264.221H112.711C112.807 265.277 113.607 265.661 114.583 265.661C115.271 265.661 116.471 265.517 116.423 264.573C116.375 263.613 115.047 263.501 113.719 263.197C112.375 262.909 111.063 262.429 111.063 260.749C111.063 258.941 113.015 258.381 114.519 258.381C116.215 258.381 117.751 259.085 117.975 260.925H116.071C115.911 260.061 115.191 259.821 114.391 259.821C113.863 259.821 112.887 259.949 112.887 260.669C112.887 261.565 114.231 261.693 115.575 261.997C116.903 262.301 118.247 262.781 118.247 264.413C118.247 266.381 116.263 267.101 114.551 267.101C112.471 267.101 110.919 266.173 110.887 264.221ZM123.653 263.069H125.653C125.653 264.829 126.949 265.517 128.549 265.517C130.309 265.517 130.965 264.653 130.965 263.789C130.965 262.909 130.485 262.557 130.021 262.381C129.221 262.077 128.181 261.869 126.613 261.437C124.661 260.909 124.085 259.725 124.085 258.541C124.085 256.253 126.197 255.181 128.261 255.181C130.645 255.181 132.645 256.445 132.645 258.829H130.645C130.549 257.357 129.557 256.813 128.181 256.813C127.253 256.813 126.085 257.149 126.085 258.301C126.085 259.101 126.629 259.549 127.445 259.773C127.621 259.821 130.149 260.477 130.741 260.653C132.245 261.101 132.965 262.381 132.965 263.565C132.965 266.125 130.693 267.149 128.421 267.149C125.813 267.149 123.701 265.901 123.653 263.069ZM141.964 263.213H135.884C135.884 264.509 136.588 265.661 138.108 265.661C139.164 265.661 139.804 265.197 140.124 264.285H141.852C141.452 266.093 139.916 267.101 138.108 267.101C135.516 267.101 134.06 265.293 134.06 262.749C134.06 260.397 135.596 258.381 138.06 258.381C140.668 258.381 142.268 260.733 141.964 263.213ZM135.884 262.013H140.14C140.076 260.861 139.292 259.821 138.06 259.821C136.796 259.821 135.932 260.781 135.884 262.013ZM143.351 266.877V258.605H145.079V259.821L145.111 259.853C145.655 258.941 146.599 258.381 147.687 258.381C149.479 258.381 150.615 259.341 150.615 261.197V266.877H148.791V261.677C148.759 260.381 148.247 259.821 147.175 259.821C145.959 259.821 145.175 260.781 145.175 261.997V266.877H143.351ZM152.586 266.877V258.605H154.41V266.877H152.586ZM152.586 257.181V255.453H154.41V257.181H152.586ZM160.19 265.661C161.822 265.661 162.542 264.173 162.542 262.733C162.542 261.309 161.822 259.821 160.19 259.821C158.558 259.821 157.838 261.309 157.838 262.733C157.838 264.173 158.558 265.661 160.19 265.661ZM160.19 267.101C157.534 267.101 156.014 265.277 156.014 262.733C156.014 260.205 157.534 258.381 160.19 258.381C162.846 258.381 164.366 260.205 164.366 262.733C164.366 265.277 162.846 267.101 160.19 267.101ZM165.882 266.877V258.605H167.594V260.205H167.626C167.834 259.325 168.922 258.381 170.042 258.381C170.458 258.381 170.57 258.413 170.73 258.429V260.189C170.474 260.157 170.202 260.109 169.946 260.109C168.698 260.109 167.706 261.117 167.706 262.941V266.877H165.882Z" fill="#030229"/>
<path d="M32.216 619V607.576H34.216V617.272H40.024V619H32.216ZM48.6515 615.336H42.5715C42.5715 616.632 43.2755 617.784 44.7955 617.784C45.8515 617.784 46.4915 617.32 46.8115 616.408H48.5395C48.1395 618.216 46.6035 619.224 44.7955 619.224C42.2035 619.224 40.7475 617.416 40.7475 614.872C40.7475 612.52 42.2835 610.504 44.7475 610.504C47.3555 610.504 48.9555 612.856 48.6515 615.336ZM42.5715 614.136H46.8275C46.7635 612.984 45.9795 611.944 44.7475 611.944C43.4835 611.944 42.6195 612.904 42.5715 614.136ZM53.6381 617.56C55.2541 617.56 55.8621 616.088 55.8621 614.68C55.8621 613.256 55.2221 611.944 53.6381 611.944C52.0221 611.944 51.4621 613.448 51.4621 614.824C51.4621 616.184 52.1181 617.56 53.6381 617.56ZM57.6861 610.728V618.568C57.6861 621.048 56.2301 622.28 53.6221 622.28C51.9581 622.28 50.0861 621.64 49.9261 619.704H51.7501C51.9741 620.744 52.8061 620.92 53.7341 620.92C55.2061 620.92 55.8621 620.168 55.8621 618.808V617.544H55.8301C55.3181 618.456 54.3741 619 53.3501 619C50.7261 619 49.6381 617.016 49.6381 614.648C49.6381 612.424 51.0301 610.504 53.3821 610.504C54.4221 610.504 55.3661 610.936 55.8301 611.864H55.8621V610.728H57.6861ZM67.0265 615.336H60.9465C60.9465 616.632 61.6505 617.784 63.1705 617.784C64.2265 617.784 64.8665 617.32 65.1865 616.408H66.9145C66.5145 618.216 64.9785 619.224 63.1705 619.224C60.5785 619.224 59.1225 617.416 59.1225 614.872C59.1225 612.52 60.6585 610.504 63.1225 610.504C65.7305 610.504 67.3305 612.856 67.0265 615.336ZM60.9465 614.136H65.2025C65.1385 612.984 64.3545 611.944 63.1225 611.944C61.8585 611.944 60.9945 612.904 60.9465 614.136ZM68.4131 619V610.728H70.1411V611.944L70.1731 611.976C70.7171 611.064 71.6611 610.504 72.7491 610.504C74.5411 610.504 75.6771 611.464 75.6771 613.32V619H73.8531V613.8C73.8211 612.504 73.3091 611.944 72.2371 611.944C71.0211 611.944 70.2371 612.904 70.2371 614.12V619H68.4131ZM79.0246 614.952C79.0246 616.376 79.7286 617.784 81.3126 617.784C82.9446 617.784 83.6326 616.296 83.6326 614.856C83.6326 613.032 82.7526 611.944 81.3446 611.944C79.6326 611.944 79.0246 613.464 79.0246 614.952ZM85.3926 607.576V619H83.6646V617.88H83.6326C83.1526 618.824 82.1126 619.224 81.0726 619.224C78.4646 619.224 77.2006 617.288 77.2006 614.808C77.2006 611.816 78.9766 610.504 80.7846 610.504C81.8246 610.504 82.9766 610.888 83.5366 611.8H83.5686V607.576H85.3926Z" fill="#AAACAE"/>
</svg>
