<svg width="989" height="692" viewBox="0 0 989 692" fill="none" xmlns="http://www.w3.org/2000/svg">
<path d="M787.578 3.12891V7.91798" stroke="#404040" stroke-width="1.19727" stroke-linecap="round" stroke-linejoin="round"/>
<path d="M780.394 10.3125H785.183" stroke="#404040" stroke-width="1.19727" stroke-linecap="round" stroke-linejoin="round"/>
<path d="M794.762 10.3125H789.973" stroke="#404040" stroke-width="1.19727" stroke-linecap="round" stroke-linejoin="round"/>
<path d="M787.578 17.4958V12.3076" stroke="#404040" stroke-width="1.19727" stroke-linecap="round" stroke-linejoin="round"/>
<path d="M785.184 5.52345L786.545 3.96559C787.032 3.4078 787.276 3.12891 787.578 3.12891C787.881 3.12891 788.125 3.4078 788.612 3.96559L789.973 5.52345" stroke="#404040" stroke-width="1.19727" stroke-linecap="round" stroke-linejoin="round"/>
<path d="M789.973 15.1016L788.612 16.6594C788.125 17.2172 787.881 17.4961 787.578 17.4961C787.276 17.4961 787.032 17.2172 786.545 16.6594L785.184 15.1016" stroke="#404040" stroke-width="1.19727" stroke-linecap="round" stroke-linejoin="round"/>
<path d="M792.367 7.91797L793.925 9.27886C794.483 9.76615 794.762 10.0098 794.762 10.3125C794.762 10.6153 794.483 10.8589 793.925 11.3462L792.367 12.707" stroke="#404040" stroke-width="1.19727" stroke-linecap="round" stroke-linejoin="round"/>
<path d="M782.789 12.707L781.231 11.3462C780.673 10.8589 780.394 10.6153 780.394 10.3125C780.394 10.0098 780.673 9.76615 781.231 9.27886L782.789 7.91797" stroke="#404040" stroke-width="1.19727" stroke-linecap="round" stroke-linejoin="round"/>
<path d="M831.797 16.219L833.873 18.2943M832.835 12.5873C832.835 10.0085 830.744 7.91797 828.166 7.91797C825.587 7.91797 823.496 10.0085 823.496 12.5873C823.496 15.1662 825.587 17.2567 828.166 17.2567C830.744 17.2567 832.835 15.1662 832.835 12.5873Z" stroke="#404040" stroke-width="1.19727" stroke-linecap="round" stroke-linejoin="round"/>
<path d="M817.909 5.52377C818.013 4.4578 818.249 3.74088 818.784 3.20606C819.319 2.67124 820.035 2.43522 821.101 2.33105M821.101 18.2946C820.035 18.1905 819.319 17.9545 818.784 17.4196C818.249 16.8848 818.013 16.1679 817.909 15.1019M833.872 5.52377C833.768 4.4578 833.532 3.74088 832.997 3.20606C832.462 2.67124 831.746 2.43522 830.68 2.33105M817.909 8.71649V11.9092M827.487 2.33105H824.294" stroke="#404040" stroke-width="1.19727" stroke-linecap="round"/>
<path d="M857.818 8.71616C857.428 8.68654 857.155 8.61984 856.931 8.46966C856.757 8.3527 856.607 8.20241 856.491 8.02736C856.222 7.62302 856.222 7.06013 856.222 5.93437C856.222 4.80861 856.222 4.24573 856.491 3.84139C856.607 3.66634 856.757 3.51604 856.931 3.39908C857.334 3.12891 857.895 3.12891 859.016 3.12891H869.392C870.513 3.12891 871.073 3.12891 871.476 3.39908C871.65 3.51604 871.8 3.66634 871.916 3.84139C872.186 4.24573 872.186 4.80861 872.186 5.93437C872.186 6.96221 872.186 7.52083 871.981 7.91798" stroke="#404040" stroke-width="1.19727" stroke-linecap="round"/>
<path d="M869.152 15.2609L871.386 17.4958M870.269 11.3498C870.269 8.57261 868.018 6.32129 865.24 6.32129C862.463 6.32129 860.212 8.57261 860.212 11.3498C860.212 14.127 862.463 16.3784 865.24 16.3784C868.018 16.3784 870.269 14.127 870.269 11.3498Z" stroke="#404040" stroke-width="1.19727" stroke-linecap="round" stroke-linejoin="round"/>
<path d="M902.516 18.2946C899.13 18.2946 897.437 18.2946 896.385 17.1257C895.333 15.9569 895.333 14.0755 895.333 10.3129C895.333 6.5502 895.333 4.66887 896.385 3.49996C897.437 2.33105 899.13 2.33105 902.516 2.33105C905.903 2.33105 907.596 2.33105 908.648 3.49996C909.7 4.66887 909.7 6.55019 909.7 10.3129C909.7 14.0755 909.7 15.9569 908.648 17.1257C907.596 18.2946 905.903 18.2946 902.516 18.2946Z" stroke="#404040" stroke-width="1.19727" stroke-linecap="round" stroke-linejoin="round"/>
<path d="M899.323 2.72949V8.57712C899.323 9.57253 899.323 10.0703 899.632 10.2484C900.229 10.5934 901.35 9.44242 901.882 9.09585C902.19 8.89487 902.345 8.79438 902.516 8.79438C902.688 8.79438 902.842 8.89487 903.151 9.09585C903.683 9.44242 904.803 10.5934 905.401 10.2484C905.709 10.0703 905.709 9.57253 905.709 8.57712V2.72949" stroke="#404040" stroke-width="1.19727" stroke-linecap="round" stroke-linejoin="round"/>
<path d="M947.215 9.51467L948.811 10.3129C948.811 5.90463 945.238 2.33105 940.829 2.33105C937.556 2.33105 934.743 4.30111 933.512 7.12013M934.444 11.111L932.848 10.3129C932.848 14.721 936.421 18.2946 940.829 18.2946C944.102 18.2946 946.915 16.3246 948.147 13.5056" stroke="#404040" stroke-width="1.19727" stroke-linecap="round" stroke-linejoin="round"/>
<path d="M979.142 18.2946C983.55 18.2946 987.124 14.7211 987.124 10.3129C987.124 5.90463 983.55 2.33105 979.142 2.33105C974.734 2.33105 971.16 5.90463 971.16 10.3129C971.16 14.7211 974.734 18.2946 979.142 18.2946Z" stroke="#404040" stroke-width="1.19727"/>
<path d="M977.545 7.91765C977.545 7.036 978.26 6.32129 979.142 6.32129C980.023 6.32129 980.738 7.036 980.738 7.91765C980.738 8.23544 980.645 8.53155 980.485 8.78032C980.008 9.52175 979.142 10.2287 979.142 11.1104V11.5095" stroke="#404040" stroke-width="1.19727" stroke-linecap="round"/>
<path d="M979.136 14.3037H979.142" stroke="#404040" stroke-width="1.19727" stroke-linecap="round" stroke-linejoin="round"/>
<path d="M3.91986 2.33105V4.83111C3.91986 5.06566 4.21311 5.17184 4.36325 4.99165C5.8248 3.35871 7.94867 2.33105 10.3126 2.33105C14.7209 2.33105 18.2944 5.90463 18.2944 10.3129C18.2944 14.721 14.7209 18.2946 10.3126 18.2946C5.90445 18.2946 2.33084 14.721 2.33084 10.3129" stroke="#404040" stroke-width="1.19727" stroke-linecap="round" stroke-linejoin="round"/>
<path d="M55.0174 2.33105V4.83111C55.0174 5.06566 54.7241 5.17184 54.574 4.99165C53.1125 3.35871 50.9886 2.33105 48.6246 2.33105C44.2164 2.33105 40.6428 5.90463 40.6428 10.3129C40.6428 14.721 44.2164 18.2946 48.6246 18.2946C53.0328 18.2946 56.6064 14.721 56.6064 10.3129" stroke="#404040" stroke-width="1.19727" stroke-linecap="round" stroke-linejoin="round"/>
<path d="M848.187 407.925C848.273 407.269 847.811 406.668 847.155 406.582L836.471 405.185C835.815 405.1 835.214 405.562 835.128 406.217C835.043 406.873 835.505 407.474 836.16 407.56L845.658 408.801L844.416 418.299C844.33 418.954 844.792 419.555 845.448 419.641C846.104 419.727 846.705 419.265 846.79 418.609L848.187 407.925ZM650.73 560.162L847.73 408.719L846.27 406.82L649.27 558.264L650.73 560.162Z" fill="#AAACAE"/>
<path d="M586.197 407.787C586.207 407.125 585.678 406.582 585.017 406.572L574.243 406.418C573.582 406.409 573.038 406.937 573.029 407.598C573.019 408.259 573.547 408.803 574.209 408.813L583.786 408.95L583.649 418.527C583.639 419.188 584.168 419.732 584.829 419.741C585.49 419.75 586.034 419.222 586.043 418.561L586.197 407.787ZM388.834 600.072L585.834 408.628L584.166 406.911L387.166 598.354L388.834 600.072Z" fill="#AAACAE"/>
<path d="M561.117 328.961C561.775 328.896 562.256 328.31 562.192 327.652L561.136 316.929C561.071 316.271 560.485 315.79 559.827 315.854C559.169 315.919 558.688 316.505 558.753 317.163L559.691 326.695L550.159 327.633C549.501 327.698 549.02 328.284 549.085 328.942C549.15 329.6 549.736 330.081 550.394 330.016L561.117 328.961ZM387.24 186.695L560.24 328.695L561.76 326.844L388.76 184.844L387.24 186.695Z" fill="#AAACAE"/>
<path d="M843.047 312.966C843.708 312.94 844.222 312.383 844.196 311.722L843.771 300.955C843.745 300.295 843.188 299.78 842.528 299.806C841.867 299.832 841.353 300.389 841.379 301.05L841.756 310.62L832.186 310.998C831.525 311.024 831.011 311.581 831.037 312.242C831.063 312.902 831.619 313.417 832.28 313.391L843.047 312.966ZM684.187 166.649L842.187 312.649L843.813 310.89L685.813 164.89L684.187 166.649Z" fill="#AAACAE"/>
<path d="M960.89 361.014C960.89 398.374 930.604 428.66 893.244 428.66C855.885 428.66 825.599 398.374 825.599 361.014C825.599 323.654 855.885 293.368 893.244 293.368C930.604 293.368 960.89 323.654 960.89 361.014Z" fill="#78BF45" stroke="#78BF45" stroke-width="1.19727"/>
<path d="M866.936 354.754V358.768H870.626C872.048 358.768 872.822 358.066 872.822 356.716C872.822 355.078 871.76 354.754 870.59 354.754H866.936ZM864.686 365.77V352.918H870.824C873.632 352.918 875.072 354.214 875.072 356.392C875.072 358.858 873.362 359.488 872.948 359.632V359.668C873.722 359.776 874.856 360.352 874.856 362.386C874.856 363.88 875.072 365.248 875.558 365.77H873.146C872.804 365.212 872.804 364.51 872.804 363.88C872.804 361.522 872.318 360.478 870.248 360.478H866.936V365.77H864.686ZM885.514 361.648H878.674C878.674 363.106 879.466 364.402 881.176 364.402C882.364 364.402 883.084 363.88 883.444 362.854H885.388C884.938 364.888 883.21 366.022 881.176 366.022C878.26 366.022 876.622 363.988 876.622 361.126C876.622 358.48 878.35 356.212 881.122 356.212C884.056 356.212 885.856 358.858 885.514 361.648ZM878.674 360.298H883.462C883.39 359.002 882.508 357.832 881.122 357.832C879.7 357.832 878.728 358.912 878.674 360.298ZM889.54 365.77L886.156 356.464H888.388L890.746 363.61H890.782L893.05 356.464H895.174L891.844 365.77H889.54ZM896.462 365.77V356.464H898.514V365.77H896.462ZM896.462 354.862V352.918H898.514V354.862H896.462ZM909.192 361.648H902.352C902.352 363.106 903.144 364.402 904.854 364.402C906.042 364.402 906.762 363.88 907.122 362.854H909.066C908.616 364.888 906.888 366.022 904.854 366.022C901.938 366.022 900.3 363.988 900.3 361.126C900.3 358.48 902.028 356.212 904.8 356.212C907.734 356.212 909.534 358.858 909.192 361.648ZM902.352 360.298H907.14C907.068 359.002 906.186 357.832 904.8 357.832C903.378 357.832 902.406 358.912 902.352 360.298ZM912.786 365.77L909.906 356.464H912.084L913.902 363.412H913.938L915.684 356.464H917.754L919.428 363.412H919.464L921.354 356.464H923.442L920.526 365.77H918.42L916.692 358.858H916.656L914.946 365.77H912.786Z" fill="#030229"/>
<path d="M692.89 139.244C692.89 176.604 662.604 206.89 625.244 206.89C587.885 206.89 557.599 176.604 557.599 139.244C557.599 101.885 587.885 71.5986 625.244 71.5986C662.604 71.5986 692.89 101.885 692.89 139.244Z" fill="#EEF7E8" stroke="#78BF45" stroke-width="1.19727"/>
<path d="M594.849 131.085V139.245H596.817C599.953 139.245 600.625 137.453 600.625 135.165C600.625 132.877 599.953 131.085 596.817 131.085H594.849ZM592.849 140.877V129.453H597.585C601.105 129.453 602.625 132.013 602.625 135.165C602.625 138.317 601.105 140.877 597.585 140.877H592.849ZM604.188 140.877V132.605H606.012V140.877H604.188ZM604.188 131.181V129.453H606.012V131.181H604.188ZM607.551 138.221H609.375C609.471 139.277 610.271 139.661 611.247 139.661C611.935 139.661 613.135 139.517 613.087 138.573C613.039 137.613 611.711 137.501 610.383 137.197C609.039 136.909 607.727 136.429 607.727 134.749C607.727 132.941 609.679 132.381 611.183 132.381C612.879 132.381 614.415 133.085 614.639 134.925H612.735C612.575 134.061 611.855 133.821 611.055 133.821C610.527 133.821 609.551 133.949 609.551 134.669C609.551 135.565 610.895 135.693 612.239 135.997C613.567 136.301 614.911 136.781 614.911 138.413C614.911 140.381 612.927 141.101 611.215 141.101C609.135 141.101 607.583 140.173 607.551 138.221ZM623.704 135.373H621.88C621.736 134.365 621 133.821 619.992 133.821C619.048 133.821 617.72 134.317 617.72 136.829C617.72 138.205 618.328 139.661 619.912 139.661C620.968 139.661 621.704 138.957 621.88 137.773H623.704C623.368 139.917 622.04 141.101 619.912 141.101C617.32 141.101 615.896 139.261 615.896 136.829C615.896 134.333 617.256 132.381 619.976 132.381C621.896 132.381 623.528 133.341 623.704 135.373ZM628.979 139.661C630.611 139.661 631.331 138.173 631.331 136.733C631.331 135.309 630.611 133.821 628.979 133.821C627.347 133.821 626.627 135.309 626.627 136.733C626.627 138.173 627.347 139.661 628.979 139.661ZM628.979 141.101C626.323 141.101 624.803 139.277 624.803 136.733C624.803 134.205 626.323 132.381 628.979 132.381C631.635 132.381 633.155 134.205 633.155 136.733C633.155 139.277 631.635 141.101 628.979 141.101ZM641.935 132.605V140.877H640.143V139.725H640.111C639.663 140.557 638.671 141.101 637.759 141.101C635.599 141.101 634.671 140.013 634.671 137.853V132.605H636.495V137.677C636.495 139.133 637.087 139.661 638.079 139.661C639.599 139.661 640.111 138.685 640.111 137.405V132.605H641.935ZM643.858 140.877V132.605H645.586V133.821L645.618 133.853C646.162 132.941 647.106 132.381 648.194 132.381C649.986 132.381 651.122 133.341 651.122 135.197V140.877H649.298V135.677C649.266 134.381 648.754 133.821 647.682 133.821C646.466 133.821 645.682 134.781 645.682 135.997V140.877H643.858ZM652.214 133.965V132.605H653.59V130.125H655.414V132.605H657.062V133.965H655.414V138.381C655.414 139.133 655.478 139.517 656.294 139.517C656.55 139.517 656.806 139.517 657.062 139.453V140.861C656.662 140.893 656.278 140.957 655.878 140.957C653.974 140.957 653.622 140.221 653.59 138.845V133.965H652.214Z" fill="#030229"/>
<path d="M692.89 566.014C692.89 603.374 662.604 633.66 625.244 633.66C587.885 633.66 557.599 603.374 557.599 566.014C557.599 528.654 587.885 498.368 625.244 498.368C662.604 498.368 692.89 528.654 692.89 566.014Z" fill="#EEF7E8" stroke="#78BF45" stroke-width="1.19727"/>
<path d="M601.895 531.12H599.895C599.559 529.808 598.711 528.848 597.047 528.848C594.599 528.848 593.575 531.008 593.575 533.2C593.575 535.392 594.599 537.552 597.047 537.552C598.823 537.552 599.799 536.224 599.959 534.56H601.911C601.751 537.296 599.815 539.184 597.047 539.184C593.623 539.184 591.575 536.464 591.575 533.2C591.575 529.936 593.623 527.216 597.047 527.216C599.623 527.232 601.655 528.656 601.895 531.12ZM607.266 537.696C608.898 537.696 609.618 536.208 609.618 534.768C609.618 533.344 608.898 531.856 607.266 531.856C605.634 531.856 604.914 533.344 604.914 534.768C604.914 536.208 605.634 537.696 607.266 537.696ZM607.266 539.136C604.61 539.136 603.09 537.312 603.09 534.768C603.09 532.24 604.61 530.416 607.266 530.416C609.922 530.416 611.442 532.24 611.442 534.768C611.442 537.312 609.922 539.136 607.266 539.136ZM612.959 538.912V530.64H614.687V531.856L614.719 531.888C615.263 530.976 616.207 530.416 617.295 530.416C619.087 530.416 620.223 531.376 620.223 533.232V538.912H618.399V533.712C618.367 532.416 617.855 531.856 616.783 531.856C615.567 531.856 614.783 532.816 614.783 534.032V538.912H612.959ZM621.314 532V530.64H622.69V528.16H624.514V530.64H626.162V532H624.514V536.416C624.514 537.168 624.578 537.552 625.394 537.552C625.65 537.552 625.906 537.552 626.162 537.488V538.896C625.762 538.928 625.378 538.992 624.978 538.992C623.074 538.992 622.722 538.256 622.69 536.88V532H621.314ZM627.474 538.912V530.64H629.186V532.24H629.218C629.426 531.36 630.514 530.416 631.634 530.416C632.05 530.416 632.162 530.448 632.322 530.464V532.224C632.066 532.192 631.794 532.144 631.538 532.144C630.29 532.144 629.298 533.152 629.298 534.976V538.912H627.474ZM638.203 536.128V534.768C637.643 535.136 636.763 535.12 635.963 535.264C635.179 535.392 634.475 535.68 634.475 536.64C634.475 537.456 635.515 537.696 636.155 537.696C636.955 537.696 638.203 537.28 638.203 536.128ZM640.027 532.816V537.072C640.027 537.52 640.123 537.696 640.459 537.696C640.571 537.696 640.715 537.696 640.907 537.664V538.928C640.635 539.024 640.059 539.136 639.755 539.136C639.019 539.136 638.491 538.88 638.347 538.128C637.627 538.832 636.459 539.136 635.483 539.136C633.995 539.136 632.651 538.336 632.651 536.72C632.651 534.656 634.299 534.32 635.835 534.144C637.147 533.904 638.315 534.048 638.315 532.976C638.315 532.032 637.339 531.856 636.603 531.856C635.579 531.856 634.859 532.272 634.779 533.168H632.955C633.083 531.04 634.891 530.416 636.715 530.416C638.331 530.416 640.027 531.072 640.027 532.816ZM641.542 536.256H643.366C643.462 537.312 644.262 537.696 645.238 537.696C645.926 537.696 647.126 537.552 647.078 536.608C647.03 535.648 645.702 535.536 644.374 535.232C643.03 534.944 641.718 534.464 641.718 532.784C641.718 530.976 643.67 530.416 645.174 530.416C646.87 530.416 648.406 531.12 648.63 532.96H646.726C646.566 532.096 645.846 531.856 645.046 531.856C644.518 531.856 643.542 531.984 643.542 532.704C643.542 533.6 644.886 533.728 646.23 534.032C647.558 534.336 648.902 534.816 648.902 536.448C648.902 538.416 646.918 539.136 645.206 539.136C643.126 539.136 641.574 538.208 641.542 536.256ZM649.455 532V530.64H650.831V528.16H652.655V530.64H654.303V532H652.655V536.416C652.655 537.168 652.719 537.552 653.535 537.552C653.791 537.552 654.047 537.552 654.303 537.488V538.896C653.903 538.928 653.519 538.992 653.119 538.992C651.215 538.992 650.863 538.256 650.831 536.88V532H649.455ZM597.583 555.12H595.583C595.247 553.808 594.399 552.848 592.735 552.848C590.287 552.848 589.263 555.008 589.263 557.2C589.263 559.392 590.287 561.552 592.735 561.552C594.511 561.552 595.487 560.224 595.647 558.56H597.599C597.439 561.296 595.503 563.184 592.735 563.184C589.311 563.184 587.263 560.464 587.263 557.2C587.263 553.936 589.311 551.216 592.735 551.216C595.311 551.232 597.343 552.656 597.583 555.12ZM602.954 561.696C604.586 561.696 605.306 560.208 605.306 558.768C605.306 557.344 604.586 555.856 602.954 555.856C601.322 555.856 600.602 557.344 600.602 558.768C600.602 560.208 601.322 561.696 602.954 561.696ZM602.954 563.136C600.298 563.136 598.778 561.312 598.778 558.768C598.778 556.24 600.298 554.416 602.954 554.416C605.61 554.416 607.13 556.24 607.13 558.768C607.13 561.312 605.61 563.136 602.954 563.136ZM608.646 562.912V554.64H610.374V555.856L610.406 555.888C610.95 554.976 611.894 554.416 612.982 554.416C614.774 554.416 615.91 555.376 615.91 557.232V562.912H614.086V557.712C614.054 556.416 613.542 555.856 612.47 555.856C611.254 555.856 610.47 556.816 610.47 558.032V562.912H608.646ZM617.018 556V554.64H618.378V553.952C618.378 551.84 619.482 551.488 620.666 551.488C621.242 551.488 621.658 551.52 621.946 551.6V553.024C621.706 552.96 621.466 552.928 621.098 552.928C620.602 552.928 620.202 553.104 620.202 553.792V554.64H621.754V556H620.202V562.912H618.378V556H617.018ZM622.928 562.912V554.64H624.752V562.912H622.928ZM622.928 553.216V551.488H624.752V553.216H622.928ZM628.164 558.864C628.164 560.288 628.868 561.696 630.452 561.696C632.084 561.696 632.772 560.208 632.772 558.768C632.772 556.944 631.892 555.856 630.484 555.856C628.772 555.856 628.164 557.376 628.164 558.864ZM634.532 551.488V562.912H632.804V561.792H632.772C632.292 562.736 631.252 563.136 630.212 563.136C627.604 563.136 626.34 561.2 626.34 558.72C626.34 555.728 628.116 554.416 629.924 554.416C630.964 554.416 632.116 554.8 632.676 555.712H632.708V551.488H634.532ZM644.025 559.248H637.945C637.945 560.544 638.649 561.696 640.169 561.696C641.225 561.696 641.865 561.232 642.185 560.32H643.913C643.513 562.128 641.977 563.136 640.169 563.136C637.577 563.136 636.121 561.328 636.121 558.784C636.121 556.432 637.657 554.416 640.121 554.416C642.729 554.416 644.329 556.768 644.025 559.248ZM637.945 558.048H642.201C642.137 556.896 641.353 555.856 640.121 555.856C638.857 555.856 637.993 556.816 637.945 558.048ZM645.412 562.912V554.64H647.14V555.856L647.172 555.888C647.716 554.976 648.66 554.416 649.748 554.416C651.54 554.416 652.676 555.376 652.676 557.232V562.912H650.852V557.712C650.82 556.416 650.308 555.856 649.236 555.856C648.02 555.856 647.236 556.816 647.236 558.032V562.912H645.412ZM653.767 556V554.64H655.143V552.16H656.967V554.64H658.615V556H656.967V560.416C656.967 561.168 657.031 561.552 657.847 561.552C658.103 561.552 658.359 561.552 658.615 561.488V562.896C658.215 562.928 657.831 562.992 657.431 562.992C655.527 562.992 655.175 562.256 655.143 560.88V556H653.767ZM612.513 586.912V578.64H614.241V579.856L614.273 579.888C614.817 578.976 615.761 578.416 616.849 578.416C618.641 578.416 619.777 579.376 619.777 581.232V586.912H617.953V581.712C617.921 580.416 617.409 579.856 616.337 579.856C615.121 579.856 614.337 580.816 614.337 582.032V586.912H612.513ZM629.205 583.248H623.125C623.125 584.544 623.829 585.696 625.349 585.696C626.405 585.696 627.045 585.232 627.365 584.32H629.093C628.693 586.128 627.157 587.136 625.349 587.136C622.757 587.136 621.301 585.328 621.301 582.784C621.301 580.432 622.837 578.416 625.301 578.416C627.909 578.416 629.509 580.768 629.205 583.248ZM623.125 582.048H627.381C627.317 580.896 626.533 579.856 625.301 579.856C624.037 579.856 623.173 580.816 623.125 582.048ZM637.999 581.408H636.175C636.031 580.4 635.295 579.856 634.287 579.856C633.343 579.856 632.015 580.352 632.015 582.864C632.015 584.24 632.623 585.696 634.207 585.696C635.263 585.696 635.999 584.992 636.175 583.808H637.999C637.663 585.952 636.335 587.136 634.207 587.136C631.615 587.136 630.191 585.296 630.191 582.864C630.191 580.368 631.551 578.416 634.271 578.416C636.191 578.416 637.823 579.376 637.999 581.408Z" fill="#030229"/>
<path d="M692.89 353.014C692.89 390.374 662.604 420.66 625.244 420.66C587.885 420.66 557.599 390.374 557.599 353.014C557.599 315.654 587.885 285.368 625.244 285.368C662.604 285.368 692.89 315.654 692.89 353.014Z" fill="#EEF7E8" stroke="#78BF45" stroke-width="1.19727"/>
<path d="M604.985 340.279V328.855H607.801L610.953 337.799H610.985L614.057 328.855H616.841V340.279H614.937V331.463H614.905L611.737 340.279H610.089L606.921 331.463H606.889V340.279H604.985ZM622.772 339.063C624.404 339.063 625.124 337.575 625.124 336.135C625.124 334.711 624.404 333.223 622.772 333.223C621.14 333.223 620.42 334.711 620.42 336.135C620.42 337.575 621.14 339.063 622.772 339.063ZM622.772 340.503C620.116 340.503 618.596 338.679 618.596 336.135C618.596 333.607 620.116 331.783 622.772 331.783C625.428 331.783 626.948 333.607 626.948 336.135C626.948 338.679 625.428 340.503 622.772 340.503ZM628.464 340.279V332.007H630.176V333.607H630.208C630.416 332.727 631.504 331.783 632.624 331.783C633.04 331.783 633.152 331.815 633.312 331.831V333.591C633.056 333.559 632.784 333.511 632.528 333.511C631.28 333.511 630.288 334.519 630.288 336.343V340.279H628.464ZM641.312 336.615H635.232C635.232 337.911 635.936 339.063 637.456 339.063C638.512 339.063 639.152 338.599 639.472 337.687H641.2C640.8 339.495 639.264 340.503 637.456 340.503C634.864 340.503 633.408 338.695 633.408 336.151C633.408 333.799 634.944 331.783 637.408 331.783C640.016 331.783 641.616 334.135 641.312 336.615ZM635.232 335.415H639.488C639.424 334.263 638.64 333.223 637.408 333.223C636.144 333.223 635.28 334.183 635.232 335.415ZM616.162 360.167V352.855H618.162V359.511C618.162 361.047 618.258 362.823 620.85 362.823C623.442 362.823 623.538 361.047 623.538 359.511V352.855H625.538V360.167C625.538 363.095 623.666 364.551 620.85 364.551C618.034 364.551 616.162 363.095 616.162 360.167ZM627.133 361.623H628.957C629.053 362.679 629.853 363.063 630.829 363.063C631.517 363.063 632.717 362.919 632.669 361.975C632.621 361.015 631.293 360.903 629.965 360.599C628.621 360.311 627.309 359.831 627.309 358.151C627.309 356.343 629.261 355.783 630.765 355.783C632.461 355.783 633.997 356.487 634.221 358.327H632.317C632.157 357.463 631.437 357.223 630.637 357.223C630.109 357.223 629.133 357.351 629.133 358.071C629.133 358.967 630.477 359.095 631.821 359.399C633.149 359.703 634.493 360.183 634.493 361.815C634.493 363.783 632.509 364.503 630.797 364.503C628.717 364.503 627.165 363.575 627.133 361.623Z" fill="#030229"/>
<path d="M396.89 442.014C396.89 479.374 366.604 509.66 329.244 509.66C291.885 509.66 261.599 479.374 261.599 442.014C261.599 404.654 291.885 374.368 329.244 374.368C366.604 374.368 396.89 404.654 396.89 442.014Z" fill="#EEF7E8" stroke="#78BF45" stroke-width="1.19727"/>
<path d="M287.24 443.646V432.222H289.24V443.646H287.24ZM291.437 443.646V435.374H293.165V436.59L293.197 436.622C293.741 435.71 294.685 435.15 295.773 435.15C297.565 435.15 298.701 436.11 298.701 437.966V443.646H296.877V438.446C296.845 437.15 296.333 436.59 295.261 436.59C294.045 436.59 293.261 437.55 293.261 438.766V443.646H291.437ZM299.792 436.734V435.374H301.168V432.894H302.992V435.374H304.64V436.734H302.992V441.15C302.992 441.902 303.056 442.286 303.872 442.286C304.128 442.286 304.384 442.286 304.64 442.222V443.63C304.24 443.662 303.856 443.726 303.456 443.726C301.552 443.726 301.2 442.99 301.168 441.614V436.734H299.792ZM313.456 439.982H307.376C307.376 441.278 308.08 442.43 309.6 442.43C310.656 442.43 311.296 441.966 311.616 441.054H313.344C312.944 442.862 311.408 443.87 309.6 443.87C307.008 443.87 305.552 442.062 305.552 439.518C305.552 437.166 307.088 435.15 309.552 435.15C312.16 435.15 313.76 437.502 313.456 439.982ZM307.376 438.782H311.632C311.568 437.63 310.784 436.59 309.552 436.59C308.288 436.59 307.424 437.55 307.376 438.782ZM314.843 443.646V435.374H316.555V436.974H316.587C316.795 436.094 317.883 435.15 319.003 435.15C319.419 435.15 319.531 435.182 319.691 435.198V436.958C319.435 436.926 319.163 436.878 318.907 436.878C317.659 436.878 316.667 437.886 316.667 439.71V443.646H314.843ZM325.572 440.862V439.502C325.012 439.87 324.132 439.854 323.332 439.998C322.548 440.126 321.844 440.414 321.844 441.374C321.844 442.19 322.884 442.43 323.524 442.43C324.324 442.43 325.572 442.014 325.572 440.862ZM327.396 437.55V441.806C327.396 442.254 327.492 442.43 327.828 442.43C327.94 442.43 328.084 442.43 328.276 442.398V443.662C328.004 443.758 327.428 443.87 327.124 443.87C326.388 443.87 325.86 443.614 325.716 442.862C324.996 443.566 323.828 443.87 322.852 443.87C321.364 443.87 320.02 443.07 320.02 441.454C320.02 439.39 321.668 439.054 323.204 438.878C324.516 438.638 325.684 438.782 325.684 437.71C325.684 436.766 324.708 436.59 323.972 436.59C322.948 436.59 322.228 437.006 322.148 437.902H320.324C320.452 435.774 322.26 435.15 324.084 435.15C325.7 435.15 327.396 435.806 327.396 437.55ZM336.767 438.142H334.943C334.799 437.134 334.063 436.59 333.055 436.59C332.111 436.59 330.783 437.086 330.783 439.598C330.783 440.974 331.391 442.43 332.975 442.43C334.031 442.43 334.767 441.726 334.943 440.542H336.767C336.431 442.686 335.103 443.87 332.975 443.87C330.383 443.87 328.959 442.03 328.959 439.598C328.959 437.102 330.319 435.15 333.039 435.15C334.959 435.15 336.591 436.11 336.767 438.142ZM337.417 436.734V435.374H338.793V432.894H340.617V435.374H342.265V436.734H340.617V441.15C340.617 441.902 340.681 442.286 341.497 442.286C341.753 442.286 342.009 442.286 342.265 442.222V443.63C341.865 443.662 341.481 443.726 341.081 443.726C339.177 443.726 338.825 442.99 338.793 441.614V436.734H337.417ZM343.625 443.646V435.374H345.449V443.646H343.625ZM343.625 433.95V432.222H345.449V433.95H343.625ZM351.229 442.43C352.861 442.43 353.581 440.942 353.581 439.502C353.581 438.078 352.861 436.59 351.229 436.59C349.597 436.59 348.877 438.078 348.877 439.502C348.877 440.942 349.597 442.43 351.229 442.43ZM351.229 443.87C348.573 443.87 347.053 442.046 347.053 439.502C347.053 436.974 348.573 435.15 351.229 435.15C353.885 435.15 355.405 436.974 355.405 439.502C355.405 442.046 353.885 443.87 351.229 443.87ZM356.921 443.646V435.374H358.649V436.59L358.681 436.622C359.225 435.71 360.169 435.15 361.257 435.15C363.049 435.15 364.185 436.11 364.185 437.966V443.646H362.361V438.446C362.329 437.15 361.817 436.59 360.745 436.59C359.529 436.59 358.745 437.55 358.745 438.766V443.646H356.921ZM365.661 440.99H367.485C367.581 442.046 368.381 442.43 369.357 442.43C370.045 442.43 371.245 442.286 371.197 441.342C371.149 440.382 369.821 440.27 368.493 439.966C367.149 439.678 365.837 439.198 365.837 437.518C365.837 435.71 367.789 435.15 369.293 435.15C370.989 435.15 372.525 435.854 372.749 437.694H370.845C370.685 436.83 369.965 436.59 369.165 436.59C368.637 436.59 367.661 436.718 367.661 437.438C367.661 438.334 369.005 438.462 370.349 438.766C371.677 439.07 373.021 439.55 373.021 441.182C373.021 443.15 371.037 443.87 369.325 443.87C367.245 443.87 365.693 442.942 365.661 440.99Z" fill="#030229"/>
<path d="M401.489 440.514C400.66 440.514 399.989 441.185 399.989 442.014C399.989 442.842 400.66 443.514 401.489 443.514V440.514ZM558.061 540.298C558.647 539.712 558.647 538.762 558.061 538.177L548.515 528.631C547.929 528.045 546.979 528.045 546.394 528.631C545.808 529.217 545.808 530.166 546.394 530.752L554.879 539.237L546.394 547.723C545.808 548.308 545.808 549.258 546.394 549.844C546.979 550.43 547.929 550.43 548.515 549.844L558.061 540.298ZM401.489 443.514H453.245V440.514H401.489V443.514ZM475.745 466.014V515.237H478.745V466.014H475.745ZM501.245 540.737H557V537.737H501.245V540.737ZM475.745 515.237C475.745 529.321 487.161 540.737 501.245 540.737V537.737C488.818 537.737 478.745 527.664 478.745 515.237H475.745ZM453.245 443.514C465.671 443.514 475.745 453.587 475.745 466.014H478.745C478.745 451.93 467.328 440.514 453.245 440.514V443.514Z" fill="#AAACAE"/>
<path d="M401.489 440.514C400.66 440.514 399.989 441.185 399.989 442.014C399.989 442.842 400.66 443.514 401.489 443.514V440.514ZM822.061 362.074C822.647 361.489 822.647 360.539 822.061 359.953L812.515 350.407C811.929 349.821 810.979 349.821 810.393 350.407C809.808 350.993 809.808 351.943 810.393 352.528L818.879 361.014L810.393 369.499C809.808 370.085 809.808 371.034 810.393 371.62C810.979 372.206 811.929 372.206 812.515 371.62L822.061 362.074ZM401.489 443.514H684V440.514H401.489V443.514ZM709.5 418.014V385.014H706.5V418.014H709.5ZM732 362.514H821V359.514H732V362.514ZM709.5 385.014C709.5 372.587 719.574 362.514 732 362.514V359.514C717.917 359.514 706.5 370.93 706.5 385.014H709.5ZM684 443.514C698.083 443.514 709.5 432.097 709.5 418.014H706.5C706.5 430.44 696.427 440.514 684 440.514V443.514Z" fill="#AAACAE"/>
<path d="M396.89 623.014C396.89 660.374 366.604 690.66 329.244 690.66C291.885 690.66 261.599 660.374 261.599 623.014C261.599 585.654 291.885 555.368 329.244 555.368C366.604 555.368 396.89 585.654 396.89 623.014Z" fill="#F7EDE8" stroke="#EB7B44" stroke-width="1.19727"/>
<path d="M301.895 601.978H299.895C299.559 600.666 298.711 599.706 297.047 599.706C294.599 599.706 293.575 601.866 293.575 604.058C293.575 606.25 294.599 608.41 297.047 608.41C298.823 608.41 299.799 607.082 299.959 605.418H301.911C301.751 608.154 299.815 610.042 297.047 610.042C293.623 610.042 291.575 607.322 291.575 604.058C291.575 600.794 293.623 598.074 297.047 598.074C299.623 598.09 301.655 599.514 301.895 601.978ZM307.266 608.554C308.898 608.554 309.618 607.066 309.618 605.626C309.618 604.202 308.898 602.714 307.266 602.714C305.634 602.714 304.914 604.202 304.914 605.626C304.914 607.066 305.634 608.554 307.266 608.554ZM307.266 609.994C304.61 609.994 303.09 608.17 303.09 605.626C303.09 603.098 304.61 601.274 307.266 601.274C309.922 601.274 311.442 603.098 311.442 605.626C311.442 608.17 309.922 609.994 307.266 609.994ZM312.959 609.77V601.498H314.687V602.714L314.719 602.746C315.263 601.834 316.207 601.274 317.295 601.274C319.087 601.274 320.223 602.234 320.223 604.09V609.77H318.399V604.57C318.367 603.274 317.855 602.714 316.783 602.714C315.567 602.714 314.783 603.674 314.783 604.89V609.77H312.959ZM321.698 607.114H323.522C323.618 608.17 324.418 608.554 325.394 608.554C326.082 608.554 327.282 608.41 327.234 607.466C327.186 606.506 325.858 606.394 324.53 606.09C323.186 605.802 321.874 605.322 321.874 603.642C321.874 601.834 323.826 601.274 325.33 601.274C327.026 601.274 328.562 601.978 328.786 603.818H326.882C326.722 602.954 326.002 602.714 325.202 602.714C324.674 602.714 323.698 602.842 323.698 603.562C323.698 604.458 325.042 604.586 326.386 604.89C327.714 605.194 329.058 605.674 329.058 607.306C329.058 609.274 327.074 609.994 325.362 609.994C323.282 609.994 321.73 609.066 321.698 607.114ZM337.707 601.498V609.77H335.915V608.618H335.883C335.435 609.45 334.443 609.994 333.531 609.994C331.371 609.994 330.443 608.906 330.443 606.746V601.498H332.267V606.57C332.267 608.026 332.859 608.554 333.851 608.554C335.371 608.554 335.883 607.578 335.883 606.298V601.498H337.707ZM339.63 609.77V601.498H341.358V602.65H341.406C341.95 601.834 342.638 601.274 343.95 601.274C344.958 601.274 345.902 601.706 346.27 602.65C346.878 601.802 347.662 601.274 348.862 601.274C350.606 601.274 351.63 602.042 351.63 604.058V609.77H349.806V604.938C349.806 603.626 349.726 602.714 348.302 602.714C347.07 602.714 346.542 603.53 346.542 604.922V609.77H344.718V604.458C344.718 603.322 344.366 602.714 343.262 602.714C342.318 602.714 341.454 603.482 341.454 604.858V609.77H339.63ZM361.056 606.106H354.976C354.976 607.402 355.68 608.554 357.2 608.554C358.256 608.554 358.896 608.09 359.216 607.178H360.944C360.544 608.986 359.008 609.994 357.2 609.994C354.608 609.994 353.152 608.186 353.152 605.642C353.152 603.29 354.688 601.274 357.152 601.274C359.76 601.274 361.36 603.626 361.056 606.106ZM354.976 604.906H359.232C359.168 603.754 358.384 602.714 357.152 602.714C355.888 602.714 355.024 603.674 354.976 604.906ZM362.443 609.77V601.498H364.155V603.098H364.187C364.395 602.218 365.483 601.274 366.603 601.274C367.019 601.274 367.131 601.306 367.291 601.322V603.082C367.035 603.05 366.763 603.002 366.507 603.002C365.259 603.002 364.267 604.01 364.267 605.834V609.77H362.443ZM297.583 625.978H295.583C295.247 624.666 294.399 623.706 292.735 623.706C290.287 623.706 289.263 625.866 289.263 628.058C289.263 630.25 290.287 632.41 292.735 632.41C294.511 632.41 295.487 631.082 295.647 629.418H297.599C297.439 632.154 295.503 634.042 292.735 634.042C289.311 634.042 287.263 631.322 287.263 628.058C287.263 624.794 289.311 622.074 292.735 622.074C295.311 622.09 297.343 623.514 297.583 625.978ZM302.954 632.554C304.586 632.554 305.306 631.066 305.306 629.626C305.306 628.202 304.586 626.714 302.954 626.714C301.322 626.714 300.602 628.202 300.602 629.626C300.602 631.066 301.322 632.554 302.954 632.554ZM302.954 633.994C300.298 633.994 298.778 632.17 298.778 629.626C298.778 627.098 300.298 625.274 302.954 625.274C305.61 625.274 307.13 627.098 307.13 629.626C307.13 632.17 305.61 633.994 302.954 633.994ZM308.646 633.77V625.498H310.374V626.714L310.406 626.746C310.95 625.834 311.894 625.274 312.982 625.274C314.774 625.274 315.91 626.234 315.91 628.09V633.77H314.086V628.57C314.054 627.274 313.542 626.714 312.47 626.714C311.254 626.714 310.47 627.674 310.47 628.89V633.77H308.646ZM317.018 626.858V625.498H318.378V624.81C318.378 622.698 319.482 622.346 320.666 622.346C321.242 622.346 321.658 622.378 321.946 622.458V623.882C321.706 623.818 321.466 623.786 321.098 623.786C320.602 623.786 320.202 623.962 320.202 624.65V625.498H321.754V626.858H320.202V633.77H318.378V626.858H317.018ZM322.928 633.77V625.498H324.752V633.77H322.928ZM322.928 624.074V622.346H324.752V624.074H322.928ZM328.164 629.722C328.164 631.146 328.868 632.554 330.452 632.554C332.084 632.554 332.772 631.066 332.772 629.626C332.772 627.802 331.892 626.714 330.484 626.714C328.772 626.714 328.164 628.234 328.164 629.722ZM334.532 622.346V633.77H332.804V632.65H332.772C332.292 633.594 331.252 633.994 330.212 633.994C327.604 633.994 326.34 632.058 326.34 629.578C326.34 626.586 328.116 625.274 329.924 625.274C330.964 625.274 332.116 625.658 332.676 626.57H332.708V622.346H334.532ZM344.025 630.106H337.945C337.945 631.402 338.649 632.554 340.169 632.554C341.225 632.554 341.865 632.09 342.185 631.178H343.913C343.513 632.986 341.977 633.994 340.169 633.994C337.577 633.994 336.121 632.186 336.121 629.642C336.121 627.29 337.657 625.274 340.121 625.274C342.729 625.274 344.329 627.626 344.025 630.106ZM337.945 628.906H342.201C342.137 627.754 341.353 626.714 340.121 626.714C338.857 626.714 337.993 627.674 337.945 628.906ZM345.412 633.77V625.498H347.14V626.714L347.172 626.746C347.716 625.834 348.66 625.274 349.748 625.274C351.54 625.274 352.676 626.234 352.676 628.09V633.77H350.852V628.57C350.82 627.274 350.308 626.714 349.236 626.714C348.02 626.714 347.236 627.674 347.236 628.89V633.77H345.412ZM362.007 628.266H360.183C360.039 627.258 359.303 626.714 358.295 626.714C357.351 626.714 356.023 627.21 356.023 629.722C356.023 631.098 356.631 632.554 358.215 632.554C359.271 632.554 360.007 631.85 360.183 630.666H362.007C361.671 632.81 360.343 633.994 358.215 633.994C355.623 633.994 354.199 632.154 354.199 629.722C354.199 627.226 355.559 625.274 358.279 625.274C360.199 625.274 361.831 626.234 362.007 628.266ZM370.994 630.106H364.914C364.914 631.402 365.618 632.554 367.138 632.554C368.194 632.554 368.834 632.09 369.154 631.178H370.882C370.482 632.986 368.946 633.994 367.138 633.994C364.546 633.994 363.09 632.186 363.09 629.642C363.09 627.29 364.626 625.274 367.09 625.274C369.698 625.274 371.298 627.626 370.994 630.106ZM364.914 628.906H369.17C369.106 627.754 368.322 626.714 367.09 626.714C365.826 626.714 364.962 627.674 364.914 628.906Z" fill="#030229"/>
<path d="M396.89 170.014C396.89 207.374 366.604 237.66 329.244 237.66C291.885 237.66 261.599 207.374 261.599 170.014C261.599 132.654 291.885 102.368 329.244 102.368C366.604 102.368 396.89 132.654 396.89 170.014Z" fill="#F7EDE8" stroke="#EB7B44" stroke-width="1.19727"/>
<path d="M289.653 168.838H291.653C291.653 170.598 292.949 171.286 294.549 171.286C296.309 171.286 296.965 170.422 296.965 169.558C296.965 168.678 296.485 168.326 296.021 168.15C295.221 167.846 294.181 167.638 292.613 167.206C290.661 166.678 290.085 165.494 290.085 164.31C290.085 162.022 292.197 160.95 294.261 160.95C296.645 160.95 298.645 162.214 298.645 164.598H296.645C296.549 163.126 295.557 162.582 294.181 162.582C293.253 162.582 292.085 162.918 292.085 164.07C292.085 164.87 292.629 165.318 293.445 165.542C293.621 165.59 296.149 166.246 296.741 166.422C298.245 166.87 298.965 168.15 298.965 169.334C298.965 171.894 296.693 172.918 294.421 172.918C291.813 172.918 289.701 171.67 289.653 168.838ZM305.564 169.862V168.502C305.004 168.87 304.124 168.854 303.324 168.998C302.54 169.126 301.836 169.414 301.836 170.374C301.836 171.19 302.876 171.43 303.516 171.43C304.316 171.43 305.564 171.014 305.564 169.862ZM307.388 166.55V170.806C307.388 171.254 307.484 171.43 307.82 171.43C307.932 171.43 308.076 171.43 308.268 171.398V172.662C307.996 172.758 307.42 172.87 307.116 172.87C306.38 172.87 305.852 172.614 305.708 171.862C304.988 172.566 303.82 172.87 302.844 172.87C301.356 172.87 300.012 172.07 300.012 170.454C300.012 168.39 301.66 168.054 303.196 167.878C304.508 167.638 305.676 167.782 305.676 166.71C305.676 165.766 304.7 165.59 303.964 165.59C302.94 165.59 302.22 166.006 302.14 166.902H300.316C300.444 164.774 302.252 164.15 304.076 164.15C305.692 164.15 307.388 164.806 307.388 166.55ZM309.399 172.646V161.222H311.223V172.646H309.399ZM320.714 168.982H314.634C314.634 170.278 315.338 171.43 316.858 171.43C317.914 171.43 318.554 170.966 318.874 170.054H320.602C320.202 171.862 318.666 172.87 316.858 172.87C314.266 172.87 312.81 171.062 312.81 168.518C312.81 166.166 314.346 164.15 316.81 164.15C319.418 164.15 321.018 166.502 320.714 168.982ZM314.634 167.782H318.89C318.826 166.63 318.042 165.59 316.81 165.59C315.546 165.59 314.682 166.55 314.634 167.782ZM321.653 169.99H323.477C323.573 171.046 324.373 171.43 325.349 171.43C326.037 171.43 327.237 171.286 327.189 170.342C327.141 169.382 325.813 169.27 324.485 168.966C323.141 168.678 321.829 168.198 321.829 166.518C321.829 164.71 323.781 164.15 325.285 164.15C326.981 164.15 328.517 164.854 328.741 166.694H326.837C326.677 165.83 325.957 165.59 325.157 165.59C324.629 165.59 323.653 165.718 323.653 166.438C323.653 167.334 324.997 167.462 326.341 167.766C327.669 168.07 329.013 168.55 329.013 170.182C329.013 172.15 327.029 172.87 325.317 172.87C323.237 172.87 321.685 171.942 321.653 169.99ZM344.819 164.854H342.819C342.483 163.542 341.635 162.582 339.971 162.582C337.523 162.582 336.499 164.742 336.499 166.934C336.499 169.126 337.523 171.286 339.971 171.286C341.747 171.286 342.723 169.958 342.883 168.294H344.835C344.675 171.03 342.739 172.918 339.971 172.918C336.547 172.918 334.499 170.198 334.499 166.934C334.499 163.67 336.547 160.95 339.971 160.95C342.547 160.966 344.579 162.39 344.819 164.854ZM351.502 169.862V168.502C350.942 168.87 350.062 168.854 349.262 168.998C348.478 169.126 347.774 169.414 347.774 170.374C347.774 171.19 348.814 171.43 349.454 171.43C350.254 171.43 351.502 171.014 351.502 169.862ZM353.326 166.55V170.806C353.326 171.254 353.422 171.43 353.758 171.43C353.87 171.43 354.014 171.43 354.206 171.398V172.662C353.934 172.758 353.358 172.87 353.054 172.87C352.318 172.87 351.79 172.614 351.646 171.862C350.926 172.566 349.758 172.87 348.782 172.87C347.294 172.87 345.95 172.07 345.95 170.454C345.95 168.39 347.598 168.054 349.134 167.878C350.446 167.638 351.614 167.782 351.614 166.71C351.614 165.766 350.638 165.59 349.902 165.59C348.878 165.59 348.158 166.006 348.078 166.902H346.254C346.382 164.774 348.19 164.15 350.014 164.15C351.63 164.15 353.326 164.806 353.326 166.55ZM355.336 172.646V161.222H357.16V172.646H355.336ZM359.196 172.646V161.222H361.02V172.646H359.196ZM362.559 169.99H364.383C364.479 171.046 365.279 171.43 366.255 171.43C366.943 171.43 368.143 171.286 368.095 170.342C368.047 169.382 366.719 169.27 365.391 168.966C364.047 168.678 362.735 168.198 362.735 166.518C362.735 164.71 364.687 164.15 366.191 164.15C367.887 164.15 369.423 164.854 369.647 166.694H367.743C367.583 165.83 366.863 165.59 366.063 165.59C365.535 165.59 364.559 165.718 364.559 166.438C364.559 167.334 365.903 167.462 367.247 167.766C368.575 168.07 369.919 168.55 369.919 170.182C369.919 172.15 367.935 172.87 366.223 172.87C364.143 172.87 362.591 171.942 362.559 169.99Z" fill="#030229"/>
<path d="M167.89 393.014C167.89 430.374 137.604 460.66 100.244 460.66C62.8847 460.66 32.5986 430.374 32.5986 393.014C32.5986 355.654 62.8847 325.368 100.244 325.368C137.604 325.368 167.89 355.654 167.89 393.014Z" fill="#EEF7E8" stroke="#78BF45" stroke-width="1.19727"/>
<path d="M70.138 394.646V383.222H72.138V394.646H70.138ZM73.8871 391.99H75.7111C75.8071 393.046 76.6071 393.43 77.5831 393.43C78.2711 393.43 79.4711 393.286 79.4231 392.342C79.3751 391.382 78.0471 391.27 76.7191 390.966C75.3751 390.678 74.0631 390.198 74.0631 388.518C74.0631 386.71 76.0151 386.15 77.5191 386.15C79.2151 386.15 80.7511 386.854 80.9751 388.694H79.0711C78.9111 387.83 78.1911 387.59 77.3911 387.59C76.8631 387.59 75.8871 387.718 75.8871 388.438C75.8871 389.334 77.2311 389.462 78.5751 389.766C79.9031 390.07 81.2471 390.55 81.2471 392.182C81.2471 394.15 79.2631 394.87 77.5511 394.87C75.4711 394.87 73.9191 393.942 73.8871 391.99ZM86.6531 390.838H88.6531C88.6531 392.598 89.9491 393.286 91.5491 393.286C93.3091 393.286 93.9651 392.422 93.9651 391.558C93.9651 390.678 93.4851 390.326 93.0211 390.15C92.2211 389.846 91.1811 389.638 89.6131 389.206C87.6611 388.678 87.0851 387.494 87.0851 386.31C87.0851 384.022 89.1971 382.95 91.2611 382.95C93.6451 382.95 95.6451 384.214 95.6451 386.598H93.6451C93.5491 385.126 92.5571 384.582 91.1811 384.582C90.2531 384.582 89.0851 384.918 89.0851 386.07C89.0851 386.87 89.6291 387.318 90.4451 387.542C90.6211 387.59 93.1491 388.246 93.7411 388.422C95.2451 388.87 95.9651 390.15 95.9651 391.334C95.9651 393.894 93.6931 394.918 91.4211 394.918C88.8131 394.918 86.7011 393.67 86.6531 390.838ZM104.964 390.982H98.8841C98.8841 392.278 99.5881 393.43 101.108 393.43C102.164 393.43 102.804 392.966 103.124 392.054H104.852C104.452 393.862 102.916 394.87 101.108 394.87C98.5161 394.87 97.0601 393.062 97.0601 390.518C97.0601 388.166 98.5961 386.15 101.06 386.15C103.668 386.15 105.268 388.502 104.964 390.982ZM98.8841 389.782H103.14C103.076 388.63 102.292 387.59 101.06 387.59C99.7961 387.59 98.9321 388.55 98.8841 389.782ZM106.351 394.646V386.374H108.079V387.59L108.111 387.622C108.655 386.71 109.599 386.15 110.687 386.15C112.479 386.15 113.615 387.11 113.615 388.966V394.646H111.791V389.446C111.759 388.15 111.247 387.59 110.175 387.59C108.959 387.59 108.175 388.55 108.175 389.766V394.646H106.351ZM115.586 394.646V386.374H117.41V394.646H115.586ZM115.586 384.95V383.222H117.41V384.95H115.586ZM123.19 393.43C124.822 393.43 125.542 391.942 125.542 390.502C125.542 389.078 124.822 387.59 123.19 387.59C121.558 387.59 120.838 389.078 120.838 390.502C120.838 391.942 121.558 393.43 123.19 393.43ZM123.19 394.87C120.534 394.87 119.014 393.046 119.014 390.502C119.014 387.974 120.534 386.15 123.19 386.15C125.846 386.15 127.366 387.974 127.366 390.502C127.366 393.046 125.846 394.87 123.19 394.87ZM128.882 394.646V386.374H130.594V387.974H130.626C130.834 387.094 131.922 386.15 133.042 386.15C133.458 386.15 133.57 386.182 133.73 386.198V387.958C133.474 387.926 133.202 387.878 132.946 387.878C131.698 387.878 130.706 388.886 130.706 390.71V394.646H128.882Z" fill="#030229"/>
<path d="M172.489 391.514C171.66 391.514 170.989 392.185 170.989 393.014C170.989 393.842 171.66 394.514 172.489 394.514V391.514ZM258.061 443.074C258.647 442.489 258.647 441.539 258.061 440.953L248.515 431.407C247.929 430.821 246.979 430.821 246.393 431.407C245.808 431.993 245.808 432.943 246.393 433.528L254.879 442.014L246.393 450.499C245.808 451.085 245.808 452.034 246.393 452.62C246.979 453.206 247.929 453.206 248.515 452.62L258.061 443.074ZM172.489 394.514H192.489V391.514H172.489V394.514ZM214.989 417.014V418.014H217.989V417.014H214.989ZM240.489 443.514H257V440.514H240.489V443.514ZM214.989 418.014C214.989 432.097 226.406 443.514 240.489 443.514V440.514C228.062 440.514 217.989 430.44 217.989 418.014H214.989ZM192.489 394.514C204.915 394.514 214.989 404.587 214.989 417.014H217.989C217.989 402.93 206.572 391.514 192.489 391.514V394.514Z" fill="#AAACAE"/>
<path d="M172.489 391.514C171.66 391.514 170.989 392.185 170.989 393.014C170.989 393.842 171.66 394.514 172.489 394.514V391.514ZM822.06 362.075C822.646 361.489 822.646 360.539 822.06 359.953L812.515 350.407C811.929 349.822 810.979 349.822 810.393 350.407C809.807 350.993 809.807 351.943 810.393 352.529L818.878 361.014L810.393 369.499C809.807 370.085 809.807 371.035 810.393 371.621C810.979 372.206 811.929 372.206 812.515 371.621L822.06 362.075ZM172.489 394.514H192.489V391.514H172.489V394.514ZM217.989 369.014V285.77H214.989V369.014H217.989ZM240.489 263.27H753V260.27H240.489V263.27ZM775.5 285.77V337.014H778.5V285.77H775.5ZM801 362.514H821V359.514H801V362.514ZM775.5 337.014C775.5 351.097 786.917 362.514 801 362.514V359.514C788.574 359.514 778.5 349.44 778.5 337.014H775.5ZM753 263.27C765.426 263.27 775.5 273.343 775.5 285.77H778.5C778.5 271.686 767.083 260.27 753 260.27V263.27ZM217.989 285.77C217.989 273.343 228.062 263.27 240.489 263.27V260.27C226.405 260.27 214.989 271.686 214.989 285.77H217.989ZM192.489 394.514C206.572 394.514 217.989 383.097 217.989 369.014H214.989C214.989 381.44 204.915 391.514 192.489 391.514V394.514Z" fill="#AAACAE"/>
</svg>
