<svg width="48" height="48" viewBox="0 0 48 48" fill="none" xmlns="http://www.w3.org/2000/svg">
<g clip-path="url(#clip0_2001_1100)">
<path d="M38.0689 18.2069L36.4137 14.069L38.0689 9.93103C40.3542 9.93103 42.2068 11.7836 42.2068 14.069C42.2068 15.1664 41.7708 16.2189 40.9948 16.9949C40.2188 17.7709 39.1663 18.2069 38.0689 18.2069Z" fill="#78BF45"/>
<path d="M9.93102 18.2069L11.5862 14.069L9.93102 9.93103C7.64571 9.93103 5.79309 11.7836 5.79309 14.069C5.79309 16.3543 7.64571 18.2069 9.93102 18.2069Z" fill="#78BF45"/>
<path d="M28.4854 42.1324L27.9558 44.7559C27.5798 46.6426 25.9237 48.0012 23.9999 48.0012C22.0761 48.0012 20.4201 46.6426 20.0441 44.7559L19.5144 42.1324H28.4854Z" fill="#003F59"/>
<path d="M9.93095 32.9471V41.3794C8.9751 40.5722 7.57646 40.5722 6.62061 41.3794V32.0856C7.01264 32.6095 7.62176 32.9265 8.27578 32.9471H9.93095Z" fill="#003F59"/>
<path d="M41.3793 32.0856V41.3794C40.4235 40.5722 39.0248 40.5722 38.069 41.3794V32.9471H39.7241C40.3782 32.9265 40.9873 32.6095 41.3793 32.0856Z" fill="#003F59"/>
<path d="M19.8621 0H28.1379C33.6227 0 38.069 4.44628 38.069 9.93103V19.8621C38.069 22.6044 35.8458 24.8276 33.1034 24.8276H14.8965C12.1542 24.8276 9.93103 22.6044 9.93103 19.8621V9.93103C9.93103 4.44628 14.3773 0 19.8621 0Z" fill="#78BF45"/>
<path d="M28.9655 7.44824H19.0344C15.835 7.44824 13.2413 10.0419 13.2413 13.2413V14.8965C13.2413 18.096 15.835 20.6896 19.0344 20.6896H28.9655C32.1649 20.6896 34.7586 18.096 34.7586 14.8965V13.2413C34.7586 10.0419 32.1649 7.44824 28.9655 7.44824Z" fill="#003F59"/>
<path d="M21.5172 15.7241C21.0602 15.7241 20.6896 15.3536 20.6896 14.8965C20.6896 13.9824 19.9486 13.2414 19.0345 13.2414C18.1203 13.2414 17.3793 13.9824 17.3793 14.8965C17.3793 15.3536 17.0088 15.7241 16.5517 15.7241C16.0946 15.7241 15.7241 15.3536 15.7241 14.8965C15.7241 13.0683 17.2062 11.5862 19.0345 11.5862C20.8627 11.5862 22.3448 13.0683 22.3448 14.8965C22.3448 15.3536 21.9743 15.7241 21.5172 15.7241Z" fill="white"/>
<path d="M31.4483 15.7241C30.9912 15.7241 30.6207 15.3536 30.6207 14.8965C30.6207 13.9824 29.8796 13.2414 28.9655 13.2414C28.0514 13.2414 27.3103 13.9824 27.3103 14.8965C27.3103 15.3536 26.9398 15.7241 26.4827 15.7241C26.0257 15.7241 25.6552 15.3536 25.6552 14.8965C25.6552 13.0683 27.1372 11.5862 28.9655 11.5862C30.7937 11.5862 32.2758 13.0683 32.2758 14.8965C32.2758 15.3536 31.9053 15.7241 31.4483 15.7241Z" fill="white"/>
<path d="M15.5834 39.4014C14.1353 37.8763 13.1309 35.9849 12.6786 33.9311C12.502 33.1153 12.4132 32.283 12.4138 31.4483V29.7932C12.4096 28.9203 12.6412 28.0625 13.0841 27.3104C13.9683 25.7738 15.6064 24.8269 17.3793 24.8276H30.6206C32.3935 24.8269 34.0316 25.7738 34.9158 27.3104C35.3587 28.0625 35.5903 28.9203 35.5862 29.7932V31.4483C35.5867 32.283 35.4979 33.1153 35.3213 33.9311C34.869 35.9849 33.8646 37.8763 32.4165 39.4014" fill="#78BF45"/>
<path d="M32.4165 39.4013C30.2324 41.7222 27.1869 43.0382 23.9999 43.0382C20.813 43.0382 17.7674 41.7222 15.5834 39.4013C18.2875 38.4607 21.1375 38.0095 23.9999 38.0689C26.8623 38.0095 29.7124 38.4607 32.4165 39.4013Z" fill="#78BF45"/>
<path d="M22.8413 33.4048L21.0513 31.3656C20.6767 30.9382 20.5871 30.331 20.8223 29.8137C21.0574 29.2963 21.5737 28.9645 22.142 28.9656H25.8579C26.4262 28.9645 26.9425 29.2963 27.1776 29.8137C27.4127 30.331 27.3232 30.9382 26.9486 31.3656L25.1586 33.4048C24.8655 33.7377 24.4435 33.9285 23.9999 33.9285C23.5564 33.9285 23.1343 33.7377 22.8413 33.4048Z" fill="#003F59"/>
<path d="M12.4138 31.4482C12.4133 32.2829 12.502 33.1152 12.6786 33.931H8.27585C6.90673 33.926 5.79808 32.8173 5.79309 31.4482V30.6206C5.79309 28.7924 7.27518 27.3103 9.10344 27.3103H13.0841C12.6412 28.0624 12.4096 28.9202 12.4138 29.7931V31.4482Z" fill="#78BF45"/>
<path d="M11.5862 43.0344C11.5899 44.5376 10.5827 45.8556 9.13124 46.2468C7.67982 46.6381 6.14668 46.0048 5.39439 44.7034C4.64211 43.4019 4.85858 41.7573 5.92202 40.6949C6.98545 39.6324 8.63024 39.4175 9.93099 40.171C10.9542 40.7617 11.585 41.8529 11.5862 43.0344Z" fill="#78BF45"/>
<path d="M42.2068 30.6206V31.4482C42.2018 32.8173 41.0932 33.926 39.724 33.931H35.3213C35.4979 33.1152 35.5866 32.2829 35.5861 31.4482V29.7931C35.5903 28.9202 35.3587 28.0624 34.9158 27.3103H38.8965C40.7247 27.3103 42.2068 28.7924 42.2068 30.6206Z" fill="#78BF45"/>
<path d="M43.0344 43.0344C43.0381 44.5376 42.0309 45.8556 40.5795 46.2468C39.1281 46.6381 37.5949 46.0048 36.8426 44.7034C36.0904 43.4019 36.3068 41.7573 37.3703 40.6949C38.4337 39.6324 40.0785 39.4175 41.3792 40.171C42.4024 40.7617 43.0332 41.8529 43.0344 43.0344Z" fill="#78BF45"/>
<path d="M28.9654 21.5173H19.0344C15.3796 21.5132 12.4178 18.5514 12.4137 14.8966V13.2414C12.4178 9.58661 15.3796 6.62483 19.0344 6.62073H28.9654C32.6202 6.62483 35.582 9.58661 35.5861 13.2414V14.8966C35.582 18.5514 32.6202 21.5132 28.9654 21.5173ZM19.0344 8.2759C16.2931 8.27864 14.0716 10.5002 14.0689 13.2414V14.8966C14.0716 17.6378 16.2931 19.8594 19.0344 19.8621H28.9654C31.7067 19.8594 33.9282 17.6378 33.9309 14.8966V13.2414C33.9282 10.5002 31.7067 8.27864 28.9654 8.2759H19.0344Z" fill="#EBEFF0"/>
</g>
<defs>
<clipPath id="clip0_2001_1100">
<rect width="48" height="48" fill="white"/>
</clipPath>
</defs>
</svg>
