<svg width="24" height="24" viewBox="0 0 24 24" fill="none" xmlns="http://www.w3.org/2000/svg">
<path d="M3 6.5C3 4.567 4.567 3 6.5 3C8.433 3 10 4.567 10 6.5C10 8.433 8.433 10 6.5 10C4.567 10 3 8.433 3 6.5Z" stroke="#404040" stroke-width="1.5"/>
<path d="M15 18.5C15 16.567 16.567 15 18.5 15C20.433 15 22 16.567 22 18.5C22 20.433 20.433 22 18.5 22C16.567 22 15 20.433 15 18.5Z" fill="#404040" stroke="#404040" stroke-width="1.5"/>
<path d="M20.9891 4.03991C22.1488 5.21346 22.7287 5.80028 22.7243 6.52509C22.7201 7.24998 22.1333 7.82984 20.9597 8.98957C19.7861 10.1493 19.1994 10.7292 18.4745 10.7248C17.7497 10.7206 17.1698 10.1338 16.01 8.9602C14.8503 7.78664 14.2704 7.19983 14.2748 6.47502C14.2791 5.75012 14.8658 5.17027 16.0394 4.01054C17.213 2.85081 17.7998 2.27096 18.5247 2.27528C19.2495 2.27953 19.8294 2.86635 20.9891 4.03991Z" fill="#404040" stroke="#404040" stroke-width="1.5"/>
<path d="M10 18.5C10 20.1499 10 20.9749 9.4874 21.4874C8.9749 22 8.1499 22 6.5 22C4.8501 22 4.0251 22 3.5126 21.4874C3 20.9749 3 20.1499 3 18.5C3 16.8501 3 16.0251 3.5126 15.5126C4.0251 15 4.8501 15 6.5 15C8.1499 15 8.9749 15 9.4874 15.5126C10 16.0251 10 16.8501 10 18.5Z" fill="#404040" stroke="#404040" stroke-width="1.5"/>
<path d="M10.5 7L14.5 7M18 10.7333L18 15M7 15L7 10.7333" stroke="#404040" stroke-width="1.5" stroke-linecap="round" stroke-linejoin="round"/>
</svg>
