<svg width="44" height="44" viewBox="0 0 44 44" fill="none" xmlns="http://www.w3.org/2000/svg">
<path d="M35.2317 35.3685L30.0286 30.2292C31.6764 28.4787 32.5974 26.1685 32.6052 23.7656H35.6938C35.7708 24.2536 36.0291 24.6946 36.4173 25.0006C36.8055 25.3066 37.2949 25.4552 37.7879 25.4166C38.2809 25.378 38.7412 25.1552 39.077 24.7925C39.4127 24.4298 39.5992 23.954 39.5992 23.46C39.5992 22.9661 39.4127 22.4903 39.077 22.1276C38.7412 21.7649 38.2809 21.542 37.7879 21.5035C37.2949 21.4649 36.8055 21.6134 36.4173 21.9195C36.0291 22.2255 35.7708 22.6665 35.6938 23.1544H32.5906C32.494 21.5263 31.9778 19.9508 31.0921 18.5806L33.7977 15.4622C34.4539 15.8063 35.1799 15.9968 35.9208 16.0192C36.6616 16.0416 37.3978 15.8952 38.0736 15.5913C38.7494 15.2874 39.3472 14.8339 39.8215 14.265C40.2959 13.6962 40.6345 13.027 40.8116 12.3081C40.9887 11.5892 40.9997 10.8394 40.8438 10.1156C40.6879 9.39185 40.3692 8.71299 39.9117 8.13048C39.4543 7.54796 38.8702 7.07707 38.2036 6.75346C37.537 6.42984 36.8054 6.262 36.0642 6.26264C32.0869 6.26264 29.7768 10.7824 32.1098 13.9965L29.6436 16.8364C28.6838 15.9183 27.5416 15.212 26.291 14.7632C25.0404 14.3144 23.7094 14.1333 22.3841 14.2314V6.15453C23.0398 6.07686 23.6409 5.75193 24.0647 5.24618C24.4884 4.74043 24.7028 4.09207 24.6638 3.43371C24.6249 2.77535 24.3356 2.15672 23.8552 1.70434C23.3748 1.25195 22.7395 1 22.0792 1C21.419 1 20.7837 1.25195 20.3033 1.70434C19.8229 2.15672 19.5336 2.77535 19.4947 3.43371C19.4557 4.09207 19.67 4.74043 20.0938 5.24618C20.5175 5.75193 21.1187 6.07686 21.7743 6.15453V14.2958C20.0719 14.53 18.465 15.2212 17.1248 16.2958L14.0487 13.1482C14.4037 12.6281 14.5526 11.9948 14.4667 11.3711C14.3808 10.7474 14.0661 10.1779 13.5837 9.77277C13.1013 9.36768 12.4856 9.15592 11.8558 9.17854C11.2259 9.20117 10.627 9.45657 10.175 9.89523C9.72294 10.3339 9.45006 10.9246 9.40922 11.5528C9.36838 12.181 9.56249 12.802 9.95392 13.2954C10.3453 13.7887 10.9062 14.1194 11.5278 14.2232C12.1494 14.327 12.7874 14.1966 13.3182 13.8572L16.3652 16.9757C14.7997 18.5223 13.82 20.5635 13.5929 22.7511H10.5585C10.381 21.8196 9.86208 20.9877 9.10316 20.4181C8.34424 19.8486 7.39992 19.5822 6.45486 19.6713C5.50979 19.7603 4.63196 20.1983 3.99303 20.8995C3.35409 21.6008 3 22.5149 3 23.4632C3 24.4114 3.35409 25.3255 3.99303 26.0268C4.63196 26.728 5.50979 27.166 6.45486 27.255C7.39992 27.3441 8.34424 27.0778 9.10316 26.5082C9.86208 25.9386 10.381 25.1067 10.5585 24.1752H13.5534C13.6673 26.6122 14.7159 28.9118 16.4817 30.5972L15.1664 33.5078C14.7008 33.3803 14.2132 33.3535 13.7365 33.4294C13.2597 33.5053 12.8046 33.682 12.4017 33.9478C11.9988 34.2135 11.6574 34.5621 11.4003 34.9703C11.1432 35.3785 10.9763 35.8368 10.9108 36.3146C10.8453 36.7925 10.8828 37.2787 11.0206 37.7409C11.1585 38.2031 11.3936 38.6306 11.7102 38.9947C12.0268 39.3588 12.4176 39.6512 12.8564 39.8522C13.2952 40.0533 13.772 40.1584 14.2548 40.1606C17.616 40.1606 18.9293 35.7656 16.0946 33.9236L17.2851 31.277C18.7671 32.4155 20.5525 33.092 22.4176 33.2218C24.2827 33.3516 26.1446 32.9289 27.7704 32.0068L33.2275 37.3851C32.8958 38.1894 32.8539 39.0838 33.1091 39.9155C33.3642 40.7472 33.9006 41.4646 34.6265 41.9451C35.3524 42.4256 36.2228 42.6395 37.089 42.5501C37.9552 42.4607 38.7635 42.0737 39.3757 41.4551C39.988 40.8365 40.3662 40.0248 40.4458 39.1586C40.5255 38.2923 40.3015 37.4254 39.8122 36.7058C39.323 35.9862 38.5988 35.4586 37.7633 35.2132C36.9279 34.9678 36.0331 35.0197 35.2317 35.3602V35.3685ZM33.4169 11.1483C33.4169 10.6256 33.572 10.1148 33.8627 9.68022C34.1533 9.24568 34.5665 8.907 35.0498 8.70701C35.5332 8.50701 36.0651 8.45468 36.5782 8.55664C37.0913 8.6586 37.5627 8.91026 37.9326 9.2798C38.3026 9.64935 38.5545 10.1202 38.6566 10.6328C38.7586 11.1453 38.7063 11.6766 38.506 12.1595C38.3058 12.6423 37.9668 13.055 37.5318 13.3453C37.0967 13.6357 36.5853 13.7907 36.0621 13.7907C35.3607 13.7901 34.6882 13.5115 34.1922 13.0161C33.6963 12.5207 33.4174 11.8489 33.4169 11.1483ZM20.0969 3.58698C20.0968 3.183 20.2208 2.78872 20.4521 2.45732C20.6834 2.12592 21.0108 1.87334 21.3903 1.73363C21.7697 1.59392 22.183 1.57381 22.5742 1.67601C22.9655 1.7782 23.316 1.99779 23.5784 2.30516C23.8408 2.61253 24.0026 2.9929 24.0419 3.39497C24.0812 3.79704 23.9961 4.20147 23.7981 4.55372C23.6001 4.90598 23.2987 5.18911 22.9346 5.36495C22.5705 5.54078 22.1612 5.60085 21.7619 5.53707C21.299 5.46078 20.8783 5.22292 20.5745 4.86582C20.2708 4.50873 20.1037 4.05557 20.1031 3.58698H20.0969ZM10.4232 11.7241C10.4235 11.5238 10.4633 11.3256 10.5403 11.1406C10.6174 10.9557 10.7302 10.7878 10.8722 10.6465C11.0143 10.5051 11.1829 10.3931 11.3683 10.3169C11.5537 10.2407 11.7524 10.2018 11.9529 10.2023C13.5742 10.2023 14.0675 12.4206 12.5898 13.1129C12.3569 13.2212 12.1004 13.269 11.8441 13.2517C11.5878 13.2344 11.3401 13.1527 11.1239 13.0141C10.9077 12.8756 10.7301 12.6846 10.6076 12.4591C10.4851 12.2335 10.4216 11.9807 10.4232 11.7241ZM14.2548 39.146C13.8793 39.146 13.5091 39.057 13.1748 38.8862C12.8404 38.7155 12.5514 38.4679 12.3316 38.1638C12.1117 37.8598 11.9672 37.5079 11.9099 37.1372C11.8527 36.7665 11.8843 36.3875 12.0023 36.0314C12.1203 35.6753 12.3212 35.3523 12.5885 35.0888C12.8558 34.8254 13.1819 34.6291 13.5399 34.5161C13.898 34.403 14.2778 34.3765 14.6481 34.4387C15.0184 34.5009 15.3686 34.6499 15.67 34.8737C17.5078 36.2437 16.5317 39.146 14.2548 39.146ZM38.9863 23.4559C38.9863 25.0484 36.6782 25.327 36.316 23.7615C36.2682 23.5606 36.2682 23.3512 36.316 23.1503C36.6782 21.5973 38.9863 21.8634 38.9863 23.4559ZM6.81639 25.8446C6.31302 25.8443 5.82264 25.685 5.41533 25.3896C5.00802 25.0942 4.70462 24.6777 4.54849 24.1997C4.39236 23.7217 4.39149 23.2066 4.54601 22.728C4.70053 22.2495 5.00253 21.832 5.40884 21.5352C5.81516 21.2384 6.305 21.0775 6.80836 21.0755C7.31172 21.0734 7.80284 21.2304 8.21153 21.5239C8.62022 21.8175 8.92556 22.2325 9.08392 22.7098C9.24229 23.1871 9.24556 23.7022 9.09328 24.1814C8.93956 24.6642 8.63608 25.0855 8.22675 25.3845C7.81743 25.6835 7.32348 25.8446 6.81639 25.8446ZM18.4048 28.7843C13.826 24.5515 16.823 16.8488 23.0751 16.8488C24.8027 16.849 26.4672 17.4971 27.7392 18.6648C29.0111 19.8326 29.7977 21.4349 29.9433 23.1544C30.449 29.3727 23.0231 33.0296 18.4048 28.7843ZM36.0642 39.4641C35.9576 39.359 35.8786 39.2291 35.8343 39.0862C35.79 38.9432 35.7818 38.7915 35.8103 38.6446C35.8388 38.4977 35.9032 38.3601 35.9978 38.244C36.0923 38.128 36.2142 38.037 36.3524 37.9793C36.4906 37.9216 36.641 37.8989 36.7901 37.9132C36.9392 37.9275 37.0825 37.9784 37.2072 38.0613C37.3319 38.1443 37.4342 38.2567 37.5049 38.3886C37.5757 38.5205 37.6127 38.6679 37.6127 38.8175C37.6127 38.9967 37.5596 39.1719 37.4602 39.3211C37.3608 39.4702 37.2194 39.5867 37.0539 39.6558C36.8884 39.7249 36.7062 39.7435 36.5301 39.7094C36.3539 39.6753 36.1919 39.59 36.0642 39.4641Z" fill="#78BF45"/>
</svg>
