<svg width="194" height="154" viewBox="0 0 194 154" fill="none" xmlns="http://www.w3.org/2000/svg">
<g clip-path="url(#clip0_904_8751)">
<rect x="0.0216064" y="0.152344" width="193.899" height="153.414" rx="4.26533" fill="#FCFCFC"/>
<line x1="6.32178" y1="147.856" x2="265.274" y2="147.856" stroke="#DFE8EC" stroke-width="1.78587"/>
<line x1="6.32178" y1="51.4186" x2="265.274" y2="51.4186" stroke="#DFE8EC" stroke-width="1.78587"/>
<line x1="6.32178" y1="115.71" x2="265.274" y2="115.71" stroke="#DFE8EC" stroke-width="1.78587"/>
<line x1="6.32178" y1="19.2728" x2="265.274" y2="19.2728" stroke="#DFE8EC" stroke-width="1.78587"/>
<line x1="6.32178" y1="83.5641" x2="265.274" y2="83.5641" stroke="#DFE8EC" stroke-width="1.78587"/>
<line x1="7.21471" y1="18.3799" x2="7.21471" y2="148.749" stroke="#DFE8EC" stroke-width="1.78587"/>
<line x1="39.3606" y1="18.3799" x2="39.3606" y2="148.749" stroke="#DFE8EC" stroke-width="1.78587"/>
<line x1="71.5063" y1="18.3799" x2="71.5063" y2="148.749" stroke="#DFE8EC" stroke-width="1.78587"/>
<line x1="103.651" y1="18.3799" x2="103.651" y2="148.749" stroke="#DFE8EC" stroke-width="1.78587"/>
<line x1="135.797" y1="18.3799" x2="135.797" y2="148.749" stroke="#DFE8EC" stroke-width="1.78587"/>
<line x1="167.944" y1="18.3799" x2="167.944" y2="148.749" stroke="#DFE8EC" stroke-width="1.78587"/>
<path d="M22.3951 114.817L39.3609 64.8126L54.5409 88.9219L72.3996 73.742L91.1513 126.425L104.545 50.5256L121.511 92.4937L136.691 59.455L152.764 83.5643L167.944 67.4914L184.91 114.817L200.09 101.423L216.162 114.817L232.235 92.4937" stroke="#78BF45" stroke-width="1.78587"/>
</g>
<defs>
<clipPath id="clip0_904_8751">
<rect x="0.0216064" y="0.152344" width="193.899" height="153.414" rx="4.26533" fill="white"/>
</clipPath>
</defs>
</svg>
