<svg width="194" height="154" viewBox="0 0 194 154" fill="none" xmlns="http://www.w3.org/2000/svg">
<g clip-path="url(#clip0_904_8637)">
<rect y="0.152344" width="193.899" height="153.414" rx="4.26533" fill="#FCFCFC"/>
<line x1="8.406" y1="18.3799" x2="8.40599" y2="148.749" stroke="#DFE8EC" stroke-width="1.78587"/>
<line x1="7.51294" y1="147.856" x2="266.465" y2="147.856" stroke="#DFE8EC" stroke-width="1.78587"/>
<line x1="7.51294" y1="51.4183" x2="266.465" y2="51.4183" stroke="#DFE8EC" stroke-width="1.78587"/>
<line x1="7.51294" y1="115.71" x2="266.465" y2="115.71" stroke="#DFE8EC" stroke-width="1.78587"/>
<line x1="7.51306" y1="19.2728" x2="266.465" y2="19.2728" stroke="#DFE8EC" stroke-width="1.78587"/>
<line x1="7.51294" y1="83.5639" x2="266.465" y2="83.5639" stroke="#DFE8EC" stroke-width="1.78587"/>
<rect x="36.0867" y="68.3845" width="28.574" height="78.5785" fill="#78BF45"/>
<rect x="98.5921" y="98.7444" width="28.574" height="48.2186" fill="#78BF45"/>
<rect x="157.527" y="116.603" width="28.574" height="30.3599" fill="#78BF45"/>
<path d="M51.2668 66.5986L110.201 45.1681L168.242 33.5599L229.854 29.0952" stroke="#78BF45" stroke-width="1.78587"/>
<circle cx="52.16" cy="66.5986" r="3.57175" fill="#78BF45"/>
<circle cx="109.307" cy="45.1682" r="3.57175" fill="#78BF45"/>
<circle cx="170.028" cy="33.56" r="3.57175" fill="#78BF45"/>
</g>
<defs>
<clipPath id="clip0_904_8637">
<rect y="0.152344" width="193.899" height="153.414" rx="4.26533" fill="white"/>
</clipPath>
</defs>
</svg>
