<svg width="20" height="20" viewBox="0 0 20 20" fill="none" xmlns="http://www.w3.org/2000/svg">
<path d="M6.66699 18.3333V15.8333C6.66699 14.262 6.66699 13.4763 7.15515 12.9882C7.6433 12.5 8.42899 12.5 10.0003 12.5C11.5717 12.5 12.3573 12.5 12.8455 12.9882C13.3337 13.4763 13.3337 14.262 13.3337 15.8333V18.3333" stroke="#0085FF" stroke-width="1.5" stroke-linejoin="round"/>
<path d="M8.33301 5.83325H11.6663" stroke="#0085FF" stroke-width="1.5" stroke-linecap="round" stroke-linejoin="round"/>
<path d="M2.5 9.88208C2.5 6.06841 2.5 4.16155 3.65562 2.95336C3.69831 2.90873 3.74198 2.86506 3.78662 2.82236C4.9948 1.66675 6.90166 1.66675 10.7153 1.66675C11.6192 1.66675 12.0546 1.66988 12.469 1.82455C12.8681 1.9735 13.2024 2.25207 13.871 2.80924L15.7009 4.33418C16.5856 5.07142 17.0279 5.44004 17.264 5.94396C17.5 6.44789 17.5 7.02369 17.5 8.17529V10.8334C17.5 13.9582 17.5 15.5206 16.7042 16.6158C16.4472 16.9696 16.1362 17.2807 15.7824 17.5377C14.6872 18.3334 13.1247 18.3334 10 18.3334C6.87522 18.3334 5.31283 18.3334 4.21756 17.5377C3.86383 17.2807 3.55276 16.9696 3.29576 16.6158C2.5 15.5206 2.5 13.9582 2.5 10.8334V9.88208Z" stroke="#0085FF" stroke-width="1.5"/>
</svg>
