<svg width="18" height="18" viewBox="0 0 18 18" fill="none" xmlns="http://www.w3.org/2000/svg">
<g clip-path="url(#clip0_758_10442)">
<path d="M4.34474 14.8966V17.069C4.34474 17.5832 3.92791 18.0001 3.41371 18.0001H1.55164C1.03744 18.0001 0.620605 17.5832 0.620605 17.069V14.8966H4.34474Z" fill="#AAACAE"/>
<path d="M1.86198 16.7586C1.86198 16.93 1.72304 17.0689 1.55164 17.0689H0.620605V16.4482H1.55164C1.72304 16.4482 1.86198 16.5872 1.86198 16.7586Z" fill="#404040"/>
<path d="M4.34489 16.4482V17.0689H3.41386C3.24246 17.0689 3.10352 16.93 3.10352 16.7586C3.10352 16.5872 3.24246 16.4482 3.41386 16.4482H4.34489Z" fill="#404040"/>
<path d="M17.3794 14.8966V17.069C17.3794 17.5832 16.9626 18.0001 16.4484 18.0001H14.5863C14.0721 18.0001 13.6553 17.5832 13.6553 17.069V14.8966H17.3794Z" fill="#AAACAE"/>
<path d="M14.8967 16.7586C14.8967 16.93 14.7577 17.0689 14.5863 17.0689H13.6553V16.4482H14.5863C14.7577 16.4482 14.8967 16.5872 14.8967 16.7586Z" fill="#404040"/>
<path d="M17.3796 16.4482V17.0689H16.4485C16.2771 17.0689 16.1382 16.93 16.1382 16.7586C16.1382 16.5872 16.2771 16.4482 16.4485 16.4482H17.3796Z" fill="#404040"/>
<path d="M13.0345 14.8966H4.96558L3.10352 12.4138V5.89655C3.10352 2.63998 5.74349 0 9.00007 0C12.2566 0 14.8966 2.63998 14.8966 5.89655V12.4138L13.0345 14.8966Z" fill="#AAACAE"/>
<path d="M4.96552 14.2759V15.2069C4.96552 15.3783 4.82657 15.5173 4.65517 15.5173H0.310345C0.138946 15.5173 0 15.3783 0 15.2069V14.2759C0 13.2475 0.833677 12.4138 1.86207 12.4138H3.10345C4.13184 12.4138 4.96552 13.2475 4.96552 14.2759Z" fill="#404040"/>
<path d="M18.0002 14.2759V15.2069C18.0002 15.3783 17.8612 15.5173 17.6898 15.5173H13.345C13.1736 15.5173 13.0347 15.3783 13.0347 15.2069V14.2759C13.0347 13.2475 13.8683 12.4138 14.8967 12.4138H16.1381C17.1665 12.4138 18.0002 13.2475 18.0002 14.2759Z" fill="#404040"/>
<path d="M9.0001 10.2414C11.3997 10.2414 13.3449 8.29617 13.3449 5.89659C13.3449 3.497 11.3997 1.55176 9.0001 1.55176C6.60052 1.55176 4.65527 3.497 4.65527 5.89659C4.65527 8.29617 6.60052 10.2414 9.0001 10.2414Z" fill="#404040"/>
<path d="M8.9999 10.5517C6.42892 10.5517 4.34473 8.46749 4.34473 5.89651C4.34473 3.32552 6.42892 1.24133 8.9999 1.24133C11.5709 1.24133 13.6551 3.32552 13.6551 5.89651C13.6522 8.46628 11.5697 10.5488 8.9999 10.5517ZM8.9999 1.86202C6.77172 1.86202 4.96542 3.66832 4.96542 5.89651C4.96542 8.12469 6.77172 9.93099 8.9999 9.93099C11.2281 9.93099 13.0344 8.12469 13.0344 5.89651C13.0318 3.66939 11.227 1.86459 8.9999 1.86202Z" fill="#EBEFF0"/>
<path d="M8.06913 7.13794H9.9312C10.1026 7.13794 10.2415 7.27689 10.2415 7.44828C10.2415 8.13388 9.68576 8.68966 9.00017 8.68966C8.31457 8.68966 7.75879 8.13388 7.75879 7.44828C7.75879 7.27689 7.89774 7.13794 8.06913 7.13794Z" fill="white"/>
<path d="M8.33793 4.96949C8.39792 5.20032 8.39309 5.44323 8.32396 5.67149C8.29621 5.7687 8.22286 5.84631 8.12736 5.87948C8.03187 5.91265 7.9262 5.89723 7.84417 5.83815C7.64035 5.68352 7.3938 5.59552 7.13813 5.58615C6.88247 5.59552 6.63592 5.68352 6.4321 5.83815C6.35035 5.89699 6.24512 5.9125 6.14987 5.87974C6.05462 5.84698 5.98119 5.77003 5.95293 5.67335C5.91556 5.5518 5.89662 5.42532 5.89675 5.29815C5.88369 4.66784 6.34582 4.12814 6.97062 4.04402C7.59542 3.95991 8.18383 4.35818 8.33793 4.96949Z" fill="white"/>
<path d="M12.062 4.96949C12.122 5.20032 12.1172 5.44323 12.0481 5.67149C12.0203 5.7687 11.947 5.84631 11.8515 5.87948C11.756 5.91265 11.6503 5.89723 11.5683 5.83815C11.1576 5.50215 10.5669 5.50215 10.1562 5.83815C10.0745 5.89699 9.96924 5.9125 9.87399 5.87974C9.77874 5.84698 9.70531 5.77003 9.67705 5.67335C9.63968 5.5518 9.62074 5.42532 9.62088 5.29815C9.60781 4.66784 10.0699 4.12814 10.6947 4.04402C11.3195 3.95991 11.908 4.35818 12.062 4.96949Z" fill="white"/>
<path d="M11.7932 12.4138V14.8966H11.1725V12.4138C11.1725 12.2424 11.0336 12.1035 10.8622 12.1035H7.13807C6.96667 12.1035 6.82772 12.2424 6.82772 12.4138V14.8966H6.20703V12.4138C6.20857 11.9003 6.62451 11.4843 7.13807 11.4828H10.8622C11.3758 11.4843 11.7917 11.9003 11.7932 12.4138Z" fill="#404040"/>
</g>
<defs>
<clipPath id="clip0_758_10442">
<rect width="18" height="18" fill="white"/>
</clipPath>
</defs>
</svg>
