<svg width="16" height="15" viewBox="0 0 16 15" fill="none" xmlns="http://www.w3.org/2000/svg">
<g clip-path="url(#clip0_2001_6469)">
<path d="M4.31619 11.9624V13.6815C4.31619 14.0884 3.98633 14.4183 3.57943 14.4183H2.1059C1.699 14.4183 1.36914 14.0884 1.36914 13.6815V11.9624H4.31619Z" fill="#AAACAE"/>
<path d="M2.35149 13.436C2.35149 13.5717 2.24154 13.6816 2.1059 13.6816H1.36914V13.1904H2.1059C2.24154 13.1904 2.35149 13.3004 2.35149 13.436Z" fill="#404040"/>
<path d="M4.31609 13.1904V13.6816H3.57933C3.44369 13.6816 3.33374 13.5717 3.33374 13.436C3.33374 13.3004 3.44369 13.1904 3.57933 13.1904H4.31609Z" fill="#404040"/>
<path d="M14.6309 11.9624V13.6815C14.6309 14.0884 14.301 14.4183 13.8941 14.4183H12.4206C12.0137 14.4183 11.6838 14.0884 11.6838 13.6815V11.9624H14.6309Z" fill="#AAACAE"/>
<path d="M12.6662 13.436C12.6662 13.5717 12.5562 13.6816 12.4206 13.6816H11.6838V13.1904H12.4206C12.5562 13.1904 12.6662 13.3004 12.6662 13.436Z" fill="#404040"/>
<path d="M14.6308 13.1904V13.6816H13.894C13.7584 13.6816 13.6484 13.5717 13.6484 13.436C13.6484 13.3004 13.7584 13.1904 13.894 13.1904H14.6308Z" fill="#404040"/>
<path d="M11.1925 11.9625H4.80727L3.33374 9.99782V4.84048C3.33374 2.26343 5.42285 0.174316 7.9999 0.174316C10.577 0.174316 12.6661 2.26343 12.6661 4.84048V9.99782L11.1925 11.9625Z" fill="#AAACAE"/>
<path d="M4.80733 11.4713V12.2081C4.80733 12.3437 4.69738 12.4537 4.56174 12.4537H1.12352C0.987883 12.4537 0.87793 12.3437 0.87793 12.2081V11.4713C0.87793 10.6575 1.53765 9.9978 2.35146 9.9978H3.33381C4.14761 9.9978 4.80733 10.6575 4.80733 11.4713Z" fill="#404040"/>
<path d="M15.122 11.4713V12.2081C15.122 12.3437 15.0121 12.4537 14.8764 12.4537H11.4382C11.3026 12.4537 11.1926 12.3437 11.1926 12.2081V11.4713C11.1926 10.6575 11.8523 9.9978 12.6662 9.9978H13.6485C14.4623 9.9978 15.122 10.6575 15.122 11.4713Z" fill="#404040"/>
<path d="M7.99999 8.2788C9.89887 8.2788 11.4382 6.73945 11.4382 4.84057C11.4382 2.94169 9.89887 1.40234 7.99999 1.40234C6.10111 1.40234 4.56177 2.94169 4.56177 4.84057C4.56177 6.73945 6.10111 8.2788 7.99999 8.2788Z" fill="#404040"/>
<path d="M7.99998 8.52437C5.96546 8.52437 4.31616 6.87507 4.31616 4.84055C4.31616 2.80604 5.96546 1.15674 7.99998 1.15674C10.0345 1.15674 11.6838 2.80604 11.6838 4.84055C11.6815 6.87411 10.0335 8.52207 7.99998 8.52437ZM7.99998 1.64791C6.23673 1.64791 4.80734 3.07731 4.80734 4.84055C4.80734 6.6038 6.23673 8.03319 7.99998 8.03319C9.76322 8.03319 11.1926 6.6038 11.1926 4.84055C11.1906 3.07815 9.76238 1.64994 7.99998 1.64791Z" fill="#EBEFF0"/>
<path d="M7.26317 5.82275H8.73669C8.87233 5.82275 8.98228 5.93271 8.98228 6.06834C8.98228 6.61088 8.54247 7.05069 7.99993 7.05069C7.45739 7.05069 7.01758 6.61088 7.01758 6.06834C7.01758 5.93271 7.12753 5.82275 7.26317 5.82275Z" fill="white"/>
<path d="M7.47595 4.10693C7.52343 4.2896 7.5196 4.48182 7.4649 4.66245C7.44294 4.73938 7.38489 4.80079 7.30933 4.82704C7.23376 4.85329 7.15014 4.84108 7.08522 4.79433C6.92393 4.67197 6.72883 4.60233 6.52651 4.59492C6.32419 4.60233 6.12909 4.67197 5.9678 4.79433C5.9031 4.8409 5.81984 4.85317 5.74446 4.82725C5.66909 4.80132 5.61098 4.74043 5.58861 4.66393C5.55904 4.56773 5.54406 4.46765 5.54416 4.36701C5.53382 3.86823 5.89952 3.44114 6.39395 3.37457C6.88838 3.30801 7.35401 3.62318 7.47595 4.10693Z" fill="white"/>
<path d="M10.423 4.10693C10.4705 4.2896 10.4666 4.48182 10.4119 4.66245C10.39 4.73938 10.3319 4.80079 10.2563 4.82704C10.1808 4.85329 10.0972 4.84108 10.0322 4.79433C9.70722 4.52845 9.23984 4.52845 8.91482 4.79433C8.85013 4.8409 8.76686 4.85317 8.69148 4.82725C8.61611 4.80132 8.558 4.74043 8.53563 4.66393C8.50606 4.56773 8.49108 4.46765 8.49118 4.36701C8.48084 3.86823 8.84654 3.44114 9.34097 3.37457C9.8354 3.30801 10.301 3.62318 10.423 4.10693Z" fill="white"/>
<path d="M10.2104 9.99775V11.9624H9.7192V9.99775C9.7192 9.86211 9.60924 9.75216 9.47361 9.75216H6.52656C6.39092 9.75216 6.28097 9.86211 6.28097 9.99775V11.9624H5.78979V9.99775C5.79101 9.59135 6.12016 9.2622 6.52656 9.26099H9.47361C9.88001 9.2622 10.2092 9.59135 10.2104 9.99775Z" fill="#404040"/>
</g>
<defs>
<clipPath id="clip0_2001_6469">
<rect width="14.2441" height="14.2441" fill="white" transform="translate(0.87793 0.174316)"/>
</clipPath>
</defs>
</svg>
