<svg width="1027" height="574" viewBox="0 0 1027 574" fill="none" xmlns="http://www.w3.org/2000/svg">
<ellipse cx="572.028" cy="484.138" rx="89.7952" ry="89.7952" fill="#003F59"/>
<path d="M541.729 479.715V484.621H546.239C547.977 484.621 548.923 483.763 548.923 482.113C548.923 480.111 547.625 479.715 546.195 479.715H541.729ZM538.979 493.179V477.471H546.481C549.913 477.471 551.673 479.055 551.673 481.717C551.673 484.731 549.583 485.501 549.077 485.677V485.721C550.023 485.853 551.409 486.557 551.409 489.043C551.409 490.869 551.673 492.541 552.267 493.179H549.319C548.901 492.497 548.901 491.639 548.901 490.869C548.901 487.987 548.307 486.711 545.777 486.711H541.729V493.179H538.979ZM564.435 488.141H556.075C556.075 489.923 557.043 491.507 559.133 491.507C560.585 491.507 561.465 490.869 561.905 489.615H564.281C563.731 492.101 561.619 493.487 559.133 493.487C555.569 493.487 553.567 491.001 553.567 487.503C553.567 484.269 555.679 481.497 559.067 481.497C562.653 481.497 564.853 484.731 564.435 488.141ZM556.075 486.491H561.927C561.839 484.907 560.761 483.477 559.067 483.477C557.329 483.477 556.141 484.797 556.075 486.491ZM566.341 493.179V481.805H568.717V483.477L568.761 483.521C569.509 482.267 570.807 481.497 572.303 481.497C574.767 481.497 576.329 482.817 576.329 485.369V493.179H573.821V486.029C573.777 484.247 573.073 483.477 571.599 483.477C569.927 483.477 568.849 484.797 568.849 486.469V493.179H566.341ZM589.292 488.141H580.932C580.932 489.923 581.9 491.507 583.99 491.507C585.442 491.507 586.322 490.869 586.762 489.615H589.138C588.588 492.101 586.476 493.487 583.99 493.487C580.426 493.487 578.424 491.001 578.424 487.503C578.424 484.269 580.536 481.497 583.924 481.497C587.51 481.497 589.71 484.731 589.292 488.141ZM580.932 486.491H586.784C586.696 484.907 585.618 483.477 583.924 483.477C582.186 483.477 580.998 484.797 580.932 486.491ZM593.685 493.179L590.165 481.805H592.827L595.049 490.297H595.093L597.227 481.805H599.757L601.803 490.297H601.847L604.157 481.805H606.709L603.145 493.179H600.571L598.459 484.731H598.415L596.325 493.179H593.685Z" fill="white"/>
<path d="M660.859 489.416C660.467 489.949 660.582 490.698 661.115 491.09L669.799 497.469C670.332 497.86 671.081 497.745 671.473 497.212C671.864 496.68 671.75 495.93 671.217 495.539L663.497 489.869L669.167 482.149C669.559 481.616 669.444 480.867 668.911 480.475C668.378 480.084 667.629 480.199 667.237 480.732L660.859 489.416ZM896.307 453.023L893.96 453.382L894.323 455.749L896.669 455.39L896.307 453.023ZM889.267 454.101L884.574 454.819L884.936 457.186L889.629 456.468L889.267 454.101ZM879.881 455.538L875.187 456.256L875.55 458.623L880.243 457.905L879.881 455.538ZM870.494 456.974L865.801 457.693L866.163 460.06L870.856 459.341L870.494 456.974ZM861.107 458.411L856.414 459.129L856.776 461.496L861.47 460.778L861.107 458.411ZM851.721 459.848L847.028 460.566L847.39 462.933L852.083 462.215L851.721 459.848ZM842.334 461.284L837.641 462.003L838.003 464.37L842.697 463.651L842.334 461.284ZM832.948 462.721L828.254 463.44L828.617 465.807L833.31 465.088L832.948 462.721ZM823.561 464.158L818.868 464.876L819.23 467.243L823.923 466.525L823.561 464.158ZM814.174 465.595L809.481 466.313L809.843 468.68L814.537 467.962L814.174 465.595ZM804.788 467.031L800.095 467.75L800.457 470.117L805.15 469.398L804.788 467.031ZM795.401 468.468L790.708 469.186L791.07 471.553L795.764 470.835L795.401 468.468ZM786.015 469.905L781.321 470.623L781.684 472.99L786.377 472.272L786.015 469.905ZM776.628 471.342L771.935 472.06L772.297 474.427L776.99 473.708L776.628 471.342ZM767.241 472.778L762.548 473.497L762.91 475.864L767.604 475.145L767.241 472.778ZM757.855 474.215L753.162 474.933L753.524 477.3L758.217 476.582L757.855 474.215ZM748.468 475.652L743.775 476.37L744.137 478.737L748.831 478.019L748.468 475.652ZM739.082 477.088L734.388 477.807L734.751 480.174L739.444 479.455L739.082 477.088ZM729.695 478.525L725.002 479.244L725.364 481.61L730.057 480.892L729.695 478.525ZM720.309 479.962L715.615 480.68L715.978 483.047L720.671 482.329L720.309 479.962ZM710.922 481.399L706.229 482.117L706.591 484.484L711.284 483.766L710.922 481.399ZM701.535 482.835L696.842 483.554L697.204 485.921L701.898 485.202L701.535 482.835ZM692.149 484.272L687.455 484.99L687.818 487.357L692.511 486.639L692.149 484.272ZM682.762 485.709L678.069 486.427L678.431 488.794L683.124 488.076L682.762 485.709ZM673.376 487.145L668.682 487.864L669.045 490.231L673.738 489.512L673.376 487.145ZM663.989 488.582L661.642 488.941L662.005 491.308L664.351 490.949L663.989 488.582ZM660.859 489.416C660.467 489.949 660.582 490.698 661.115 491.09L669.799 497.469C670.332 497.86 671.081 497.745 671.473 497.212C671.864 496.68 671.75 495.93 671.217 495.539L663.497 489.869L669.167 482.149C669.559 481.616 669.444 480.867 668.911 480.475C668.378 480.084 667.629 480.199 667.237 480.732L660.859 489.416ZM896.307 453.023L893.96 453.382L894.323 455.749L896.669 455.39L896.307 453.023ZM889.267 454.101L884.574 454.819L884.936 457.186L889.629 456.468L889.267 454.101ZM879.881 455.538L875.187 456.256L875.55 458.623L880.243 457.905L879.881 455.538ZM870.494 456.974L865.801 457.693L866.163 460.06L870.856 459.341L870.494 456.974ZM861.107 458.411L856.414 459.129L856.776 461.496L861.47 460.778L861.107 458.411ZM851.721 459.848L847.028 460.566L847.39 462.933L852.083 462.215L851.721 459.848ZM842.334 461.284L837.641 462.003L838.003 464.37L842.697 463.651L842.334 461.284ZM832.948 462.721L828.254 463.44L828.617 465.807L833.31 465.088L832.948 462.721ZM823.561 464.158L818.868 464.876L819.23 467.243L823.923 466.525L823.561 464.158ZM814.174 465.595L809.481 466.313L809.843 468.68L814.537 467.962L814.174 465.595ZM804.788 467.031L800.095 467.75L800.457 470.117L805.15 469.398L804.788 467.031ZM795.401 468.468L790.708 469.186L791.07 471.553L795.764 470.835L795.401 468.468ZM786.015 469.905L781.321 470.623L781.684 472.99L786.377 472.272L786.015 469.905ZM776.628 471.342L771.935 472.06L772.297 474.427L776.99 473.708L776.628 471.342ZM767.241 472.778L762.548 473.497L762.91 475.864L767.604 475.145L767.241 472.778ZM757.855 474.215L753.162 474.933L753.524 477.3L758.217 476.582L757.855 474.215ZM748.468 475.652L743.775 476.37L744.137 478.737L748.831 478.019L748.468 475.652ZM739.082 477.088L734.388 477.807L734.751 480.174L739.444 479.455L739.082 477.088ZM729.695 478.525L725.002 479.244L725.364 481.61L730.057 480.892L729.695 478.525ZM720.309 479.962L715.615 480.68L715.978 483.047L720.671 482.329L720.309 479.962ZM710.922 481.399L706.229 482.117L706.591 484.484L711.284 483.766L710.922 481.399ZM701.535 482.835L696.842 483.554L697.204 485.921L701.898 485.202L701.535 482.835ZM692.149 484.272L687.455 484.99L687.818 487.357L692.511 486.639L692.149 484.272ZM682.762 485.709L678.069 486.427L678.431 488.794L683.124 488.076L682.762 485.709ZM673.376 487.145L668.682 487.864L669.045 490.231L673.738 489.512L673.376 487.145ZM663.989 488.582L661.642 488.941L662.005 491.308L664.351 490.949L663.989 488.582Z" fill="#AAACAE"/>
<path d="M605.613 400.71C605.823 401.337 606.501 401.675 607.128 401.465L617.345 398.039C617.971 397.828 618.309 397.15 618.099 396.523C617.889 395.896 617.21 395.558 616.583 395.768L607.502 398.814L604.457 389.733C604.246 389.106 603.568 388.768 602.941 388.978C602.314 389.189 601.976 389.867 602.186 390.494L605.613 400.71ZM736.178 137.594L605.676 399.796L607.82 400.863L738.322 138.661L736.178 137.594Z" fill="#AAACAE"/>
<path d="M585.581 80.977C585.096 81.426 585.066 82.1835 585.515 82.6689L592.832 90.5792C593.281 91.0646 594.039 91.0941 594.524 90.6451C595.01 90.1961 595.039 89.4386 594.59 88.9532L588.086 81.9219L595.117 75.4179C595.603 74.9689 595.632 74.2114 595.183 73.726C594.734 73.2406 593.977 73.2111 593.491 73.6601L585.581 80.977ZM678.631 84.2514L676.326 84.1616L676.233 86.5543L678.537 86.6441L678.631 84.2514ZM671.716 83.982L667.107 83.8024L667.014 86.1951L671.623 86.3747L671.716 83.982ZM662.497 83.6228L657.888 83.4432L657.795 85.836L662.404 86.0155L662.497 83.6228ZM653.278 83.2636L648.669 83.0841L648.576 85.4768L653.185 85.6564L653.278 83.2636ZM644.059 82.9045L639.45 82.7249L639.357 85.1176L643.966 85.2972L644.059 82.9045ZM634.84 82.5453L630.231 82.3657L630.138 84.7584L634.747 84.938L634.84 82.5453ZM625.621 82.1861L621.012 82.0065L620.919 84.3992L625.528 84.5788L625.621 82.1861ZM616.403 81.8269L611.793 81.6473L611.7 84.0401L616.309 84.2196L616.403 81.8269ZM607.184 81.4677L602.574 81.2881L602.481 83.6809L607.09 83.8605L607.184 81.4677ZM597.965 81.1086L593.355 80.929L593.262 83.3217L597.871 83.5013L597.965 81.1086ZM588.746 80.7494L586.441 80.6596L586.348 83.0523L588.652 83.1421L588.746 80.7494ZM585.581 80.977C585.096 81.426 585.066 82.1835 585.515 82.6689L592.832 90.5792C593.281 91.0646 594.039 91.0941 594.524 90.6451C595.01 90.1961 595.039 89.4386 594.59 88.9532L588.086 81.9219L595.117 75.4179C595.603 74.9689 595.632 74.2114 595.183 73.726C594.734 73.2406 593.977 73.2111 593.491 73.6601L585.581 80.977ZM678.631 84.2514L676.326 84.1616L676.233 86.5543L678.537 86.6441L678.631 84.2514ZM671.716 83.982L667.107 83.8024L667.014 86.1951L671.623 86.3747L671.716 83.982ZM662.497 83.6228L657.888 83.4432L657.795 85.836L662.404 86.0155L662.497 83.6228ZM653.278 83.2636L648.669 83.0841L648.576 85.4768L653.185 85.6564L653.278 83.2636ZM644.059 82.9045L639.45 82.7249L639.357 85.1176L643.966 85.2972L644.059 82.9045ZM634.84 82.5453L630.231 82.3657L630.138 84.7584L634.747 84.938L634.84 82.5453ZM625.621 82.1861L621.012 82.0065L620.919 84.3992L625.528 84.5788L625.621 82.1861ZM616.403 81.8269L611.793 81.6473L611.7 84.0401L616.309 84.2196L616.403 81.8269ZM607.184 81.4677L602.574 81.2881L602.481 83.6809L607.09 83.8605L607.184 81.4677ZM597.965 81.1086L593.355 80.929L593.262 83.3217L597.871 83.5013L597.965 81.1086ZM588.746 80.7494L586.441 80.6596L586.348 83.0523L588.652 83.1421L588.746 80.7494Z" fill="#AAACAE"/>
<path d="M643.878 428.886C643.779 429.54 644.23 430.149 644.883 430.248L655.538 431.854C656.192 431.952 656.802 431.502 656.901 430.848C656.999 430.194 656.549 429.584 655.895 429.486L646.424 428.059L647.851 418.587C647.95 417.933 647.5 417.324 646.846 417.225C646.192 417.126 645.582 417.577 645.483 418.231L643.878 428.886ZM895.777 242.524L644.351 428.101L645.773 430.027L897.199 244.451L895.777 242.524Z" fill="#AAACAE"/>
<path d="M552.126 395.281C552.644 395.692 553.397 395.606 553.809 395.088L560.512 386.652C560.924 386.134 560.838 385.381 560.32 384.97C559.802 384.558 559.049 384.645 558.638 385.162L552.679 392.661L545.18 386.702C544.662 386.291 543.909 386.377 543.498 386.894C543.086 387.412 543.173 388.165 543.69 388.577L552.126 395.281ZM519.355 111.924L551.682 394.479L554.061 394.207L521.734 111.652L519.355 111.924Z" fill="#AAACAE"/>
<path d="M285.413 263.746C286.021 264.004 286.724 263.72 286.983 263.112L291.196 253.194C291.455 252.586 291.171 251.883 290.562 251.624C289.954 251.366 289.251 251.649 288.992 252.258L285.247 261.074L276.432 257.328C275.823 257.07 275.12 257.354 274.862 257.962C274.603 258.571 274.887 259.274 275.495 259.532L285.413 263.746ZM232.091 132.59L284.771 263.092L286.991 262.196L234.311 131.693L232.091 132.59Z" fill="#AAACAE"/>
<path d="M241.868 317.683C242.51 317.525 242.902 316.876 242.744 316.234L240.161 305.772C240.002 305.131 239.353 304.739 238.711 304.897C238.069 305.056 237.678 305.705 237.836 306.346L240.132 315.645L230.833 317.941C230.191 318.1 229.799 318.749 229.958 319.391C230.116 320.033 230.765 320.425 231.407 320.266L241.868 317.683ZM120.038 244.512L240.962 317.546L242.2 315.496L121.276 242.462L120.038 244.512Z" fill="#AAACAE"/>
<path d="M493.241 443.408C493.889 443.28 494.311 442.65 494.183 442.001L492.09 431.431C491.961 430.783 491.331 430.361 490.683 430.489C490.034 430.618 489.612 431.248 489.741 431.896L491.601 441.292L482.205 443.153C481.557 443.281 481.135 443.911 481.264 444.56C481.392 445.208 482.022 445.63 482.671 445.502L493.241 443.408ZM347.473 346.25L492.342 443.229L493.674 441.239L348.805 344.26L347.473 346.25Z" fill="#003F59"/>
<path d="M1026.39 437.445C1026.39 474.805 996.104 505.091 958.744 505.091C921.385 505.091 891.099 474.805 891.099 437.445C891.099 400.085 921.385 369.799 958.744 369.799C996.104 369.799 1026.39 400.085 1026.39 437.445Z" fill="#EEF7E8" stroke="#78BF45" stroke-width="1.19727"/>
<path d="M935.395 405.551H933.395C933.059 404.239 932.211 403.279 930.547 403.279C928.099 403.279 927.075 405.439 927.075 407.631C927.075 409.823 928.099 411.983 930.547 411.983C932.323 411.983 933.299 410.655 933.459 408.991H935.411C935.251 411.727 933.315 413.615 930.547 413.615C927.123 413.615 925.075 410.895 925.075 407.631C925.075 404.367 927.123 401.647 930.547 401.647C933.123 401.663 935.155 403.087 935.395 405.551ZM940.766 412.127C942.398 412.127 943.118 410.639 943.118 409.199C943.118 407.775 942.398 406.287 940.766 406.287C939.134 406.287 938.414 407.775 938.414 409.199C938.414 410.639 939.134 412.127 940.766 412.127ZM940.766 413.567C938.11 413.567 936.59 411.743 936.59 409.199C936.59 406.671 938.11 404.847 940.766 404.847C943.422 404.847 944.942 406.671 944.942 409.199C944.942 411.743 943.422 413.567 940.766 413.567ZM946.458 413.343V405.071H948.186V406.287L948.218 406.319C948.762 405.407 949.706 404.847 950.794 404.847C952.586 404.847 953.722 405.807 953.722 407.663V413.343H951.898V408.143C951.866 406.847 951.354 406.287 950.282 406.287C949.066 406.287 948.282 407.247 948.282 408.463V413.343H946.458ZM954.814 406.431V405.071H956.19V402.591H958.014V405.071H959.662V406.431H958.014V410.847C958.014 411.599 958.078 411.983 958.894 411.983C959.15 411.983 959.406 411.983 959.662 411.919V413.327C959.262 413.359 958.878 413.423 958.478 413.423C956.574 413.423 956.222 412.687 956.19 411.311V406.431H954.814ZM960.974 413.343V405.071H962.686V406.671H962.718C962.926 405.791 964.014 404.847 965.134 404.847C965.55 404.847 965.662 404.879 965.822 404.895V406.655C965.566 406.623 965.294 406.575 965.038 406.575C963.79 406.575 962.798 407.583 962.798 409.407V413.343H960.974ZM971.703 410.559V409.199C971.143 409.567 970.263 409.551 969.463 409.695C968.679 409.823 967.975 410.111 967.975 411.071C967.975 411.887 969.015 412.127 969.655 412.127C970.455 412.127 971.703 411.711 971.703 410.559ZM973.527 407.247V411.503C973.527 411.951 973.623 412.127 973.959 412.127C974.071 412.127 974.215 412.127 974.407 412.095V413.359C974.135 413.455 973.559 413.567 973.255 413.567C972.519 413.567 971.991 413.311 971.847 412.559C971.127 413.263 969.959 413.567 968.983 413.567C967.495 413.567 966.151 412.767 966.151 411.151C966.151 409.087 967.799 408.751 969.335 408.575C970.647 408.335 971.815 408.479 971.815 407.407C971.815 406.463 970.839 406.287 970.103 406.287C969.079 406.287 968.359 406.703 968.279 407.599H966.455C966.583 405.471 968.391 404.847 970.215 404.847C971.831 404.847 973.527 405.503 973.527 407.247ZM975.041 410.687H976.865C976.961 411.743 977.761 412.127 978.737 412.127C979.425 412.127 980.625 411.983 980.577 411.039C980.529 410.079 979.201 409.967 977.873 409.663C976.529 409.375 975.217 408.895 975.217 407.215C975.217 405.407 977.169 404.847 978.673 404.847C980.369 404.847 981.905 405.551 982.129 407.391H980.225C980.065 406.527 979.345 406.287 978.545 406.287C978.017 406.287 977.041 406.415 977.041 407.135C977.041 408.031 978.385 408.159 979.729 408.463C981.057 408.767 982.401 409.247 982.401 410.879C982.401 412.847 980.417 413.567 978.705 413.567C976.625 413.567 975.073 412.639 975.041 410.687ZM982.954 406.431V405.071H984.33V402.591H986.154V405.071H987.802V406.431H986.154V410.847C986.154 411.599 986.218 411.983 987.034 411.983C987.29 411.983 987.546 411.983 987.802 411.919V413.327C987.402 413.359 987.018 413.423 986.618 413.423C984.714 413.423 984.362 412.687 984.33 411.311V406.431H982.954ZM931.082 429.551H929.082C928.746 428.239 927.898 427.279 926.234 427.279C923.786 427.279 922.762 429.439 922.762 431.631C922.762 433.823 923.786 435.983 926.234 435.983C928.01 435.983 928.986 434.655 929.146 432.991H931.098C930.938 435.727 929.002 437.615 926.234 437.615C922.81 437.615 920.762 434.895 920.762 431.631C920.762 428.367 922.81 425.647 926.234 425.647C928.81 425.663 930.842 427.087 931.082 429.551ZM936.453 436.127C938.085 436.127 938.805 434.639 938.805 433.199C938.805 431.775 938.085 430.287 936.453 430.287C934.821 430.287 934.101 431.775 934.101 433.199C934.101 434.639 934.821 436.127 936.453 436.127ZM936.453 437.567C933.797 437.567 932.277 435.743 932.277 433.199C932.277 430.671 933.797 428.847 936.453 428.847C939.109 428.847 940.629 430.671 940.629 433.199C940.629 435.743 939.109 437.567 936.453 437.567ZM942.146 437.343V429.071H943.874V430.287L943.906 430.319C944.45 429.407 945.394 428.847 946.482 428.847C948.274 428.847 949.41 429.807 949.41 431.663V437.343H947.586V432.143C947.554 430.847 947.042 430.287 945.97 430.287C944.754 430.287 943.97 431.247 943.97 432.463V437.343H942.146ZM950.517 430.431V429.071H951.877V428.383C951.877 426.271 952.981 425.919 954.165 425.919C954.741 425.919 955.157 425.951 955.445 426.031V427.455C955.205 427.391 954.965 427.359 954.597 427.359C954.101 427.359 953.701 427.535 953.701 428.223V429.071H955.253V430.431H953.701V437.343H951.877V430.431H950.517ZM956.428 437.343V429.071H958.252V437.343H956.428ZM956.428 427.647V425.919H958.252V427.647H956.428ZM961.663 433.295C961.663 434.719 962.367 436.127 963.951 436.127C965.583 436.127 966.271 434.639 966.271 433.199C966.271 431.375 965.391 430.287 963.983 430.287C962.271 430.287 961.663 431.807 961.663 433.295ZM968.031 425.919V437.343H966.303V436.223H966.271C965.791 437.167 964.751 437.567 963.711 437.567C961.103 437.567 959.839 435.631 959.839 433.151C959.839 430.159 961.615 428.847 963.423 428.847C964.463 428.847 965.615 429.231 966.175 430.143H966.207V425.919H968.031ZM977.525 433.679H971.445C971.445 434.975 972.149 436.127 973.669 436.127C974.725 436.127 975.365 435.663 975.685 434.751H977.413C977.013 436.559 975.477 437.567 973.669 437.567C971.077 437.567 969.621 435.759 969.621 433.215C969.621 430.863 971.157 428.847 973.621 428.847C976.229 428.847 977.829 431.199 977.525 433.679ZM971.445 432.479H975.701C975.637 431.327 974.853 430.287 973.621 430.287C972.357 430.287 971.493 431.247 971.445 432.479ZM978.911 437.343V429.071H980.639V430.287L980.671 430.319C981.215 429.407 982.159 428.847 983.247 428.847C985.039 428.847 986.175 429.807 986.175 431.663V437.343H984.351V432.143C984.319 430.847 983.807 430.287 982.735 430.287C981.519 430.287 980.735 431.247 980.735 432.463V437.343H978.911ZM987.267 430.431V429.071H988.643V426.591H990.467V429.071H992.115V430.431H990.467V434.847C990.467 435.599 990.531 435.983 991.347 435.983C991.603 435.983 991.859 435.983 992.115 435.919V437.327C991.715 437.359 991.331 437.423 990.931 437.423C989.027 437.423 988.675 436.687 988.643 435.311V430.431H987.267ZM946.013 461.343V453.071H947.741V454.287L947.773 454.319C948.317 453.407 949.261 452.847 950.349 452.847C952.141 452.847 953.277 453.807 953.277 455.663V461.343H951.453V456.143C951.421 454.847 950.909 454.287 949.837 454.287C948.621 454.287 947.837 455.247 947.837 456.463V461.343H946.013ZM962.704 457.679H956.624C956.624 458.975 957.328 460.127 958.848 460.127C959.904 460.127 960.544 459.663 960.864 458.751H962.592C962.192 460.559 960.656 461.567 958.848 461.567C956.256 461.567 954.8 459.759 954.8 457.215C954.8 454.863 956.336 452.847 958.8 452.847C961.408 452.847 963.008 455.199 962.704 457.679ZM956.624 456.479H960.88C960.816 455.327 960.032 454.287 958.8 454.287C957.536 454.287 956.672 455.247 956.624 456.479ZM971.499 455.839H969.675C969.531 454.831 968.795 454.287 967.787 454.287C966.843 454.287 965.515 454.783 965.515 457.295C965.515 458.671 966.123 460.127 967.707 460.127C968.763 460.127 969.499 459.423 969.675 458.239H971.499C971.163 460.383 969.835 461.567 967.707 461.567C965.115 461.567 963.691 459.727 963.691 457.295C963.691 454.799 965.051 452.847 967.771 452.847C969.691 452.847 971.323 453.807 971.499 455.839Z" fill="#030229"/>
<path d="M935.398 232.712C935.398 270.072 905.112 300.358 867.752 300.358C830.392 300.358 800.106 270.072 800.106 232.712C800.106 195.352 830.392 165.066 867.752 165.066C905.112 165.066 935.398 195.352 935.398 232.712Z" fill="#EEF7E8" stroke="#78BF45" stroke-width="1.19727"/>
<path d="M847.493 222.978V211.554H850.309L853.461 220.498H853.493L856.565 211.554H859.349V222.978H857.445V214.162H857.413L854.245 222.978H852.597L849.429 214.162H849.397V222.978H847.493ZM865.279 221.762C866.911 221.762 867.631 220.274 867.631 218.834C867.631 217.41 866.911 215.922 865.279 215.922C863.647 215.922 862.927 217.41 862.927 218.834C862.927 220.274 863.647 221.762 865.279 221.762ZM865.279 223.202C862.623 223.202 861.103 221.378 861.103 218.834C861.103 216.306 862.623 214.482 865.279 214.482C867.935 214.482 869.455 216.306 869.455 218.834C869.455 221.378 867.935 223.202 865.279 223.202ZM870.972 222.978V214.706H872.684V216.306H872.716C872.924 215.426 874.012 214.482 875.132 214.482C875.548 214.482 875.66 214.514 875.82 214.53V216.29C875.564 216.258 875.292 216.21 875.036 216.21C873.788 216.21 872.796 217.218 872.796 219.042V222.978H870.972ZM883.819 219.314H877.739C877.739 220.61 878.443 221.762 879.963 221.762C881.019 221.762 881.659 221.298 881.979 220.386H883.707C883.307 222.194 881.771 223.202 879.963 223.202C877.371 223.202 875.915 221.394 875.915 218.85C875.915 216.498 877.451 214.482 879.915 214.482C882.523 214.482 884.123 216.834 883.819 219.314ZM877.739 218.114H881.995C881.931 216.962 881.147 215.922 879.915 215.922C878.651 215.922 877.787 216.882 877.739 218.114ZM858.67 242.866V235.554H860.67V242.21C860.67 243.746 860.766 245.522 863.358 245.522C865.95 245.522 866.046 243.746 866.046 242.21V235.554H868.046V242.866C868.046 245.794 866.174 247.25 863.358 247.25C860.542 247.25 858.67 245.794 858.67 242.866ZM869.641 244.322H871.465C871.561 245.378 872.361 245.762 873.337 245.762C874.025 245.762 875.225 245.618 875.177 244.674C875.129 243.714 873.801 243.602 872.473 243.298C871.129 243.01 869.817 242.53 869.817 240.85C869.817 239.042 871.769 238.482 873.273 238.482C874.969 238.482 876.505 239.186 876.729 241.026H874.825C874.665 240.162 873.945 239.922 873.145 239.922C872.617 239.922 871.641 240.05 871.641 240.77C871.641 241.666 872.985 241.794 874.329 242.098C875.657 242.402 877.001 242.882 877.001 244.514C877.001 246.482 875.017 247.202 873.305 247.202C871.225 247.202 869.673 246.274 869.641 244.322Z" fill="#030229"/>
<path d="M809.685 106.999C809.685 144.358 779.399 174.644 742.039 174.644C704.68 174.644 674.394 144.358 674.394 106.999C674.394 69.6388 704.68 39.3528 742.039 39.3528C779.399 39.3528 809.685 69.6388 809.685 106.999Z" fill="#EEF7E8" stroke="#78BF45" stroke-width="1.19727"/>
<path d="M707.8 106.431V109.999H711.336C712.552 109.999 713.256 109.343 713.256 108.191C713.256 107.071 712.552 106.431 711.336 106.431H707.8ZM705.8 111.631V100.207H711.352C713.4 100.207 714.744 101.135 714.744 103.039C714.744 104.191 714.152 105.023 713.112 105.471V105.503C714.504 105.807 715.256 106.895 715.256 108.447C715.256 110.239 714.008 111.631 711.048 111.631H705.8ZM707.8 101.839V104.991H711.064C712.024 104.991 712.744 104.431 712.744 103.407C712.744 102.255 712.152 101.839 711.064 101.839H707.8ZM724.074 103.359V111.631H722.282V110.479H722.25C721.802 111.311 720.81 111.855 719.898 111.855C717.738 111.855 716.81 110.767 716.81 108.607V103.359H718.634V108.431C718.634 109.887 719.226 110.415 720.218 110.415C721.738 110.415 722.25 109.439 722.25 108.159V103.359H724.074ZM729.597 110.191C731.213 110.191 731.821 108.719 731.821 107.311C731.821 105.887 731.181 104.575 729.597 104.575C727.981 104.575 727.421 106.079 727.421 107.455C727.421 108.815 728.077 110.191 729.597 110.191ZM733.645 103.359V111.199C733.645 113.679 732.189 114.911 729.581 114.911C727.917 114.911 726.045 114.271 725.885 112.335H727.709C727.933 113.375 728.765 113.551 729.693 113.551C731.165 113.551 731.821 112.799 731.821 111.439V110.175H731.789C731.277 111.087 730.333 111.631 729.309 111.631C726.685 111.631 725.597 109.647 725.597 107.279C725.597 105.055 726.989 103.135 729.341 103.135C730.381 103.135 731.325 103.567 731.789 104.495H731.821V103.359H733.645ZM739.119 104.719V103.359H740.479V102.671C740.479 100.559 741.583 100.207 742.767 100.207C743.343 100.207 743.759 100.239 744.047 100.319V101.743C743.807 101.679 743.567 101.647 743.199 101.647C742.703 101.647 742.303 101.823 742.303 102.511V103.359H743.855V104.719H742.303V111.631H740.479V104.719H739.119ZM750.085 108.847V107.487C749.525 107.855 748.645 107.839 747.845 107.983C747.061 108.111 746.357 108.399 746.357 109.359C746.357 110.175 747.397 110.415 748.037 110.415C748.837 110.415 750.085 109.999 750.085 108.847ZM751.909 105.535V109.791C751.909 110.239 752.005 110.415 752.341 110.415C752.453 110.415 752.597 110.415 752.789 110.383V111.647C752.517 111.743 751.941 111.855 751.637 111.855C750.901 111.855 750.373 111.599 750.229 110.847C749.509 111.551 748.341 111.855 747.365 111.855C745.877 111.855 744.533 111.055 744.533 109.439C744.533 107.375 746.181 107.039 747.717 106.863C749.029 106.623 750.197 106.767 750.197 105.695C750.197 104.751 749.221 104.575 748.485 104.575C747.461 104.575 746.741 104.991 746.661 105.887H744.837C744.965 103.759 746.773 103.135 748.597 103.135C750.213 103.135 751.909 103.791 751.909 105.535ZM761.28 106.127H759.456C759.312 105.119 758.576 104.575 757.568 104.575C756.624 104.575 755.296 105.071 755.296 107.583C755.296 108.959 755.904 110.415 757.488 110.415C758.544 110.415 759.28 109.711 759.456 108.527H761.28C760.944 110.671 759.616 111.855 757.488 111.855C754.896 111.855 753.472 110.015 753.472 107.583C753.472 105.087 754.832 103.135 757.552 103.135C759.472 103.135 761.104 104.095 761.28 106.127ZM770.267 107.967H764.187C764.187 109.263 764.891 110.415 766.411 110.415C767.467 110.415 768.107 109.951 768.427 109.039H770.155C769.755 110.847 768.219 111.855 766.411 111.855C763.819 111.855 762.363 110.047 762.363 107.503C762.363 105.151 763.899 103.135 766.363 103.135C768.971 103.135 770.571 105.487 770.267 107.967ZM764.187 106.767H768.443C768.379 105.615 767.595 104.575 766.363 104.575C765.099 104.575 764.235 105.535 764.187 106.767ZM773.077 107.583C773.077 109.007 773.781 110.415 775.365 110.415C776.997 110.415 777.685 108.927 777.685 107.487C777.685 105.663 776.805 104.575 775.397 104.575C773.685 104.575 773.077 106.095 773.077 107.583ZM779.445 100.207V111.631H777.717V110.511H777.685C777.205 111.455 776.165 111.855 775.125 111.855C772.517 111.855 771.253 109.919 771.253 107.439C771.253 104.447 773.029 103.135 774.837 103.135C775.877 103.135 777.029 103.519 777.589 104.431H777.621V100.207H779.445Z" fill="#030229"/>
<path d="M584.599 73.4751C584.599 110.835 554.313 141.121 516.953 141.121C479.594 141.121 449.308 110.835 449.308 73.4751C449.308 36.1154 479.594 5.82935 516.953 5.82935C554.313 5.82935 584.599 36.1154 584.599 73.4751Z" fill="#EEF7E8" stroke="#78BF45" stroke-width="1.19727"/>
<path d="M486.558 68.3159V76.4759H488.526C491.662 76.4759 492.334 74.6839 492.334 72.3959C492.334 70.1079 491.662 68.3159 488.526 68.3159H486.558ZM484.558 78.1079V66.6839H489.294C492.814 66.6839 494.334 69.2439 494.334 72.3959C494.334 75.5479 492.814 78.1079 489.294 78.1079H484.558ZM495.897 78.1079V69.8359H497.721V78.1079H495.897ZM495.897 68.4119V66.6839H497.721V68.4119H495.897ZM499.26 75.4519H501.084C501.18 76.5079 501.98 76.8919 502.956 76.8919C503.644 76.8919 504.844 76.7479 504.796 75.8039C504.748 74.8439 503.42 74.7319 502.092 74.4279C500.748 74.1399 499.436 73.6599 499.436 71.9799C499.436 70.1719 501.388 69.6119 502.892 69.6119C504.588 69.6119 506.124 70.3159 506.348 72.1559H504.444C504.284 71.2919 503.564 71.0519 502.764 71.0519C502.236 71.0519 501.26 71.1799 501.26 71.8999C501.26 72.7959 502.604 72.9239 503.948 73.2279C505.276 73.5319 506.62 74.0119 506.62 75.6439C506.62 77.6119 504.636 78.3319 502.924 78.3319C500.844 78.3319 499.292 77.4039 499.26 75.4519ZM515.413 72.6039H513.589C513.445 71.5959 512.709 71.0519 511.701 71.0519C510.757 71.0519 509.429 71.5479 509.429 74.0599C509.429 75.4359 510.037 76.8919 511.621 76.8919C512.677 76.8919 513.413 76.1879 513.589 75.0039H515.413C515.077 77.1479 513.749 78.3319 511.621 78.3319C509.029 78.3319 507.605 76.4919 507.605 74.0599C507.605 71.5639 508.965 69.6119 511.685 69.6119C513.605 69.6119 515.237 70.5719 515.413 72.6039ZM520.688 76.8919C522.32 76.8919 523.04 75.4039 523.04 73.9639C523.04 72.5399 522.32 71.0519 520.688 71.0519C519.056 71.0519 518.336 72.5399 518.336 73.9639C518.336 75.4039 519.056 76.8919 520.688 76.8919ZM520.688 78.3319C518.032 78.3319 516.512 76.5079 516.512 73.9639C516.512 71.4359 518.032 69.6119 520.688 69.6119C523.344 69.6119 524.864 71.4359 524.864 73.9639C524.864 76.5079 523.344 78.3319 520.688 78.3319ZM533.644 69.8359V78.1079H531.852V76.9559H531.82C531.372 77.7879 530.38 78.3319 529.468 78.3319C527.308 78.3319 526.38 77.2439 526.38 75.0839V69.8359H528.204V74.9079C528.204 76.3639 528.796 76.8919 529.788 76.8919C531.308 76.8919 531.82 75.9159 531.82 74.6359V69.8359H533.644ZM535.567 78.1079V69.8359H537.295V71.0519L537.327 71.0839C537.871 70.1719 538.815 69.6119 539.903 69.6119C541.695 69.6119 542.831 70.5719 542.831 72.4279V78.1079H541.007V72.9079C540.975 71.6119 540.463 71.0519 539.391 71.0519C538.175 71.0519 537.391 72.0119 537.391 73.2279V78.1079H535.567ZM543.923 71.1959V69.8359H545.299V67.3559H547.123V69.8359H548.771V71.1959H547.123V75.6119C547.123 76.3639 547.187 76.7479 548.003 76.7479C548.259 76.7479 548.515 76.7479 548.771 76.6839V78.0919C548.371 78.1239 547.987 78.1879 547.587 78.1879C545.683 78.1879 545.331 77.4519 545.299 76.0759V71.1959H543.923Z" fill="#030229"/>
<path d="M377.47 326.099C377.47 363.459 347.184 393.745 309.824 393.745C272.465 393.745 242.179 363.459 242.179 326.099C242.179 288.739 272.465 258.453 309.824 258.453C347.184 258.453 377.47 288.739 377.47 326.099Z" fill="#EEF7E8" stroke="#78BF45" stroke-width="1.19727"/>
<path d="M282.185 316.364V304.94H284.185V316.364H282.185ZM286.382 316.364V308.092H288.11V309.308L288.142 309.34C288.686 308.428 289.63 307.868 290.718 307.868C292.51 307.868 293.646 308.828 293.646 310.684V316.364H291.822V311.164C291.79 309.868 291.278 309.308 290.206 309.308C288.99 309.308 288.206 310.268 288.206 311.484V316.364H286.382ZM294.737 309.452V308.092H296.113V305.612H297.937V308.092H299.585V309.452H297.937V313.868C297.937 314.62 298.001 315.004 298.817 315.004C299.073 315.004 299.329 315.004 299.585 314.94V316.348C299.185 316.38 298.801 316.444 298.401 316.444C296.497 316.444 296.145 315.708 296.113 314.332V309.452H294.737ZM308.402 312.7H302.322C302.322 313.996 303.026 315.148 304.546 315.148C305.602 315.148 306.242 314.684 306.562 313.772H308.29C307.89 315.58 306.354 316.588 304.546 316.588C301.954 316.588 300.498 314.78 300.498 312.236C300.498 309.884 302.034 307.868 304.498 307.868C307.106 307.868 308.706 310.22 308.402 312.7ZM302.322 311.5H306.578C306.514 310.348 305.73 309.308 304.498 309.308C303.234 309.308 302.37 310.268 302.322 311.5ZM309.788 316.364V308.092H311.5V309.692H311.532C311.74 308.812 312.828 307.868 313.948 307.868C314.364 307.868 314.476 307.9 314.636 307.916V309.676C314.38 309.644 314.108 309.596 313.852 309.596C312.604 309.596 311.612 310.604 311.612 312.428V316.364H309.788ZM320.517 313.58V312.22C319.957 312.588 319.077 312.572 318.277 312.716C317.493 312.844 316.789 313.132 316.789 314.092C316.789 314.908 317.829 315.148 318.469 315.148C319.269 315.148 320.517 314.732 320.517 313.58ZM322.341 310.268V314.524C322.341 314.972 322.437 315.148 322.773 315.148C322.885 315.148 323.029 315.148 323.221 315.116V316.38C322.949 316.476 322.373 316.588 322.069 316.588C321.333 316.588 320.805 316.332 320.661 315.58C319.941 316.284 318.773 316.588 317.797 316.588C316.309 316.588 314.965 315.788 314.965 314.172C314.965 312.108 316.613 311.772 318.149 311.596C319.461 311.356 320.629 311.5 320.629 310.428C320.629 309.484 319.653 309.308 318.917 309.308C317.893 309.308 317.173 309.724 317.093 310.62H315.269C315.397 308.492 317.205 307.868 319.029 307.868C320.645 307.868 322.341 308.524 322.341 310.268ZM331.712 310.86H329.888C329.744 309.852 329.008 309.308 328 309.308C327.056 309.308 325.728 309.804 325.728 312.316C325.728 313.692 326.336 315.148 327.92 315.148C328.976 315.148 329.712 314.444 329.888 313.26H331.712C331.376 315.404 330.048 316.588 327.92 316.588C325.328 316.588 323.904 314.748 323.904 312.316C323.904 309.82 325.264 307.868 327.984 307.868C329.904 307.868 331.536 308.828 331.712 310.86ZM332.362 309.452V308.092H333.738V305.612H335.562V308.092H337.21V309.452H335.562V313.868C335.562 314.62 335.626 315.004 336.442 315.004C336.698 315.004 336.954 315.004 337.21 314.94V316.348C336.81 316.38 336.426 316.444 336.026 316.444C334.122 316.444 333.77 315.708 333.738 314.332V309.452H332.362ZM338.571 316.364V308.092H340.395V316.364H338.571ZM338.571 306.668V304.94H340.395V306.668H338.571ZM302.463 339.148C304.095 339.148 304.815 337.66 304.815 336.22C304.815 334.796 304.095 333.308 302.463 333.308C300.831 333.308 300.111 334.796 300.111 336.22C300.111 337.66 300.831 339.148 302.463 339.148ZM302.463 340.588C299.807 340.588 298.287 338.764 298.287 336.22C298.287 333.692 299.807 331.868 302.463 331.868C305.119 331.868 306.639 333.692 306.639 336.22C306.639 338.764 305.119 340.588 302.463 340.588ZM308.155 340.364V332.092H309.883V333.308L309.915 333.34C310.459 332.428 311.403 331.868 312.491 331.868C314.283 331.868 315.419 332.828 315.419 334.684V340.364H313.595V335.164C313.563 333.868 313.051 333.308 311.979 333.308C310.763 333.308 309.979 334.268 309.979 335.484V340.364H308.155ZM316.895 337.708H318.719C318.815 338.764 319.615 339.148 320.591 339.148C321.279 339.148 322.479 339.004 322.431 338.06C322.383 337.1 321.055 336.988 319.727 336.684C318.383 336.396 317.071 335.916 317.071 334.236C317.071 332.428 319.023 331.868 320.527 331.868C322.223 331.868 323.759 332.572 323.983 334.412H322.079C321.919 333.548 321.199 333.308 320.399 333.308C319.871 333.308 318.895 333.436 318.895 334.156C318.895 335.052 320.239 335.18 321.583 335.484C322.911 335.788 324.255 336.268 324.255 337.9C324.255 339.868 322.271 340.588 320.559 340.588C318.479 340.588 316.927 339.66 316.895 337.708Z" fill="#030229"/>
<g opacity="0.4">
<path d="M278.097 68.686C278.097 106.046 247.811 136.332 210.451 136.332C173.092 136.332 142.806 106.046 142.806 68.686C142.806 31.3263 173.092 1.04029 210.451 1.04029C247.811 1.04029 278.097 31.3263 278.097 68.686Z" fill="#EEF7E8" stroke="#78BF45" stroke-width="1.19727"/>
<path d="M174.706 69.5108H176.706C176.706 71.2708 178.002 71.9588 179.602 71.9588C181.362 71.9588 182.018 71.0948 182.018 70.2308C182.018 69.3508 181.538 68.9988 181.074 68.8228C180.274 68.5188 179.234 68.3108 177.666 67.8788C175.714 67.3508 175.138 66.1668 175.138 64.9828C175.138 62.6948 177.25 61.6228 179.314 61.6228C181.698 61.6228 183.698 62.8868 183.698 65.2708H181.698C181.602 63.7988 180.61 63.2548 179.234 63.2548C178.306 63.2548 177.138 63.5908 177.138 64.7428C177.138 65.5428 177.682 65.9908 178.498 66.2148C178.674 66.2628 181.202 66.9188 181.794 67.0948C183.298 67.5428 184.018 68.8228 184.018 70.0068C184.018 72.5668 181.746 73.5908 179.474 73.5908C176.866 73.5908 174.754 72.3428 174.706 69.5108ZM190.617 70.5348V69.1748C190.057 69.5428 189.177 69.5268 188.377 69.6708C187.593 69.7988 186.889 70.0868 186.889 71.0468C186.889 71.8628 187.929 72.1028 188.569 72.1028C189.369 72.1028 190.617 71.6868 190.617 70.5348ZM192.441 67.2228V71.4788C192.441 71.9268 192.537 72.1028 192.873 72.1028C192.985 72.1028 193.129 72.1028 193.321 72.0708V73.3348C193.049 73.4308 192.473 73.5428 192.169 73.5428C191.433 73.5428 190.905 73.2868 190.761 72.5348C190.041 73.2388 188.873 73.5428 187.897 73.5428C186.409 73.5428 185.065 72.7428 185.065 71.1268C185.065 69.0628 186.713 68.7268 188.249 68.5508C189.561 68.3108 190.729 68.4548 190.729 67.3828C190.729 66.4388 189.753 66.2628 189.017 66.2628C187.993 66.2628 187.273 66.6788 187.193 67.5748H185.369C185.497 65.4468 187.305 64.8228 189.129 64.8228C190.745 64.8228 192.441 65.4788 192.441 67.2228ZM194.451 73.3188V61.8948H196.275V73.3188H194.451ZM205.767 69.6548H199.687C199.687 70.9508 200.391 72.1028 201.911 72.1028C202.967 72.1028 203.607 71.6388 203.927 70.7268H205.655C205.255 72.5348 203.719 73.5428 201.911 73.5428C199.319 73.5428 197.863 71.7348 197.863 69.1908C197.863 66.8388 199.399 64.8228 201.863 64.8228C204.471 64.8228 206.071 67.1748 205.767 69.6548ZM199.687 68.4548H203.943C203.879 67.3028 203.095 66.2628 201.863 66.2628C200.599 66.2628 199.735 67.2228 199.687 68.4548ZM206.705 70.6628H208.529C208.625 71.7188 209.425 72.1028 210.401 72.1028C211.089 72.1028 212.289 71.9588 212.241 71.0148C212.193 70.0548 210.865 69.9428 209.537 69.6388C208.193 69.3508 206.881 68.8708 206.881 67.1908C206.881 65.3828 208.833 64.8228 210.337 64.8228C212.033 64.8228 213.569 65.5268 213.793 67.3668H211.889C211.729 66.5028 211.009 66.2628 210.209 66.2628C209.681 66.2628 208.705 66.3908 208.705 67.1108C208.705 68.0068 210.049 68.1348 211.393 68.4388C212.721 68.7428 214.065 69.2228 214.065 70.8548C214.065 72.8228 212.081 73.5428 210.369 73.5428C208.289 73.5428 206.737 72.6148 206.705 70.6628ZM229.871 65.5268H227.871C227.535 64.2148 226.687 63.2548 225.023 63.2548C222.575 63.2548 221.551 65.4148 221.551 67.6068C221.551 69.7988 222.575 71.9588 225.023 71.9588C226.799 71.9588 227.775 70.6308 227.935 68.9668H229.887C229.727 71.7028 227.791 73.5908 225.023 73.5908C221.599 73.5908 219.551 70.8708 219.551 67.6068C219.551 64.3428 221.599 61.6228 225.023 61.6228C227.599 61.6388 229.631 63.0628 229.871 65.5268ZM236.554 70.5348V69.1748C235.994 69.5428 235.114 69.5268 234.314 69.6708C233.53 69.7988 232.826 70.0868 232.826 71.0468C232.826 71.8628 233.866 72.1028 234.506 72.1028C235.306 72.1028 236.554 71.6868 236.554 70.5348ZM238.378 67.2228V71.4788C238.378 71.9268 238.474 72.1028 238.81 72.1028C238.922 72.1028 239.066 72.1028 239.258 72.0708V73.3348C238.986 73.4308 238.41 73.5428 238.106 73.5428C237.37 73.5428 236.842 73.2868 236.698 72.5348C235.978 73.2388 234.81 73.5428 233.834 73.5428C232.346 73.5428 231.002 72.7428 231.002 71.1268C231.002 69.0628 232.65 68.7268 234.186 68.5508C235.498 68.3108 236.666 68.4548 236.666 67.3828C236.666 66.4388 235.69 66.2628 234.954 66.2628C233.93 66.2628 233.21 66.6788 233.13 67.5748H231.306C231.434 65.4468 233.242 64.8228 235.066 64.8228C236.682 64.8228 238.378 65.4788 238.378 67.2228ZM240.389 73.3188V61.8948H242.213V73.3188H240.389ZM244.248 73.3188V61.8948H246.072V73.3188H244.248Z" fill="#030229"/>
</g>
<g opacity="0.4">
<path d="M136.82 200.386C136.82 237.745 106.534 268.031 69.174 268.031C31.8143 268.031 1.52832 237.745 1.52832 200.386C1.52832 163.026 31.8143 132.74 69.174 132.74C106.534 132.74 136.82 163.026 136.82 200.386Z" fill="#EEF7E8" stroke="#78BF45" stroke-width="1.19727"/>
<path d="M39.0539 205.019V193.595H41.0539V205.019H39.0539ZM42.803 202.363H44.627C44.723 203.419 45.523 203.803 46.499 203.803C47.187 203.803 48.387 203.659 48.339 202.715C48.291 201.755 46.963 201.643 45.635 201.339C44.291 201.051 42.979 200.571 42.979 198.891C42.979 197.083 44.931 196.523 46.435 196.523C48.131 196.523 49.667 197.227 49.891 199.067H47.987C47.827 198.203 47.107 197.963 46.307 197.963C45.779 197.963 44.803 198.091 44.803 198.811C44.803 199.707 46.147 199.835 47.491 200.139C48.819 200.443 50.163 200.923 50.163 202.555C50.163 204.523 48.179 205.243 46.467 205.243C44.387 205.243 42.835 204.315 42.803 202.363ZM55.569 201.211H57.569C57.569 202.971 58.865 203.659 60.465 203.659C62.225 203.659 62.881 202.795 62.881 201.931C62.881 201.051 62.401 200.699 61.937 200.523C61.137 200.219 60.097 200.011 58.529 199.579C56.577 199.051 56.001 197.867 56.001 196.683C56.001 194.395 58.113 193.323 60.177 193.323C62.561 193.323 64.561 194.587 64.561 196.971H62.561C62.465 195.499 61.473 194.955 60.097 194.955C59.169 194.955 58.001 195.291 58.001 196.443C58.001 197.243 58.545 197.691 59.361 197.915C59.537 197.963 62.065 198.619 62.657 198.795C64.161 199.243 64.881 200.523 64.881 201.707C64.881 204.267 62.609 205.291 60.337 205.291C57.729 205.291 55.617 204.043 55.569 201.211ZM73.88 201.355H67.8C67.8 202.651 68.504 203.803 70.024 203.803C71.08 203.803 71.72 203.339 72.04 202.427H73.768C73.368 204.235 71.832 205.243 70.024 205.243C67.432 205.243 65.976 203.435 65.976 200.891C65.976 198.539 67.512 196.523 69.976 196.523C72.584 196.523 74.184 198.875 73.88 201.355ZM67.8 200.155H72.056C71.992 199.003 71.208 197.963 69.976 197.963C68.712 197.963 67.848 198.923 67.8 200.155ZM75.2666 205.019V196.747H76.9946V197.963L77.0266 197.995C77.5706 197.083 78.5146 196.523 79.6026 196.523C81.3946 196.523 82.5306 197.483 82.5306 199.339V205.019H80.7066V199.819C80.6746 198.523 80.1626 197.963 79.0906 197.963C77.8746 197.963 77.0906 198.923 77.0906 200.139V205.019H75.2666ZM84.5021 205.019V196.747H86.3261V205.019H84.5021ZM84.5021 195.323V193.595H86.3261V195.323H84.5021ZM92.1055 203.803C93.7375 203.803 94.4575 202.315 94.4575 200.875C94.4575 199.451 93.7375 197.963 92.1055 197.963C90.4735 197.963 89.7535 199.451 89.7535 200.875C89.7535 202.315 90.4735 203.803 92.1055 203.803ZM92.1055 205.243C89.4495 205.243 87.9295 203.419 87.9295 200.875C87.9295 198.347 89.4495 196.523 92.1055 196.523C94.7615 196.523 96.2815 198.347 96.2815 200.875C96.2815 203.419 94.7615 205.243 92.1055 205.243ZM97.7979 205.019V196.747H99.5099V198.347H99.5419C99.7499 197.467 100.838 196.523 101.958 196.523C102.374 196.523 102.486 196.555 102.646 196.571V198.331C102.39 198.299 102.118 198.251 101.862 198.251C100.614 198.251 99.6219 199.259 99.6219 201.083V205.019H97.7979Z" fill="#030229"/>
</g>
</svg>
